<?xml version="1.0" encoding="utf-8"?>
<!-- Generator: Adobe Illustrator 15.1.0, SVG Export Plug-In . SVG Version: 6.00 Build 0)  -->
<!DOCTYPE svg PUBLIC "-//W3C//DTD SVG 1.1//EN" "http://www.w3.org/Graphics/SVG/1.1/DTD/svg11.dtd">
<svg version="1.1" id="Layer_1" xmlns="http://www.w3.org/2000/svg" xmlns:xlink="http://www.w3.org/1999/xlink" x="0px" y="0px"
	 width="311.81px" height="259.5px" viewBox="0 0 311.81 259.5" enable-background="new 0 0 311.81 259.5" xml:space="preserve">
<g id="AVqVCO_1_">
	<g>
		<path fill-rule="evenodd" clip-rule="evenodd" fill="#001E39" d="M195.054,77.686c2.386-0.067,4.312,0.004,6.259,1.502
			c1.226,0.943,2.704,4.372,2.625,5.938c-0.056,1.106-0.511,4.49-1.626,5.539c-0.783,0.737-2.187,1.211-3.108,1.211
			c-2.039-0.209-5.203-1.125-6.037-4.208C192.332,83.634,193.593,80.947,195.054,77.686z M198.031,87.313
			c-0.064-1.698-1.027-4.825-0.634-6.49C196.532,82.519,195.381,86.508,198.031,87.313z M199.477,81.689
			c-1.594,1.916,0.69,3.271,0.329,5.834C201.876,86.818,201.473,81.591,199.477,81.689z"/>
		<path fill-rule="evenodd" clip-rule="evenodd" fill="#001E39" d="M91.845,83.618c0.864-1.362-0.07-3.224,0-5.118
			c2.309-3.797,10.405-0.267,8.758,3.277C98.734,84.738,95,86.25,91.845,83.618z M94.909,82.918c0.936-0.01,1.074-0.862,1.337-1.582
			c-0.196-0.023-0.382-0.059-0.314-0.332c-0.476,0.131-0.563,0.191-0.805-0.183C94.688,81.599,95.371,82.164,94.909,82.918z"/>
		<path fill-rule="evenodd" clip-rule="evenodd" fill="#001E39" d="M70.409,121.419c0.051,0.829-0.472,1.054-0.533,1.766
			c-0.866,0.011-0.735-0.337-1.438-0.686C68.645,121.591,69.482,121.094,70.409,121.419z"/>
		<path fill-rule="evenodd" clip-rule="evenodd" fill="#001E39" d="M237.372,128.665c0.459,0.505,0.193,1.172-0.204,1.613
			c-0.53-0.077-0.701-0.492-1.115-0.678C236.253,129.037,236.564,128.586,237.372,128.665z"/>
		<path fill-rule="evenodd" clip-rule="evenodd" fill="#001E39" d="M236.013,131.055c0.2,0.385-0.092,0.36,0.308,0.655
			c0.295-0.328,0.843-0.985,1.468-0.445c0.113,0.562-0.198,0.678-0.352,0.961c-0.562,0.113-0.675-0.198-0.961-0.35
			c-0.362,0.17-0.454,0.628-0.828,0.787c-0.345-0.447-0.537-0.059-0.962-0.35C234.614,131.353,235.057,130.933,236.013,131.055z"/>
		<path fill-rule="evenodd" clip-rule="evenodd" fill="#001E39" d="M192.691,135.392c-0.397,1.609-0.624,2.376-1.391,3.522
			c-0.383-0.108-0.731-0.253-1.288-0.198C189.43,136.695,190.992,133.994,192.691,135.392z"/>
		<path fill-rule="evenodd" clip-rule="evenodd" fill="#001E39" d="M180.519,148.818c-0.379-0.01-0.756-0.021-1.134-0.03
			c-0.992-3.084-0.193-8.719,1.122-11.62c3.781,1.941-0.101,6.728,0.858,10.217C181.383,148.233,180.055,147.981,180.519,148.818z"
			/>
		<path fill-rule="evenodd" clip-rule="evenodd" fill="#001E39" d="M196.302,139.534c-1.045,0.584-1.911-0.345-2.923,0.407
			c0.223,3.102,3.961,6.942,0.559,9.237c-1.039,0.093-1.639-0.233-2.582-0.23c-0.605-0.632-1.156-1.322-1.727-1.988
			c0.341-0.306,0.281-1.034,0.524-1.444c1.286-0.626,1.481,0.823,2.399,1.036c0.146-0.12,0.371-0.163,0.65-0.144
			c0.502-2.476-2.452-3.568-2.268-5.886C191.13,138.056,195.474,135.98,196.302,139.534z"/>
		<path fill-rule="evenodd" clip-rule="evenodd" fill="#001E39" d="M237.202,140.959c-0.756-0.083-0.927,0.259-1.288-0.197
			C235.694,138.88,238.006,139.535,237.202,140.959z"/>
		<path fill-rule="evenodd" clip-rule="evenodd" fill="#001E39" d="M189.366,138.7c0.127,0.392-0.038,1.59-0.053,1.939
			c-0.442,0.038-1.156,0.034-1.944,0.111c-0.867,2.611-0.263,5.64-1.175,7.572c-2.815-0.011-0.944-5.188-1.102-7.15
			c-0.551-0.213-1.22-0.316-1.767-0.531c-0.269-0.821,0.086-1.325,0.541-2.091C185.934,138.363,187.775,138.555,189.366,138.7z"/>
		<path fill-rule="evenodd" clip-rule="evenodd" fill="#001E39" d="M234.788,140.569c0.374,0.248,0.289,0.349,0.803,0.184
			c0.219,0.878,0.67,1.779-0.071,2.589C234.642,142.921,233.922,141.261,234.788,140.569z"/>
		<path fill-rule="evenodd" clip-rule="evenodd" fill="#001E39" d="M69.769,139.202c1.943,0.167,1.125,2.526,0.079,3.076
			c-0.482-0.015-0.538-0.436-0.956-0.512C69.198,140.587,69.167,140.07,69.769,139.202z"/>
		<path fill-rule="evenodd" clip-rule="evenodd" fill="#001E39" d="M235.692,149.008c-0.337-0.259-0.708-0.483-1.115-0.676
			c0.19-0.989,0.062-1.214-0.104-2.107C236.018,144.716,237.041,148.122,235.692,149.008z"/>
		<path fill-rule="evenodd" clip-rule="evenodd" fill="#001E39" d="M70.77,144.085c0.333,0.766-0.083,1.659-0.542,2.088
			C68.307,146.132,69.366,143.356,70.77,144.085z"/>
		<path fill-rule="evenodd" clip-rule="evenodd" fill="#001E39" d="M236.029,154.52C232.726,154.751,236.77,151.089,236.029,154.52
			L236.029,154.52z"/>
		<path fill-rule="evenodd" clip-rule="evenodd" fill="#001E39" d="M236.274,157.439
			C233.528,159.417,234.725,153.858,236.274,157.439L236.274,157.439z"/>
		<path fill-rule="evenodd" clip-rule="evenodd" fill="#001E39" d="M70.79,155.41c-0.19,0.601,0.388,0.473,0.296,0.98
			c-0.342,0.546-1.459,0.609-1.945,0.109c-0.08-0.527,0.13-0.75,0.192-1.129C70.108,155.32,70.017,155.317,70.79,155.41z"/>
		<path fill-rule="evenodd" clip-rule="evenodd" fill="#001E39" d="M71.833,158.675c-0.512,0.188-1.09,0.401-1.621,0.12
			C69.656,156.66,72.666,157.282,71.833,158.675z"/>
		<path fill-rule="evenodd" clip-rule="evenodd" fill="#001E39" d="M97.282,163.082c1.024,1.996,0.242,4.531-2.229,4.633
			c-0.71-0.48-1.291-1.087-1.564-1.983c0.366-0.054,0.003-1.01,0.498-0.472C93.557,163.595,95.875,162.313,97.282,163.082z
			 M96.072,165.964c-0.114-0.565,0.257-0.616,0.192-1.129c-0.207-0.015-0.218-0.213-0.48-0.174
			C95.404,164.868,95.116,166.165,96.072,165.964z"/>
		<path fill-rule="evenodd" clip-rule="evenodd" fill="#001E39" d="M236.266,169.737c-0.065,0.803-1.468,1.062-1.952,0.432
			C234.031,168.259,235.893,168.725,236.266,169.737z"/>
		<path fill-rule="evenodd" clip-rule="evenodd" fill="#001E39" d="M187.729,181.536c-0.837-0.491-1.099-0.551-1.916-1.021
			c-1.098-1.217-1.107-3.468-1.474-5.381c-0.241-3.003,2.723-9.582,6.175-6.953c0.828,0.631,1.375,3.204,1.495,4.573
			c0.258,2.915-0.459,5.775-1.499,7.563C189.473,180.607,188.812,181.296,187.729,181.536z M188.278,179.125
			c1.612-1.803,2.615-7.052,0.575-9.371C185.852,170.559,184.978,178.201,188.278,179.125z"/>
		<path fill-rule="evenodd" clip-rule="evenodd" fill="#001E39" d="M93.07,169.28c0.965-0.032,1.368,0.697,2.416,0.388
			c1.053,1.467,0.173,2.931-0.283,4.524c-0.61-0.023-1.255,0.585-2.439,0.419C90.969,173.275,91.982,170.542,93.07,169.28z
			 M93.464,172.688c1.023,0.139,0.988-0.842,1.018-1.751C93.296,170.643,93.381,172.146,93.464,172.688z"/>
		<path fill-rule="evenodd" clip-rule="evenodd" fill="#001E39" d="M236.778,174.768c-0.692,0.614-1.581-0.081-2.089-0.542
			C234.564,172.429,237.33,173.032,236.778,174.768z"/>
		<path fill-rule="evenodd" clip-rule="evenodd" fill="#001E39" d="M72.172,176.162c-0.068,0.538-0.302,0.9-0.677,1.114
			c-0.693-0.183-1.244-0.503-1.092-1.487C70.981,175.374,71.986,175.395,72.172,176.162z"/>
		<path fill-rule="evenodd" clip-rule="evenodd" fill="#001E39" d="M50.371,198.553c0.589-0.407,0.077-0.944,0.209-1.773
			c4.735-3.817,9.353-7.758,13.752-11.929c-0.206-4.927-1.316-11.873-0.854-16.366c0.039-0.375-0.081-1.185,0.517-1.119
			c-0.093-0.544-0.482-0.805-0.613-1.312c0.018-14.073-1.642-28.081-2.26-42.295c-2.261,0.718-5.177-0.614-7.075-1.647
			c-1.946-1.951-4.587-4.957-4.944-8.709c-0.287-3.02-0.133-6.21-0.241-9.069c-0.18-0.564-0.978-0.543-1.433-0.847
			c-1.843-11.689-2.191-25.197-5.17-36.387c-0.067-0.681,0.307-0.896,0.362-1.446c-0.212-0.745-0.77-1.161-0.918-1.967
			c2.872-2.958,7.651-3.898,10.383-7.002c7.61,2.484,17.453,0.904,25.349,2.138c0.465-0.341,0.561-1.07,0.852-1.595
			c7.106-3.032,10.677-9.797,16.876-13.785c0.177-0.369,0.571-0.507,0.516-1.12c2.151-1.111,3.495-3.073,5.615-4.217
			c0.324-0.602,0.737-1.108,1.175-1.587c0.542,0.614,0.943-0.325,1.775,0.209c0.387-0.423,0.497-1.139,1.009-1.43
			c15.453,3.541,31.477,7.878,47.773,10.672c0.422-2.983,0.25-7.691,0.473-11.638c-6.97-1.616-12.173-7.534-19.517-8.293
			c-1.443-0.627-3.28-1.028-2.841-2.666c0.39-1.448,4.121-1.52,3.964-2.967c0.921-0.47,1.95-0.136,3.08-0.24
			c6.224-0.576,9.943-7.865,17.193-7.467c0.475,0.443,0.849,0.983,1.254,1.49c0.917,10.168-0.288,23.415,1.065,32.555
			c12.281,2.051,22.811,4.446,33.149,6.879c0.832-3.187,0.113-6.453-0.216-10.039c-0.66-0.206-1.034-0.439-1.773-0.209
			c-3.701-2.654-10.819-2.985-14.924-4.608c-0.9-1.823,0.703-3.086,0.769-4.511c5.159-2.231,9.62-6.566,14.026-10.141
			c1.043,0.223,1.738,0.001,2.441-0.582c0.643,0.287,1.258,0.597,2.087,0.704c1.552,4.966,0.851,11.421,0.99,17.341
			c0.104,4.453,1.094,7.969,0.778,13.129c0.755,0.493,1.486,1.007,2.224,1.516c9.856-0.596,19.832-0.547,29.79-0.493
			c-0.006-1.68,0.403-3.93,0.313-5.655c-4.029,0.68-8.565-3.196-14.489-2.817c-0.232-0.567-0.969-0.656-1.428-1.009
			c-0.228-0.362,0.051-1.205-0.451-1.307c0.206-0.783,1.056-0.881,1.181-1.749c5.644-2.97,9.179-9.047,14.396-11.91
			c1.309-0.186,1.785,1.257,2.702,1.853c0.577,0.375,1.171,0.134,1.596,0.851c1.031,1.748-0.183,8.682-0.463,11.154
			c0.557,3.424,0.697,5.362,0.889,9.086c-0.155,0.5-0.464,0.842-0.683,1.276c6.321,0.235,16.298-0.387,22.674-0.684
			c3.422-0.16,3.445,1.016,5.905,3.071c1.541,1.288,4.474,2.325,3.116,4.454c2.742,2.754,0.778,8.19,0.621,12.961
			c-0.183,5.571-0.201,10.337-0.416,15.523c-0.067,1.566-0.951,3.064-0.931,4.506c0.021,1.668,0.154,3.169,0.196,4.698
			c0.085,3.164,2.944,5.006,4.821,7.25c0.426,2.104,1.209,4.88,1.783,5.874c0.639,4.252-1.533,10.063-4.819,10.712
			c-2.596,0.512-4.45-2.336-6.039-4.046c-0.157,5.833-6.391,6.416-11.018,6.5c0.651,4.07-1.679,10.35-1.23,15.664
			c-1.253,3.856,0.62,7.741-1.114,11.297c0.335,0.499,0.16,1.13,0.6,1.795c-0.582,9.493,0.052,17.089,0.742,26.559
			c0.096,1.301-0.348,2.772-0.104,3.882c0.579,2.65,4.244,4.183,6.307,6.156c1.068,1.021,1.678,2.385,3.002,2.669
			c1.215,2.366,2.392,6.274,2.16,9.93c0.777,0.314,1.269,0.901,1.74,1.503c-1.086,5.966-3.159,12.681-5.504,18.139
			c-0.307,1.258-0.368,2.984-1.377,3.037c-1.303,0.065-0.845-2.182-1.53-3.277c-0.294-0.472-1.069-0.525-1.429-1.01
			c-0.633-0.85-0.876-3.264-2.173-3.457c-0.256,3.53-0.354,7.29-0.62,10.987c-0.114,1.613-0.939,3.158-0.933,4.666
			c0.003,1.058,0.908,2.093,0.887,3.101c-0.031,1.406-1.156,2.565-1.876,3.509c-4.374,0.648-9.364-1.648-13.096-0.353
			c-3.097-1.631-7.108,0.18-11.168,0.023c-8.253-0.319-18.121,0.428-25.072-0.352c-12.603,0.977-24.929-1.118-35.255-0.788
			c-5.705,0.183-11.826,1.167-17.324,0.344c-5.377-0.806-10.556,0.922-16.2,0.695c-1.568-0.062-3.15-0.497-4.676-0.61
			c-7.655-0.566-15.447,0.884-23.303,0.02c-3.328-0.365-6.563,0.593-10.051,0.701c-3.325,0.103-6.473-0.444-9.396,0.395
			c-3.431-0.995-10.442,2.113-12.565-2.119c1.545-6.805,0.589-15.522,0.107-22.005c-0.954,1.78-1.938,5.92-4.243,7.33
			c-3.634-4.277-5.575-10.16-8.493-15.116c-0.447-0.386-1.016,0.16-1.779-0.048c-1.552-0.415-1.299-2.169-1.355-3.759
			C50.062,202.636,47.904,199.175,50.371,198.553z M139.545,23.762c4.583,2.486,9.702,4.464,13.881,7.333
			c-0.466-4.241,1.217-10.059-0.412-14.737C148.444,18.741,144.165,21.431,139.545,23.762z M190.245,27.877
			c-0.207-0.014-0.219-0.213-0.479-0.174c-3.412,2.996-7.274,5.517-10.432,8.781c3.437,1.267,8.054,2.021,11.235,3.377
			C190.583,35.461,190.256,31.931,190.245,27.877z M217.637,44.312c3.63,0.5,6.397,1.817,9.139,3.159
			c-0.054-4.131,1.562-8.542-0.154-12.302C223.611,38.201,220.271,40.884,217.637,44.312z M177.203,55.521
			c-2.588-1.275-5.02-1.288-7.88-1.831c-9.45-1.793-18.512-3.697-27.035-5.583c-2.765-0.611-5.429-1.288-8.199-2
			c-0.875-0.226-2.008-0.439-2.898-0.564c-2.039-0.285-3.312-0.862-5.139-1.433c-2.432-0.76-5.131-0.761-7.57-1.336
			c-4.236-0.998-8.564-2.775-12.857-3.258c-1.886,0.948-3.286,2.408-4.951,3.588c-0.327,1.152-1.19,1.737-1.849,2.54
			c-5.867,3.73-10.298,8.976-15.255,13.667c5.309,1.085,10.984-0.462,16.192-0.374c13.953,0.237,29.173,0.769,43.708-0.604
			c12.89-0.379,26-2.009,37.908-1.568C180.591,55.779,178.946,55.602,177.203,55.521z M241.189,59.023
			c-1.258,0.313-5.456-0.62-8.404-0.388c-1.306,0.103-2.456,0.678-3.418,0.717c-7.176,0.29-13.866-0.373-20.539-0.391
			c-2.394-0.007-4.729,0.602-7.139,0.616c-5.429,0.034-10.443,0.246-15.378,0.233c-2.528-0.006-5.09,0.578-7.621,0.604
			c-10.058,0.104-21.53,0.188-32.725,1.385c-1.303,0.139-2.296,0.217-3.567,0.228c-6.763,0.057-14.438,0.478-21.703,0.71
			c-2.901,0.092-5.976,0.431-8.744,0.25c-7.763-0.508-15.425-0.429-22.826,0.357c-5.099-1.31-9.765-0.569-14.383-0.71
			c-1.657-0.052-3.298-1.222-4.981-1.267c-1.949-0.053-4.015,0.777-6,0.485c-0.628-0.091-0.844-0.483-1.443-0.523
			c-1.215-0.084-2.352,0.598-3.575,0.55c-2.011-0.079-4.273-1.018-6.451-0.821c-1.202,0.958-4.125,1.843-4.125,2.963
			c5.107,0.194,9.875,0.752,15.025,0.891c4.599,0.124,9.467-0.401,14.244-0.103c11.025,0.691,21.694,0.746,32.987,0.888
			c11.829,0.149,23.589-0.634,35.617-0.66c3.899-0.007,7.821-0.543,11.834-0.813c4.285-0.288,8.669-0.29,12.957-0.46
			c8.515-0.338,17.154,0.216,25.257-0.453c3.77-0.312,7.246-1.171,10.721-1.492c3.737-0.344,7.224-0.013,11.156,0.3
			c2.745,0.218,5.632-0.197,8.423-0.259c5.08-0.112,9.911-0.006,15.227-0.561c5.451-0.568,9.903,1.692,14.571-0.255
			c0.268,0.427,1.062,0.356,1.768,0.371C254.486,56.206,246.794,59.722,241.189,59.023z M256.196,72.535
			c0.195,1.145,0.074,2.931,0.055,4.047c1.428,0.379,0.986,2.532,2.181,3.133c1.74-2.252-0.673-4.81-1.762-6.681
			c0.345-0.689,0.324-1.765,1.185-1.911c-0.392-1.981,2.026-3.684,2.74-5.59c-1.358,0.193-2.02-0.278-3.401,0.071
			C259.294,67.211,256.985,70.237,256.196,72.535z M247.23,69.057c0.152,1.341-1.611,3.066-1.581,4.65
			c0.022,1.286,1.526,2.493,1.525,3.439c-0.002,1.764-2.551,2.477-2.539,4.14c-0.101,2.127,1.953,4.319,1.762,6.681
			c-0.121,1.483-1.757,2.289-1.402,4.008c2.344,2.054,1.036,4.445,1.268,6.993c0.897-0.066,1.471-0.129,2.102,0.056
			c1.344-2.074-0.688-3.37-1.162-4.886c-0.613-1.959,0.744-3.447,1.132-5.957c-0.569-0.723-1.11-1.469-1.557-2.308
			c0.24-1.688-0.726-2.265-0.228-3.565c0.427-1.115,2.002-1.545,2.658-2.519c1.396-2.073-2.646-3.871-2.262-6.21
			c0.374-1.165,2.347-2.522,1.704-3.191c0.649,0.131,0.295-0.796,0.672-0.952c-0.397-1.357-1.451-2.09-1.35-3.919
			c-0.34-0.31-1.182-0.142-1.775-0.209C246.152,66.572,247.083,67.767,247.23,69.057z M252.976,65.975
			c4.182,3.045-2.741,7.539,0.352,11.014c0.081,0.519-0.315,0.492-0.021,0.809c2.256,1.234,2.145,4.712-0.629,5.323
			c-1.021,1.638,0.554,3.123,0.853,4.392c0.54,2.292-1.314,5.026-1.171,7.412c0.534,1.069,1.318,2.867,0.534,4.222
			c0.742,0.445,1.854-0.119,2.27-0.1c-0.04-3.359-1.796-6.529,0.094-9.545c-1.841-2.597-1.393-5.764,1.162-7.089
			c0.501-1.84-1.015-3.438-0.521-4.706c-0.232-0.095-0.841,0.166-0.803-0.184c-1.882-3.395,0.92-7.166,1.086-10.327
			c-0.604-0.477-1.638-0.55-1.573-1.66C253.912,65.892,253.149,65.176,252.976,65.975z M240.475,73.568
			c-0.134,1.781-1.677,3.491-1.591,4.974c0.091,1.603,1.643,3.416,0.853,4.392c0.022-0.196,0.059-0.381,0.332-0.314
			c-1.399,3.581-1.241,6.702,0.718,9.405c2.106-2.086-1.727-7.708,0.931-10.494c-0.959-1.271-0.425-2.875-1.671-4.09
			c0.555-3.091,3.832-6.295,1.733-10.31c0.232-0.421,0.222-1.097,0.368-1.608c-0.762,0.25-2.064-0.072-2.601,0.415
			C239.127,68.929,240.659,71.07,240.475,73.568z M250.644,74.489c0.092-1.97,1.777-3.491,2.246-5.28
			c0.39-1.492-2.312-3.798-3.48-3.006c1.34,0.307,0.853,2.345,1.531,3.277c-0.303,1.695-1.951,2.584-2.059,4.314
			c-0.112,1.843,2.146,3.167,2.301,4.755c0.205,2.11-2.196,2.595-2.877,4.615c0.154,1.956,0.613,3.469,1.98,4.585
			c0.136,2.085-1.914,3.557-1.298,6.114c1.57,0.966,1.687,3.479,0.988,5.366c0.38,0.186,1.125,0.063,1.457,0.04
			c0.533-1.419-0.564-2.729-0.7-4.063c-0.254-2.482,1.731-5.159,1.017-7.74c-0.304-1.1-1.153-1.405-1.228-2.46
			c-0.068-0.982,0.614-1.389,0.392-2.579c0.795-0.549,1.944-0.722,2.312-1.718C252.21,78.153,250.519,77.137,250.644,74.489z
			 M237.61,65.725c-2.238,2.105,0.52,5.312-0.047,7.765c-0.314,1.354-1.767,2.158-1.712,3.514c0.028,0.738,0.599,1.552,1.073,2.133
			c-0.373-2.115,1.532-3.241,1.763-5.293c0.279-2.497-1.97-5.242-0.591-8.107C237.935,65.732,237.772,65.728,237.61,65.725z
			 M230.488,65.855c-0.248,1.196-0.801,2.165-0.738,3.379c0.496-0.19,0.631-0.107,0.964,0.188c0.718-0.862,0.119-2.523,1.062-3.37
			C231.267,65.769,231.106,65.757,230.488,65.855z M244.228,72.374c1.454-1.829,1.374-4.791-0.316-6.319
			C243.281,68.057,244.753,70.216,244.228,72.374z M210.766,71.15c1.223-0.537,2.778-0.726,3.132-2.181
			c-0.157-0.535-0.483-0.908-0.773-1.316c0.201-0.73,0.299-1.57,0.546-2.251c-0.81-0.021-1.618-0.043-2.426-0.065
			C210.693,67.75,211.19,69.66,210.766,71.15z M226.603,65.913c0.134,1.028-0.63,1.109-0.701,1.923
			c0.424,0.203,0.5,0.153,0.308,0.656c0.6-0.308,0.643,0.028,0.795,0.506c0.53,0.005,0.631-0.443,1.302-0.289
			c-0.159-0.778,0.422-0.776,0.521-1.281c-0.585-0.256,0.044-0.846-0.119-1.621C227.962,65.796,227.13,65.693,226.603,65.913z
			 M235.265,92.685c-0.324-3.315-2.782-6.897,0.257-9.541c0.453-1.799-0.146-2.435-0.546-3.736c0.174,0.012,0.414-0.065,0.167-0.158
			c-2.176-0.463-0.545-3.527-0.209-4.213c0.754-1.543,1.1-3.29,0.614-4.837c-0.4-0.31-1.203-2.6-0.375-4.056
			c-0.408-0.266-1.684-0.3-2.103-0.057c0.072,1.477-0.768,2.34-0.441,4.357c0.358,0.202,1.668-0.55,1.931,0.376
			c0.221,1.871-0.436,3.286-1.411,4.331c-0.251-0.076-0.122-0.511-0.639-0.341c-0.642,1.805-0.005,4.736,1.472,5.542
			c-0.501,0.535,0.181,1.292-0.059,2.102c-1.033,0.073-0.48,0.335-0.667,0.792c-0.162,0.391-0.938,0.71-0.997,0.943
			c-0.203,0.802,0.015,4.062,0.197,4.698c0.233,0.81,1.297,1.127,1.407,1.818c0.069,0.43-0.3,3-0.419,3.548
			c-0.389,1.783-1.759,3.395-0.953,5.315c0.637,0.061,1.127-0.032,1.308-0.451C232.422,96.858,233.74,94.106,235.265,92.685z
			 M207.027,65.709c-0.196,3.785-1.492,8.242,1.007,10.708c0.229-1.531-0.076-2.557-0.556-3.414
			c0.312-1.001,0.887-1.727,1.835-2.054c0.222-1.553,0.359-3.807,0.147-5.498C208.646,65.532,207.812,65.594,207.027,65.709z
			 M215.073,67.383c0.207,0.434,0.841,0.463,0.777,1.153c-0.224,0.429-0.457,0.848-0.681,1.276c0.714,0.375,1.69,0.499,2.569,0.717
			c-0.13-0.747,0.425-0.771,0.362-1.447c-0.167-0.63-0.991-0.636-1.263-1.167c0.174-0.935,0.252-1.139,0.542-2.089
			c-0.448-0.206-1.112-0.208-1.775-0.21C215.572,66.1,215.169,66.547,215.073,67.383z M219.807,65.892
			c-0.13,0.438,0.312,0.334,0.305,0.656c-0.427,0.555-1.65-0.315-1.485,1.093c0.748,0.185,1.349,0.508,1.421,1.333
			c-0.853,0.626-1.298,3.099,0.066,3.562c1.649-1.327,0.102-3.711,0.476-5.651c0.109-0.579,0.94-0.467,0.354-1.123
			C220.816,65.902,220.422,65.885,219.807,65.892z M222.555,65.966c-0.229,1.689-0.889,2.883-0.126,4.689
			c0.713-0.411,1.097-1.171,2.137-1.237c-0.337-1.335-0.206-2.055,0.249-3.229C224.431,65.631,223.214,65.851,222.555,65.966z
			 M203.758,66.917c0.177,1.625-0.058,3.844-1.264,4.82c0.704,0.595,1.593,1.014,2.721,1.206c-0.588-2.629,0.211-4.183,0.185-6.953
			C204.441,65.863,204.116,66.407,203.758,66.917z M196.879,69.967c0.627-0.401,1.9,0.323,3.068,0.245
			c-0.006-1.412-0.581-2.286-0.711-3.579c-0.922,0.147-1.251,0.085-2.273,0.263C196.343,67.845,196.974,69.366,196.879,69.967z
			 M190.319,67.201c0.248,0.292,0.732,0.356,0.786,0.831c-2.144,0.821-0.667,3.567,0.031,4.855c1.057-1.662-0.157-3.947,0.967-5.8
			C191.375,67.096,190.764,66.628,190.319,67.201z M186.93,72.936c1.764,0.208,1.411,2.15,0.878,3.422
			c3.457-2.295-1.55-6.639,1.381-9.187c-0.384-0.321-1.296-0.137-1.938-0.214C186.698,68.936,187.315,70.534,186.93,72.936z
			 M192.852,69.373c0.311,0.494,0.879,0.741,0.764,1.639c0.73-0.281,1.589-0.431,2.129-0.914c-0.214-0.979-1.246-1.857-0.407-2.924
			C193.611,66.962,193.338,68.28,192.852,69.373z M259.349,69.707c0.005,1.032-0.531,2.259-0.9,3.375
			c0.277,0.632,0.79,1.037,1.422,1.333c0.028-1.737,1.264-4.312,0.309-5.494C260.094,69.455,259.686,70.422,259.349,69.707z
			 M183.847,67.189c0.125,0.646,0.119,0.815-0.038,1.455c0.515,0.167,0.724-0.181,1.617,0.043c-0.03-0.551,0.16-1.307-0.119-1.622
			C184.799,67.085,184.123,66.926,183.847,67.189z M179.635,67.4c0.139,0.7,0.039,1.382,0.112,1.782
			c0.728-0.38,1.254,0.099,2.435-0.258c-0.296-0.581,0.03-0.933,0.044-1.617C181.434,67.06,180.442,67.207,179.635,67.4z
			 M175.431,67.286c-0.12,1.507-1.991,2.726-0.769,4.51c0.66-1.409,1.698-2.419,3.312-2.823c0.131-0.405,0.479-1.626-0.116-1.783
			C177.36,67.55,176.19,67.202,175.431,67.286z M169.894,68.593c0.8,0.459,0.353,1.13,0.921,1.805
			c1.162-0.261,1.276,0.473,1.924,0.699c-0.378-1.747,0.297-2.347,0.751-3.863C172.017,67.396,170.27,67.273,169.894,68.593z
			 M200.437,70.063c0.239,0.463,1.078,1.178,1.596,0.852c-0.289-0.357-0.146-1.124-0.446-1.468c0.367-0.279,0.607-0.691,0.524-1.442
			C201.099,68.489,202.024,70.79,200.437,70.063z M165.873,67.677c-0.697,0.815-0.777,2.284-0.751,3.863
			c0.896-0.771,1.686-1.657,3.595-1.36c0.012-1.159-1.115-1.563-0.738-2.609C167.131,67.452,166.586,67.654,165.873,67.677z
			 M161.271,70.303c1.084,0.642,2.001,2.146,1.684,3.605c0.82-1.577,0.435-4.132,0.493-6.297
			C161.191,67.13,161.151,68.641,161.271,70.303z M160.305,70.115c-0.118-0.356-0.58-1.336-0.587-2.281
			c-0.702-0.022-1.452-0.093-1.944,0.109c0.274,0.799-0.163,1.487,0.264,2.272C159.063,70.074,159.634,70.432,160.305,70.115z
			 M154.208,68.171c-0.226,0.649-0.382,1.37-0.386,2.255c0.293,0.621,2.084,0.769,2.584,0.232c-0.01-1.096-0.07-2.14-0.571-2.767
			C155.335,68.242,154.448,67.93,154.208,68.171z M150.428,70.334c0.491-0.202,1.241-0.131,1.945-0.109
			c0.138-0.813-0.189-1.187-0.275-1.788c-0.594-0.016-1.186-0.032-1.779-0.047C150.25,69.265,150.079,69.653,150.428,70.334z
			 M145.774,68.915c-0.009,0.324-0.018,0.646-0.026,0.97c0.671,0.362,1.966,0.132,2.906,0.241c0.024-0.834,0.238-1.029-0.119-1.622
			C147.589,68.614,146.379,68.445,145.774,68.915z M138.012,68.706c0.355,0.945,0.061,2.705-0.59,3.868
			c1.259,0.25,1.427-2.023,2.967-2.024c-0.228-0.818,0.578-1.666-0.109-1.945C139.834,68.967,138.719,68.621,138.012,68.706z
			 M142.177,70.275c0.464-0.287,1.513,0.045,1.949-0.271c-0.101-0.647-0.101-0.654,0.035-1.293
			c-0.866-0.156-1.334,0.292-1.941-0.052C142.12,69.107,141.997,69.765,142.177,70.275z M133.3,69.388
			c0.16,1.084,1.275,1.652,0.731,2.933c0.27,0.439,1.037,1.029,0.604,1.635c0.199,0.231,0.79,0.091,0.795,0.506
			c-0.776,0.018,0.236,0.458,0.305,0.656c-0.481,2.079,1.218,4.54,0.945,6.984c-0.144,1.286-1.419,2.375-0.581,3.544
			c1.895-1.312,1.312-3.556,0.812-6.128c-0.215-1.111-0.189-3.025-0.524-4.544c-0.174-0.79-0.735-1.28-0.76-1.801
			c-0.081-1.667,1.692-2.66,0.764-4.348C135.598,68.707,133.737,68.607,133.3,69.388z M128.734,70.722
			c0.934,0.097,1.747,1.027,1.241,1.976c0.551-0.107,1.178-0.755,1.788-0.275c0.314-0.275-0.267-0.57,0.498-0.472
			c0.028-1.176-1.025-1.651-0.407-2.924C130.146,68.886,128.728,69.052,128.734,70.722z M128.209,72.164
			c-1.266-0.265-1.828-1.884-0.891-2.937c-1.128-0.058-1.39-0.101-2.259-0.223c0.09,1.038-0.449,1.411-0.546,2.251
			c0.663,0.583,1.346,1.978,2.05,1.998C126.395,73.194,127.933,72.78,128.209,72.164z M120.845,69.215
			c-0.022,0.253,0.006,0.562-0.337,0.476c-0.249,1.235,0.692,1.341,0.914,2.127c-0.171,0.429-0.471,0.723-0.52,1.282
			c1.616,1.572-0.899,4.83,0.787,6.817c2.04-0.55,1.87-2.564,1.254-4.497c0.369-0.719,1.188-0.964,1.188-2.072
			c-1.419-0.762-1.541-2.154-1.024-4.073C122.468,68.805,121.726,69.41,120.845,69.215z M232.563,72.87
			c0.503,0.088,0.526-0.332,0.508-0.795c-0.244,0.021-0.597-0.074-0.652,0.144C232.658,72.255,232.557,72.613,232.563,72.87z
			 M116.143,69.574c0.081,0.711,0.387,1.209,0.434,1.954c0.665,0.204,0.639-0.323,1.14-0.293c0.697,0.181,0.858,0.868,1.259,1.329
			c0.663-0.897-0.447-2.262-0.232-3.405C117.827,69.612,116.571,68.762,116.143,69.574z M224.125,72.375
			c-2.33,3.29,4,14.75,0.688,15c-3.938-8.875-6.54-10.679-9.249-14.154c-1.309,0.061-2.836-0.351-4.062,0.538
			c0.026,3.943,0.233,10.507,0.238,15.218c0.004,2.876-1.49,7.148,4.322,5.398c-0.742-4.828-1.44-9.453-0.812-13.562
			c0.554-0.8,0.498-1.188,1.76-1.242c3.528,3.645,5.553,8.711,7.061,14.269c1.78-0.283,3.947-0.158,5.518-0.661
			c-1.21-5.971,0.245-14.952-1.381-20.75C227.876,72.525,225.204,72.093,224.125,72.375z M50.003,67.955
			c-0.14,0.729,0.45-0.235,0.311,0.494c-1.052,1.107-2.196,2.116-2.062,4.475c1.135,1.918,3.27,2.89,2.906,6.228
			c-0.692,0.97-1.554,1.781-1.695,2.867c-0.271,2.104,1.354,2.571,2.007,3.615c1.521,2.431-0.375,4.298-0.498,6.459
			c-0.139,2.451,2.04,3.581,2.265,6.048c1.096-0.839,1.193-2.048,1.224-3.366c-0.852-1.106-2.338-1.601-2.509-2.98
			c-0.257-2.068,2.122-3.787,1.616-5.944c-1.018-0.979-2.043-1.951-2.663-3.308c0.441-0.669,0.178-2.136,0.887-2.889
			c0.211,0.21,0.304,0.495,0.643,0.179c0.156-0.516-0.528-0.236-0.468-0.66c0.417-0.668,0.793-1.38,1.031-2.238
			c-3.38-1.5-5.64-7.414-0.578-8.592c0.21,0.169,0.598,0.17,0.634,0.503c-0.074,1.419-1.49,1.421-2.006,2.374
			c-0.512,3.216,3.238,3.398,3.405,5.755c0.06,0.84-0.58,1.827-1.048,2.884c-0.217,0.018-0.47-0.671-0.642-0.179
			c0.694,0.717,0.207,1.421-0.062,2.264c0.115,1.82,2.349,2.248,2.649,3.794c0.441,2.269-1.604,3.523-1.608,5.62
			c4.285,2.739,0.317,7.077,1.825,10.405c0.688,0.007,1.138-0.24,1.943-0.109c-1.676-2.056,0.299-4.001,0.477-5.651
			c0.226-2.093-2.543-3.639-2.098-6.206c3.606-3.151-0.908-5.302-1.714-8.46c1.285-1.255,2.488-3.757,1.11-5.148
			c0.021-0.255,0.415-0.116,0.336-0.477c-0.686-0.393-1.809-1.725-1.233-2.298c-0.2-0.231-0.791-0.092-0.796-0.507
			c0.473-2.329,1.096-4.498,3.842-4.428c0.386,0.72,0.176,1.067-0.048,1.779c-3.8,0.513-0.999,3.805-0.462,5.166
			c0.268,0.68,0.725,1.923,0.73,2.933c0.004,0.833-1.357,2.281-1.386,3.36c-0.042,1.629,2.168,2.435,2.802,4.122
			c0.88,2.34-1.994,3.391-1.131,5.956c3.958,2.771-1.362,7.641,2.151,10.252c0.872,0.127,1.617-0.136,2.103,0.057
			c-0.166-1.735-1.398-2.457-1.67-4.09c2.931-2.32-0.338-5.075-0.455-7.132c-0.051-0.899,0.628-2.076,0.58-3.544
			c-0.085-2.636-4.295-5.11-1.08-7.958c-0.03-2.125-0.84-3.511-1.814-4.742c-0.399-3.601,1.914-4.621,3.412-6.542
			C57.527,68.375,53.211,67.167,50.003,67.955z M109.356,69.229c0.051-0.031-1.364,2.493-1.359,2.391
			c-0.064,1.364,3.209,3.146,3.693,1.07c0.325-1.395-1.353-1.296-0.712-3.579C110.482,69.084,109.688,69.03,109.356,69.229z
			 M112.983,72.726c0.59-0.208,1.276-0.316,1.796-0.599c-0.499-0.725,0.068-1.713-0.249-2.758c-0.565-0.095-1.046-0.269-1.774-0.209
			C112.063,70.713,113.888,71.314,112.983,72.726z M47.049,69.494c0.863-0.309,1.246-1.124,1.669-1.897
			C46.713,67.092,46.231,68.213,47.049,69.494z M71.261,77.751c0.075,3.332,3.375,4.833,0.927,7.631
			c-0.041-0.163-0.618,1.267-0.86,1.918c1.576,2.7,2.157,5.168,1.377,8.938c1.029,1.316,1.332,3.687,1.141,5.694
			c0.759-0.152,1.265,0.457,1.78,0.048c-0.969-2.114,0.849-5.379,0.2-7.439c-0.351-1.111-1.386-1.441-1.547-2.63
			c-0.182-1.332,0.211-2.288,0.567-3.059c-0.522-3.293-1.044-3.789,0.35-6.949c-1.867-1.542-1.62-5.111,0.034-7.281
			c-2.109-2.102-0.055-5.237,2.105-6.093c-0.834-0.261-2.002-0.204-3.068-0.245c0.479,1.417-0.393,2.041-1.674,2.059
			c-0.377,1.8,0.565,2.671,0.857,4.23C72.845,75.765,72.187,76.9,71.261,77.751z M100.117,69.79
			c0.511,1.111,0.128,2.095,0.394,3.408c0.716-0.182,1.624-0.095,1.949-0.271c-0.535-0.527-0.29-0.845-0.441-1.631
			c0.417,0.191,0.574-1.105,0.852-1.595C102.509,68.682,100.647,69.12,100.117,69.79z M103.784,71.831
			c0.361,0.498,0.994,0.739,1.258,1.328c-0.104,0.333-0.354,0.514-0.506,0.796c1.429,0.589,1.247,2.705,2.496,3.465
			c0.072-0.818,0.969-1.736,1.21-2.88c-2.253-1.11-2.302-3.347-0.827-5.363c-1.258-0.022-1.576,0.031-2.749-0.074
			C105.111,70.338,103.834,70.625,103.784,71.831z M61.93,69.732c-0.683,0.922-2.328,1.661-2.508,3.008
			c-0.234,1.742,1.541,3.024,1.81,4.902c0.3,2.088-1.284,3.505-1.105,4.987c0.146,1.21,2.131,2.555,2.309,4.431
			c0.13,1.374-0.867,2.943-0.594,4.03c0.304,1.212,1.501,2.099,1.696,3.12c-0.11,1.417-0.247,2.423-1.07,3.693
			c0.445,1.488,1.411,2.521,1.508,4.086c2.48-0.246,0.543-3.72,1.126-5.795c-1.951-1.586-0.552-3.025-0.354-4.864
			c0.233-2.173-2.653-4.232-0.635-6.489c0.593-2.656-1.658-3.149-2.137-4.75c-0.521-1.738,0.496-1.804,1.07-3.693
			c0.449-1.476-0.664-2.035-0.878-3.422c-0.343-2.208,1.568-3.038,1.905-4.642c-0.415-0.119-1.832-0.407-2.587-0.07
			C61.982,68.422,61.615,69.4,61.93,69.732z M69.648,77.546c0.443-1.602,3.417-3.124,1.262-4.82c0.053-1.255-0.209-2.876,0.568-3.06
			c-0.364-0.611,1.17-0.644,1.328-1.258c-1.333,0.059-2.433,0.124-3.728,0.223c0.002,0.575,0.582,0.604,0.451,1.307
			c-4.1,1.212-0.146,5.124-0.384,8.242c-0.072,0.935-0.66,1.709-1.202,2.557c0.503,2.254,0.708,4.434,1.622,5.869
			c0.595-0.127,0.854,0.308,1.132,0.03c0.063-0.755-0.633,0.193-0.634-0.502c0.749-0.706,1.104-1.829,1.376-3.037
			C70.535,81.299,69.056,79.688,69.648,77.546z M84.002,91.363c-0.039-1.448-1.969-2.278-1.653-4.738
			c0.501-1.244,1.855-1.589,2.184-3.015c-0.162-1.125-1.748-2.133-1.52-3.601c0.276-1.787,1.413-2.609,1.397-3.847
			c-0.011-0.909-1.131-1.731-1.219-2.783c-0.218-2.59,2.23-2.875,2.547-4.463c-2.705,0.061-5.089-0.27-7.757-0.37
			c0.015,0.458,0.278,0.682,0.293,1.14c-0.631,1.112-2.081,0.852-2.32,2.042c-0.231,1.141,1.374,2.097,1.202,3.43
			c-0.193,1.492-1.661,1.542-2.028,3.182c0.669,1.151,1.456,2.192,2.011,3.452c-2.292,1.801-0.138,5.024-0.349,6.949
			c-0.213,1.953-1.564,3.794,0.678,4.873c0.392,2.402-0.996,5.557,0.097,8.418c0.891,0.033,1.605,0.037,1.944-0.11
			c-0.022-1.403-0.287-2.446,0.083-3.072c-1.772-0.657-1.457-4.25-0.014-5.503c-1.441-1.432-2.208-5.527-0.004-5.825
			c-0.343-0.881,0.414-0.954,0.533-1.766c-1.565-1.776-2.589-6.125,0.043-7.604c0.318-2.082-1.158-2.956-1.342-4.244
			c-0.338-2.356,1.289-3.534,3.365-4.764c1.391,1.664-1.396,1.91-1.708,3.353c-0.277,1.279,1.071,2.395,1.355,3.759
			c0.411,1.968-0.512,3.227-1.568,4.165c-0.547,2.815,2.303,3.64,1.618,6.031c-0.381,1.325-2.026,2.161-1.879,3.671
			c0.126,1.298,1.864,2.236,1.513,3.923c-2.872,1.767-0.105,5.286,0.276,7.776c0.527-0.08,0.75,0.13,1.128,0.191
			c0.44-2.052,1.471-4.738-0.652-5.843C82.341,94.651,84.039,92.762,84.002,91.363z M87.518,68.965
			c-0.131,0.491,0.266,0.483,0.135,0.975c-0.811,1.083-2.509,1.232-2.67,3.002c0.537,0.173,1.674-0.106,2.256,0.385
			c2.343-0.191,2.269-2.838,2.87-4.454C89.05,68.801,88.014,68.9,87.518,68.965z M91.504,71.176c0.483,0.39,1.313,0.032,1.782-0.115
			c-0.165-1.062,0.432-1.318,0.542-2.088c-0.701-0.019-1.401-0.038-2.102-0.056C91.963,70.039,91.112,70.383,91.504,71.176z
			 M95.926,69.192c-0.173,0.689,0.437,0.636,0.455,1.145c-0.716-0.035-1.214,0.159-1.315,0.773c0.68,1.202,2.361,0.488,3.526,1.229
			c0.534-1.187-0.872-2.049-0.398-3.248C97.618,69.344,96.643,68.805,95.926,69.192z M63.988,71.407
			c-0.425,1.682,1.187,2.896,0.844,4.715c-0.247,1.307-1.378,1.839-1.215,3.042c0.183,1.344,1.706,1.982,2.02,3.129
			c0.426,1.555-0.482,2.697-0.449,4.68c0.024,1.44,1.281,2.005,1.525,3.44c0.168,0.985-0.713,1.349-0.882,2.727
			c-0.185,1.502,1.014,2.089,1.206,3.268c0.285,1.738-0.69,3.594-0.147,5.498c1.813-0.239,3.724,0.687,5.17,0.302
			c0.477-1.442,0.233-4.221-1.32-5.052c-0.782,1.143,0.269,3.165-0.922,4.182c-0.566,0.011-1.034-0.07-1.285-0.358
			c0.333-2.853,0.882-5.207-1.272-6.83c0.125-0.603,0.533,0.134,0.659-0.468c-0.293-0.416-0.849,0.317-0.961-0.349
			c0.579-0.609,0.531-1.878,0.568-3.059c1.672-1.798,0.725-2.896,0.117-4.367c-0.529-1.281-0.618-2.928-1.332-4.566
			c0.585-1.721,1.409-2.752,1.249-4.336c-0.166-1.631-1.722-3.201-1.819-4.58c-0.121-1.731,1.081-2.352,1.883-3.832
			c-0.809-0.004-2.195-0.091-1.944,0.109C66.081,70.166,64.689,70.393,63.988,71.407z M243.865,73.821
			c-1.979,0.964-1.988,4.548-0.65,6.132c0.464-1.006,1.131-1.799,2.005-2.374c-0.142-1.042-0.911-2.078-0.729-2.932
			C244.006,74.899,244.211,74.102,243.865,73.821z M170.188,93.875c-0.824-2.186-0.25-5.5-0.169-8.617
			c1.731-2.758,4.957-1.289,6.856-1.258c4.229,0.905,0.746,5.798,2.224,9.276c1.013-0.206,1.766,0.5,2.755-0.088
			c-0.259-6.819,0.434-13.819,0.705-20.208c-0.696-0.837-2.175-0.478-3.063-0.406c0.361,2.62,0.567,7.114-1.354,8.217
			c-1.979-0.833-6.756,0.455-7.529,0.522c-2.223-2.047,4.639-9.188-3.27-8.095c-0.186,6.694-0.342,14.414-0.562,20.859
			C167.853,93.713,169.456,94.628,170.188,93.875z M221.048,73.854c0.16,0.689,0.478,1.229,0.761,1.801
			c0.511-0.152,0.02-1.138,0.214-1.937C221.701,73.364,221.382,73.747,221.048,73.854z M197.606,73.062
			c-1.342,0.366-2.337,1.671-3.908,0.866c-1.336,1.032-1.726,2.799-2.391,4.628c-0.889,2.451-1.938,5.438-2,8.198
			c-0.136,6.122,4.133,8.84,9.96,8.683c1.732-0.25,3.747-1.106,5.107-2.437c2.542-2.487,4.188-9.938,0.704-15.044
			c-1.198-1.756-2.889-2.787-4.103-3.833c-0.647,0.094-1.146,0.147-1.664,0.377C198.391,74.165,198.398,73.518,197.606,73.062z
			 M173.544,77.269c0.834,0.127,1.004-0.037,1.606,0.366c0.067-0.428,0.441-0.534,0.826-0.625c0.12-1.543-0.161-2.268-0.385-3.732
			c-0.307,0.028-0.351-0.192-0.643-0.179C173.819,73.79,173.934,75.796,173.544,77.269z M152.426,74.272
			c-2.76-0.659-5.529-0.929-8.562-0.554c-1.054,0.13-2.258,0.282-3.239,0.531c0.071,1.017,0.063,2.686,0,3.562
			c3.236,0.385,6.26-0.447,8.687,0.774c0.436,4.004-1.769,11.248-1.312,15.601c0.508-0.2,3.89-0.099,4.562-0.125
			c0.938-4.502-0.875-10.812-0.441-14.458c0.293-0.3,0.177-1.031,0.519-1.281c1.224-0.498,5.229,0.007,6.923-1.011
			c0.368-0.964,0.105-3.698-0.375-4.375C157.616,73.492,154.231,74.704,152.426,74.272z M185.595,92.479
			c0.718-0.215,0.862-0.394,1.468-0.445c-1.421-3.173-0.884-8.034,0.309-11.481c-2.051-1.046,0.147-3.722-0.502-5.353
			c-0.207-0.014-0.22-0.213-0.481-0.175C185.433,80.522,185.446,87.28,185.595,92.479z M118.901,75.312
			c1.052,0.104,0.924-0.498,0.844-1.271c-0.306-0.078-0.396-0.36-0.8-0.346C118.542,74.123,119.099,74.598,118.901,75.312z
			 M92.17,88.509c2.196-1.31,7.811-0.847,9.78-2.65c2.079-1.903,1.734-7.879-0.39-9.557c-0.804-0.636-2.758-1.315-4.03-1.594
			c-3.081-0.676-7.263-1.903-9.593,0.542c0.856,5.561-0.813,14.516-0.688,20.75c0.863,0.441,3.562,0.844,4.702,0.594
			C92.224,94.219,89.789,89.929,92.17,88.509z M113.054,76.125c-0.109,3.583-0.728,5.943,0.403,9.073
			c2.138,1.62,6.379-0.029,7.967,2.218c1.05,2.858-0.439,7.278-0.486,9.459c0.645,0.58,3.957-0.796,4.5-0.25
			c0.264-2.553-1.717-6.932-1.028-9.514c1.178-0.142,2.161-1.103,3.158-1.436c3.808-2.079,5.909-6.634,3.462-10.036
			c-0.441,0.485-2.387-0.604-2.967-0.264c1.084,5.155-2.515,8.031-4.375,8.125c-2.265,0.031-5.375,0-7.25-0.811
			c-1.798-1.769,0.003-5.575-0.437-8.189C115.084,74.532,113.576,75.679,113.054,76.125z M119.443,79.21
			c-0.463-0.95,0.627-2.394-0.577-2.604C118.804,77.135,118.821,78.817,119.443,79.21z M48.71,79.896
			c1.049-0.967,1.041-3.406-0.699-4.064C48.365,77.072,48.143,78.858,48.71,79.896z M236.371,81.711
			c0.345-0.314,0.024-0.691-0.302-0.818C236.035,81.293,236.018,81.678,236.371,81.711z M239.464,80.984
			c-0.215-0.006-0.431-0.011-0.647-0.017C238.541,81.712,239.639,81.551,239.464,80.984z M237.63,89.027
			c-1.639-1.841,1.373-5.726,0.049-7.767c0.087,1.258-0.639,1.656-0.722,2.731c-0.252,0.307-0.675-0.301-0.818,0.301
			c0.815,0.875-0.288,1.573-0.387,2.417c-0.201,1.695,1.195,3.422,1.489,4.733c-0.479,2.488-3.438,4.805-1.668,7.885
			c0.769,0.145,1.047-0.226,1.782-0.114C236.208,95.428,240.115,91.936,237.63,89.027z M163.016,83.62
			c-0.271,1.295-2.221,2.032-1.24,4.012c0.902-0.462,0.426,1.253,1.425,1.17c0.269-3.316,0.86-6.153-0.075-9.226
			C161.533,80.905,163.211,82.69,163.016,83.62z M125.414,79.856c0.008-0.323,0.017-0.646,0.026-0.97
			c-0.809-0.078-0.805,0.703-1.163,1.101c0.095,0.097,0.757,0.399,0.809,0.022c-0.09-0.001-0.181-0.136,0.005-0.162
			C125.119,80.044,125.267,79.952,125.414,79.856z M157.768,80.242c0.267,1.421,0.709,3.112,1,4.881
			c-2.462,1.904-0.001,4.814,0.456,7.132c1.083-0.465,1.166-1.984,2.172-2.531c-0.099-0.731-1.115-0.947-0.6-1.795
			c-1.837-0.836-0.767-3.546,0.284-4.524C160.866,81.495,159.792,79.961,157.768,80.242z M256.86,90.029
			c-1.488,2.191,0.171,6.031,0.075,9.226c0.202,0.228,0.697,0.178,1.127,0.191c0.785-1.351-0.292-2.95-0.201-4.537
			c0.085-1.477,1.129-2.196,0.904-3.535c-0.219-1.304-1.672-2.502-1.521-3.602c0.096-0.708,1.245-1.059,1.501-1.739
			c0.512-1.353-0.117-1.94-0.891-2.937C254.819,85.091,256.21,87.211,256.86,90.029z M243.136,82.864
			c-0.939,1.522-0.451,5.178,0.465,6.808C245.261,87.571,244.175,85.108,243.136,82.864z M154.971,81.946
			c-1.354,5.235,0.751,9.588-0.703,14.06c-0.046,0.674,0.475,0.811,0.445,1.468c-1.249,0.896-0.677,2.545,0.067,3.562
			c0.322,0.008,0.646,0.017,0.969,0.025c0.898-1.855,0.008-3.509,0.148-5.497c0.08-1.127,1.109-2.164,1.224-3.365
			c0.22-2.307-2.897-5.247-0.285-7.452c-0.199-1.386-0.622-2.56-0.865-3.907c-0.67,0.372-0.791-0.295-1.612-0.206
			C154.38,81.246,154.948,81.336,154.971,81.946z M138.984,80.707c-0.058,0.968,0.327,1.711,0.573,2.767
			c-0.488,1.761-2.822,2.561-2.705,4.296c0.059,0.879,1.725,1.555,1.871,2.638c0.257,1.911-1.53,2.356-1.424,4.816
			c3.564,0.602,0.401,4.419,2.255,6.372c0.398-0.467,1.876,0.206,2.272-0.262c-0.347-2.327-1.646-4.434-2.081-6.852
			c0.8-0.82,1.577-1.662,1.861-3.025c-1.998-1.364-2.181-4.106-0.646-6.004c-1.717-1.352-0.428-2.834,0.121-4.528
			C140.281,80.987,139.45,80.46,138.984,80.707z M85.417,80.883c0.227-0.468-0.081-0.838,0.043-1.616
			c-0.162-0.004-0.323-0.009-0.485-0.014C84.693,79.805,84.367,80.863,85.417,80.883z M141.797,84.343
			c0.934-0.096,1.118,0.518,1.43,1.009c-2.108,1.419-1.727,4.236,0.171,5.668c0.509,1.929-1.77,2.681-1.896,4.318
			c-0.074,0.963,0.982,1.312,1.395,2.303c0.54,1.3-0.046,2.21-0.101,3.719c2.063,0.371,4.266-0.359,6.314-0.153
			c-0.362-1.232-1.414-1.812-1.364-3.436c-0.484-0.224-0.919-0.494-1.438-0.686c-0.024,1.319,0.339,2.581-0.415,3.387
			c-0.596-0.13-0.701,0.258-1.297,0.127c1.103-2.135-1.561-3.624-1.64-5.223c-0.094-1.932,1.746-3.908,1.455-5.948
			c-0.205-1.443-1.322-2.166-1.031-3.75c0.241-1.313,1.542-2.889,2.504-2.845c0.004-0.162,0.008-0.324,0.013-0.485
			C143.967,81.424,141.771,81.36,141.797,84.343z M217.998,90.925c1.961-0.53,0.546-3.653-0.515-4.869
			C217.558,87.635,216.401,90.017,217.998,90.925z M146.068,88.018c-0.408-1.101,0.5-2.756-0.232-3.405
			C145.01,85.706,144.963,87.311,146.068,88.018z M107.741,87.148c0.369,0.648,0.989,1.058,1.412,1.656
			c0.339,2.047-1.163,3.26-0.934,4.667c0.208,1.286,1.969,1.559,2.019,3.129c-1.032,1.386-1.085,3.585-1.437,5.301
			c0.685,0.227,2.192,0.025,2.919-0.244c0.342-0.526,0.408-1.343,0.699-1.923c-1.424-1.195-2.132-3.653-1.137-5.856
			c-1.066-1.253-1.518-3.244-0.516-4.869c-1.578-0.448-1.673-2.3-2.331-3.622C108.134,85.899,107.754,86.33,107.741,87.148z
			 M105.128,94.036c-1.137,2.689-0.674,5.778-0.537,7.914c0.56,0.211,1.873,0.353,2.426,0.066c-0.2-2.539,0.997-3.605,1.126-5.795
			c-2.501-1.548-1.926-3.826-0.8-6.333c-0.641-1.098-2.021-2.369-1.355-3.758C104.113,88.063,101.972,92.055,105.128,94.036z
			 M84.247,88.295c0.47,0.132,0.682,0.51,0.948,0.834c-0.018-1.356,0.901-2.487-0.075-3.238
			C84.278,86.323,84.455,87.576,84.247,88.295z M134.396,88.836c-0.098,0.673-0.404,1.126-0.691,1.6
			c0.69,3.885,1.979,6.428,1.802,11.214c0.74-0.249,1.11,0.146,1.783-0.114c-0.51-1.604,1.156-4.891-1.468-5.542
			c-1.223-2,1.061-3.138,1.123-5.634c-1.216-0.529-1.653-1.795-2.353-2.813c-0.031-0.127-0.13-0.192-0.318-0.171
			C133.858,88.023,134.409,88.162,134.396,88.836z M171.941,88.714c-0.163,0.405-0.143,0.914,0.292,1.141
			c0.042-0.519,0.959-0.972,0.524-1.442C172.614,89.015,172.191,88.408,171.941,88.714z M173.607,92.966
			c1.304,2.381,0.017,6.015-0.551,8.401c1.57,0.104,2.969,0.029,4.37-0.044c0.331-0.136,0.25-1.069,0.663-0.63
			c-0.842-1.06-1.18-1.799-0.556-3.414c-3.473-0.937-2.09-5.115-2.85-8.329C173.626,89.442,173.701,92.012,173.607,92.966z
			 M49.9,89.798c0.709-1.226,1.047-3.263-0.708-3.741C49.918,87.158,49.071,89.024,49.9,89.798z M163.253,98.837
			c0.489-1.686-0.809-2.761-0.363-4.541c0.294-1.172,0.908-3.488-0.206-4.375c-0.205,1.779-1.725,2.17-1.887,3.994
			c2.384,2.169-1.388,4.41-0.023,6.958c0.772,0.3,1.747,0.15,2.262,0.061C162.691,100.269,162.633,98.791,163.253,98.837z
			 M242.04,93.514c0.635,1.065,1.034,3.077,0.211,4.213c0.376,0.113,0.437,0.512,0.45,1.307c0.217,0.147,1.22,0.058,1.622-0.118
			c0.623-3.062,0.509-4.992-1.112-6.827C242.936,92.686,242.188,92.781,242.04,93.514z M115.214,92.042
			c1.828,1.095,1.353,3.19,0.997,5.043c1.55,0.875,0.947,2.73,0.525,4.545c1.021-0.021,1.914,0.078,2.745,0.236
			c-0.519-1.669,0.469-3.398-1.164-4.886c0.151-2.363,0.149-5.793-0.918-7.954c-0.399-0.147-0.861-0.235-1.451-0.201
			C116.273,90.114,115.308,90.727,115.214,92.042z M220.6,96.497c-0.274-1.764-0.162-3.418-1-4.881
			C219.005,93.309,219.301,95.581,220.6,96.497z M113.03,89.07c-2.108,1.722-0.059,3.108,0.035,4.694
			c0.053,0.901-0.589,1.843-0.555,2.573c0.072,1.498,1.75,2.222,1.858,3.125c0.118,0.985-0.928,1.377-0.708,2.246
			c0.738-0.132,0.967,0.064,1.459-0.123c-0.271-1.304,0.049-1.45,0.393-2.578c-2.554-1.654,0.567-4.902-2.094-6.368
			c-0.045-1.601,0.434-2.646,0.909-3.697C113.808,88.894,113.635,89.21,113.03,89.07z M130.76,97.639
			c1.255,0.853,1.95,2.132,1.347,4.082c0.606,0.144,1.362,0.32,1.941,0.052c-0.078-4.43-1.564-8.316-2.424-12.202
			C129.288,91.675,132.164,95.077,130.76,97.639z M100.229,89.697c-0.309,0.489,0.126,0.731-0.192,1.127
			c-0.521-0.106-0.815,0.027-0.979,0.297c2.025,2.827,1.247,4.099,0.613,7.299c0.971,0.708,0.988,2.321,1.193,3.754
			c0.811,0.079,1.468-0.004,1.95-0.272c-0.035-0.59,0.054-1.051,0.2-1.45c-0.776-0.577-0.87-1.802-0.721-3.255
			c3.215-2.566-3.106-5.233,0.047-7.767c-0.23-0.045-0.265-0.274-0.477-0.336C101.4,89.641,100.782,89.586,100.229,89.697z
			 M126.495,99.79c-0.155,0.865,0.292,1.333-0.052,1.94c1.366,0.363,2.688-0.037,4.042,0.108c0.097-0.933-0.023-1.658-0.096-2.43
			c-2.322-0.541-0.929-2.396-0.866-3.907c0.077-1.866-1.837-4.142-0.333-5.673C125.186,90.674,131.143,99.047,126.495,99.79z
			 M71.102,95.709c0.427-1.888,0.396-5.524-1.115-6.665C68.548,91.135,68.579,94.966,71.102,95.709z M238.812,99.252
			c1.452,0.016,1.253-0.059,2.432-0.096c-1.051-1.703,0.697-4.105-1.309-5.537C239.175,95.528,238.477,97.305,238.812,99.252z
			 M206.886,94.995c0.291,0.408,0.71,0.692,0.94,1.158c-1.281,0.669-0.062,2.729-0.428,3.872c0.706-0.085,1.822,0.26,2.267-0.101
			c-0.703-0.961-1.177-2.537-0.542-3.898c-1.148-0.281-0.875-2.559-1.377-2.95C207.487,93.745,207.091,94.269,206.886,94.995z
			 M96.968,90.58c-0.608,0.466-1.609,0.519-2.29,0.909c0.093,2.765,3.367,7.516-0.231,8.57c0.186,1.001,0.825,0.884,0.271,1.95
			c0.961,0.226,3.165,0.379,4.371-0.044c-0.583-2.771-2.27-5.223-0.123-7.448C97.605,93.53,97.351,92.296,96.968,90.58z
			 M157.372,100.944c0.37,0.309,1.033-0.14,1.777,0.048c-1.693-1.941,0.791-3.469,0.787-5.157c-0.005-1.285-1.351-2.027-0.881-3.422
			C156.817,94.526,158.711,98.319,157.372,100.944z M187.124,95.757c1.488,1.05-0.001,3.069,0.687,4.55
			c0.514-0.18,0.713-0.688,1.158-0.94c-0.245-1.406-1.164-3.093-0.364-4.541c-0.489-0.166-0.485-0.8-1.109-0.839
			C187.432,94.641,187.188,95.104,187.124,95.757z M203.43,97.167c0.449,0.73,0.32,2.008,0.401,3.085
			c0.648-0.147,1.388-0.199,2.112-0.267c-0.738-1.883,0.018-2.82-0.365-4.541C204.912,96.071,204.197,96.648,203.43,97.167z
			 M185.039,101.042c-1.961-0.032-0.748-3.074-2.167-3.62c-0.425,1.189,0.256,1.835,0.08,3.078
			c-0.139,0.409-0.812,0.252-0.832,0.787c2.026,0.026,3.914,0.168,5.017-0.027c-1.312-1.869-0.724-3.697-1.294-6.021
			C184.627,97.237,185.332,99.012,185.039,101.042z M228.125,99.45c1.696,0.099,2.246,0.086,3.393,0.253
			c-0.782-0.812-0.159-1.982-0.896-2.774c-0.036,0.516,0.125,1.241-0.517,1.118c-0.766-0.271-0.436-1.584-1.412-1.656
			C228.304,97.199,228.099,98.202,228.125,99.45z M224.468,97.086c0.067,0.843,0.657,1.626,0.259,2.434
			c1.325,0.019,1.9,0.01,2.592-0.092c-0.65-0.644-0.246-2.288-1.059-2.779C225.808,97.317,224.892,96.542,224.468,97.086z
			 M145.847,96.265c0.23-0.374-0.424-0.996-0.608-1.473C144.755,95.404,145.261,96.168,145.847,96.265z M216.853,97.528
			c-0.471,0.479-0.265,1.028-0.213,1.774c-0.291,0.296-0.493-0.234-0.654,0.307c0.88,0.119,1.235,0.184,2.421,0.227
			c-0.264-1.277,0.699-1.259,0.709-2.246C218.453,95.629,217.594,98.298,216.853,97.528z M190.773,98.444
			c0.013-0.853,0.1-1.777-0.43-2.115C190.085,96.859,190.197,98.202,190.773,98.444z M220.412,97.463
			c-0.074,0.46-0.23,1.28-0.223,2.259c1.24,0.145,1.998-0.22,3.237-0.074c-0.23-0.779-0.177-1.827-0.58-2.444
			C221.896,97.145,221.111,97.258,220.412,97.463z M192.8,101.25c0.484-0.044,0.988-0.066,1.146-0.455
			c-0.619-0.905,0.235-1.551,0.236-2.745c-0.486-0.38-1.437-0.32-1.757-0.856C191.779,98.751,192.306,100.008,192.8,101.25z
			 M211.476,98.84c-0.031,0.5,0.177,0.778,0.293,1.14c1.298,0.039,2.213-0.325,3.566-0.227c-0.206-0.698-0.687-1.138-0.758-1.962
			C213.22,97.799,212.839,98.838,211.476,98.84z M85.012,95.922c-0.017-0.562,0.091-1.242-0.45-1.307
			C84.276,95.181,84.011,95.972,85.012,95.922z M179.122,98.455c0.504,0.913,0.321,1.631,0.245,2.918
			c0.775-0.123,1.786,0.001,2.434-0.258C180.617,99.787,181.155,95.365,179.122,98.455z M186.73,98.335
			c0.412-0.008,0.634-0.218,0.665-0.629C186.982,97.716,186.763,97.925,186.73,98.335z M195.721,101.005
			c1.075-0.085,2.68,0.389,3.087-0.402c0.057-0.607-0.246-1.407-0.265-2.272c-0.662,0.239-1.757-0.016-2.579-0.394
			C195.47,98.622,195.191,100.187,195.721,101.005z M200.745,100.655c0.521,0.05,0.693-0.268,1.299-0.126
			c0.046-0.936,0.103-1.883-0.259-2.435c-0.462,0.188-1.002,0.173-1.454-0.039C200.47,98.921,200.64,99.756,200.745,100.655z
			 M152.454,97.251c-0.632-0.108-2.093,0.338-2.928,0.569c0.553,1.015,0.686,2.291,0.718,3.417c0.866-0.309,1.171-0.279,2.433-0.258
			C152.344,99.716,151.442,98.514,152.454,97.251z M168.69,101.25c1.094,0.462,1.707-0.147,2.745,0.235
			c0.599-1.407-0.379-2.586,0.26-3.715c-1.251-0.017-1.289,0.141-2.423-0.065C168.574,98.875,169.8,100.628,168.69,101.25z
			 M167.396,101.214c-0.323-1.318,0.256-2.027-0.236-3.243c-1.028,0.179-0.761,0.187-1.778-0.047
			C163.926,99.891,164.834,101.655,167.396,101.214z M51.042,101.48c0.653,0.313,1.583,0.536,2.583,0.232
			c-0.431-0.38-0.05-1.529-0.599-1.797c-0.125,0.477-0.548,0.641-0.835,0.949c-1.205-1.291,0.143-4.003-1.81-4.903
			C49.867,98.106,51.958,99.318,51.042,101.48z M189.729,101.167c0.31,0.33,0.921,0.128,1.294,0.036
			c0.048-0.73-0.438-0.951-0.774-1.315C190.129,100.371,189.612,100.435,189.729,101.167z M264.808,107.396
			c-1.526-0.919-2.357-3.859-4.237-4.969c-1.095,0.488-1.383,1.163-2.464,1.389c-0.354-0.188-0.42-0.65-0.788-0.83
			c-3.94,0.089-6.776,0.044-9.866-0.104c-7.833-0.373-15.515,0.356-23.634,0.335c-5.102-0.013-10.945,0.678-16.355,0.37
			c-1.091-0.063-2.547-0.124-3.561,0.065c-2.732,0.511-5.205,0.887-8.117,0.915c-10.986,0.106-19.45,0.621-29.122-0.137
			c-1.011-0.079-2.203-0.244-3.23-0.249c-11.159-0.052-22.938,1.506-34.333,1.019c-10.028-0.431-20.918,0.575-30.924,0.624
			c-0.814,0.003-1.78-0.004-2.588-0.07c-7.968-0.649-15.616,0.125-23.463,0.016c-7.084-0.1-14.188-1.138-21.335-0.898
			c-1.309,6.715,0.867,16.868,7.95,17.205c5.529,0.263,8.508-6.982,9.837-10.738c0.504,0.415,0.918,0.915,2.085,0.703
			c0.431,4.428,3.521,9.964,7.814,10.243c4.226,0.274,7.035-3.295,9.226-6.062c0.05-1.049,0.236-2.809,1.231-3.688
			c0.687,0.239,0.024,1.692,0.271,1.949c0.589-0.082-0.053-1.484,1.009-1.43c1.822,2.792,2.72,6.458,5.77,8.085
			c0.093,0.355-0.472,0.502,0.148,0.489c0.502-0.768,2.167,0.42,3.536,0.904c0.422-0.054,0.501-0.469,0.984-0.458
			c6.55,1.24,8.421-5.685,9.644-9.611c0.281,0.019,0.503-0.023,0.65-0.145c1.132,3.998-2.091,7.485-3.831,10.091
			c2.455,0.271,5.743-0.491,6.582,1.958c0.718,2.096-0.761,4.785-0.043,7.603c2.22-0.63,3.414-0.39,5.831-0.166
			c3.693,2.205-0.021,5.868-1.507,7.887c2.55,2.283,4.187,6.198,2.955,10.437c-1.364,4.7-7.017,6.626-11.511,6.812
			c0.108,0.501-0.452,0.299-0.345,0.799c0.721,1.49,2.481,2.255,1.827,4.257c-0.232,0.709-0.886,0.554-1.486,1.093
			c-2.712,2.435-7.103,5.565-5.287,10.053c3.417,0.25,5.142-2.354,7.386-3.847c3.059-2.037,7.099-4.336,10.819-5.211
			c3.216-0.492,5.513,0.333,8.396,0.711c5.29,2.737,10.354,7.275,10.468,13.874c8.94,0.529,16.763-0.466,23.792-0.168
			c0.327-0.329,0.151-1.07,0.039-1.456c2.741-8.647,3.939-18.751,4.962-28.021c0.131-1.197,0.764-2.376,0.904-3.536
			c0.546-4.531,0.837-9.961,2.949-13.352c-0.443-1.093,0.235-2.097,0.562-2.897c2.753-1.283,6.658-0.176,10.357-0.044
			c12.645,0.448,24.896-2.694,36.282-1.289c0.423-0.354,2.033-0.889,2.263,0.061c0.787-0.648,1.175,0.184,1.932,0.376
			c-0.254,0.008-0.559-0.037-0.492,0.311c0.216,0.005,0.431,0.012,0.646,0.017c-0.021,0.919,0.77,1.838,0.914,2.128
			c-0.621,3.739,1.164,7.708,1.475,11.367c0.838,9.933,1.981,21.551,4.354,30.539c0.21-4.648-0.448-13.409,0.191-19.089
			c-0.413-5.252,0.027-10.53-0.067-15.537c0.245-0.185,0.727-0.12,0.664-0.63c-0.398-0.224-0.522,0.626-0.651,0.145
			c0.052-2.506,0.507-4.47,0.188-6.953c0.595-0.752,0.177-2.114,0.253-3.391c0.094-1.556,1.039-3.829-0.377-4.055
			c-0.461,0.149,0.509,0.166-0.014,0.483c-1.135,0.1-2.646,0.19-3.246,0.399c-1.405-1.104-4.743-1.713-4.747-4.011
			c-2.074-0.285-1.917-3.931-3.751-4.957c-0.096,0.655-0.865,1.8-0.21,1.775c-1.437,1.23-1.062,3.354-3.177,3.798
			c-0.264,2.036-3.082,1.897-4.579,1.818c-3.716-0.195-6.075-0.762-7.981-4.099c-0.515-0.904-0.561-2.031-1.542-2.792
			c-0.691,1.092-0.667,2.899-1.888,3.994c-0.021-0.191,0.04-0.459-0.147-0.489c-1.398,4.932-11.749,6.22-12.766-0.667
			c0.28-0.057,0.406,0.25,0.485,0.013c-1.189-0.113-0.46-1.17-1.421-1.333c-0.697,1.048-0.577,2.669-2.193,3.339
			c-0.062,2.313-4.61,2.638-6.739,3.864c-1.325-0.218-1.364-1.293-1.744-1.341c-0.618,0.355-3.691-2.086-2.823-3.312
			c-0.515-0.156-0.347,0.411-0.661,0.467c-0.375-1.098-1.686-2.952-2.466-4.597c-1.132,2.031-1.457,4.956-3.086,6.552
			c-0.687,0.671-3.542,2.009-4.414,1.661c-0.646-0.257,0.506-0.333-0.324-0.009c-0.475,0.186-2.229,0.236-3.077,0.079
			c-4.187-0.773-6.211-5.185-8.169-9.12c0.045,0.99-0.377,1.488-0.86,1.919c-0.596,4.418-4.647,8.065-10.257,8.3
			c-4.132-1.968-5.979-6.1-8.313-9.771c-1.025,3.214-2.742,7.326-5.283,9.891c-0.668-0.047-0.505,0.522-1.137,0.131
			c-3.981,3.626-10.261-0.707-11.031-4.99c-1.604-0.957-2.797-3.887-3.078-5.908c0.256-0.174,0.352-0.517,0.822-0.463
			c2.643,4.442,4.105,9.207,9.571,11.1c5.89-1.034,7.776-7.145,9.238-12.535c0.659-0.023,1.102,0.316,1.774,0.209
			c1.277,2.415,1.914,5.435,4.018,7.066c1.504,4.072,6.851,3.872,10.169,0.921c0.743-1.876,2.095-3.111,2.726-5.104
			c-0.122-1.41-0.233-3.906,0.616-4.839c0.384-0.344,0.525,0.43,1.289,0.197c0.846,3.032,2.349,5.444,3.502,8.185
			c2.442,2.976,7.749,4.07,11.287,1.437c1.859-2.675,3.015-6.407,3.362-10.589c0.378-0.209,0.551-0.635,1.306-0.45
			c0.43,2.514,0.979,6.254,1.875,8.465c0.994,1.103,2.829,3.443,4.562,4.816c6.044,0.076,10.627-6.824,7.791-12.898
			c0.672-0.283,0.877,0.033,1.479-0.769c0.944,2.918,1.635,7.111,2.163,9.767c1.323,1.05,3.785,4.039,6.893,2.451
			c-0.193,0.327,0.233,0.777,0.315,0.333c-0.226-0.049-0.174-0.36-0.31-0.495c2.053-0.864,3.889-1.66,4.788-3.593
			c1.16-2.495,0.75-6.517,1.992-7.875c1.314,1.203,0.88,3.956,1.625,5.707c0.868,2.036,2.508,3.021,3.594,4.79
			c1.861,0.729,4.1,0.673,5.961,0.969c2.868-1.412,4.724-3.506,4.886-7.15c0.083-1.875-1.039-4.626,0.965-5.799
			c0.975,2.929,1.715,6.131,3.65,8.674c-0.047,0.303-0.264-0.099-0.328,0.153c0.884,0.732,1.624,1.849,2.502,3.304
			c0.979,0.583,2.75,1.607,3.661,2.202c3.415-0.389,5.303-2.487,6.446-5.004c1.146-2.523,0.531-6.503,2.786-7.369
			c0.562,0.465,0.405,1.613,1.081,1.971c-0.491,4.758,1.673,8.346,3.423,11.095c3.713,2.471,10.027,1.207,12.512-1.928
			c0.272-3.011-1.454-6.728,0.715-8.557c0.552,1.338,2.603,5.845,1.78,6.035c1.583,0.575,2.705,2.736,4.599,3.521
			C268.789,120.084,266.979,110.772,264.808,107.396z M121.259,101.914c0.942-0.393,2.796,0.179,3.729-0.223
			c-0.09-0.756-0.334-1.366-0.428-2.116C123.103,99.136,119.965,99.089,121.259,101.914z M85.013,101.909
			c0.969-0.126,1.551,0.094,2.591-0.092c0.769-1.994-1.629-1.913-2.513-2.818C84.574,100.019,84.978,100.724,85.013,101.909z
			 M89.282,99.596c0.635,0.741,0.536,1.101,0.262,2.272c0.917,0.025,1.833,0.05,2.75,0.074
			C92.8,100.297,90.654,99.031,89.282,99.596z M238.237,114.61c-0.145,3.054-2.979,5.865-3.636,8.802
			c0.772-0.067,0.199-1.404,1.333-1.421c1.005,0.303,1.036,0.247,2.103,0.057c0.534,0.65,0.575,1.7-0.378,1.932
			c-0.672-1.066-1.477-0.112-2.734-0.56c-0.239,1.062-0.734,2.78,0.065,3.562c0.029-0.69,0.495-0.918,1.314-0.773
			c0.209,0.485-0.112,0.701-0.038,1.455c-0.947,0.436-0.806-0.03-1.608-0.367c-0.182,0.499-0.36,1.66-0.536,1.928
			c0.624-0.399-0.159,0.953,0.288,1.302c-0.312,0.059-0.699,0.039-0.66,0.467c0.24,0.034,0.599-0.042,0.643,0.18
			c-0.395,1.698,0.273,3.691-0.624,5.161c0.617,0.36,0.19,1.71,0.419,2.438c0.444,0.249,0.969-0.203,1.285,0.359
			c0.523,0.802-0.628,1.548-1.323,1.098c0.039,0.771-0.419,1.197,0.117,1.621c-1.093,8.136,0.228,17.42-0.644,23.932
			c0.563,3.137-0.114,5.715,0.24,9.067c1.571,0.509,2.692,1.441,3.654,2.526c0.656-1.143-0.353-2.691,0.113-4.204
			c-0.674-0.055-0.771,0.243-1.295-0.035c0.016-0.381-0.264-0.482-0.135-0.975c0.247-0.35,0.449-0.744,1.149-0.616
			c0.128-1.845,0.061-3.938-0.484-5.999c-0.491,0.702-0.855,1.534-1.512,2.062c-0.908-0.636-0.484-3.413,0.895-3.213
			c0.437,0.113,0.435,1.115,0.952,0.674c-0.132-1.746-0.001-2.322,0.105-3.883c-1.166,0.285-1.208,0.915-1.508,1.902
			c-0.162-0.006-0.196,0.126-0.328,0.153c-0.64-0.077-0.921-0.495-1.105-1.002c0.083-0.577,0.949-0.329,0.997-0.943
			c-0.214-0.492-0.847,0.314-1.128-0.192c0.04-0.623-0.09-1.425,0.365-1.607c1.252-0.104,1.52,1.459,2.562,1.038
			c0.006-0.269,0.016-0.537,0.021-0.809c-0.511-0.046-1.343-0.294-1.258-1.327c0.124-0.479,0.659-0.525,1.306-0.45
			c0.186-1.647,0.031-4.592,0.01-6.312c-0.76-0.017-1.655,0.098-1.6-0.69c0.004-1.279,1.356-0.687,1.8-0.76
			c-0.223-1.526,0.518-3.027,0.131-4.853c-0.441-0.138-1.724-0.057-1.753-1.017c0.084-0.466,0.362-0.729,0.831-0.787
			c0.573-0.072,0.381,0.584,0.955,0.512c0.356-1.968-0.026-2.767,0.145-5.336c-0.429-0.015-0.955,0.064-0.961-0.35
			c-0.085-1.143,0.755-1.31,1.184-1.911c-1.061,0.221-1.116-0.518-1.595-0.851c-0.549-0.136-0.224,0.651-0.821,0.463
			c-0.778-0.148-1.44-1.752-0.272-1.95c0.694,0.131,0.977,0.651,1.596,0.853c0.086-0.781,0.9-0.044,1.132,0.03
			c0.938-3.248,0.089-5.646,0.868-8.229c-0.975-0.153-0.759,0.698-1.624,0.28c0.121-0.589-0.334-0.631-0.294-1.141
			c0.346-0.134,0.491-0.48,0.984-0.458c0.631-0.125,0.244,0.712,0.957,0.511c-0.639-2.775,0.896-4.693,0.199-7.438
			c-0.842,0.331-0.35,2.069-1.512,2.063c-1.078-0.184-0.481-1.758,0.057-2.102c0.646-0.299,0.485,0.33,1.132,0.03
			C238.924,117.457,238.559,115.724,238.237,114.61z M68.796,115.227c0.865,0.267,0.751-0.917,0.188-0.965
			C68.792,114.447,68.785,114.828,68.796,115.227z M162.849,180.059c-0.34,0.081-0.351,0.243-0.177,0.481
			c-4.566-0.995-7.944,0.647-12.773-0.344c-0.931,1.062-4.267,0.393-5.18,0.021c-1.524,0.963-4.141,0.168-5.843,0.652
			c-3.926-1.261-11.56,0.738-17.948-0.484c-0.486,0.819-1.198,1.397-1.364,2.554c-0.836,0.059-0.85,0.986-1.332,1.42
			c-0.536,0.268-0.832,0.785-1.482,0.932c-5.526,7.446-19.699,9.294-26.759,2.192c-1.042,1.306-3.052,2.972-5.433,3.412
			c-0.378-0.271-0.836-0.466-0.943-0.995c1.033-2.86-0.043-5.877,0.72-8.719c-0.689-1.518-0.378-3.892-0.167-5.829
			c0.359-3.302,0.415-5.891,1.385-9.351c1.078-3.847,3.207-7.249,4.828-11.035c1.52-0.67,3.877-2.156,5.572-2.601
			c0.369-1.409,0.961-2.361,1.087-4.339c-1.091-0.284-1.386,0.349-1.761-0.693c-0.202,0.54,0.095,0.689-0.188,0.963
			c-1.882-0.404-5.465,0.922-6.425-1.791c-0.925-2.616,1.87-4.982,4.208-6.034c-1.192-2.128-2.627-4.024-3.715-6.25
			c-2.14-0.235-1.595-2.986-0.853-4.392c1.543-0.838,3.447-2.976,4.929-2.78c1.153-1.555,3.636-1.704,4.938-3.104
			c-4.205-0.204-7.397-5.146-7.719-7.813c-0.861,0.028-0.362-1.233-1.096-1.324c-0.726,7.227-11.377,12.822-16.831,6.019
			c1.154,18.773,1.513,38.084,3.005,56.718c2.077-0.468,5.125,0.631,7.604,0.043c0.258,0.614,0.386,1.205,0.109,1.945
			c-2.74,0.475-5.179-0.741-7.932,0.109c-0.268,0.603-0.745,0.986-1.014,1.591c-0.665-0.203-0.639,0.323-1.141,0.292
			c-5.515,5.488-12.265,9.672-17.566,15.387c4.461-0.153,10.301-0.608,15.396-0.881c7.105-0.38,14.787-1.05,22.022-0.54
			c5.862,0.413,13.259,0.271,19.264-0.29c7.978-0.745,15.975,0.665,23.613,0.474c4.138-0.104,8.449,0.056,12.293,0.168
			c13.516,0.399,25.888,0.807,38.638,1.365c21.62,0.943,42.984-0.344,64.574-0.367c-0.218-1.287-1.627-2.462-2.989-3.155
			c-3.755-3.847-7.681-7.533-11.177-11.625c-0.965-0.348-1.769-0.846-2.053-1.837c-0.432-0.169-0.82-0.378-1.281-0.521
			c0.013-0.595-0.697-1.324-1.104-0.999c0.554,2.892,2.905,7.768-1.525,8.534c0.004-0.161,0.009-0.323,0.013-0.484
			c-3.446-0.321-9.076-1.293-13.753-0.046c0.509,3.211,0.031,5.792-3.076,6.065c-10.808-2.299-22.323-1.772-32.31-2.002
			c-2.593,0.623-6.602-0.382-10.518,0.04c-3.332,0.358-6.716,3.341-8.419,0.097c-0.114-0.564,0.257-0.614,0.192-1.127
			c-2.257-0.562-0.789-2.291-0.402-3.087c0.859-1.761,0.854-4.592,1.464-6.271c-0.28-0.387-1.376,0.336-1.774-0.209
			C162.853,180.228,163.094,180.15,162.849,180.059z M67.568,118.754c0.845-1.769,3.644,0.773,3.029,1.699
			c-0.715,1.075-1.645-0.373-2.574-0.554c-0.233,1.944-0.187,4.82,0.14,6.8c2.384-0.452,1.517,2.278-0.379,2.093
			c0.513,1.803-0.186,3.439,0.677,4.873c0.282-0.091,0.008-0.767,0.345-0.8c0.384,0.109,1.179-0.171,1.289,0.197
			c0.144,0.649-0.496,0.474-0.353,1.124c0.883,0.196,1.175,1.418,0.59,2.118c0.307,0.339,0.946,0.365,0.944,0.998
			c-0.355,1.26-2.316,1.638-2.758,0.25c0.56-0.408,1.482-0.434,1.652-1.252c-0.805-0.129-1.198-0.648-1.918-0.86
			c0.017,3.967-0.1,8.929,0.63,12.638c0.151-0.394,0.396-0.691,0.987-0.62c0.853,0.368,0.738,0.965,0.438,1.791
			c0.816,0.681,2.053,1.616,1.381,2.788c1.572-0.975,0.126-4.762,0.488-6.135c-0.308-0.178-0.906-0.067-0.948-0.837
			c0.095-0.452,0.373-0.715,0.83-0.784c0.146-0.77-0.225-1.049-0.113-1.784c-0.291-0.522-0.752,0.093-0.957-0.512
			c0.391-0.253-0.029-1.361,0.838-1.11c0.104-2.81-0.312-5.93-0.407-8.91c-0.541,0.039-0.73,0.449-1.464,0.284
			c-1.158-1.464-1.376-3.603,1.363-2.552c-0.579-1.572,0.306-3.72-0.516-4.869c0.081,0.805-0.762,0.637-1.473,0.608
			c0.05-0.521-0.267-0.692-0.127-1.298c0.321,0.006,0.218-0.436,0.655-0.306c0.793-0.184,0.732,0.962,1.281,0.52
			c-0.413-2.204-0.031-5.542-0.774-7.303c-0.893,0.059-1.604-0.055-1.927-0.537C68.043,117.041,67.235,118.009,67.568,118.754z
			 M216.359,121.788c-0.009-0.412-0.219-0.633-0.629-0.664C215.739,121.536,215.949,121.757,216.359,121.788z M212.796,121.854
			c0.059-0.421-0.038-0.697-0.466-0.66C212.273,121.616,212.371,121.891,212.796,121.854z M243.015,153.574
			c0.436-8.229,0.223-19.473,2.521-27.603c-1.443-0.457-3.662-1.192-3.169-2.513c-0.403,0.691-0.896-1.103-1.586-1.176
			c-0.608,3.293,0.175,9.646-1.298,12.102c0.316,0.058,0.326-0.209,0.494-0.31c-0.537,4.326-0.07,7.411-0.93,10.492
			c0.386,0.213,0.504,0.678,0.616,1.15c-0.913,3.84-0.421,9.988-0.562,14.871c-0.072,2.494-0.601,4.737-0.013,6.473
			c-0.326,0.377-0.166,1.268-0.687,1.439c0.301,0.03,0.538,0.12,0.639,0.34c0.16,3.716,0.21,7.253,0.359,10.689
			c1.505,1.363,3.069,3.492,4.575,4.331C243.513,173.44,242.433,162.704,243.015,153.574z M67.059,137.673
			c0.473-0.653-0.242-0.47-0.468-0.662c-0.741-5.221,0.099-10.463-0.679-16.846c-1.162,0.604-1.889,1.667-2.976,2.347
			c0.177,7.461,0.865,15.248,1.173,22.525c1.467,12.386,0.397,26.321,2.041,38.406c3.14-1.078,2.64-3.182,2.298-7.22
			c-0.889-10.507-1.787-19.907-1.323-29.003c-0.369-2.317-1.093-7.637-0.062-9.71C66.974,137.51,66.876,137.638,67.059,137.673z
			 M101.713,124.689c-3.956,1.806-9.312,3.252-12.165,7.116c5.243-0.006,6.705-1.308,11.209-1.641
			c0.944-0.877,3.473-1.412,4.724-1.167c1.594-1.699,4.651-1.854,5.458-4.384C108.555,123.205,104.807,124.563,101.713,124.689z
			 M96.012,132.141c-0.072,0.276,0.229,0.421-0.013,0.486c-1.554,0.075-3.434,0.587-4.72,1.005c1.428,3.112,3.449,5.661,5.442,8.238
			c5.823-0.299,11.25-2.248,15.195-5.417c-0.213-1.374-0.813-4.547-0.018-5.341c-0.312-1.249-0.341-2.222-0.21-4.212
			c-1.319,0.493-2.124,1.528-3.295,2.176c0.056-0.261-0.206-0.442-0.319-0.17c-2.292,1.879-6.458,2.123-9.138,2.829
			c0.09,0.003,0.187-0.126,0.004-0.162C98.503,132.304,96.911,132.418,96.012,132.141z M213.494,132.067
			c-6.895-0.121-13.538,0.891-20.745,1.221c-4.991,0.229-11.045-0.189-15.379,0.233c-0.344,2.999-1.422,5.88-1.856,8.852
			c-0.141,0.949,0.107,1.969-0.078,2.909c-0.312,1.571-1.245,2.784-1.251,4.336c-0.005,1.7-0.093,2.543-0.432,4.033
			c-0.599,2.63-0.511,5.506-1.032,8.226c-1.726,9.037-4.591,17.301-5.859,25.41c2.262,0.84,4.524-0.846,6.82-0.949
			c2.213-0.101,4.424,0.388,6.627,0.34c2.271-0.048,4.575-0.293,6.964-0.297c8.106-0.017,17.243,0.945,25.532,1.334
			c2.931-17.333,4.3-39.2,7.628-54.976C218.394,131.696,215.208,131.788,213.494,132.067z M113.768,133.752
			c-0.199,1.042,0.127,1.908-0.087,3.234c-4.37,4.059-11.693,6.643-17.812,6.479c-0.749-0.498-1.438-1.054-2.225-1.517
			c-1.464,0.756-3.407,1.8-3.02,3.964c3.256,1.522,6.176,0.068,9.086-0.887c1.416-0.467,3.029-0.357,4.227-0.696
			c6.217-1.756,13.036-5.052,15.635-9.773c-0.426-0.173-0.515-0.667-0.782-0.992C116.949,133.111,114.953,134.072,113.768,133.752z
			 M222.642,146.877c1.327-0.191,1.564-2.735,0.738-3.378C223.651,144.602,222.418,145.296,222.642,146.877z M111.104,148.567
			c-1.074,2.463-4.323,3.005-5.9,2.754c-1.7-1.437-1.438-3.065-2.78-4.929c-0.575,0.207-2.206,0.486-3.098,0.887
			c0.162,0.739,1.128,0.717,1.254,1.49c-0.203-0.041-0.324-0.261-0.328,0.152c0.127,0.482,0.252-0.366,0.65-0.144
			c0.824,2.449-1.282,4.312-2.105,6.092c0.549-0.01,1.076,0.424,1.263,1.167c1.304,0.195,2.278-0.396,3.242-0.235
			c1.652,0.275,1.981,2.427,3.982,2.371c0.205-0.447,0.389-0.919,0.524-1.441c-1.741-0.405-8.479-4.593-4.848-6.279
			c1.992,3.263,5.714,5.365,10.573,4.006c6.441-0.699,8.66-11.423,2.144-13.536c2.199,3.131,2.227,9.025-3.775,7.992
			C112.285,148.428,111.614,148.824,111.104,148.567z M110.92,143.385c-2.225,1.898,3.625,5.397,4.466,2.385
			c0.208-0.743-0.183-2.172-0.905-2.451C114.319,145.303,110.793,145.998,110.92,143.385z M108.429,145.745
			c-0.321,1.482-2.73,1.948-2.749-0.073c-0.806-0.156-0.966-0.137-1.307,0.448c0.406,1.244,0.851,2.451,1.692,3.283
			c3.613,1.141,4.126-3.826,1.756-5.132C107.376,144.997,108.263,145.15,108.429,145.745z M222.074,149.937
			c0.849-0.046,0.724-1.12,1.806-0.922c-0.123-0.409,0.351-1.385-0.289-1.304C223.308,148.688,222.476,149.086,222.074,149.937z
			 M221.656,153.485c0.832-0.783,3.213-2.219,2.034-3.504C222.887,151.015,222.158,152.132,221.656,153.485z M98.081,151.452
			c1.208-0.02,2.241-2.144,0.55-2.412C98.778,150.193,98.186,150.566,98.081,151.452z M221.388,157.361
			c0.777-1.85,3.319-2.508,3.204-4.769C223.235,153.665,221.29,155.86,221.388,157.361z M69.369,160.067
			c0.114-0.49,0.382-0.818,0.993-0.785c0.643,0.179,0.528,1.077,0.765,1.64c-1.149,0.279-0.71,1.843-2.149,1.723
			c0.817,1.483-0.12,2.72,0.367,4.378c1.498-1.45,1.864,0.794,2.548,1.526c0.145-0.68,0.93-0.68,1.167-1.264
			c-0.208-1.375-0.281-2.673-0.223-3.729c-0.587,0.156-0.482,1.044-1.005,1.268c-1.069,0.015-2.178,0.068-2.242-0.869
			c0.597,0.186,0.332-0.536,0.664-0.629c1.179,0.186,2.011-0.145,2.762-0.412c-1.191,0.096-2.628-2.211-0.428-2.114
			c0.458-3.196-0.249-4.505-0.123-7.446c-0.34-0.375-0.555,0.118-1.132-0.031c-0.055,0.473,0.353,0.506,0.298,0.98
			c-0.38,0.208-0.553,0.634-1.307,0.449c-0.133-0.399-0.357-0.711-0.288-1.305c0.379-0.04,0.673-0.173,0.979-0.295
			c0.009-0.324,0.018-0.648,0.026-0.97c-1.125-0.361-1.599-1.61-1.381-2.788c-0.5,0.106-0.299-0.452-0.8-0.348
			C68.606,153.31,68.251,156.364,69.369,160.067z M221.661,159.312c1.322-0.766,1.805-2.42,3.316-2.986
			c-0.036-0.545,0.254-1.396-0.45-1.307C223.509,156.383,222.382,157.633,221.661,159.312z M220.227,164.45
			c1.098,0.238,0.762-0.731,1.339-1.582c0.91-1.345,4.627-3.538,3.044-4.935C223.145,160.101,221.205,161.767,220.227,164.45z
			 M92.627,155.676c0.109,0.669-0.271,0.823-0.201,1.451c-2.737,1.521-4.08,5.317-5.081,8.439c-2.362,7.363-1.53,15.651-1.747,22.77
			c5.218-2.397,7.73-7.651,9.421-13.34c0.277-0.207,0.553-0.413,1.141-0.293c-0.343-3.545,1.463-7.043,3.325-9.296
			c-0.991-3.945-4.897-5.129-6.071-8.9c0.322-0.604,1.079-0.746,1.175-1.585C94.042,154.625,93.236,155.481,92.627,155.676z
			 M96.132,157.712c0.562,0.624,0.852,1.505,1.897,1.669c0.682-0.828,0.17-2.061-0.083-2.915
			C96.916,156.432,96.582,157.134,96.132,157.712z M225.021,160.696c-1.672,1.508-2.604,3.942-3.876,5.721
			c-0.363,0.509-1.73,0.952-0.855,1.757C220.944,165.589,227.401,163.148,225.021,160.696z M100.625,159.127
			c-0.39,0.864-0.998,1.497-1.358,2.392c0.579,0.5,0.734,1.404,1.573,1.659c0.793-1.198,2.528-2.82,1.564-4.002
			C102.293,159.016,101.223,159.25,100.625,159.127z M99.962,165.744c-0.947,3.405-3.785,7.829-1.437,11.289
			c2.419,0.584,4.455,1.643,5.995-0.325c-2.638-1.8-3.147-5.612-2.024-8.954c1.025-0.393,1.17-1.441,1.84-2.217
			c1.559-1.805,4.316-2.67,4.824-4.885c-0.033-0.128-0.131-0.192-0.319-0.172C106.584,162.978,103.03,164.104,99.962,165.744z
			 M222.739,167.269c1.267-1.047,3.099-1.497,3.493-3.465C224.716,164.484,223.299,166.127,222.739,167.269z M220.168,172.702
			c-0.281,0.385-1.516,0.594-0.682,1.276c1.777-1.849,4.358-4.26,6.007-6.798c-0.623,0.172-1.077,0.843-1.476,0.77
			C222.986,168.93,221.474,170.899,220.168,172.702z M225.254,170.088c0.687-0.518,1.367-0.19,1.938,0.213
			c-0.346-0.619-0.221-1.682-0.92-1.967C226.116,169.111,225.327,169.222,225.254,170.088z M124.549,166.082
			c-0.33,3.069,4.182,2.732,4.676,0.611C127.95,166.653,125.869,165.698,124.549,166.082z M130.152,168.336
			c-0.117,0.794,0.691,0.712,1.106,1C131.52,168.44,130.774,167.9,130.152,168.336z M226.827,171.749
			c-3.896,1.018-4.532,7.309-8.648,8.666c-0.161,0.889,0.288,1.197,0.936,1.32c2.794-3.205,5.214-6.805,8.35-9.646
			c0.042-0.51,0.032-0.976-0.291-1.141C227.019,171.15,227.09,171.68,226.827,171.749z M119.62,168.863
			c-0.2,1.684,1.091,3.441,2.658,3.469C124.362,170.856,122.386,168.013,119.62,168.863z M69.677,172.696
			c0.658,0.03,0.673-0.619,1.311-0.613c-0.026-0.637,0.093-1.121,0.52-1.278c0.716,0.056,1.146,0.385,1.268,1.004
			c-0.243,0.463-0.65,0.755-1.315,0.772c-0.13,0.492,0.15,0.595,0.135,0.976c-0.579,0.367-0.961,0.826-1.626,0.281
			c0.016,2.598,0.406,4.227,0.486,5.998c0.828,0.047,0.349-0.793,0.358-1.283c1.333-1.072,3.874-1.165,2.674-3.165
			c-0.6-0.19-0.472,0.39-0.979,0.298c-0.207-0.276-0.414-0.553-0.293-1.142c0.501,0.029,0.778-0.177,1.141-0.292
			c0.214-1.989-0.427-3.166-0.35-5.026c-0.75,0.185-0.776-0.314-1.119-0.516c-0.366,0.444-0.671,0.955-1.481,0.93
			c-0.801-0.274-0.052-1.067-0.441-1.628c-0.161-0.005-0.323-0.009-0.485-0.014C69.332,169.767,69.926,170.83,69.677,172.696z
			 M218.616,176.221c0.214,0.804-0.616,1.624,0.108,1.944c2.07-1.566,3.845-4.181,4.532-6.027
			C221.688,173.475,220.701,175.428,218.616,176.221z M114.087,170.007c0.493-0.032,1.104,0.056,1.145-0.454
			C114.814,169.668,114.311,169.69,114.087,170.007z M126.525,170.827c-0.283,1.058-0.297,1.366-0.393,2.579
			c0.698,0.441,1.293,0.979,1.9,1.508c1.775-0.069,3.195-0.77,4.733-1.49C132.513,170.678,128.671,169.948,126.525,170.827z
			 M221.876,181.324c2.734,0.343,7.441-4.211,5.206-6.98C225.113,177.146,223.484,178.493,221.876,181.324z M112.907,171.755
			c-0.58,1.018-0.923,2.988,0.049,4.211c2.467,0.435,3.923-1.971,5.043-0.998c-0.203-1.009,0.364-2.61-0.56-3.251
			C115.932,172.286,114.617,171.649,112.907,171.755z M135.991,173.833c-0.585,1.051-0.427,2.163-0.253,3.393
			c1.38,0.698,1.929,2.152,3.851,1.235C139.576,175.925,137.727,174.516,135.991,173.833z M106.344,175.14
			c0.599,0.673,0.9,1.005,0.585,2.282c0.966,0.26,1.132,0.345,1.944-0.111c-0.22-1.309-0.975-1.957-0.397-3.247
			C107.574,174.22,106.84,174.556,106.344,175.14z M125.573,176.142c-0.903-1.802-2.656-1.694-4.668-0.933
			C119.586,178.617,125.924,179.252,125.573,176.142z M128.09,178.8c1.825-0.175,3.224-0.269,5.83-0.167
			C133.266,175.257,128.738,175.761,128.09,178.8z M226.412,181.121c0.921,0.274,1.677,0.032,2.273-0.262
			c0.012-0.904-0.368-1.437-0.59-2.118C227.484,179.481,227.031,180.39,226.412,181.121z M114.998,184.272
			c2.211-0.492,2.6-2.911,3.998-4.262C116.821,175.979,113.374,180.654,114.998,184.272z M109.643,178.788
			c0.047,1.044-1.557,2.071-0.909,3.697c0.837-0.317,0.646,0.178,1.286,0.358c1.156-0.498,2.709-0.576,2.494-2.521
			c-0.566,0.011-0.494-0.583-0.787-0.832c-0.361,0.061-0.887,0.351-0.965-0.187c0.255-0.009,0.56,0.037,0.494-0.312
			C110.56,179.484,110.264,179.115,109.643,178.788z M95.969,181.817c1.516,0.42,4.289,0.367,4.729-1.327
			C98.407,179.133,95.063,178.159,95.969,181.817z M101.266,183.417c1.821,1.694,4.711-0.183,4.917-2.295
			C104.708,181.396,101.499,181.279,101.266,183.417z M92.827,184.323c-0.659,0.302-0.966,0.975-1.022,1.914
			c0.693,0.481,1.513-0.116,2.425,0.065c0.224-0.818,0.957-1.097,1.185-1.91c-0.561-0.254-0.444-0.682-0.953-0.673
			c0.354-0.321-0.028-0.642-0.135-0.976c-0.518-0.212-0.138,0.521-0.656,0.308c0.062-0.38,0.272-0.601,0.192-1.128
			c-0.162-0.003-0.323-0.008-0.485-0.013C93.5,182.951,92.202,183.805,92.827,184.323z M105.628,189.683
			c2.665-0.698,4.451-1.296,6.385-2.739C109.67,183.94,104.84,184.904,105.628,189.683z M96.472,187.171
			c-0.54,2.614,3.563,2.755,6.08,2.593c-0.142-0.649-0.134-0.976,0.043-1.619c-0.937-0.74-2.178-1.193-2.854-2.18
			C98.348,185.979,96.787,185.647,96.472,187.171z M244.504,200.381c-3.987,0.096-9.147-0.104-13.779,0.924
			c-12.804-0.633-25.383-0.073-38.184-0.219c-5.697-0.067-11.493-0.593-17.463-0.472c-6.248,0.129-12.642-1.033-18.903-1.153
			c-5.948-0.118-11.819-0.535-17.459-0.634c-2.019-0.036-4.03,0.553-5.999,0.486c-6.332-0.216-12.149-0.89-18.103-0.811
			c-2.393,0.031-4.799,0.664-7.298,0.611c-18.538-0.387-35.51,0.007-53.12,1.645c-0.357,1.141-0.214,3.627-0.284,4.524
			c6.231,0.653,12.782-0.657,19.426-0.286c6.107,0.341,12.658-0.39,18.95-0.624c3.281-0.12,6.573,0.071,9.873-0.058
			c8.388-0.324,17.499-0.905,26.213,0.058c5.78,0.642,11.55-0.081,17.315-0.018c11.42,0.123,22.87,0.657,33.975,0.267
			c12.406-0.438,24.529-0.389,36.588-0.634c6.4-0.129,12.632,0.784,18.919,0.51c6.145-0.269,12.111,0.76,18.119,0.165
			c0.506-0.919-0.445-2.51-0.718-3.419C249.9,200.084,247.53,200.308,244.504,200.381z M232.635,208.476
			c0.928,4.238,1.803,7.982,3.406,11.742c-0.009,0.896,0.115,2.616,1.215,2.945c0.359-5.784,5.469-8.852,5.579-14.898
			C238.712,208.116,236.314,208.542,232.635,208.476z M244.452,208.308c1.263,6.211,3.788,10.349,7.379,14.438
			c1.819-4.356,2.861-9.188,4.25-13.64C252.564,209.352,248.168,208.46,244.452,208.308z M209.018,208.163
			c1.159,4.68,3.72,8.03,6.329,11.335c1.863-2.746,2.542-6.739,4.148-9.758c-0.32-0.485-0.568-1.038-0.6-1.797
			C215.327,207.531,211.805,208.728,209.018,208.163z M221.312,208.332c-0.05,3.756,3.018,5.834,3.13,9.955
			c1.123,0.302,0.849,1.927,1.879,2.316c1.757-3.534,3.239-8.207,4.05-12.189C227.083,208.579,224.588,207.906,221.312,208.332z
			 M196.405,207.824c1.001,4.957,3.332,8.673,6.146,12.139c1.187-3.53,3.026-7.475,3.548-11.556
			C202.765,207.922,200.034,207.977,196.405,207.824z M181.986,208.406c1.587,4.853,3.473,9.422,6.117,13.271
			c2.799-3.733,3.271-8.967,5.059-13.617C188.996,207.919,185.576,207.902,181.986,208.406z M167.266,208.333
			c2.008,3.979,3.541,8.411,6.652,11.346c0.36,0.34,0.3,1.079,0.607,1.474c2.029-1.794,2.059-5.701,3.927-7.663
			c0.248-2.27,1.454-2.543,1.429-4.977C175.258,208.355,172.249,208.146,167.266,208.333z M162.935,218.896
			c0.838-3.359,3.148-7.587,2.061-10.463c-2.703,0.144-6.297-0.124-9.379-0.253C156.935,212.817,159.786,215.998,162.935,218.896z
			 M193.737,216.813c-0.368,7.441,0.532,13.096,1.085,19.771c1.368-0.018,2.602-0.003,3.881,0.105
			c0.368-7.31-1.402-14.855-0.59-20.244c-1.383-2.102-2.453-4.5-3.202-7.205c-0.99,0.895-1.156,2.659-1.883,3.833
			c0.101,0.481,0.922,0.282,0.949,0.834c0.06,0.896-0.188,2.167-0.071,2.588C193.308,216.053,193.088,216.638,193.737,216.813z
			 M141.204,208.604c2.239,4.233,4.85,8.115,7.112,12.328c1.643-3.989,2.912-8.316,4.548-12.662
			C148.881,208.756,144.38,207.312,141.204,208.604z M114.523,207.886c0.47,3.231,2.979,4.53,3.681,7.543
			c1.644,1.278,2.011,3.767,4.249,4.482c0.92-4.418,1.759-8.671,2.915-12.06C121.371,207.516,117.861,208.4,114.523,207.886z
			 M134.882,221.056c0.655-1.179,0.69-2.147,1.232-3.689c1.163-3.306,3.818-6.585,2.822-8.662c-4.441-0.612-7.56,0.32-11.796-0.642
			C129.199,212.888,132.462,216.571,134.882,221.056z M206.419,214.565c0.338,0.311,0.956,0.356,0.944,0.998
			c-0.722,7.629-0.71,14.087,0.728,21.056c1.634-0.132,2.026,0.092,3.399-0.071c0.169-6.754-1-12.986-0.58-20.567
			c-1.048-1.789-2.674-3.032-2.923-5.579c-0.164-0.005-0.325-0.009-0.486-0.014C206.997,211.793,206.565,213.198,206.419,214.565z
			 M98.816,208.271c1.553,4.554,5.277,7.75,8.104,11.545c1.445-3.376,2.667-7.917,4.355-11.533
			C106.838,207.979,103.088,208.301,98.816,208.271z M83.922,208.518c0.829,2.604,2.415,5.577,3.991,8.036
			c0.959,1.494,2.88,4.009,4.401,4.812c2.176-3.645,2.845-8.869,4.396-12.989C92.401,207.881,88.523,208.385,83.922,208.518z
			 M74.266,218.612c0.607,1.351,0.751,3.374,2.491,3.629c2.01-4.364,3.79-8.971,5.387-13.771c-3.854,0.004-8.601,0.774-13.116,0.293
			C70.225,211.937,72.667,215.067,74.266,218.612z M150.978,218.252c0.085,0.444,0.822,0.271,0.788,0.829
			c-1.041,5.369,0.272,11.24,0.358,16.678c1.184,0.384,3.063,0.153,3.896-0.38c-1.55-7.166,0.633-15.938-0.837-23.002
			c-0.147-0.699-0.654-1.568-1.237-2.136C152.901,213.222,151.731,215.108,150.978,218.252z M110.443,215.218
			c0.191,0.397,0.805,0.394,0.782,0.994c-0.24,7.039-0.407,12.594,0.916,20.089c1.966-0.08,2.306-0.119,4.213-0.21
			c0.157-7.271-1.149-13.673-0.234-21.367c-1.484-1.598-2.271-4.116-3.576-5.436C111.895,211.442,111.462,213.232,110.443,215.218z
			 M219.533,214.272c0.301-0.202,0.922-0.071,1.12,0.515c-1.025,6.63-0.951,13.426,0.264,20.233
			c-0.359,0.119-0.23,0.756-0.669,0.792c-0.512,0.063-0.354-0.506-0.963-0.349c-1.161-6.182-0.468-13.384-0.787-18.793
			c-1.198,1.94-1.316,4.748-4.028,5.394c-0.825-0.742-0.607-2.472-1.867-2.802c-0.799,3.98,0.089,9.13,0.45,13.282
			c0.126,1.415-0.508,2.839,0.382,3.894c4.219-0.729,7.924,0.245,11.347-0.665c-0.017-1.207-0.095-3.043-0.222-3.891
			c-0.46-3.119,0.059-6.692-0.069-9.386c-0.116-2.474-2.869-5.523-2.383-7.67c-1.062-0.517-1.008-2.094-2.032-2.646
			C220.045,212.93,219.261,213.755,219.533,214.272z M55.416,209.53c2.201,4.166,4.419,8.313,6.457,12.633
			c2.454-3.895,3.964-8.787,5.701-13.438C64.449,209.214,58.936,209.427,55.416,209.53z M123.711,221.239
			c0.7,4.942-0.205,10.736,1.531,15.252c2.048-0.03,3.522,0.195,4.864-0.354c-0.893-5.721-1.735-13.616-0.597-19.919
			c-1.147-1.749-1.941-3.832-3.418-5.271C125.288,213.61,124.765,217.914,123.711,221.239z M164.18,220.711
			c0.225,0.664-1.014,1.745-1.192,2.234c-1.373,3.777,1.048,9.659,0.465,12.795c1.291,0.205,3.128,0.21,4.686,0.287
			c0.985-4.173-1.005-10.948-0.247-14.895c-0.277-0.069-0.421,0.231-0.485-0.013c1.032-2.027-1.163-5.693,1.136-6.117
			c-0.593-0.806-0.898-2.718-2.037-2.482C165.594,214.444,165.343,218.501,164.18,220.711z M144.05,217.095
			c-1.115,5.428-0.1,11.373-0.334,18.438c-0.75,0.473-1.339-0.353-1.595-0.852c0.269-5.902-0.19-15.176,0.382-20.217
			c-0.875-0.749-1.043-2.164-2.194-2.649c-1.083,2.404-2.038,4.945-2.954,7.526c0.961,5.111-0.082,11.911,1.815,16.717
			c3.897-0.173,7.954,0.533,11.825-0.493c-1.307-4.072-0.578-9.541-1.246-13.787C147.015,225.908,145.639,219.056,144.05,217.095z
			 M182.209,236.244c1.618,0.512,2.467,0.268,4.361,0.278c-1.439-4.306,0.268-10.38-0.879-15.395
			c-0.487-2.13-3.453-6.917-4.158-7.879C181.122,220.88,181.624,229.601,182.209,236.244z M228.594,220.341
			c-0.58,1.403-2.527,2.658-2.85,3.646c-0.68,2.092-0.007,4.659,0.146,6.639c0.142,1.831,0.084,3.58,0.337,5.511
			c0.747-0.342,3.708,0.272,4.703-0.358c-1.07-6.808-0.133-14.521-0.562-21.215C229.445,216.469,229.458,218.25,228.594,220.341z
			 M180.211,226.321c0.032,0.126,0.13,0.192,0.319,0.169c-0.742-4.269-0.503-8.25-0.456-13.119
			c-2.377,3.942-3.734,8.844-3.774,13.976c-0.023,2.993,0.246,6.182,1.216,8.933c0.981,0.038,2.609,0.199,3.396,0.091
			C180.71,232.895,180.027,228.856,180.211,226.321z M96.016,216.124c0.707-0.09,0.888,0.316,1.115,0.678
			c-0.188,5.253,0.042,13.599,1.095,19.448c1.45,0.097,2.908,0.186,4.195,0.437c-0.772-5.741-0.843-11.354-1.011-16.532
			c-0.038-1.17,0.518-2.575,0.262-3.716c-0.471-2.104-3.206-3.177-4.069-5.125C96.956,212.741,96.485,215.041,96.016,216.124z
			 M235.004,222.618c-0.599-2.448-2.081-5.106-2.865-7.685c-1.236,7.317-0.126,14.183-0.243,21.031
			c1.179,0.138,2.149-0.048,3.392,0.253C234.182,231.923,235.964,226.521,235.004,222.618z M238.351,224.649
			c-0.641,0.537-1.004,1.708-1.825,1.568c-0.323,3.656-0.003,6.894,0.374,10.204c1.086-0.022,3.203,0.806,4.366,0.118
			c0.312-6.055,0.917-14.039,0.567-21.021C240.764,218.659,238.797,220.854,238.351,224.649z M82.865,211.726
			c-0.687,1.381-1.009,3.148-1.896,4.318c-0.049,0.677,0.78,0.521,0.612,1.311c0.148,6.3-0.938,14.65,0.448,19.431
			c1.2-0.127,4.075-0.021,5.345-0.179C87.162,228.08,88.791,216.966,82.865,211.726z M157.632,235.584
			c1.418,0.021,3.085,0.151,4.688,0.126c-0.976-3.724-0.556-10.896-1.186-16.053c-1.589-1.277-2.569-3.131-4.087-4.478
			C156.785,221.273,156.461,229.601,157.632,235.584z M192.573,223.902c-0.155-3.012-0.049-6.012-0.279-7.613
			c0.008,0.053-0.009,0.108-0.006,0.162c-1.411,2.501-1.496,6.401-4.089,7.657c-0.642-0.021-0.543-0.746-1.276-0.682
			c0.182,4.604,0.592,8.769,0.941,13.132c1.749,0.127,4.074,0.104,5.502-0.013C192.74,232.199,192.819,228.626,192.573,223.902z
			 M169.915,236.075c2.222,0.083,3.565,0.38,5.498,0.148c0.106-4.016-0.491-7.986-0.477-12.311
			c-0.274-0.423-1.164-0.262-1.438-0.685c-0.896-2.986-3.089-4.744-4.499-7.243C168.72,223.177,169.359,229.349,169.915,236.075z
			 M202.158,222.543c-1.411-0.211-1.461-2.667-2.823-3.312c-0.434,4.95,0.886,11.942,1.312,17.35
			c2.204,0.081,3.662-0.183,5.503-0.013c-0.629-5.915-0.639-13.63-0.768-19.603C204.519,219.081,204.189,222.846,202.158,222.543z
			 M118.136,235.977c1.541,0.188,3.089,0.177,5.494,0.311c-1.076-3.958-1.042-9.635-0.928-13.618
			c-2.517-0.93-3.689-3.957-5.363-5.161C116.666,222.946,117.309,228.639,118.136,235.977z M70.851,237.292
			c1.282-0.058,2.049,0.089,3.558,0.098c0.809-4.526-0.734-9.867-0.107-14.082c-1.568-2.138-1.983-5.368-4.017-7.066
			C70.833,223.965,70.989,230.115,70.851,237.292z M131.4,236.172c1.861,0.139,4.093-0.192,5.668-0.17
			c-0.361-5.114-0.812-9.623-0.767-13.614c-2.868,2.957-3.346-3.028-5.388-4.191C129.488,223.814,130.939,230.341,131.4,236.172z
			 M103.88,236.564c1.841-0.081,4.204-0.12,6.643-0.307c-0.896-5.798-0.515-12.15-0.823-17.499c-1.032,1.128-0.927,3.456-2.22,4.31
			c-1.891-0.527-2.957-3.181-4.406-4.649C102.919,224.541,102.594,229.988,103.88,236.564z M92.088,223.786
			c-1.96-0.612-2.646-2.431-3.781-3.823c0.936,5.946-0.535,11.352,1.169,16.699c2.644-0.617,4.268-0.302,6.979-0.783
			c-0.332-6.43-0.579-11.258-0.994-17.181C94.474,220.539,93.783,222.693,92.088,223.786z M75.879,224.808
			c-0.336,4.122,0.076,7.665,0.153,12.301c1.39-0.011,3.205,0.32,4.379-0.367c-0.675-6.087,0.096-11.945-0.495-17.651
			C78.772,221.125,78.546,224.923,75.879,224.808z"/>
		<path fill-rule="evenodd" clip-rule="evenodd" fill="#001E39" d="M289.059,150.283c1.344,1.675,1.896,4.644,0,5.988
			c-0.55,0.046-0.682-0.3-0.957-0.513c-0.312,0.007,0.262,0.638-0.341,0.64c-1.104-0.706-1.513-0.224-2.396-1.198
			c-1.965,9.943-3.092,18.198-4.659,28.839c-0.552,3.254,0.269,7.359-0.606,10.502c-0.107,0.384-0.634,0.912-0.681,1.277
			c0.187-1.452,0.599,2.581,0.546,3.736c-0.141,3.015-0.626,5.674-0.72,8.718c-0.149,4.739-1.102,9.095-0.681,13.252
			c3.28-0.032,6.516,0.071,9.104-1.536c1.527,1.767-0.786,2.924-1.582,4.65c-1.35,2.929-1.971,8.329-1.939,11.924
			c-1.325,1.04-2.507,2.23-3.182,3.96c-2.89,0.304-7.438-1.096-11-0.135c-0.336-0.415-3.104,0.02-4.515-0.606
			c-0.6-0.916-0.529-1.708-0.886-3.1c-0.745-2.888-3.249-6.644-4.286-9.177c-0.228-0.559-1.539-4.349-1.49-4.732
			c0.159-1.229,2.239-0.919,2.32-2.042c2.608,0.476,5.845,0.882,8.88,0.726c-2.062-7.342-2.021-16.682-4.211-23.901
			c-0.517-8.403-3.859-17.921-4.451-26.982c-0.508-0.452-0.965,0.213-1.623,0.118c0.118-0.127,0.265-0.434,0.014-0.483
			c-0.497,0.194-0.426,0.988-1.312,0.774c-2.165-1.445-1.578-3.282-0.816-5.849c-5.112-2.213-7.753-8.386-8.032-14.133
			c-0.585-0.789-0.827-3.741-0.661-5.519c0.813-8.718,6.482-12.213,13.08-10.977c5.921,1.111,7.506,8.162,7.526,14.93
			c2.563-1.238,4.596-2.67,7.504-2.228c3.561,0.542,5.796,4.009,6.595,7.461c0.357-1.32-0.417-2.591,0.27-4.039
			c-1.402-1.033-2.845-2.03-4.286-3.028c-2.639-4.133-3.671-9.665-2.829-15.125c1.429-9.28,12.568-16.315,18.49-7.593
			c-0.113,1.105,0.191,1.44,0.904,2.452c-0.006,0.381-0.293,0.468-0.188,0.966c0.163-1.418,0.838,2.275,0.891,2.936
			C297.377,137.753,294.774,148.739,289.059,150.283z M282.137,124.853c-0.443-0.012-0.974,0.732-0.673,0.953
			C281.556,125.349,282.315,125.596,282.137,124.853z M280.293,127.231c0.238,0.037,0.138,0.395,0.145,0.651
			c-0.29,0.081-0.675,0.065-0.817,0.302c0.731,0.276-0.081,0.756-0.35,0.961c0.668,0.413-0.287,1.206-0.683,1.276
			c0.223,0.013,0.357-0.066,0.49-0.149c-0.676,2.036-0.61,3.893-1.118,5.472c0.092,5.169,1.631,12.124,8.221,13.168
			c8.358-1.033,9.202-11.203,8.774-19.345c-0.966-3.129-2.32-6.73-5.469-7.268c0.178,0.523-2.038-0.071-2.604,0.577
			c0.029-0.19,0.299-0.359,0.013-0.484c-1.193,0.844-2.855,1.198-4.098,1.993c0.092,0.567-1.163,1.766-1.664,1.735
			C281.479,126.55,280.482,127.299,280.293,127.231z M286.563,122.707c0.343-0.605-0.717-0.661-0.799-0.346
			C286.071,122.439,286.161,122.722,286.563,122.707z M254.304,136.888c-2.009,1.978-3.254,5.462-3.937,7.983
			c0.22,0.678,0.543,1.809-0.075,2.749c0.284,4.994,2.075,9.48,4.169,13.545c1.932,2.443,6.509,2.119,8.888,0.401
			c0.441-6.221,5.414-10.029,4.481-16.224c-0.464-3.079-1.343-5.551-3.024-7.849c-1.416-0.615-2.812-1.566-5.13-1.756
			c-0.671,0.392-1.932,0.639-2.427-0.066C256.814,136.511,254.738,137.127,254.304,136.888z M267.432,172.193
			c1.854,3.226,5.488,5.413,9.143,2.997c2.15-1.421,5.119-6.391,5.79-10.685c0.534-3.419,0.292-7.676-0.683-10.7
			c-0.8-2.48-3.853-5.424-6.664-4.872C266.435,150.621,262.658,163.89,267.432,172.193z M288.792,154.16
			c0.182-2.273-1.663-2.627-2.98-3.479C284.761,152.769,286.932,155.396,288.792,154.16z M263.459,163.51
			c-0.872,0.022-1.157,0.667-1.648,1.089c0.927,6.694,2.087,14.511,3.301,21.609c3.396,10.781,3.24,24.227,7.139,35.47
			c0.702,0.133,0.916-0.25,1.62-0.118c-0.439-13.234-0.097-24.897,0.036-37.378c-3.666,3.584-5.08-2.644-3.236-6.076
			C266.241,174.931,263.79,169.772,263.459,163.51z M258.773,169.21c1.096,0.048,1.663-0.462,2.29-0.909
			c-0.155-1.311-0.283-2.659-1.364-3.436c-0.8-0.014-0.69,2.458-1.165,1.264C258.762,167.049,258.201,168.354,258.773,169.21z
			 M275.359,178.232c0.076,7.252-0.562,13.161-0.08,21.034c-0.199,0.396-0.661-0.411-0.656,0.306
			c0.136,0.446,0.604-0.298,0.639,0.341c-0.5,6.396-0.005,11.716-0.167,18.281c0.804,0.979-0.14,3.185,1.354,3.758
			c1.72-13.598,1.379-29.993,4.086-43.58c-0.462-1.91,0.672-3.429-0.032-4.855C279.255,175.531,277.513,176.848,275.359,178.232z
			 M271.668,183.15c2.053,0.592,2.832-4.213,0.606-4.515C271.992,180.494,270.994,181.158,271.668,183.15z M285.653,222.685
			c-0.014-0.196-0.04-0.383-0.316-0.331c-0.287,0.527-0.892,0.724-1.322,1.098c-0.424,4.295-2.855,8.561-1.806,12.896
			C283.069,230.953,283.143,226.002,285.653,222.685z M262.666,223.038c0.247,0.375-1.273,0.036-1.618-0.043
			c-0.021,1.127,0.587,1.941,0.245,2.919c2.214,3.731,3.12,8.704,5.66,12.126c3.881,0.418,7.84-0.327,12.767,0.668
			c0.984-1.373,0.379-3.66,0.637-5.646c0.454-3.49,1.815-6.957,1.878-9.658C275.89,224.389,268.152,223.512,262.666,223.038z"/>
		<path fill-rule="evenodd" clip-rule="evenodd" fill="#001E39" d="M35.958,241.048c-0.107-0.372-0.675-0.307-0.957-0.512
			c-4.008,1.03-10.247,1.243-14.434,1.229c-0.176-0.962,0.384-1.146,0.689-1.599c-1.037-3.15-3.023-5.172-4.458-8.697
			c-0.948-2.325-1.646-3.545-2.269-5.888c0.255-0.396,0.521-0.778,0.682-1.275c4.225-0.728,6.734-1.82,11.384-2.12
			c-0.073-1.099,0.115-2.165-0.56-3.252c-1.497-12.544-3.959-23.202-6.817-35.297c-2.682,1.146-4.047-1.042-3.767-4.31
			c-5.877,0.29-8.803-4.913-9.927-9.976c-2.301-2.83-2.08-7.405-1.312-11.364c0.858-4.42,4.769-8.805,9.443-8.16
			c2.97,0.41,4.136,2.384,6.696,3.742c1.768,2.478,4.176,5.346,4.935,9.031c1.209,5.867-1.26,11.47-5.242,14.423
			c0.643,1.019,1.764,1.586,2.023,2.969c-0.34,1.137-0.636,2.321-1.376,3.036c1.119,9.994,5.484,19.823,5.655,30.413
			c0.001,0.573,0.544-0.331,0.48,0.175c0.375,2.322,1.224,4.196,1.605,6.514c1.089-23.057,0.937-43.262-0.327-66.029
			c-1.306,0.145-2.455,0.479-3.728,0.224c-1.26-1.062-1.724-3.052-0.993-5.206c-3.944-0.992-7.4-4.419-7.4-7.643
			c-2.001-1.371-0.815-4.086-1.784-5.875c-0.528-7.843,3.005-15.178,8.406-17.734c4.948-1.249,12.634-0.34,14.422,5.243
			c2.215,9.829,0.604,20.699-6.833,25.383c-0.47,10.157-0.078,18.399,0.533,28.332c-0.399,2.127-0.629,5.059-0.502,6.623
			c0.02,0.255,0.212,0.011,0.166-0.158c0.34,8.548-0.393,16.619-0.019,24.757c0.198,4.296-0.895,9.96,0.601,13.771
			c1.214-3.357,1.831-7.366,2.568-11.26c0.835-4.406,1.092-8.863,1.825-13.704c0.691-4.564,1.644-9.621,2.49-14.335
			c0.919-5.124,2.039-12.102,3.551-17.705c0.233-0.866,0.696-2.805,0.576-3.382c-0.194-0.933-1.854-1.748-2.36-2.492
			c-0.474-0.696-1.046-1.61-1.551-2.469c-2.912-4.934-1.231-13.571,0.824-18.587c3.312-4.491,10.25-7.223,15.457-3.142
			c1.222,2.201,3.11,4.527,3.527,7.213c0.326,2.093-0.029,4.41-0.007,6.312c0.065,5.96-3.083,10.578-6.357,13.744
			c-1.134,0.134-1.587,0.985-2.938,0.892c0.569,3.929-3.07,7.208-5.956,4.857c-1.479,2.417-0.859,5.971-2.324,8.189
			c-0.19,1.612,0.268,3.462-0.594,4.029c-2.095,14.206-4.615,26.071-6.297,41.579c2.758-0.73,7.968,0.339,10.083-1.832
			c3.181,1.324-0.517,7.228-0.896,9.2c-0.452,2.346-0.336,4.955-1.494,7.402C39.335,237.847,37.958,239.776,35.958,241.048z
			 M24.517,119.051c-6.012,2.129-8.252,7.921-8.805,14.489c0.49,5.726,1.97,14.348,10.962,13.564
			c0.68-0.697,2.343-0.572,3.094-0.727c7.161-4.39,8.539-19.336,3.284-25.802c-2.366-1.093-6.094-2.13-8.54-1.363
			c0.172,0.012,0.413-0.065,0.167-0.157C24.625,119.054,24.571,119.052,24.517,119.051z M46.103,134.682
			c-5.327,1.567-6.943,6.065-7.441,11.936c-0.047,0.55-0.125,1.307-0.209,1.775c-0.889,4.886,2.059,7.92,4.542,11.611
			c1.74,0.191,2.012,1.49,3.851,1.234c0.268,0.007,0.103-0.444,0.336-0.476c4.232,0.641,5.996-4.05,7.953-6.904
			c1.349-4.348,1.237-8.774,0.505-12.77c-0.308-0.341-0.945-0.366-0.944-0.998c-0.071-4.727-4.55-6.267-8.103-5.557
			c-0.009-0.256,0.037-0.562-0.311-0.495C46.745,134.936,45.732,133.971,46.103,134.682z M27.439,148.742
			c-0.428,0.722-1.098,0.164-2.11,0.268c-0.614,0.978-0.585,2.495-0.096,3.559c0.891,0.085,0.884,0.085,1.778,0.047
			C27.67,151.86,28.666,149.491,27.439,148.742z M21.931,173.03c3.076-4.081,2.56-11.995-0.858-16.204
			c-0.408-0.505-1.19-0.728-1.586-1.178c-1.608-1.824-3.297-2.725-5.388-4.19c-8.821-0.415-9.975,10.731-7.757,17.591
			c3.07,3.334,2.318,8.615,9.49,8.185C18.226,175.76,20.483,174.948,21.931,173.03z M43.957,166.34
			c0.685,0.376,1.432,0.015,2.106-0.104c0.443-0.753,0.732-1.666,0.725-2.893c-1.009-0.226-1.635,0.009-2.578-0.395
			C43.907,164.237,43.243,165.169,43.957,166.34z M17.482,181.972c1.766,0.258,2.726-0.46,3.13-2.019
			c-0.485-0.908-1.673-1.149-2.046-2.161C16.968,178.289,17.096,180.557,17.482,181.972z M42.962,221.332
			c-0.374,0.686-1.698,1.345-1.835,2.054c-0.808,4.173-2.307,9.607-2.8,13.842c0.583-0.827,1.406-1.398,2.001-2.212
			c0.967-4.247,1.689-9.047,3.119-13.671C43.284,221.341,43.123,221.335,42.962,221.332z M25.739,223.941
			c-0.39,0.235-0.18,0.678-0.345,0.801c-3.177,0.174-5.877,0.772-8.444,1.067c2.225,4.982,3.929,10.458,7.882,13.805
			c4.067-0.532,7.846,0.201,11.044-1.483c1.283-5.345,2.492-8.94,3.472-14.792C34.587,222.778,30.451,224.217,25.739,223.941z"/>
		<path fill-rule="evenodd" clip-rule="evenodd" fill="#001E39" d="M207.241,147.92c0.224,0.249-0.311,0.473-0.988,0.62
			c-3.459-1.973-1.941-8.512,1.084-10.166c0.879,0.273,1.197,0.983,2.412,0.552c1.11,0.742,1.442,2.109,1.36,3.595
			c0.286-3.159,1.363-5.397,5.47-4.868c2.159,1.653,0.623,5.37-1.471,6.595c0.734,1.36,1.808,2.528,1.175,4.401
			c-0.187-0.032-0.287,0.027-0.329,0.152c-1.896-0.355-1.449-2.934-2.808-3.798c-0.866,0.708,0.01,3.229-1.715,3.515
			c-1.098-0.754-0.673-2.123-0.55-3.575C209.812,145.988,209.228,148.393,207.241,147.92z M213.521,143.072
			c0.226-0.315,0.329-0.762,0.515-1.121c0.572,0.399,0.951-0.589,1.636-0.602c-0.146-0.911,0.585-1.081,0.208-1.774
			C214.079,139.481,213.021,141.833,213.521,143.072z M207.952,145.511c1.356-0.41,1.15-3.049,0.766-4.35
			C206.938,141.235,206.809,144.658,207.952,145.511z"/>
		<path fill-rule="evenodd" clip-rule="evenodd" fill="#001E39" d="M210.966,165.819c0.128-3.342,0.875-5.736,1.533-8.858
			c-0.71,0.19-1.047,0.776-1.803,0.922c-1.425-0.438-1.986-1.691-2.675-2.823c-0.597,1.95-1.678,2.362-3.165,3.313
			c0.231,2.186,3.673,2.868,2.609,5.248c-3.214,0-3.257-3.005-5.228-4.186c-0.922,1.012,0.962,5.909-2.084,5.283
			c0.029-4.311-0.254-7.74,0.978-12.271c1.597,0.029,3.017-1.653,4.901-1.649c0.914,0.865,1.439,2.103,2.014,3.292
			c0.255-0.063,0.151-0.505,0.654-0.305c-0.538-0.991,0.238-3.791,1.861-3.025c0.15,1.433-0.082,3.231,0.865,3.906
			c1.527-0.551,1.649-2.583,2.845-3.482c0.185,0.141,0.428,0.225,0.805,0.183c0.693,1.485-0.467,3.31-0.78,4.994
			c-0.553,2.953,0.133,6.326-1.049,8.873C212.216,165.146,211.916,166.327,210.966,165.819z M205.915,155.164
			c0.417-2.831-4.393-1.464-3.611,1.845C203.784,157.349,205.743,156.31,205.915,155.164z"/>
		<path fill-rule="evenodd" clip-rule="evenodd" fill="#001E39" d="M179.251,153.799c-0.618,0.834-0.506,1.537-0.728,2.895
			c1.342,0.043,3.274-0.067,4.703-0.359c0.079,0.912-0.58,1.22-0.55,2.413c-1.642,0.807-2.67,0.423-4.396,1.014
			c0.383,0.666,0.099,1.035,0.438,1.791c1.279,0.127,2.545,0.395,3.726-0.223c0.812,0.23,1.079,0.973,1.247,1.813
			c-2.409,1.501-6.921,1.635-7.707-2.312c-0.138-0.698,0.215-1.402,0.22-2.097c0.014-2.564-0.407-5.835,1.34-7.731
			c1.868,0.323,4.359,0.718,6.298,0.494c2.795,1.687,2.89,4.955,4.152,8.041c1.041-2.173,0.524-5.989,2.774-6.885
			c0.526-0.129,0.214,0.533,0.469,0.661c0.571,0.044,0.902-0.662,1.303-0.29c-0.695,3.885-2.255,7.219-3.548,11.556
			c-1.167,0.486-1.287-0.708-2.241-0.869c-1.211-3.766-1.961-7.252-3.761-10.619c-0.89,0.058-1.569,0.338-2.281,0.585
			C180.593,153.015,180.079,154.048,179.251,153.799z"/>
		<path fill-rule="evenodd" clip-rule="evenodd" fill="#001E39" d="M192.604,180.698c1.065-4.692,0.219-8.243,1.816-13.383
			c6.003,0.089,7.972,8.178,3.889,11.918c0.251,0.239,0.854-0.543,0.313,0.331C196.711,179.914,194.249,182.657,192.604,180.698z
			 M195.33,175.595c-0.096,1.102-1.062,2.394,0.237,3.242c2.625-1.031,3.289-7.338,0.726-8.881
			C195.196,171.351,195.517,173.482,195.33,175.595z"/>
		<path fill-rule="evenodd" clip-rule="evenodd" fill="#001E39" d="M180.853,172.451c1.133,1.028,2.029,2.28,2.648,3.794
			c-0.038,0.791-0.656,1.288-0.219,2.099c-0.133,0.083-0.266,0.16-0.489,0.149c0.543,1.511-1.845,2.669-3.793,2.647
			c-0.255,0.05,0.135,0.289-0.171,0.318c-0.658,0.205-0.565-0.305-0.796-0.505c-0.24,0.064,0.059,0.207-0.013,0.484
			c-1.779-0.212-3.323,0.361-4.531,0.039c0.137-3.464,1.532-8.259,1.454-11.936c-0.082-3.862,4.874-1.883,7.467-0.933
			c0.075,1.575-0.099,2.89-0.902,3.536C181.339,171.457,181.433,172.313,180.853,172.451z M176.674,171.369
			c1.387-0.032,2.644-0.204,2.95-1.377c-0.991-0.308-1.354-0.27-2.579-0.394C176.729,169.985,176.96,170.95,176.674,171.369z
			 M176.466,179.13c1.972-0.022,3.079-0.964,4.098-1.992c-0.18-2.443-1.966-3.328-3.946-3.667
			C175.942,175.351,176.183,177.178,176.466,179.13z"/>
		<path fill-rule="evenodd" clip-rule="evenodd" fill="#001E39" d="M204.601,137.816c-0.421,1.337-3.499,1.24-2.193,3.339
			c0.538,0.015,1.078,0.028,1.617,0.042c0.722,1.208-1.879,2.351-2.142,1.398c-0.562,2.155-0.461,4.712-1.297,6.114
			c-0.323-0.008-0.647-0.017-0.97-0.026c0.533-3.742-0.29-9.406,1.938-11.92c0.662,0.245,1.248,0.406,1.941,0.051
			C203.639,137.497,204.313,136.832,204.601,137.816z"/>
		<path fill-rule="evenodd" clip-rule="evenodd" fill="#001E39" d="M199.716,150.952c0.208,0.519,0.021,0.543-0.03,1.133
			c-1.643,0.572-2.644,1.804-4.095,1.832c-0.576,0.666-0.619,1.896-1.045,2.722c0.869-0.068,2.5-0.134,3.883,0.104
			c0.255,0.27-0.163,0.673-0.036,1.294c-1.215,0.515-2.414,0.827-3.921,1.351c0.085,0.865,0.076,1.819,0.754,2.125
			c0.821,0.154,2.91,0.08,3.203,1.217c-0.684,1.537-3.312,0.994-4.887,1.165c-1.98-2.88-0.316-7.718-0.337-11.499
			C194.931,151.433,197.654,150.558,199.716,150.952z"/>
		<path fill-rule="evenodd" clip-rule="evenodd" fill="#001E39" d="M204.102,168.386c-0.767,1.646-0.595,4.447,0.983,5.528
			c2.678,0.069,2.227-6.706,4.96-3.913c0.205,4.242-1.726,7.812-1.463,12.26c-0.247,0.571-0.99,0.616-1.323,1.097
			c-0.339-0.572-1.172-0.677-1.586-1.176c0.471-2.184,1.453-4.646,1.318-6.922c-1.912,1.918-6.021,0.495-6.054-3.562
			C200.93,170.691,202.348,166.209,204.102,168.386z"/>
	</g>
</g>
</svg>
