<?xml version="1.0" encoding="utf-8"?>
<!-- Generator: Adobe Illustrator 15.1.0, SVG Export Plug-In . SVG Version: 6.00 Build 0)  -->
<!DOCTYPE svg PUBLIC "-//W3C//DTD SVG 1.1//EN" "http://www.w3.org/Graphics/SVG/1.1/DTD/svg11.dtd">
<svg version="1.1" id="Layer_1" xmlns="http://www.w3.org/2000/svg" xmlns:xlink="http://www.w3.org/1999/xlink" x="0px" y="0px"
	 width="311.81px" height="128px" viewBox="0 0 311.81 128" enable-background="new 0 0 311.81 128" xml:space="preserve">
<g>
	<g>
		<path fill-rule="evenodd" clip-rule="evenodd" fill="#001E39" d="M186.602,96.507c-10.083-0.493-20.6,0.284-30.94-0.469
			c-2.456-0.179-4.793,0.049-7.383,0.234c-4.062,0.291-8.367,0-12.541,0c-4.428,0-9.021,0.448-12.071-1.289
			c0.038-1.487,0.359-4.239-0.47-5.509c0.354-6.309-0.979-12.531-0.937-18.985c0.03-4.716,0.018-10.106-0.469-15.588
			c-0.708-7.969-1.317-15.488-1.524-23.44c-0.109-4.199-0.215-8.332-0.82-11.72c-0.118-0.66-0.83-1.772-0.704-2.461
			c0.141-0.771,0.741-0.603,1.172-1.172c0.41-0.541,0.096-1.12,0.704-1.524c10.203,0.821,21.597,0.343,32.933-0.234
			c8.059-0.411,17.206,0.174,24.144-0.821c1.955,0.43,5.897-1.537,6.446,1.407c0.179,0.96-0.229,1.331-0.235,1.993
			c-0.041,4.37,0.564,10.317,0.47,14.65c-0.117,5.328,0.229,10.817,0.82,16.525c1.422,13.735,1.346,26.583,2.461,39.262
			c0.23,2.612,0.941,6.308,0.469,7.501C187.8,95.69,187.015,95.83,186.602,96.507z M177.344,16.81
			c-1.605,0.233-3.562-0.115-5.391-0.117c-2.012-0.002-4.19,0.074-6.096,0.117c-13.406,0.299-30.429,0.878-43.833,0.938
			c1.654,9.568,0.662,19.782,1.992,29.418c0.458,3.308,0.818,6.647,1.055,9.962c0.304,4.233-0.102,8.421,0,12.658
			c0.197,8.142,0.928,15.347,1.29,23.088c5.015,1.231,10.129,0.652,15.001,0.704c4.583,0.049,9.324-0.383,13.83-0.235
			c9.769,0.323,19.253,0.249,29.885,0.118c0.318-5.133-0.833-10.948-1.172-16.525c-0.648-10.701-0.651-20.886-1.991-30.941
			c-1.247-9.347,0.146-19.11-0.938-29.77C179.593,16.036,178.528,16.639,177.344,16.81z"/>
		<path fill-rule="evenodd" clip-rule="evenodd" fill="#001E39" d="M79.715,17.396c0.512,5.578,0.571,11.299,1.055,17.229
			c0.95,11.635,2.818,24.08,2.812,36.801c0,3.001,0.458,6.029,0.704,9.142c0.251,3.191,0.304,6.545,0.938,9.377
			c0.374,1.671,1.113,3.297,0.117,4.922c-1.3,0.32-2.527-0.015-3.868,0.587c-17.723-0.449-38.851,0.366-57.077,1.288
			c-0.597-0.809-1.775-1.037-2.695-1.524c-1.275-14.532-2.389-28.983-3.517-43.832c-0.285-3.753-0.746-7.572-1.054-11.369
			c-0.605-7.442-1.203-14.638-1.993-22.971c1.627-1.33,3.794-0.508,5.86-0.352c9.3,0.706,19.01,0.152,29.535,0.117
			c4.195-0.014,8.801,0.51,13.243,0.352c1.941-0.069,3.929-0.209,5.978-0.234c2.21-0.027,4.675-0.602,6.563-0.352
			c0.411,0.054,0.786,0.533,1.172,0.585C78.234,17.265,79.064,16.55,79.715,17.396z M18.302,19.271
			c0.015,5.125,0.722,10.065,1.172,15.002c0.906,9.931,1.886,19.414,2.578,28.714c0.357,4.796,0.325,9.678,0.703,14.532
			c0.217,2.786,0.765,5.463,0.938,8.205c0.17,2.683,0.268,5.41,1.055,8.087c4.321,0.036,8.93-0.198,13.595-0.47
			c4.718-0.272,9.537,0.106,14.299-0.233c9.351-0.667,19.696-0.695,29.886-0.938c-0.458-5.968-1.657-14.707-1.758-21.331
			c-0.09-5.931-0.56-11.692-0.938-17.462c-0.365-5.592-1.487-11.146-1.875-16.76c-0.391-5.646-0.34-11.293-1.289-16.877
			c-4.916-0.252-10.056,0.058-15.119,0.117c-4.937,0.057-9.772-0.366-13.947-0.234c-9.468,0.299-19.989,0.074-28.948-0.586
			C18.514,19.094,18.387,19.162,18.302,19.271z"/>
		<path fill-rule="evenodd" clip-rule="evenodd" fill="#001E39" d="M257.86,17.982c-0.097,0.372-0.373,0.563-0.585,0.82
			c0.236,0.349,1.035,0.136,1.171,0.586c-0.179,1.54-2.507,1.403-3.75,0.82c-0.616-1.837-0.023-4.365,2.344-3.633
			C257.383,16.976,257.673,17.428,257.86,17.982z M256.571,17.631c-0.327-0.267-0.579,0.118-0.938-0.117
			C255.54,18.058,256.484,17.908,256.571,17.631z"/>
		<path fill-rule="evenodd" clip-rule="evenodd" fill="#001E39" d="M231.373,20.561c-0.53-0.133-0.828-0.5-0.82-1.172
			c-0.717,0.025-1.152,0.332-1.641,0.586c0.271,0.26-0.04,0.458,0,0.82c-0.53,0.322-0.763-0.109-1.172-0.234
			c-0.012-0.953,0.156-1.29,0-2.11c0.572-0.407,0.468-1.053,0.703-1.29c1.838-1.846,3.253,1.044,3.398,2.93
			C231.636,20.198,231.648,20.523,231.373,20.561z M229.146,18.568c0.312,0,0.625,0,0.938,0
			C230.267,17.708,229.004,17.88,229.146,18.568z"/>
		<path fill-rule="evenodd" clip-rule="evenodd" fill="#001E39" d="M243.328,16.928c0,0.234,0,0.468,0,0.703
			c-0.428,0.259-0.866,0.055-1.172,0.234c0.578,0.82,1.951,1.064,1.758,2.227c-0.172,1.034-1.719,0.991-2.579,0.234
			c0-0.156,0-0.312,0-0.469c0.286-0.298,0.695-0.123,0.938-0.234c-0.606-0.527-1.311-0.957-1.642-1.758
			c-0.333,0.799-1.026,1.239-1.757,1.641c0.292,0.462,0.66,0.262,1.288,0.235c-0.416,2.134-3.21,0.545-2.696-1.055
			c0.274-0.625,0.691-1.106,0.939-1.758c0.886-0.191,1.828,0.072,2.108,0.82C241.088,16.877,242.387,16.405,243.328,16.928z"/>
		<path fill-rule="evenodd" clip-rule="evenodd" fill="#001E39" d="M244.382,19.506c-0.405-3.12,3.631-3.265,3.399-0.82
			C247.655,20.016,245.44,20.763,244.382,19.506z M245.672,18.92c0.438,0.093,0.615,0.157,1.055-0.117
			c0.085-0.358-0.202-0.345-0.117-0.703C245.943,17.812,245.71,18.273,245.672,18.92z"/>
		<path fill-rule="evenodd" clip-rule="evenodd" fill="#001E39" d="M251.532,18.217c0.438-0.188,0.439-0.81,1.172-0.703
			c0.729,0.581,0.463,1.51,0.586,2.578c-0.586,0.22-0.801-0.18-0.938-0.703c-0.529,0.512-1.045,1.362-1.757,0.469
			c0.194-0.55-0.068-0.817-0.118-1.406c-0.799,0.334-0.497,1.768-1.406,1.992c-0.95-0.401-0.628-2.433-0.352-3.282
			c0.399-0.008,0.437,0.345,0.586,0.586C250.015,16.812,251.281,16.989,251.532,18.217z"/>
		<path fill-rule="evenodd" clip-rule="evenodd" fill="#001E39" d="M124.955,20.443c0.835,1.005,4.692-0.346,4.923,1.875
			c0.011,0.83-1.314,0.288-2.345,0.469c-1.448,0.254-3.736,1.328-3.281-1.289C124.343,20.971,124.674,20.963,124.955,20.443z"/>
		<path fill-rule="evenodd" clip-rule="evenodd" fill="#001E39" d="M140.894,23.139c-2.596-0.157-6.745,0.272-9.376-0.234
			c-0.111-0.593-0.447-0.959-0.352-1.758c0.173,0.063,0.398-0.591,0.82-0.469c1.7,0.491,6.411-0.178,7.97,0.352
			C140.824,21.324,141.53,22.042,140.894,23.139z"/>
		<path fill-rule="evenodd" clip-rule="evenodd" fill="#001E39" d="M147.926,22.084c-0.002,2.272-4.077,1.577-5.391,1.055
			C141.419,19.999,146.702,21.427,147.926,22.084z"/>
		<path fill-rule="evenodd" clip-rule="evenodd" fill="#001E39" d="M26.271,26.304c-1.839-0.305-2.848-0.149-4.337-0.118
			c-0.661-0.667-1.027-2.464,0-2.929C23.855,23.94,28.62,23.432,26.271,26.304z"/>
		<path fill-rule="evenodd" clip-rule="evenodd" fill="#001E39" d="M38.929,23.843c0.726-0.881,5.438-0.678,5.391,0.82
			C44.284,25.849,37.951,27.021,38.929,23.843z"/>
		<path fill-rule="evenodd" clip-rule="evenodd" fill="#001E39" d="M29.201,26.42c-0.882-0.346-1.284-2.11-0.468-2.812
			c1.841,1.072,8.017-0.865,8.555,0.938c0.548,1.835-2.026,1.68-3.281,1.758C32.261,26.412,30.347,26.071,29.201,26.42z"/>
		<path fill-rule="evenodd" clip-rule="evenodd" fill="#001E39" d="M257.04,33.57c-0.392-1.183-0.034-3.18-0.469-4.688
			c-0.141-0.491-0.585-0.88-0.586-1.289c-0.003-1.762,2.425-2.177,3.165-0.469C258.865,29.488,260.291,34.627,257.04,33.57z"/>
		<path fill-rule="evenodd" clip-rule="evenodd" fill="#001E39" d="M237.467,27.944c0.133,1.203,0.272,2.315,0.236,3.398
			c0.563-1.076,1.911-1.369,2.929-1.992c1.833,0.167,3.41,3.254,1.642,4.219c0.312,0.313,0.71,0.54,0.82,1.055
			c-0.619,2.671-4.543,2.694-5.04,0c-0.634,0.245-1.083,1.233-1.759,1.055c-0.554-0.422-0.5-1.453-0.586-2.344
			c-0.861,0.114-1.676,0.277-2.226,0.703c0.157,1.198,0.054,1.764,0,2.696c-0.438,0.266-0.859,0.548-1.642,0.469
			c-0.928-2.623-0.362-6.577-1.289-8.79c0.512-0.864,1.844-0.563,2.462,0c0.122,1.049,0.348,1.995,0.351,3.164
			c0.772,0.179,1.016,0.076,1.758,0.234c0.678-1.031-0.278-2.835,0.118-3.984C236.036,27.234,236.665,27.488,237.467,27.944z
			 M240.983,34.39c0.502-0.02,1.469-0.512,0.938-0.82C241.738,34.193,240.994,33.793,240.983,34.39z"/>
		<path fill-rule="evenodd" clip-rule="evenodd" fill="#001E39" d="M250.36,36.5c-2.005-1.603-1.306-6.748,1.406-6.797
			c1.153-0.021,2.917,0.94,3.165,1.992C255.537,34.282,252.896,37.632,250.36,36.5z M251.532,32.984
			c0.054,0.493-0.06,1.153,0.352,1.289C252.611,33.633,252.617,31.757,251.532,32.984z"/>
		<path fill-rule="evenodd" clip-rule="evenodd" fill="#001E39" d="M132.455,35.328c-0.429-0.468-1.04-1.742-0.585-2.344
			c0.173-0.061,0.295-0.173,0.468-0.235c1.261,0.789,2.545,0.408,4.103,0.352c4.283-0.153,9.989,0.051,14.415,0
			c1.433-0.016,3.751-0.071,3.282,1.758c-0.235,0.918-3.259,0.78-4.219,0.82C145.45,35.867,137.907,35.464,132.455,35.328z"/>
		<path fill-rule="evenodd" clip-rule="evenodd" fill="#001E39" d="M126.947,33.219c1.362-0.202,3.232-0.47,3.165,0.938
			c-0.042,0.869-2.623,1.752-3.75,1.641C124.406,35.604,124.462,31.779,126.947,33.219z"/>
		<path fill-rule="evenodd" clip-rule="evenodd" fill="#001E39" d="M26.975,35.562c-0.116,0.275-0.206,0.576-0.234,0.938
			c-1.494,0.745-4.688,0.896-4.22-1.875C23.872,33.794,25.973,34.908,26.975,35.562z"/>
		<path fill-rule="evenodd" clip-rule="evenodd" fill="#001E39" d="M29.201,34.742c3.929,0.34,10.259-0.296,14.533-0.469
			c1.617-0.065,3.45,1.277,2.109,2.461c-0.212,0.188-4.698,0.359-5.508,0.352c-0.436-0.004-0.858-0.19-1.406-0.234
			c-1.249-0.1-2.834,0.361-4.337,0.352c-0.926-0.006-1.814-0.343-2.461-0.352C30.199,36.826,28.873,37.232,29.201,34.742z"/>
		<path fill-rule="evenodd" clip-rule="evenodd" fill="#001E39" d="M257.743,38.023c-0.626-0.264-1.051-0.271-1.172-0.82
			c-0.446-2.023,2.881-2.64,2.931-0.585C259.526,37.678,258.5,37.535,257.743,38.023z"/>
		<path fill-rule="evenodd" clip-rule="evenodd" fill="#001E39" d="M159.06,37.321c0.388,0.613,1.163,1.034,1.056,1.875
			c-0.202,1.571-2.971,0.634-4.454,0.586c-3.132-0.103-6.472,0.11-10.079,0.117c-3.377,0.006-6.315-0.121-9.494,0.117
			c-1.015,0.076-1.843,0.436-2.344,0.234c-0.929-0.375-1.222-2.305-0.352-2.695c0.571-0.257,0.845,0.14,1.64,0.234
			c0.794,0.094,1.794-0.223,2.813-0.234c4.832-0.056,10.484,0.227,15.47,0.117C155.715,37.619,157.24,37.444,159.06,37.321z"/>
		<path fill-rule="evenodd" clip-rule="evenodd" fill="#001E39" d="M54.869,40.25c-2.838,1.79-8.104,0.244-11.252,1.406
			c-4.518-0.105-7.835,0.39-13.243,0.469c-0.597-0.529-1.309-1.622-0.586-2.461c5.923,0.476,13.042-0.516,19.573-0.703
			C51.714,38.894,54.82,37.427,54.869,40.25z"/>
		<path fill-rule="evenodd" clip-rule="evenodd" fill="#001E39" d="M161.17,43.181c-0.321,0.617-1.154,0.721-1.759,1.055
			c-1.342-0.893-3.184,0.075-4.688,0.117c-5.065,0.143-10.479-0.174-15.821,0.352c-1.333,0.131-2.823,0.252-4.455,0.117
			c-0.695-0.387-1.05-2.015-0.234-2.578c2.418,0.693,7.112,0.1,10.08-0.117c4.945-0.363,10.533,0.377,14.415-0.703
			c0.295-0.083,1.091,0.06,1.642,0.117C160.771,41.938,161.135,42.396,161.17,43.181z"/>
		<path fill-rule="evenodd" clip-rule="evenodd" fill="#001E39" d="M280.832,42.829c0.289,2.164-1.246,2.504-1.289,4.336
			c-0.91-0.066-1.489-0.464-1.288-1.641c0.58-0.473,1.257-0.853,1.522-1.641c-0.486-0.947-2.34,0.165-2.462-1.055
			C277.691,41.766,280.252,42.295,280.832,42.829z"/>
		<path fill-rule="evenodd" clip-rule="evenodd" fill="#001E39" d="M55.454,44.938c-8.029,0.653-16.654,1.147-24.261,1.055
			c-0.783-0.212-1.403-2.185-0.468-2.696c0.34-0.186,1.156,0.373,1.992,0.469c2.484,0.285,5.986,0.158,9.259,0
			c3.924-0.189,7.584-0.949,10.08-1.055C53.7,42.642,55.974,42.724,55.454,44.938z"/>
		<path fill-rule="evenodd" clip-rule="evenodd" fill="#001E39" d="M233.952,48.455c0.22-1.303,2.281-0.765,2.812-1.758
			c-0.058-1.397-1.688-1.816-3.165-1.406c-0.401,1.83-0.118,3.742,0.587,5.391c-0.195,0.313-0.336,0.681-0.587,0.938
			c-0.862-0.328-0.391-1.363-0.468-1.992c-0.161-1.298-0.703-2.679-0.587-3.985c-0.531-0.497-0.646-1.539,0.117-1.875
			c2.705,0.015,5.804,1.164,4.805,3.75C236.499,47.985,235.317,48.943,233.952,48.455z"/>
		<path fill-rule="evenodd" clip-rule="evenodd" fill="#001E39" d="M238.523,44.001c1.178,1.61,0.354,4.703,1.64,6.329
			c-0.26,0.249-0.291,0.725-0.82,0.703c-0.741-1.284-0.768-4.821-1.406-6.68C238.018,44.121,238.249,44.04,238.523,44.001z"/>
		<path fill-rule="evenodd" clip-rule="evenodd" fill="#001E39" d="M266.182,49.861c-0.839,0.327-1.152-0.455-1.405-1.055
			c-0.636,0.029-0.625,0.703-1.173,0.821c-1.477-0.226-1.278-1.388-1.406-2.696C264.125,44.373,266.326,47.876,266.182,49.861z
			 M263.369,48.455c0.518-0.03,0.618-0.477,1.055-0.586C264.1,46.436,262.823,47.447,263.369,48.455z"/>
		<path fill-rule="evenodd" clip-rule="evenodd" fill="#001E39" d="M269.581,46.931c0.585-0.157,0.794-0.69,1.641-0.586
			c0.485,1.021,1.327,2.294,0.586,3.282c-0.822-0.155-0.921-1.032-1.172-1.758c-0.542,0.409-0.736,1.478-1.759,1.055
			c-0.143-0.365-0.272-0.743-0.233-1.29c-0.824,0.447-0.559,1.296-1.29,1.875c-0.282,0.048-0.254-0.214-0.585-0.117
			c0.021-0.933-1.479-2.914,0.116-2.93c0.148,0.281,0.15,0.708,0.352,0.938C267.957,46.565,269.029,45.183,269.581,46.931z"/>
		<path fill-rule="evenodd" clip-rule="evenodd" fill="#001E39" d="M258.095,52.556c2.839,2.365,3.201-2.75,1.992-4.102
			c-0.559-0.008-1.195,0.871-2.227,0.469c-1.57-2.061,2.345-3.989,3.281-1.875c0.182,2.45,1.68,6.539-1.055,7.15
			C259.202,54.396,257.579,53.757,258.095,52.556z M258.799,47.869c0.587,0.041,0.803-0.291,0.937-0.703
			C259.131,47.108,258.804,47.327,258.799,47.869z"/>
		<path fill-rule="evenodd" clip-rule="evenodd" fill="#001E39" d="M255.399,49.978c-0.312,0-0.626,0-0.938,0
			c-0.031-0.36-0.254-0.527-0.352-0.82c-0.931,0.886-2.816,1.387-3.165-0.352c0.51-1.104,1.026-2.921,2.696-2.344
			C254.758,46.849,255.083,48.562,255.399,49.978z M252.587,49.158c0.462-0.397,1.059-0.659,1.288-1.289
			C253.181,46.606,251.462,48.35,252.587,49.158z"/>
		<path fill-rule="evenodd" clip-rule="evenodd" fill="#001E39" d="M135.503,49.509c-0.852-0.375-1.408-1.976-0.704-2.578
			c2.659-0.141,7.808,0.041,9.494-0.352c0.905-0.211,1.719,1.262,1.523,1.992c-1.54,1.235-4.358,0.383-6.68,0.469
			C137.803,49.09,136.606,49.441,135.503,49.509z"/>
		<path fill-rule="evenodd" clip-rule="evenodd" fill="#001E39" d="M114.172,57.479c-0.198,0.816-0.998,1.033-1.289,1.758
			c-4.068,1.714-6.557,5.007-10.549,6.797c-1.37-1.366-0.457-3.228-1.289-5.391c-2.31-0.191-5.534-0.254-8.087,0.47
			c-1.363,0.386-2.1,0.554-2.461-1.407c-0.076-0.408-0.101-1.073-0.117-1.641c-0.076-2.651-0.374-4.303-0.586-6.563
			c0.78-1.326,1.984-0.116,3.282,0c2.644,0.237,6.044-0.372,7.97,0.586c0.181-1.211-0.485-2.922-0.352-4.102
			c0.675-0.723,1.306-1.744,2.812-1.29C105.838,51.514,111.364,53.138,114.172,57.479z M102.452,54.432
			c-2.681-0.842-6.585-0.937-9.962-0.469c-0.194,1.318,0.225,2.958,0.234,4.454c1.984,0.392,4.905-0.383,7.266-0.234
			c0.348,0.021,0.718,0.271,1.056,0.234c0.518-0.056,0.752-0.443,1.289-0.352c2.136,0.365,0.55,2.954,1.172,4.805
			c2.573-1.88,4.989-3.919,7.736-5.625c-2.313-2.492-5.579-4.031-7.853-6.563C102.907,51.458,103.588,53.969,102.452,54.432z"/>
		<path fill-rule="evenodd" clip-rule="evenodd" fill="#001E39" d="M243.797,47.048c0.447,1.303,0.9,2.207,0.585,3.751
			c-0.825,0.346-1.849,0.494-3.047,0.469c-1.643-1.771,0.174-2.64,1.993-3.047c-0.608-1.403-2.769,0.358-3.165-1.055
			C240.975,46.246,242.778,46.565,243.797,47.048z M241.804,49.978c0.136,0.451,1.027,0.146,1.524,0.235
			C243.583,49.028,241.959,49.361,241.804,49.978z"/>
		<path fill-rule="evenodd" clip-rule="evenodd" fill="#001E39" d="M40.687,50.095c-1.941,0.824-3.426,0.144-5.625,0.352
			c-1.053,0.1-1.966,0.093-3.048,0.234c-0.537,0.071-1.046,0.461-1.523,0.352c-0.923-0.211-1.523-2.002-0.469-2.812
			c2.077,0.037,4.27,0.136,6.681,0C38.671,48.109,40.97,47.501,40.687,50.095z"/>
		<path fill-rule="evenodd" clip-rule="evenodd" fill="#001E39" d="M279.543,48.689C281.119,51.575,276.421,49.418,279.543,48.689
			L279.543,48.689z"/>
		<path fill-rule="evenodd" clip-rule="evenodd" fill="#001E39" d="M248.953,57.714c0.459,2.814-1.115,5.748-0.703,8.673
			c-0.431,0.127-0.553,0.745-1.172,0.353c0.357-3.103,0.764-6.111,1.289-9.025C248.562,57.714,248.758,57.714,248.953,57.714z"/>
		<path fill-rule="evenodd" clip-rule="evenodd" fill="#001E39" d="M244.733,60.175c0.063,0.442-0.318,0.755-0.937,0.82
			c0.461,0.991,1.969,1.409,1.523,2.93c-0.735,0.48-2.161,0.099-2.931-0.117c0.257-0.134,0.377-0.404,0.469-0.704
			c0.376,0.317,0.777-0.09,1.29,0c-0.325-1.113-1.935-1.326-1.642-2.695C243.198,60.004,243.949,59.795,244.733,60.175z"/>
		<path fill-rule="evenodd" clip-rule="evenodd" fill="#001E39" d="M253.056,64.276c-0.402-0.894-0.166-2.104-0.82-2.93
			c-1.036,0.215-0.591,1.91-1.29,2.461c-1.336-0.111-0.722-1.134-0.937-2.11c0.219-0.093,0.429-0.196,0.703-0.234
			c0.296-1.507,1.971-1.712,2.578-0.352c0.08,0.896,0.1,1.853,0.703,2.227C253.824,63.795,253.789,64.386,253.056,64.276z"/>
		<path fill-rule="evenodd" clip-rule="evenodd" fill="#001E39" d="M255.985,60.409c3.055-0.737,2.102,4.242-0.586,3.516
			C253.854,63.508,254.586,60.747,255.985,60.409z M255.634,62.87c0.929,0.068,1.271-0.448,1.406-1.172
			C256.27,60.772,255.248,61.928,255.634,62.87z"/>
		<path fill-rule="evenodd" clip-rule="evenodd" fill="#001E39" d="M241.335,62.636c-0.555,0.069-1.153,0.095-1.523,0.352
			c0.212,0.83,1.086,0.295,1.759,0.586c-1.442,1.901-3.289,0.039-2.813-1.758C239.342,59.608,242.845,60.399,241.335,62.636z
			 M239.929,61.816c0.196,0.207,0.393-0.104,0.821,0c0-0.157,0-0.313,0-0.469C240.389,61.415,239.92,61.376,239.929,61.816z"/>
		<path fill-rule="evenodd" clip-rule="evenodd" fill="#001E39" d="M234.538,60.878c0.444,0.375,0.034,1.606,0.585,1.875
			c1.495,0.205,0.781-1.798,1.993-1.875c0.848,1.896,0.293,4.527,1.407,6.212c-0.133,0.337-0.247,0.691-0.47,0.937
			c-1.316-0.754-0.66-3.48-1.406-4.804c-0.712,0.031-0.879,0.605-1.524,0.702c-0.926-0.401-1.365-1.291-1.406-2.578
			C234.014,61.214,234.012,60.782,234.538,60.878z"/>
		<path fill-rule="evenodd" clip-rule="evenodd" fill="#001E39" d="M161.756,63.339c-3.324,1.487-7.643,0.556-11.603,0.703
			c-4.75,0.176-9.453,0.167-13.478,0.704c-0.743-0.537-1.195-2.253-0.352-3.048c6.337,0.227,13.548,0.033,19.221,0
			c0.899-0.005,2.292-0.299,2.93-0.585c0.981,0.229,2.122,0.299,2.929,0.703C161.574,62.271,161.858,62.612,161.756,63.339z"/>
		<path fill-rule="evenodd" clip-rule="evenodd" fill="#001E39" d="M132.924,64.276c-1.505,0.538-5.805,1.853-4.922-1.64
			C128.406,61.036,134.165,61.68,132.924,64.276z"/>
		<path fill-rule="evenodd" clip-rule="evenodd" fill="#001E39" d="M54.634,63.925c-1.5,0.929-3.516,0.265-5.509,0.352
			c-0.453,0.021-0.931,0.335-1.406,0.352c-2.053,0.073-4.057-0.252-6.094,0c-1.107,0.138-2.622,0.043-3.985,0.236
			c-1.275,0.178-3.144,0.921-4.336,0.703c-1.164-0.215-1.847-1.992-0.82-2.93c7.178,0.184,13.652-1.21,21.331-0.586
			C54.46,62.321,54.916,63.074,54.634,63.925z"/>
		<path fill-rule="evenodd" clip-rule="evenodd" fill="#001E39" d="M29.904,64.394c-0.546,0.66-1.537,0.123-2.579,0.234
			c-0.732,0.079-1.333,0.72-1.992,0.587c-1.268-0.258-1.419-2.68-0.352-3.165c1.192,0.427,4.253-0.047,4.922,1.29
			C29.904,63.691,29.904,64.042,29.904,64.394z"/>
		<path fill-rule="evenodd" clip-rule="evenodd" fill="#001E39" d="M260.205,62.401c0.708-0.083,1.065,0.185,1.289,0.586
			c-0.106,0.557-0.614,0.714-1.289,0.703C259.814,63.369,259.749,62.692,260.205,62.401z"/>
		<path fill-rule="evenodd" clip-rule="evenodd" fill="#001E39" d="M266.651,62.401c0.731,0.095,1.127,0.932,0.702,1.523
			C266,64.141,265.82,62.854,266.651,62.401z"/>
		<path fill-rule="evenodd" clip-rule="evenodd" fill="#001E39" d="M262.9,62.87C265.443,61.356,263.755,65.911,262.9,62.87
			L262.9,62.87z"/>
		<path fill-rule="evenodd" clip-rule="evenodd" fill="#001E39" d="M143.238,66.973c0.444,2.434-0.424,2.411-2.11,2.227
			c-1.386-0.153-3.228,0.35-4.102,0c-0.647-0.709-0.667-2.583,0.586-2.812c0.579-0.107,1.257,0.222,2.343,0.353
			C141.406,66.911,142.378,66.173,143.238,66.973z"/>
		<path fill-rule="evenodd" clip-rule="evenodd" fill="#001E39" d="M42.562,69.55c-2.992,0.092-5.146,0.632-8.438,0.353
			c-0.346-0.679-0.573-1.988,0.117-2.461c1.794,0.923,9.181-2.267,8.791,1.289C43.002,68.985,42.665,69.182,42.562,69.55z"/>
		<path fill-rule="evenodd" clip-rule="evenodd" fill="#001E39" d="M33.89,72.949c0.068-0.465-0.101-1.298,0-1.406
			c0.329-1.431,1.521-0.595,2.812-0.585c0.576,0.003,1.15-0.366,1.757-0.353c0.527,0.012,0.987,0.257,1.407,0.234
			c1.428-0.072,3.67-0.84,3.984,0.82c0.501,2.648-5.66,1.48-7.267,1.641C35.359,73.424,34.526,73.985,33.89,72.949z"/>
		<path fill-rule="evenodd" clip-rule="evenodd" fill="#001E39" d="M144.175,70.84c0.772,0.615,1.104,1.975,0,2.461
			c-2.065-0.424-4.633,0.468-5.977,0.353c-1.606-0.14-1.53-1.725-1.054-2.813C139.573,71.303,141.763,70.582,144.175,70.84z"/>
		<path fill-rule="evenodd" clip-rule="evenodd" fill="#001E39" d="M57.095,76.114c-3.223,0.591-7.722,0.711-11.604,1.055
			c-2.557,0.227-7.004,1.189-5.508-2.228c3.196-0.104,9.455-0.906,13.596-1.055C55.24,73.828,57.685,73.725,57.095,76.114z"/>
		<path fill-rule="evenodd" clip-rule="evenodd" fill="#001E39" d="M144.411,77.638c2.421,1.394,5.506,0.22,7.5,1.289
			c0.501,2.092-1.417,1.925-2.93,1.758c-2.427-0.268-5.964,0.848-5.86-1.641c0.02-0.479,0.378-0.728,0.586-1.288
			c-0.262-0.405-0.983-0.347-1.408-0.587c-1.294-3.134,1.929-2.202,4.103-2.228c3.723-0.04,8.338-0.308,11.954-0.351
			c0.529,0.432,1.302,1.155,1.055,1.992c-0.347,1.18-2.043,0.415-2.812,0.469c-0.863,0.059-1.718,0.395-2.813,0.352
			C150.709,77.282,146.958,76.729,144.411,77.638z"/>
		<path fill-rule="evenodd" clip-rule="evenodd" fill="#001E39" d="M49.829,80.803c-2.014-0.269-6.585,0.545-8.321,0.233
			c-0.54-0.096-1.302-0.982-1.29-1.64c0.052-2.725,4.441,0.246,5.86-1.173C48.013,78.361,50.982,78.276,49.829,80.803z"/>
		<path fill-rule="evenodd" clip-rule="evenodd" fill="#001E39" d="M146.52,83.967c-2.876,0.015-8.167,1.628-7.267-2.344
			c1.298-0.266,3.114,0.432,5.04,0.233c0.981-0.101,1.831-0.514,2.578,0.352C147.154,83.026,146.78,83.402,146.52,83.967z"/>
		<path fill-rule="evenodd" clip-rule="evenodd" fill="#001E39" d="M44.32,85.021c-2.552,0.792-5.558,0.16-7.853,0.352
			c-0.819-0.491-1.124-1.281-0.821-2.462c1.171,0.05,5.471-0.216,7.501-0.116C44.142,82.844,44.942,83.644,44.32,85.021z"/>
		<path fill-rule="evenodd" clip-rule="evenodd" fill="#001E39" d="M74.792,97.68c0.85,0.698,0.403,1.981,0.704,3.164
			c2-0.592,2.767,0.83,4.453,0.234c0.499,0.399,1.043,0.753,1.29,1.406c0.742-1.048,2.695-1.49,3.75-0.703
			c1.727-0.987-1.012-4.029,1.758-4.219c1.628-0.111,1.7,1.727,1.641,3.164c1.217,0.188,3.57-0.573,3.867,0.703
			c0.445,1.912-2.475,1.151-3.399,2.109c0.321,1.633,1.676,5.644-1.406,5.157c-0.9-0.9-0.394-2.804-1.055-4.103
			c-0.679-1.01-2.358-0.852-3.281-0.117c0.911,0.667,1.542,2.233,0.117,2.813c-0.996-0.021-1.276-0.756-2.109-0.938
			c-0.857,0.951-2.905,2.605-3.75,0.587c0.045-1.322,1.12-1.615,1.758-2.345c-0.407-0.804-1.452-0.97-1.524-2.109
			c-0.798,0.022-1.253,0.388-1.992,0.47c0.401,2.248,0.891,4.534-1.875,4.219c-0.175-1.116-0.448-2.131-0.704-3.165
			c-2.875,0.695-2.735-2.693-0.235-2.695C72.12,99.484,72.157,96.904,74.792,97.68z"/>
		<path fill-rule="evenodd" clip-rule="evenodd" fill="#001E39" d="M141.949,103.188c0.505,1.252,2.717,0.799,3.047,2.227
			c0.046-4.397,6.144-4.4,6.446-0.585c0.248,3.142-5.06,5.01-6.212,1.641c-0.984,1.394-3.847,2.114-5.274,0.585
			c-0.438,0.617-1.066,1.044-1.758,1.407c-1.193-0.234-2.486,0.407-3.75,0.117c-0.841-0.684-0.951-2.097-1.876-2.696
			c-0.224,3.509-3.332,1.705-5.272,0.938c-0.337,0.601-0.756,1.119-1.173,1.641c-3.032,1.229-3.294-3.8-3.633-6.095
			c2.448-1.167,2.399,1.792,2.931,3.281c1.133-0.625,1.36-2.155,3.164-2.109c0.369,0.804,0.589,1.755,1.523,1.992
			c0.324-1.021-0.433-2.233-0.234-3.164c0.498-0.438,1.156-0.806,1.992-0.586c0.483,0.979,0.479,2.325,0.585,3.398
			c0.67-2.259,1.602-4.258,4.806-3.984c1.824,1.337,1.569,4.728-1.056,4.57c0.679,0.641,2.134,0.281,3.165,0.117
			c0.233,0.236,0.435,0.503,0.704,0.704c0.34-0.48,1.233-0.407,1.992-0.469c-1.18-0.767-3.475-1.947-2.344-3.751
			c0.559-0.892,5.702-3.517,4.689,0C143.756,103.056,142.515,102.432,141.949,103.188z M135.269,103.423
			c0.279,0.36,0.551,0.121,1.054,0.116C136.248,102.798,135.423,102.676,135.269,103.423z M148.512,106.234
			c1.148-0.211,0.304-2.931-1.054-1.641C147.369,105.575,147.809,106.364,148.512,106.234z"/>
		<path fill-rule="evenodd" clip-rule="evenodd" fill="#001E39" d="M35.413,102.25c1.046-0.744,3.333-2.14,4.805-0.938
			c0.513,1.487-1.042,1.61-1.875,2.11c0.4,1.161,1.533,1.591,2.11,2.577c0.412-2.084,0.683-4.434,2.812-4.688
			c1.634-0.194,3.641,0.97,4.571,2.11c0.29,2.71-1.834,5.756-4.454,5.039c-0.885-0.242-1.214-1.188-2.226-1.523
			c-0.556,0.964-1.126,1.976-3.165,1.758c-1.144-0.122-3.372-0.354-3.399-1.173c-0.029-0.875,1.181-0.99,2.228-1.054
			c-0.26-1.108-1.279-1.456-1.407-2.696c-0.451,1.373-1.515,1.807-3.164,2.227c0.42,0.439,1.395,0.324,1.875,0.704
			c-1.491,3.601-5.884,1.509-5.625-1.875C28.744,101.603,33.325,99.226,35.413,102.25z M31.663,103.539
			c0.104-0.248,0.82,0.231,1.055-0.116C32.778,102.537,31.238,102.894,31.663,103.539z M43.5,104.008
			c-0.344,0.989,0.187,1.959,1.054,2.11c0.578-0.358,0.824-1.138,0.704-1.876C44.773,103.753,44.253,103.784,43.5,104.008z"/>
		<path fill-rule="evenodd" clip-rule="evenodd" fill="#001E39" d="M169.491,101.898c0.742,1.817-0.102,3.895-1.641,3.984
			c0.172,0.638,0.95,0.207,1.758,0.352c0.206,0.186,0.153,0.628,0.352,0.82c-1.853,2.216-7.21,1.506-7.501-1.641
			c-0.26,0.921-0.025,2.029-1.289,2.344c-1.439-0.336-0.762-2.106-1.523-3.164c-0.92,1.106-1.419,4.019-3.398,2.345
			c-0.208-0.73-0.115-1.762-0.47-2.345c-1.676,0.41-0.444,2.681-1.875,3.164c-2.448,0.828-1.553-3.021-2.109-4.922
			c0.534-0.89,2.161-1.117,2.344,0.235c1.362-0.641,2.683-2.582,3.868-0.587c0.717-0.851,2.811-1.108,3.75-0.117
			c0.099,0.995,0.194,1.993,0.469,2.812c0.941-1.67,2.269-4.444,4.57-4.453C167.868,100.722,168.444,101.561,169.491,101.898z
			 M165.857,103.773c0.358,0.084,0.428-0.12,0.704-0.117c0.037-0.271-0.02-0.449-0.117-0.585
			C166.1,103.147,165.646,103.503,165.857,103.773z M167.616,106.234c-0.028-0.621-0.481-0.09-0.821-0.352
			C166.76,106.309,167.42,106.04,167.616,106.234z"/>
		<path fill-rule="evenodd" clip-rule="evenodd" fill="#001E39" d="M179.57,107.29c0.16,0.815,0.329,1.623,0.469,2.461
			c-0.454,0.587-0.669,0.713-1.758,0.587c-1.077-2.362-1.387-5.49-2.109-8.205c1.633-2.17,5.086,0.232,7.149,0.821
			C184.057,105.158,181.477,106.607,179.57,107.29z M179.102,105.062c0.872,0.398,1.339-0.399,1.642-0.938
			c-0.381-0.284-1.074-0.255-1.642-0.352C178.795,104.139,179.227,104.517,179.102,105.062z"/>
		<path fill-rule="evenodd" clip-rule="evenodd" fill="#001E39" d="M185.078,112.329c-0.629-0.839-0.041-1.52,0.587-1.991
			c3.287,0.107,5.494-0.935,4.336-3.986c-2.927,2.196-6.489-0.908-6.095-4.102c0.535-0.573,1.282-0.849,2.11-0.586
			c0.515,1.123,1.523,4.569,3.165,2.344c-1.153-2.18,2.048-4.05,2.578-1.875c0.077,0.319-0.07,0.802,0,1.29
			c0.182,1.283,0.808,3.009,0.937,4.219c0.24,2.24-0.953,2.938-1.875,3.867C189.017,111.65,186.942,112.69,185.078,112.329z"/>
		<path fill-rule="evenodd" clip-rule="evenodd" fill="#001E39" d="M22.052,109.281c-2.779,0.935-2.072-3.177-3.281-4.922
			c-0.231,1.209,0.354,2.614,0.585,3.75c-0.481,1.064-1.686,1.827-2.46,0.587c-1.053,0.762-2.285,0.361-3.633,0.233
			c-2.744-2.768-0.126-7.254,3.516-7.148c0.976,0.312,1.383,1.196,1.876,1.992c-0.011-0.218,0.168-0.703,0.351-1.055
			c1.729-0.469,2.644,0.759,2.93,2.11c1.015-0.695,2.707-0.604,3.633,0.233c0.474-0.59-0.074-1.875,0.117-2.93
			c2.253-1.568,2.998,0.225,2.696,2.696c-0.107,0.88-0.24,2.391-0.469,2.929c-0.297,0.7-1.715,1.304-2.227,1.172
			c-0.828-0.212-1.034-1.797-1.993-1.64C22.829,107.432,22.767,108.866,22.052,109.281z M13.73,105.766
			c0.538,0.597,0.968,1.3,1.992,1.407c0.25-0.182,0.437-0.424,0.704-0.586c0.111-1.293-0.583-1.941-1.406-2.579
			C14.435,104.439,13.745,104.764,13.73,105.766z"/>
		<path fill-rule="evenodd" clip-rule="evenodd" fill="#001E39" d="M122.611,108.345c-0.607,0.34-1.785,0.338-1.876-0.47
			c-1.413,0.595-3.374,0.612-4.335,0.234c-2.939-2.142-0.744-7.812,3.985-5.977C122.275,103.056,122.261,105.882,122.611,108.345z
			 M116.985,105.062c0.359,0.423,0.532,1.031,0.938,1.407c0.973-0.06,1.433,0.307,2.343,0
			C120.4,104.349,117.549,102.146,116.985,105.062z"/>
		<path fill-rule="evenodd" clip-rule="evenodd" fill="#001E39" d="M243.562,109.868c-0.604,0.293-1.709,0.088-1.991,0.703
			c0.122,0.541,0.331,0.996,0.233,1.758c-3.334,1.995-2.568-4.523-3.984-6.329c-0.774,1.033-1.511,0.29-2.812,0.234
			c-0.521-0.021-2.794,0.428-2.812,0.938c-0.056,1.43,5.95,1.634,5.977,3.633c0.028,2.175-5.161,3.931-6.562,1.758
			c-0.013-0.363,0.143-0.56,0.233-0.82c1.039-0.034,2.575,0.3,3.165-0.703c-1.558-1.329-5.198-1.263-5.274-3.517
			c-0.03-0.906,1.081-2.095,1.992-2.461c1.618-0.65,5.48-1.38,5.979,0.352c1.46-2.551,3.577,0.432,3.28,2.579
			c0.638,0.262,1.649,0.147,2.345,0.352c0.066-1.528-1.751-5.757,1.172-4.922c0.382,0.108,0.91,0.981,1.054,1.64
			c0.343,1.56,0.891,5.825,0.47,6.915C245.034,114.538,243.682,111.358,243.562,109.868z"/>
		<path fill-rule="evenodd" clip-rule="evenodd" fill="#001E39" d="M286.224,110.806c-0.153-2.128,0.306-2.936,0.117-4.571
			c-0.055-0.473-0.554-0.907-0.353-1.758c0.229-0.965,1.891-1.45,2.696-0.703c1.189,1.102,0.093,7.366-1.289,7.5
			C286.802,111.333,286.704,111.059,286.224,110.806z"/>
		<path fill-rule="evenodd" clip-rule="evenodd" fill="#001E39" d="M252.235,110.338c-0.867-0.008-1.387,0.331-1.993,0.585
			c-0.23,0.512-0.22,1.264-0.586,1.641c-1.146,0.24-1.873,0.228-2.578-0.351c0.138-0.383-0.124-0.914,0.117-1.29
			c0.897-1.395,1.474-5.056,2.345-6.329c1.935-2.83,3.729,2.007,4.453,3.516c0.61,1.273,0.332,0.726,0.586,2.229
			c0.082,0.487,0.385,1.006,0.353,1.288C254.651,114.036,252.107,112.193,252.235,110.338z M250.712,108.227
			c0.358-0.085,0.345,0.203,0.703,0.118c0.136-0.251-0.072-0.968-0.47-1.055C250.939,107.674,250.612,107.737,250.712,108.227z"/>
		<path fill-rule="evenodd" clip-rule="evenodd" fill="#001E39" d="M262.314,104.594c1.565,2.424-2.083,3.555-2.228,6.095
			c0.656,0.438,2.271-0.084,2.345,0.938c-1.16,1.805-7.985,2.1-5.743-0.938c0.825-1.119,2.412-2.429,2.813-3.984
			c-1.437-0.602-4.351,1.199-4.454-0.938C254.925,103.2,260.016,104.65,262.314,104.594z"/>
		<path fill-rule="evenodd" clip-rule="evenodd" fill="#001E39" d="M271.339,113.853c-1.56,0.169-2.089-1.433-2.812-2.461
			c-0.926-0.165-1.725,0.551-2.813,0.586c-0.361,0.38-0.413,1.071-0.937,1.289c-3.682,0.245-1.585-2.161-0.587-3.985
			c1.014-1.854,1.689-3.234,2.579-4.805c2.17-0.658,2.306,1.113,3.047,3.165c0.44,1.22,0.69,2.123,1.173,3.281
			C271.452,112.041,272.304,113.034,271.339,113.853z M267.002,109.398c0.283-0.047,0.255,0.214,0.587,0.118
			c0.228-0.227-0.123-0.472-0.117-0.82C267.085,108.7,267.023,109.029,267.002,109.398z"/>
		<path fill-rule="evenodd" clip-rule="evenodd" fill="#001E39" d="M277.433,108.93c1.81-1.001,2.068-4.407,5.041-3.516
			c0.648,0.778,1.565,7.279,1.054,9.376c-0.217,0.893-1.188,1.056-2.109,0.938c-0.65-1.947-0.316-4.894-0.703-6.799
			c-1.19,0.92-1.636,2.584-2.46,3.868c-1.037,0.063-1.548,0.158-2.462,0c-0.068-0.634-0.28-1.126-0.47-1.641
			c-0.417,0.839,0.359,1.891-0.352,2.578c-0.869,0.209-1.258,0.017-2.108,0c-0.942-2.353,0.481-5.965,1.055-8.556
			C276.657,103.856,276.828,107.412,277.433,108.93z"/>
		<path fill-rule="evenodd" clip-rule="evenodd" fill="#001E39" d="M68.581,105.062c0.769-0.19,1.645,0.185,1.758,0.938
			c0.292,1.938-2.584,2.197-2.812,0.587C67.423,105.858,67.618,105.301,68.581,105.062z"/>
		<path fill-rule="evenodd" clip-rule="evenodd" fill="#001E39" d="M174.296,105.18c0.765,0.533,0.797,1.628,0.353,2.578
			c-1.169,0.668-2.693,0.18-2.579-1.406C172.701,105.851,173.007,105.023,174.296,105.18z"/>
		<path fill-rule="evenodd" clip-rule="evenodd" fill="#001E39" d="M286.457,115.493c-1.333-0.914-0.017-3.063,1.407-2.812
			C289.98,113.055,289.005,116.95,286.457,115.493z"/>
		<path fill-rule="evenodd" clip-rule="evenodd" fill="#001E39" d="M193.166,59.589c-0.834-2.264-1.211-5.798-1.056-7.97
			c-0.426-0.712-0.753-2.193,0-2.813c3.612,0.77,6.81,0.476,10.899,0.703c0.129-2.598-0.163-6.97,3.048-4.805
			c0.725,0.489,1.154,1.678,1.876,2.461c0.674,0.733,1.481,1.283,2.343,1.875c2.575,1.77,4.861,3.01,7.735,3.985
			c1.451,2.459-1.619,3.356-3.047,4.336c-2.233,1.533-4.519,4.135-5.977,5.86c-0.371,0.058-0.516,0.345-0.938,0.352
			c-0.438,0.538-0.805,1.147-1.289,1.641c-0.967-0.124-1.428,0.115-2.344-0.117c-1.607-1.299-0.172-5.038-1.875-6.33
			c-2.53-0.067-7.048-0.211-8.321,1.055C194.089,59.759,193.423,59.843,193.166,59.589z M204.769,51.619
			c-3.219,0.444-7.18-0.056-10.079,0.235c0.203,1.582-0.426,3.265,0.352,4.804c2.537-0.554,5.536,0.342,7.618-0.117
			c3.117-0.688,2.457,2.101,3.282,4.923c3.336-1.812,5.996-4.813,9.023-7.267c-3.684-1.396-6.438-3.721-9.493-5.743
			C205.523,49.795,205.405,50.967,204.769,51.619z"/>
		<path fill-rule="evenodd" clip-rule="evenodd" fill="#001E39" d="M293.139,12.239c0.243,0.545,0.796,0.998,0.82,1.523
			c0.048,1.047-0.967,1.249-1.172,1.993c-0.442,1.593,0.549,6.717,0.702,8.672c0.261,3.292,0.79,6.465,0.704,9.142
			c-0.104,3.188,0.487,6.18,0.586,9.259c0.047,1.483,0.017,2.914,0.117,4.336c0.099,1.394,0.465,2.699,0.586,4.102
			c0.351,4.09,0.095,8.289,0.234,12.307c0.428,12.291-0.571,24.184,1.172,34.926c-0.852,2.356-2.257,1.866-4.805,1.64
			c-1.111-0.098-2.248,0.327-3.282,0.352c-1.138,0.028-3.216-0.134-4.805-0.234c-11.87-0.744-25.68-2.343-38.794-2.343
			c-4.527,0-9.338,0.047-13.946-0.118c-1.43-0.051-4.304-0.517-4.688-0.938c-0.881-0.961-0.639-3.515-0.703-5.157
			c-0.181-4.599-0.555-9.332-0.82-13.945c-0.41-7.114-1.002-13.84-1.29-20.511c-0.191-4.458-0.705-8.818-1.172-13.361
			c-0.233-2.278-0.101-4.507-0.233-6.681c-0.09-1.446-0.575-2.952-0.587-4.57c-0.02-2.748-0.423-5.873-0.352-9.025
			c0.07-3.146-0.345-6.558-0.82-8.79c0.731-1.044,1.922-0.902,2.695-1.875c4.716,0.662,9.587-0.792,14.533-0.704
			c8.974,0.161,19.59,0.107,28.011,0.469c1.521,0.065,3.676,0.058,4.806,0C277.179,12.373,287.237,11.907,293.139,12.239z
			 M275.91,15.052c-1.922,0.039-4.16,0.426-5.509,0c-4.562,0.876-8.993-0.046-13.713,0.118c-2.11,0.073-4.228,0.411-6.328,0.234
			c-1.311-0.11-2.565-0.37-3.868-0.352c-8.041,0.113-15.805,0.035-22.502,1.172c0.431,3.093,0.247,6.15,0.468,9.259
			c0.104,1.447,0.18,2.902,0.234,4.336c0.391,10.177,1.94,20.449,2.345,31.059c0.202,5.316,0.82,10.386,0.82,15.822
			c0,6.188,0.702,12.54,1.055,17.932c7.639,0.643,15.497,0.539,23.088,0.703c14.065,0.305,29.74,2.366,41.607,1.993
			c-0.295-2.355,0.025-4.89-0.352-7.267c-0.673-4.23-0.282-9.167-0.234-13.127c0.047-3.893-0.259-7.926-0.353-11.954
			c-0.13-5.633,0.393-11.429-0.938-16.877c0.624-4.77-0.717-9.64-0.468-13.83c0.06-1.026,0.089-2.211,0-3.282
			c-0.427-5.122-1.191-10.384-1.524-15.588c-1.024,0.083-2.153-0.021-3.398-0.234c0.479,1.262,0.941,3.833,0.234,5.391
			c-0.834,0.198-1.183,0.156-2.227,0.117c0.35,0.484,1.705,0.239,2.344,0.586c1.272,0.69,0.93,2.653,0.938,4.219
			c0.017,3.673,0.848,7.833,0.938,11.603c0.177,7.479,0.307,14.669,0.704,22.503c0.561,11.072,0.03,22.833,1.171,32.699
			c-0.277,0.504-0.981,0.582-1.406,0.937c0.532,1.113,0.258,2.216-0.469,2.932c-2.735,0.016-5.892-0.438-9.024-0.587
			c-0.641-0.03-1.333,0.341-1.992,0.352c-1.119,0.02-2.264-0.411-3.399-0.468c-2.499-0.129-5.028,0.34-7.031-0.353
			c-0.61-0.063-0.869,0.226-1.407,0.234c-5.636-1-12.936,0.235-18.518-0.82c-4.83,0.738-10.936-0.865-15.471,0
			c-0.153-0.236-0.385-0.396-0.703-0.469c-0.781-2.141-0.304-4.36-0.469-6.681c-0.098-1.37-0.456-2.705-0.586-4.102
			c-0.37-3.969,0.123-8.428-0.234-12.072c-0.144-1.476-0.711-2.88-0.82-4.336c-0.346-4.609-0.315-9.246-1.289-13.596
			c0.482-1.667-0.019-3.721-0.234-5.157c-0.375-2.504-0.011-5.391,0-7.97c0.017-4.4-0.681-9.928-0.703-14.064
			c-0.007-1.179,0.21-2.063-0.469-2.93c0.783-1.737,3.042-2.045,4.22-0.82c3.769-0.377,8.972-0.116,11.72-0.82
			c5.45,0.967,11.44-0.122,17.462-0.118c5.714,0.004,11.595,0.165,17.347-0.117c2.451-0.121,4.96,0.579,7.148-0.469
			c-1.804,0.204-3.494-0.21-4.102-1.289c0.223-1.735-0.725-3.631,1.172-4.336C279.229,15.272,277.105,15.028,275.91,15.052z
			 M281.302,16.81c0.003,0.707-0.2,1.207-0.118,1.993c0.39,0.228,1.282,0.963,1.641,0.469c-0.354-0.075-0.676-0.183-0.702-0.586
			c0.449-0.728-0.658-1.676,0.702-1.875c0.28,0.19,0.517,0.421,0.821,0.586c0-0.954,0.896-0.288,0.937-1.172
			C283.651,16.282,281.868,16.048,281.302,16.81z M284.349,17.982c0.398,0.681,0.913,0.568,1.406,1.055
			c-0.186-0.885,0.036-1.754-0.47-2.109C285.126,17.431,284.438,17.408,284.349,17.982z M282.941,19.271
			c0.265,0.229,0.878,0.098,1.056-0.117C283.73,19.077,283.014,18.851,282.941,19.271z M252.82,24.545
			c-1.708,0.015-3.45,0.343-5.155,0.352c-1.313,0.007-2.588-0.267-3.868-0.234c-1.243,0.032-2.372-0.119-3.634-0.117
			c-3.479,0.004-7.183,0.51-10.782,0.821c0.492,13.267,1.054,25.761,2.109,38.208c0.081,0.952-0.135,1.972,0,2.929
			c0.151,1.074,0.659,2.199,0.704,3.282c0.124,3.074-0.071,5.68,0.117,8.321c0.32,4.509,0.325,8.817,1.172,13.127
			c3.497-0.187,7.587,0.69,11.25,0.468c2.948-0.179,5.994,0.545,8.908,0.47c6.788-0.177,12.89-0.135,19.807,0.469
			c4.586,0.4,9.339,0.278,13.83-0.117c-1.271-14.379,0.009-27.636-1.641-42.779c0.725-2.165-0.052-4.022,0-6.094
			c0.021-0.865,0.386-1.775,0.351-2.695c-0.021-0.591-0.328-1.166-0.351-1.758c-0.197-5.086-0.013-10.628-0.938-15.001
			C273.761,24.552,263.107,24.457,252.82,24.545z"/>
		<path fill-rule="evenodd" clip-rule="evenodd" fill="#001E39" d="M236.413,17.396c1.024,1.268,0.256,5.122-1.642,2.93
			c-0.527,0.175-0.772,0.634-1.172,0.938c-1.478,0.147-2.23-3.749-0.468-3.633c0.581,0.381-0.008,1.31,0.352,1.993
			c0.39-0.314,0.624-0.782,1.288-0.821C236.205,20.601,235.35,17.806,236.413,17.396z"/>
		<path fill-rule="evenodd" clip-rule="evenodd" fill="#001E39" d="M248.016,36.032c-1.752-0.475-1.08-3.374-1.523-5.157
			c-0.699,1.789,0.264,3.809,0,5.391c-0.394,0.232-0.984,0.266-1.289,0.586c-1.872-1.574-0.775-5.545-2.109-7.5
			c0.351-1.365,2.358-2.049,2.93-0.469c0.42-0.009,0.094-0.766,0.352-0.938c0.687-0.326,0.891-0.387,1.758-0.234
			c1.269,1.385,0.814,5.179,0.704,7.735C248.578,35.656,248.212,35.759,248.016,36.032z"/>
		<path fill-rule="evenodd" clip-rule="evenodd" fill="#001E39" d="M273.448,47.869c0.276,0.466,1.161,0.324,1.759,0.469
			c-1.4,2.807-4.529-0.975-2.228-2.93C276.286,44.061,275.868,47.615,273.448,47.869z"/>
		<path fill-rule="evenodd" clip-rule="evenodd" fill="#001E39" d="M245.554,47.283c0.214,0.704,0.089,1.306,0.704,1.758
			c1.181-0.069,1.051-1.449,2.109-1.641c0.849,1.963,0.412,5.028,0.82,6.798c-1.86-0.21-0.8-3.341-1.289-4.922
			c-0.743-0.06-0.959,1.047-1.875,0.938C245.018,50.091,244.062,47.683,245.554,47.283z"/>
		<path fill-rule="evenodd" clip-rule="evenodd" fill="#001E39" d="M62.838,104.946c0.649,1.094,2.369-0.077,3.281,0.468
			c-0.217,3.032-6.638,2.878-6.915-0.234c-0.484,1.104-0.185,4.148-1.876,3.868c-1.282-0.212-0.294-2.892-1.289-3.634
			c-0.561,2.91-3.688,3.543-3.516-0.352c-0.622,0.751-0.511,3.165-2.227,3.164c-0.666,0-0.775-0.458-1.407-0.703
			c-0.226-1.966-0.632-3.829-0.117-5.509c0.599-0.084,0.708,0.028,1.172-0.233c0.513,0.229,0.872,0.613,1.172,1.055
			c0.498-0.791,1.126-1.453,2.11-1.758c0.498,0.323,1.232,0.409,1.406,1.055c1.732-1.857,4.305-0.396,4.219,2.227
			c0.595,0.009,0.253-0.918,0.469-1.288c1.021-2.545,4.471-4.293,6.797-1.759C68.057,103.666,65.331,105.508,62.838,104.946z"/>
	</g>
</g>
</svg>
