<?xml version="1.0" encoding="utf-8"?>
<!-- Generator: Adobe Illustrator 15.1.0, SVG Export Plug-In . SVG Version: 6.00 Build 0)  -->
<!DOCTYPE svg PUBLIC "-//W3C//DTD SVG 1.1//EN" "http://www.w3.org/Graphics/SVG/1.1/DTD/svg11.dtd">
<svg version="1.1" id="Layer_1" xmlns="http://www.w3.org/2000/svg" xmlns:xlink="http://www.w3.org/1999/xlink" x="0px" y="0px"
	 width="311.81px" height="120px" viewBox="0 0 311.81 120" enable-background="new 0 0 311.81 120" xml:space="preserve">
<g>
	<path fill-rule="evenodd" clip-rule="evenodd" fill="#001E39" d="M165.693,13.526c-0.484,0.336-1.496,0.678-2.115,0.222
		c-0.266-2.07,0.018-4.691-0.223-6.788C166.883,3.682,166.553,11.163,165.693,13.526z"/>
	<path fill-rule="evenodd" clip-rule="evenodd" fill="#001E39" d="M168.92,14.416c-0.459-0.061-0.652-0.387-1.002-0.556
		c0.35-1.513,1.021-4.456,2.113-5.563c0.869-0.881,2.41-0.619,2.449,0.778C172.512,10.25,169.979,13.71,168.92,14.416z"/>
	<path fill-rule="evenodd" clip-rule="evenodd" fill="#001E39" d="M162.91,15.751c-1.766,0.905-7.119-1.691-7.122-3.116
		c-0.001-0.685,1.217-1.655,2.116-1.557c0.953,0.104,1.604,1.409,2.559,2.114C161.566,14.008,163.076,14.5,162.91,15.751z"/>
	<path fill-rule="evenodd" clip-rule="evenodd" fill="#001E39" d="M170.143,17.197c-0.34-1.098,0.457-1.494,1.447-1.78
		c1.684-0.486,3.219-2.605,4.896-2.448c0.834,0.385,0.98,1.439,0.334,2.003C174.055,15.117,173.053,17.899,170.143,17.197z"/>
	<path fill-rule="evenodd" clip-rule="evenodd" fill="#001E39" d="M155.121,19.869c-0.024-0.545,0.34-0.7,0.335-1.225
		c0.818-0.802,1.873-0.418,3.115-0.333c0.961,0.065,4.193-0.618,4.229,0.779c0.031,1.29-2.926,1.143-4.34,1.335
		C157.275,20.585,155.835,21.041,155.121,19.869z"/>
	<path fill-rule="evenodd" clip-rule="evenodd" fill="#001E39" d="M178.6,19.312c0.055,0.351-0.34,0.252-0.223,0.668
		c-1.916,0.607-5.756,2.723-7.455,0.556c0.158-0.389,0.27-1.067,0.668-1.447c0.857-0.815,5.584-0.898,6.455-0.445
		C178.33,18.793,178.381,19.215,178.6,19.312z"/>
	<path fill-rule="evenodd" clip-rule="evenodd" fill="#001E39" d="M154.899,39.675c0.084,0.677-0.178,1.009-0.112,1.669
		c-0.566,0.558-1.287,0.302-1.891,0.891C149.157,41.662,153.737,36.443,154.899,39.675z"/>
	<path fill-rule="evenodd" clip-rule="evenodd" fill="#001E39" d="M194.846,41.01c0.307,0.234,0.654-0.149,1.002-0.111
		c1.035,0.115,2.445,0.755,3.561,0.891c1.045,0.126,3.074-0.489,3.227,0.779c0.146,1.205-2.479,1.565-3.338,1.558
		c-1.268-0.011-2.869-0.828-4.451-0.89c-2.023-0.08-4.15-0.068-5.785-0.445c-1.055,1.651-3.068,0.383-4.562,0
		c-0.455,0.279-1.336,0.501-2.004,0.223c0.256-1.9,3.168-3.812,4.117-1.78c0.855,0.434,1.633-0.819,2.783-0.779
		c0.389,0.014,0.592,0.375,1,0.444C192.008,41.173,193.719,39.468,194.846,41.01z"/>
	<path fill-rule="evenodd" clip-rule="evenodd" fill="#001E39" d="M87.8,48.8c0.998-0.958,2.877-2.083,4.451-0.89
		c0.936-0.08,1.876-0.982,2.67-0.223c0.352,2.041-2.554,3.002-4.229,2.337c-1.183,0.583-3.035,1.893-4.451,0.89
		c0.197,1.831-2.289,3.266-3.115,1.446c0.514-1.688,0.199-2.989,1.001-4.451C85.534,46.701,87.074,47.4,87.8,48.8z"/>
	<path fill-rule="evenodd" clip-rule="evenodd" fill="#001E39" d="M189.838,48.911c0.379-0.104,0.654-0.312,1.225-0.222
		c1.139,0.365,0.371,1.944,0.445,2.67c0.662-1.101,1.037-3.468,2.781-3.116c0.818,0.165,0.814,1.018,1.002,2.002
		c0.852-0.386,2.865-1.847,3.561-0.333c0.551-0.65,1.285-0.281,2.115-0.334c1.842-0.118,4.061-1.767,5.674-0.222
		c0.125,0.47,0.129,1.059,0.111,1.669c-1.615,0.5-4.34,0.494-6.342,1.224c-0.979,0.357-1.855,0.751-3.117,0.111
		c-0.957,0.907-2.361,1.359-3.449,0.224c-0.395,0.123-0.559,0.478-1.223,0.333c0.086,0.68-0.215,0.973-0.445,1.335
		c-0.773,0.313-1.303-0.14-1.781-0.445c-2.092,2.887-6.301-0.31-5.34-3.004C185.779,48.768,188.385,46.422,189.838,48.911z
		 M187.836,50.468c0.32,0.153,0.975-0.172,1.002-0.667C188.158,49.679,187.947,50.024,187.836,50.468z"/>
	<path fill-rule="evenodd" clip-rule="evenodd" fill="#001E39" d="M66.658,48.911c0.628,1.486,1.041,3.188,2.226,4.117
		c0.425-1.059,0.186-2.781,0.89-3.561c0.671,0.003,1.146-0.189,1.892-0.111c0.302,0.587,0.619,1.161,1.223,1.446
		c1.323-0.566,2.538-1.331,4.34-1.112c0.279,0.239,0.415,0.624,0.667,0.89c0.987-0.979,4.156-1.3,3.895,1.001
		c-0.333,0.261-0.501,0.686-0.89,0.891c-0.321-0.014-0.729,0.061-0.891-0.111c-0.953,1.226-3.602,0.809-4.451-0.445
		c-1.181,0.191-1.599,1.146-2.782,1.336c-0.454-0.14-0.625-0.562-1.335-0.445c0.029,2.386-2.156,3.199-4.118,2.114
		c-0.582,0.998-2.512,1.179-2.893-0.111c1.681-1.602,0.229-3.365,0-5.563C64.874,48.854,65.944,48.678,66.658,48.911z"/>
	<path fill-rule="evenodd" clip-rule="evenodd" fill="#001E39" d="M90.583,57.813c-0.257-0.034-0.124,0.321-0.334,0.333
		c-0.778,0.188-0.878-0.781-0.779-1.112C90.039,56.598,90.724,56.933,90.583,57.813z"/>
	<path fill-rule="evenodd" clip-rule="evenodd" fill="#001E39" d="M50.968,58.703c0.593,0.965,1.151,1.966,1.781,2.894
		c0.415,2.647-1.342,3.967-3.783,4.116c-1.57-1.051,0.845-1.63,0.891-2.893c0.026-0.727-0.367-0.674-0.667-1.669
		c-3.791-0.938-2.486,6.349-6.232,3.672c0.888-1.701,1.615-5.011,3.672-5.563c0.483-0.13,1.029,0.072,1.447,0
		C49.01,59.098,49.852,58.014,50.968,58.703z"/>
	<path fill-rule="evenodd" clip-rule="evenodd" fill="#001E39" d="M89.136,60.373c0.434,1.416,0.739,2.922,0.556,4.45
		c-1.699,0.331-4.256,1.241-5.675,0.779c0.056,0.871-0.199,1.433-0.445,2.003c-1.899,0.633-2.276-1.104-3.449-1.558
		c-0.343,0.064-0.127,0.688-0.334,0.89c-3.306,2.454-6.705-0.421-6.342-4.117c3.399-1.066,8.851-2.325,12.685-2.671
		C87.397,60.036,88.248,59.962,89.136,60.373z M88.134,61.151c-4.282,0.612-9.141,1.126-13.354,2.337
		c-0.491,2.188,1.993,4.081,4.118,2.56c-0.082-0.527,0.159-0.732,0.334-1.002c-0.64-0.474-2.174-0.052-2.337-1.002
		c0.423-0.783,1.607-0.277,2.226,0c0.933-1.074,2.413-1.163,3.895-1.001c0.272-0.247,0.602-0.438,1.001-0.556
		c0.271,0.322,0.94,0.247,0.891,0.89c-1.21,0.446-3.244,0.963-4.674,0.667c-0.089,0.578-0.588,0.747-0.891,1.113
		c0.741,0.072,1-0.336,1.559-0.445c0.666,0.604,0.899,2.204,2.114,1.892c-0.155-0.662,0.018-1.202,0.445-1.558
		c0.193-0.009,0.346,0.024,0.445,0.111c1.006-1.676,3.59-0.212,4.785-1.335C88.625,62.636,88.513,62.095,88.134,61.151z"/>
	<path fill-rule="evenodd" clip-rule="evenodd" fill="#001E39" d="M91.25,60.929c-0.255,0.228-0.529,0.437-0.891,0.556
		C89.188,60.649,91.07,59.296,91.25,60.929z"/>
	<path fill-rule="evenodd" clip-rule="evenodd" fill="#001E39" d="M219.438,63.154c1.311,2.095,0.27,4.891,0.557,7.566
		c0.154,1.438,0.24,3.131,0.111,5.23c-0.236,3.834,0.281,8.206,0.445,11.795c0.102,2.229,1.045,4.885,0.223,6.787
		c-1.09-0.177-0.898-1.782-1.002-2.781c-0.33-3.186-0.305-6.808-0.668-9.569c-1.041-1.027-2.645-0.174-3.895-0.223
		c-1.133-0.045-1.945-0.146-3.227,0c-1.24,0.14-2.6-0.033-3.895,0.11c-5.553,0.617-11.186,0.46-17.248,0.557
		c-0.498,0.009-1.66,0.588-1.891-0.444c1.035-0.571,2.488-0.247,3.783-0.223c3.871,0.072,7.771-0.178,11.238,0.223
		c4.447-0.654,9.744-1.242,15.021-0.779c0.508-6.149-0.264-12.819-0.111-18.138C219.047,63.268,219.338,62.853,219.438,63.154z"/>
	<path fill-rule="evenodd" clip-rule="evenodd" fill="#001E39" d="M211.426,64.378c0.363,0.499,0.842,0.932,0.557,1.78
		c-0.238,0.134-0.605,0.136-0.668,0.445c-5.316-1.207-11.631-0.319-16.912-1.001c-0.398-0.052-0.758-0.389-1.113-0.445
		c-1.168-0.186-2.27,0.198-3.561,0.111c-1.139-0.077-3.496-0.86-2.004-1.67C195.994,63.719,203.123,64.371,211.426,64.378z"/>
	<path fill-rule="evenodd" clip-rule="evenodd" fill="#001E39" d="M232.123,65.269c-0.76,0.092-0.998-0.337-1.557-0.445
		c-1.42,0.594-5.066,0.813-7.346,0.556c-0.906-0.102-1.598-0.499-1.557-1.001c0.096-1.209,2.365-0.231,3.672-0.222
		c1.734,0.013,4.227-0.065,5.23-0.668C231.055,63.193,232.4,64.479,232.123,65.269z"/>
	<path fill-rule="evenodd" clip-rule="evenodd" fill="#001E39" d="M90.805,63.822c0.222,0,0.445,0,0.667,0
		c0.356,0.618,0.567,1.163,0,1.669c-0.339-0.144-0.574-0.392-0.89-0.557C90.604,64.512,90.68,64.143,90.805,63.822z"/>
	<path fill-rule="evenodd" clip-rule="evenodd" fill="#001E39" d="M228.785,67.605c-1.182,0.693-4.689,0.581-6.121-0.112
		c-0.195-0.661,0.043-0.823,0.445-1.111C224.809,67.161,227.779,66.354,228.785,67.605z"/>
	<path fill-rule="evenodd" clip-rule="evenodd" fill="#001E39" d="M209.535,67.717c0.277,0.329,0.693,1.148,0.221,1.558
		c-1.238-0.428-2.76-1.327-3.895-0.111c-3.02-0.016-6.209-0.078-9.68-0.111c-1-0.01-1.939-0.216-2.67-0.668
		c-2.08-0.261-5.76,1.438-6.344-0.891c0.42-0.81,1.193-0.497,1.781-0.89C196.441,66.469,202.061,67.69,209.535,67.717z"/>
	<path fill-rule="evenodd" clip-rule="evenodd" fill="#001E39" d="M92.251,66.938c0.16,0.396,0.192,0.921,0.334,1.335
		C91.96,69.4,90.93,68.47,91.36,67.16C91.633,67.062,91.843,66.901,92.251,66.938z"/>
	<path fill-rule="evenodd" clip-rule="evenodd" fill="#001E39" d="M84.796,69.942c-0.354,0.63-1.426,0.814-2.003,0.334
		c-0.18-0.674,0.006-1.128,0.111-1.78C83.719,67.901,84.828,68.715,84.796,69.942z"/>
	<path fill-rule="evenodd" clip-rule="evenodd" fill="#001E39" d="M199.854,71.833c-3.445,0.868-7.365-0.078-10.904,0
		c-1.002-0.392-1.49-2.829,0-2.67c1.396,1.014,5.527,1.086,8.234,1.224C198.209,70.439,200.574,69.947,199.854,71.833z"/>
	<path fill-rule="evenodd" clip-rule="evenodd" fill="#001E39" d="M229.896,70.276c-1.412,1.627-5.219-0.117-7.344,0.11
		c-0.203-0.419-0.123-1.038,0.225-1.224C224.938,69.211,228.275,69.427,229.896,70.276z"/>
	<path fill-rule="evenodd" clip-rule="evenodd" fill="#001E39" d="M92.251,72.501C90.526,70.521,94.564,71.551,92.251,72.501
		L92.251,72.501z"/>
	<path fill-rule="evenodd" clip-rule="evenodd" fill="#001E39" d="M266.285,75.617c-2.035,1.346-3.826-1.122-5.676-1.67
		c-0.154-0.733-0.211-1.128,0-1.78C262.139,70.306,267.406,72.687,266.285,75.617z"/>
	<path fill-rule="evenodd" clip-rule="evenodd" fill="#001E39" d="M226.561,72.835c-0.385,0.624-2.346,0.761-3.34,0.557
		C223.158,71.551,226.02,72.132,226.561,72.835z"/>
	<path fill-rule="evenodd" clip-rule="evenodd" fill="#001E39" d="M286.092,78.732c-0.352,0.28-0.191,1.069-0.334,1.558
		c-1.574,1.354-3.967,3.062-6.232,1.559c-0.809-1.008-1.582-1.716-1.445-3.449c0.83-1.358,1.729-2.649,3.115-3.45
		c2.059-0.203,2.604,1.104,3.672,1.892c0.162-0.672,0.391-1.292,0.223-2.003c1.268-1.678,3.367-2.881,6.01-2.003
		c1.059,1.051,2.615,1.547,2.225,4.006C292.883,79.615,288.416,80.807,286.092,78.732z M289.764,77.954
		c0.746-0.143,1.07-0.928,1.111-2.003c-0.67-0.22-0.82-0.96-1.111-1.559C285.949,73.226,286.969,78.485,289.764,77.954z
		 M281.752,77.175c-1.762,0.383-1.432,3.252,0.334,3.339c0.465-0.537,1.182-0.821,1.113-1.893
		C282.398,78.456,282.051,77.841,281.752,77.175z"/>
	<path fill-rule="evenodd" clip-rule="evenodd" fill="#001E39" d="M267.398,77.286c-0.746-1.831,0.922-2.919,2.559-2.671
		c0.736,1.421,4.721,1.316,4.006,3.784C273.299,80.689,268.564,77.902,267.398,77.286z"/>
	<path fill-rule="evenodd" clip-rule="evenodd" fill="#001E39" d="M218.881,78.287c-5.412-0.333-11.488-0.86-17.357-0.778
		c-4.115,0.057-8.812,0.591-12.908,0.223c-0.086-0.531,0.156-0.733,0.445-0.891c8.252,0.977,16.854-0.773,24.258,0.779
		C214.93,77.632,217.557,77.137,218.881,78.287z"/>
	<path fill-rule="evenodd" clip-rule="evenodd" fill="#001E39" d="M95.145,77.62c-0.128,0.688-0.084,1.548-0.445,2.003
		c-0.351,0.125-0.252,0.01-0.667,0c-0.259-0.44-0.45-1.049-0.334-1.558C94.244,77.972,94.593,77.373,95.145,77.62z"/>
	<path fill-rule="evenodd" clip-rule="evenodd" fill="#001E39" d="M124.409,79.178c-0.897,0.259-2.268,0.773-3.227,0.445
		c-0.8,0.23-1.457,1.565-2.559,0.778c-0.458,0.435-0.549,1.232-0.891,1.781c-1.089-0.206-1.284,0.64-1.892,0.111
		c0.186-0.742,0.446-1.41,0.668-2.114c0.448-0.04,0.814,0.001,0.891,0.334c0.608-0.468,0.524-1.627,1.446-1.781
		c0.341,0.104,0.304,0.586,0.556,0.779c0.89-0.142,1.256-1.508,2.337-0.779C122.572,78.711,124.713,77.366,124.409,79.178z"/>
	<path fill-rule="evenodd" clip-rule="evenodd" fill="#001E39" d="M216.879,79.734c-1.203-0.408-2.865,0.214-4.006,0.111
		c-0.807-0.073-1.561-0.542-2.338-0.557c-1.35-0.024-2.631,0.587-4.006,0.557c-1.045-0.023-2.059-0.379-3.115-0.445
		c-4.873-0.307-9.707,0.753-14.799,0.556c0.902-1.188,3.633-0.383,5.342-0.556c2.385-0.242,4.621-0.738,7.344-0.668
		c1.914,0.05,3.818,0.492,5.674,0.445c1.227-0.031,2.309-0.42,3.449-0.445c1.531-0.033,3.201,0.706,5.008,0.557
		C215.852,78.977,217.064,78.628,216.879,79.734z"/>
	<path fill-rule="evenodd" clip-rule="evenodd" fill="#001E39" d="M290.766,83.74c-0.191,2.562-2.053,5.709-5.676,5.229
		c-1.277-1.345-2.744-1.83-2.781-4.117c0.803-3.861,5.256-4.754,8.012-2.226c0.432-4.181,8.316-5.109,9.123-0.557
		c-1.092,1.896-3.068,5.104-6.23,4.118c-1.18-0.369-1.438-1.594-2.447-2.338C290.766,83.813,290.766,83.777,290.766,83.74z
		 M292.768,82.516c0.859,0.403,0.98,1.543,2.004,1.78c0.875-0.717,1.828-1.36,1.891-2.893
		C295.039,81.027,292.998,80.502,292.768,82.516z M285.535,83.072c-0.299-0.009-0.961,1.077-1.002,1.446
		c-0.166,1.521,1.305,1.636,1.781,2.56c1.059-0.473,2.309-2.327,1.334-3.449c-0.537,0.019-0.598,0.515-1.223,0.445
		C285.689,83.934,286.107,83.089,285.535,83.072z"/>
	<path fill-rule="evenodd" clip-rule="evenodd" fill="#001E39" d="M231.344,80.958c-2.234,1.263-5.719,0.336-8.346,0.891
		c-0.178-0.353-0.41-0.822-0.221-1.225c2.355-0.816,5.51,0.241,7.898-0.444C231.021,80.316,231.303,80.518,231.344,80.958z"/>
	<path fill-rule="evenodd" clip-rule="evenodd" fill="#001E39" d="M124.076,80.958c-0.225,1.668-2.417,1.833-3.895,1.892
		c-0.371,0.419-0.95,1.27-1.669,0.668c0.149-1,1.113-1.187,1.557-1.892C121.53,82.021,123.238,80.811,124.076,80.958z"/>
	<path fill-rule="evenodd" clip-rule="evenodd" fill="#001E39" d="M95.478,81.626c0.086,0.424,0.247,1.087-0.111,1.335
		C93.889,83.185,94.299,80.731,95.478,81.626z"/>
	<path fill-rule="evenodd" clip-rule="evenodd" fill="#001E39" d="M230.787,83.518c-1.768,2.147-4.938,0.295-7.678,1.112
		c-0.244-0.238-0.424-0.54-0.332-1.112C225.285,82.551,228.236,83.832,230.787,83.518z"/>
	<path fill-rule="evenodd" clip-rule="evenodd" fill="#001E39" d="M206.641,84.185c0.102,0.848-0.992,0.463-1.334,0.224
		c-4.852,0.228-10.678,0.82-16.135,0.333c0.234-1.024,1.383-0.692,2.113-0.667c3.953,0.133,7.971,0.187,11.127,0.11
		C203.537,83.83,205.688,83.857,206.641,84.185z"/>
	<path fill-rule="evenodd" clip-rule="evenodd" fill="#001E39" d="M96.368,86.077c-0.366,0.005-0.554,0.188-1.001,0.111
		C94.213,85.014,96.787,84.047,96.368,86.077z"/>
	<path fill-rule="evenodd" clip-rule="evenodd" fill="#001E39" d="M232.568,86.41c-0.789,0.567-2.893,0.44-4.785,0.557
		c-1.994,0.123-4.992,0.821-5.119-0.334c-0.125-1.149,1.883-0.363,2.561-0.444c0.293-0.153,0.422-0.469,0.777-0.557
		C228.021,86.223,231.537,84.982,232.568,86.41z"/>
	<path fill-rule="evenodd" clip-rule="evenodd" fill="#001E39" d="M45.182,91.307c1.989-0.113,3.539-0.75,5.452-1.002
		c0.61,0.206,1.032,0.601,0.891,1.559c-0.454,0.4-0.787,0.485-1.669,0.668c-1.737,0.359-3.953,1.88-4.785,2.002
		c-1.353,0.2-2.456-1.021-1.669-2.336c-0.931,0.091-1.552-0.338-1.78-1.225c1.789-1.102,4.386-2.853,7.01-3.783
		c1.109-0.393,2.012-0.345,2.894-1.001c0.235-0.176,0.607,0.236,0.89,0.222c-0.026,0.582,0.389,0.725,0.334,1.336
		C50.767,89.36,47.415,89.688,45.182,91.307z M44.292,91.863c0.28-0.129,0.764-0.054,0.779-0.445
		C44.788,91.475,44.184,91.783,44.292,91.863z"/>
	<path fill-rule="evenodd" clip-rule="evenodd" fill="#001E39" d="M96.591,89.859C94.021,88.805,98.145,87.167,96.591,89.859
		L96.591,89.859z"/>
	<path fill-rule="evenodd" clip-rule="evenodd" fill="#001E39" d="M217.102,89.526c-0.41,0.618-1.881,0.465-2.783,0.445
		c-4.52-0.097-9.887,0.68-14.242-0.112c-3.18,0.48-7.324-0.199-10.459,0.112c0.172-1.035,1.648-1.002,2.447-1.002
		c1.605-0.001,3.32,0.481,5.008,0.557c3.469,0.155,6.973-0.275,9.902,0.333c0.916-0.511,1.949-0.175,2.895-0.222
		C212.053,89.529,214.598,88.93,217.102,89.526z"/>
	<path fill-rule="evenodd" clip-rule="evenodd" fill="#001E39" d="M37.504,92.864c-0.75,1.884-2.281,2.986-4.117,3.783
		c0.22,0.968,0.55,1.824,1.001,2.56c1.582,0.013,3.385,0.085,3.338,1.447c-0.055,1.574-3.048,1.731-4.451,1.112
		c-0.942,0.854-2.689,2.131-4.117,0.89c-0.644-1.844,0.798-2.889,2.226-2.67c-0.088-0.803-0.587-1.193-0.891-1.78
		c-1.642-0.027-2.509-0.829-4.005-1.002c-0.882-1.267-1.603-2.982-1.225-4.228c0.754-2.486,6.709-3.436,9.57-3.005
		C36.303,90.192,36.876,91.927,37.504,92.864z M28.379,94.756c2.125,1.448,4.542-0.209,5.563-2.003
		C32.145,91.983,28.418,92.536,28.379,94.756z"/>
	<path fill-rule="evenodd" clip-rule="evenodd" fill="#001E39" d="M217.77,91.195c-0.561,0.291-0.789-0.175-1.336-0.223
		c-0.865-0.074-1.721,0.49-2.559,0.557c-1.277,0.101-2.637-0.414-4.119-0.223c-6.725,0.87-13.762-0.252-21.029,1.335
		c-0.035-0.405,0.018-0.725,0.111-1.001c2.438,0.056,5.65-0.818,8.234-0.445c5.197-0.047,11.117-0.867,16.246-0.223
		C214.568,90.609,217.221,89.562,217.77,91.195z"/>
	<path fill-rule="evenodd" clip-rule="evenodd" fill="#001E39" d="M218.324,92.977c-0.541,0.729-2.912-0.136-3.895,0.667
		c-1.307-0.374-2.865-0.413-4.34-0.223c-3.463,0.447-6.887,0.725-10.57,0.779c-2.367,0.034-4.752,0.132-7.121,0.333
		c-1.162,0.099-2.123,0.262-3.115-0.333c1.139-0.576,2.668-0.492,4.115-0.557c4.621-0.208,9.639,0.06,13.465-0.223
		c0.26-0.149,0.633-0.185,0.891-0.334c2.908-0.237,6.029-0.348,8.791-0.556C217.066,92.491,218,92.311,218.324,92.977z"/>
	<path fill-rule="evenodd" clip-rule="evenodd" fill="#001E39" d="M218.324,95.535c-0.611,0.575-2.266,0.073-3.781,0.223
		c-2.906,0.285-6.08-0.027-9.236,0.334c-0.361-0.138-0.086,0.359-0.445,0.222c-3.006,0.045-5.379,0.57-8.012,0.445
		c-1.527,0.536-4.666,1.335-6.787,0.557c0.791-0.705,2.35-0.22,3.227-0.334c3.039-0.396,6.666-1.502,9.346-0.89
		c1.883-0.514,4.742-0.845,6.455-0.891c1.555-0.041,3.244,0.336,4.674,0.223C215.455,95.289,217.076,94.637,218.324,95.535z"/>
	<path fill-rule="evenodd" clip-rule="evenodd" fill="#001E39" d="M170.031,42.791c2.443,1.75,6.396,1.988,6.455,6.12
		c0.363-0.033,0.807,0.526,1.445,0.556c0.375-3.208-0.125-7.558-0.221-10.126c-0.082-2.148,0.545-2.719,1.557-3.895
		c6.055,0.517,13.186,0.427,19.807,0.222c2.156-0.066,4.316,0.375,6.455,0.334c3.113-0.059,6.199,0.233,9.346,0.111
		c5.15-0.199,10.297-0.316,15.135,0c3.99,0.262,7.916-0.341,11.461-0.111c2.672,0.173,1.635,5.653,1.668,7.901
		c0.055,3.5,0.33,7.4,0.111,11.795c4.625-3.193,10.674-7.402,16.135-5.008c0.787,0.345,1.668,1.215,2.115,1.78
		c1.422,1.803,2.562,3.669,3.004,6.231c0.275,1.603,0.457,3.844,1.336,5.119c2.459,2.255,5.945,3.013,9.012,4.784
		c2.357-2.397,5.295-4.203,8.793-5.786c2.23-1.009,4.506-1.898,7.344-1.558c2.332,0.279,5.508,0.532,7.121,1.78
		c1.953,1.511,2.576,2.702,3.783,5.119c0.645,1.29,1.264,2.354,1.445,4.005c0.375,3.367-0.084,7.526,0.113,10.794
		c0.225,3.727-0.871,8.443-2.004,11.795c-0.752,2.222-1.008,4.323-1.67,6.344c-0.82,2.507-1.629,6.058-3.227,8.345
		c-0.232,0.332-0.795,0.548-1.113,0.891c-1.826,1.974-3.941,4.801-7.678,3.672c-1.125-0.341-1.988-1.215-3.004-1.892
		c-2.961-1.975-5.293-3.923-7.455-6.454c-0.232-0.273-0.672-0.903-0.779-1.112c-0.65-1.274-0.627-2.718-1.225-4.34
		c-0.367-1.003-1.721-1.811-1.334-3.673c-3.438-0.687-6.021-3.174-6.01-7.678c-2.27-0.809-4.361-1.291-6.453-2.114
		c-1.676,1.661-4.775,3.317-7.678,3.115c-2.205-0.153-3.271-1.841-4.785-2.893c-2.027,0.612-2.854,2.998-5.119,3.005
		c-0.059,3.01,0.01,7.456,0.445,10.794c0.166,1.278,1.15,3.314-1.225,3.449c-0.404,0.022-0.682-0.261-1.111-0.334
		c-2.672-0.457-6.455-0.14-9.682-0.334c-0.82-0.05-1.686-0.108-2.449-0.111c-8.377-0.033-17.082-0.335-25.592,0.111
		c-6.688,0.351-13.273,0.163-19.25,0.223c-1.861,0.019-4.26-0.781-5.787-0.111c-0.508-0.425-0.578-1.736-0.334-2.559
		c-1.209,0.331-2.768,0.132-4.117,0.667c-4.24,0.399-7.924-1.306-11.238-2.894c-2.627-1.258-4.322-3.688-5.898-5.786
		c-2.888,0.131-3.928,2.734-6.008,4.006c-3.649,1.03-7.607,2.598-11.684,2.448c-0.29-0.011-0.614,0.184-0.89,0.223
		c-3.893,0.545-8.699-0.681-10.906-3.228c-0.597-0.689-0.828-1.659-1.447-2.448c-10.766,1.059-23.081,3.254-35.385,6.232
		c-4.033,0.976-8.078,1.931-12.685,2.67c-1.061,0.171-2.184,0.346-3.227,0.557c-1.547,0.312-2.792,1.092-4.562,0.557
		c-0.84-1.629-1.238-3.432-1.335-5.452c-2.618,1.332-5.151,2.457-7.79,3.56c-3.176,1.328-5.714,3.763-8.568,5.564
		c-2.009,1.269-3.747,2.702-5.787,3.783c-4.49,0.418-5.806-5.13-3.672-7.789c-2.47,1.342-7.3,1.784-10.237,2.671
		c0.043,0.4,0.144,0.746,0.222,1.112c-1.279,0.961-2.097,2.925-3.671,3.895c-0.441,0.271-0.934,0.239-1.336,0.557
		c-1.201,0.948-3.062,3.106-4.896,3.672c-1.093,0.337-1.95-0.393-3.227-0.668c-2.881-2.577-0.207-6.972,1.669-8.902
		c0.104-0.525,0.04-1.22,0.556-1.335c-2.002-0.57-2.974-2.031-4.34-3.449c-2.915,0.387-4.468,2.386-7.456,2.114
		c-0.299-2.438,2.904-3.235,4.785-4.229c-1.969-0.289-4.595,1.469-6.899,0.89c-0.562-0.616-0.978-1.749,0-2.225
		c2.462,0.295,4.438-1.084,6.566-1.78c-1.111-3.201-0.631-5.812-0.334-9.348c-1.061-0.188-1.712-0.784-2.003-1.892
		c-0.221-0.842-1.077-1.508-1.113-2.114c-0.07-1.219,0.437-2.883,1.892-3.004c1.026-0.865,1.23-2.553,1.78-3.895
		c-0.598-0.366-1.246-0.684-2.003-0.891c-1.89-2.398-3.909-6.202-2.671-10.348c2.333-4.865,12.117-3.48,13.687,1.223
		c0.664-0.523,1.64-0.734,2.56-1.001c0.856-2.964,3.653-3.988,4.896-6.564c-0.748,0.083-2.37,1.635-3.227,0.333
		c-0.141-1.364,0.598-1.851,1.446-2.226c-2.585-0.224-0.394-3.18,1.447-2.114c0.532-0.174,0.686-0.724,0.891-1.224
		c-0.692,0.577-3.354,1.011-3.338-0.444c0.016-1.535,2.612-0.732,3.338-1.781c0.026-0.472-0.325-0.565-0.445-0.89
		c-0.777,0.525-3.063,1.388-3.227,0.111c-0.115-0.898,1.588-1.479,2.56-1.669c0.317-0.35,0.522-0.813,0.445-1.558
		c-0.4,0.424-2.228,1.506-3.005,0.334c0.001-0.74,0.349-1.135,0.779-1.447c-1.554-0.213-0.791-1.932,0.445-2.336
		c0.723-0.238,1.261,0.312,1.446-0.334c0.116-0.404-0.661-0.887-1.001-1.224c-0.5-0.054-0.128,0.763-0.667,0.667
		c-0.773-0.006-0.97-0.588-0.891-1.447c1.146-1.454,3.899,0.225,3.895,1.892c-0.001,0.402-0.5,0.775-0.557,1.224
		c-0.195,1.564,1.645,3.373,0.557,4.674c0.445,0.63,0.791,1.36,1.113,2.114c-0.877,2.762,0.089,6.393-1.558,9.235
		c1.081,0.365,1.551,1.343,2.337,2.004c1.469-0.818,3.531-0.772,5.118-0.445c0.668-2.38,2.455-4.475,5.008-5.675
		c1.1-0.518,1.94-1.37,3.115-1.447c0.588-0.039,1.479,0.361,2.337,0.445c1.334,0.13,2.535-0.028,3.226,1.224
		c1.701-0.769,3.797-1.941,5.898-1.335c-0.054-3.667-2.108-6.229-2.448-8.902c0.729-0.413,2.076-1.46,2.894-0.445
		c3.207-0.836,6.663-1.122,10.125-1.669c0.767-0.122,1.442-0.573,2.226-0.779c4.785-1.258,10.26-1.095,16.246-2.114
		c5.667-0.965,11.702-2.213,16.914-3.115c3.393-0.588,6.741-1.333,10.571-2.003c0.962-0.168,1.933-0.607,2.893-0.667
		c1.289-0.083,2.354,0.313,3.116-0.668c1.146,0.139,1.916,0.338,2.671,0.223c1.115,3.446,1.769,7.356,2.67,11.016
		c1.589-0.228,2.208,1.307,3.116,2.114c1.322-0.369,3.299-2.292,4.562-0.667c2.228-2.187,5.348-3.481,7.456-5.787
		c0.185,0,0.371,0,0.556,0c2.914-2.354,7.576-5.344,11.906-6.231c1.465-0.301,2.61,0.866,3.561,1.78
		c0.633,5.425,0.248,10.82,0.779,16.58c0.746,0.21,1.682-0.476,2.113,0.334c0.24-1.837,0.031-4.125,0.225-6.009
		c0.41-0.369,0.867-0.69,1.557-0.779c0.627-1.338,2.049-1.883,2.893-3.005c-0.479-4.081,0.016-7.645-0.111-11.016
		c-0.021-0.593-0.297-1.148-0.555-1.669c0.248-4.657-0.316-9.196-0.223-13.353c0.318-0.499,1.129-1.094,1.445-1.224
		c1.902-0.529,2.477,2.046,2.559,3.895c0.25,5.591-0.256,11.89,0.445,18.361C169.949,40.403,170.498,41.493,170.031,42.791z
		 M138.875,49.022c0.938-0.427,1.955-0.366,2.782,0.111c0.678,0.391,1.469,2.208,2.226,2.337c1.759,0.299,2.541-2.771,4.229-2.894
		c2.512-3.658,8.917-3.721,8.124-10.349c-0.453-0.723-1.111-0.747-2.115-0.445c-4.198,1.263-7.89,4.503-11.795,7.122
		c-0.621,0.417-1.388,0.526-2.002,0.891c-1.563,0.926-2.371,2.593-3.672,3.45C137.33,50.618,138.058,49.395,138.875,49.022z
		 M111.613,39.341c-4.354,0.867-8.907,1.603-13.464,2.448c-4.562,0.846-9.211,1.905-13.687,2.448
		c-1.928,0.234-3.889-0.037-5.563,0.334c-1.644,0.364-3.295,0.619-4.896,0.891c-1.52,0.257-2.915,1.046-4.451,1.224
		c-2.901,0.334-5.723,0.521-8.568,1.224c1.55,2.923,1.35,6.409,2.337,9.904c1.473,5.218,3.002,10.56,3.894,15.801
		c0.616,3.616,1.733,7.223,2.56,10.904c0.608,2.71,1.562,5.274,2.114,7.789c0.331,1.508,0.239,2.893,1.001,3.895
		c-0.986,1.453,0.512,3.519,0.668,5.23c13.187-2.307,27.453-6.52,41.283-8.791c3.902-0.641,7.47-0.84,10.794-1.669
		c0.092-0.834-0.297-1.187-0.334-1.892c-2.2-0.218-4.151,0.786-6.232,1.112c-1.621,0.255-3.263,0.152-4.896,0.557
		c-1.054,0.262-2.037,0.748-3.116,0.891c-6.308,0.831-12.705,2.395-19.361,3.005c-1.578,0.145-2.123,0.506-3.339,0.778
		c-2.536,0.567-6.189,0.743-8.791,1.335c-1.388,0.316-2.044,0.556-3.116,0c-1.594-1.396-1.301-4.035-2.002-7.01
		c-0.15-0.634-0.63-1.199-0.779-1.892c-0.488-2.269-1.018-4.797-1.557-7.344c-0.183-0.862-0.142-1.608-0.445-2.338
		c-0.243-0.582-0.785-1.14-0.891-1.78c-0.728-4.409-2.073-7.429-3.004-11.35c-0.632-2.662-2.446-6.463,1.113-5.563
		c0.371,0.147,0.37,0.668,0.667,0.891c0.352,5.315,3.182,9.602,3.783,15.355c0.744,1.462,1.479,3.14,1.781,4.896
		c0.151,0.874,0,1.811,0.223,2.671c0.757,2.922,1.803,5.627,1.891,8.902c0.363,0.526,0.591,1.188,0.891,1.78
		c1.548,0.067,2.922-0.536,4.45-0.891c1.423-0.33,2.923-0.172,4.34-0.445c0.876-0.169,1.894-0.787,2.67-0.89
		c1.704-0.225,3.97-0.886,5.341-0.891c2.517-0.008,5.584,0.107,8.012-1.224c7.333-0.673,14.102-2.383,21.81-3.783
		c-0.633-7.163,1.405-13.653,5.341-17.248c-2.126-0.136-1.263-3.262-2.448-4.339c-3.915-1.079-8.077-1.965-12.129-2.671
		c-0.679-1.324-1.061-2.944-1.224-4.785c-1.554-0.189-2.501-0.985-3.784-1.446c-0.37,0.519-0.879,0.901-1.558,1.113
		c-0.536,2.789-2.757,5.34-2.003,8.345c-0.219,0.868-0.837,1.238-1.669,1.225c-1.418,1.745-0.979,5.251-2.226,6.898
		c-3.021,0.54-5.581,1.54-8.457,2.226c-0.042,1.468-0.975,2.028-2.448,1.78c-1.15,2.378-3.296,4.34-3.449,7.344
		c-0.787,1.131-2.547,1.725-3.561,0.445c-0.141-0.487-0.141-1.07,0-1.558c-2.51-0.753-4.072-2.456-5.897-3.895
		c-2.284,1.932-4.034-2.553-1.67-2.894c0.618-0.088,0.946,0.511,1.78,0.445c1.467,3.241,4.847,4.919,8.346,5.786
		c1.102-2.944,3.754-4.747,3.671-8.234c0.372-0.073,0.545-0.346,0.891-0.445c2.54,0.569,5.318-1.301,8.123-1.224
		c-0.025-0.595-0.004-1.771,0.556-2.114c0.758-0.249,1.145-0.217,1.892-0.111c0.48-1.411,0.79-2.993,1.446-4.229
		c-1.279-0.682-0.757-4.073,1.447-3.449c0.814-2.19,1.511-4.498,2.56-6.454c-1.405-0.555-1.754-2.808-0.223-3.561
		c0.677,0.436,2.018,0.208,2.114,1.224c1.372-0.313,2.519,1.271,3.895,1.67c0.096-2.04,0.125-3.725,0.112-5.898
		c0.579-0.171,1.375-0.471,2.002-0.89c2.046-0.343,4.4-1.483,5.341-2.671c0.746-0.94,0.893-1.479,2.448-1.224
		c0.821,0.348-0.037,2.239,1.002,2.002c-0.718-2.458-1.237-5.991-2.003-9.013C119.218,37.547,115.194,38.628,111.613,39.341z
		 M180.158,38.34c0.58,11.087,0.75,20.09,0.557,30.156c-0.043,2.22-0.248,4.722-0.111,7.01c0.502,8.472-0.328,17.616,0.445,25.594
		c5.291,0.197,10.498,0.328,15.355,0.222c15.562-0.339,30.861-0.77,45.623,0.111c-0.676-3.535-0.379-7.882-0.445-11.461
		c-0.043-2.328-0.332-4.679-0.445-7.011c-0.109-2.244,0.123-4.423,0.111-6.676c-0.061-11.609-0.68-25.409-0.668-37.389
		C221.807,38.04,200.99,38.499,180.158,38.34z M150.114,50.024c0.258,0.409,0.485,0.849,1.002,1.001
		c4.388-2.263,5.255,3.662,5.007,7.121c-0.805,3.448-1.069,8.235-4.006,9.904c1,0.766,0.386,2.512,1.002,3.561
		c1.21,0.262,2.228-0.356,3.672-0.445c-0.191-8.444,0.107-16.729-0.334-26.038C154.388,46.805,151.929,48.093,150.114,50.024z
		 M167.695,46.797c-0.738,0.226-1.469,0.46-1.668,1.224c1.014,0.691,2.199,1.212,3.336,1.78c0.816-1.003,1.533-2.103,2.672-2.782
		c-0.232-0.622-0.846-0.86-1.447-1.113C170.371,47.188,168.514,47.674,167.695,46.797z M127.414,47.91
		c-1.205,1.065-3.781,2.2-4.785,0.111c-1.073,1.301-3.063,1.685-4.34,2.782c0.157,0.399,0.319,0.794,0.779,0.891
		c0.4-0.602,1.156-0.849,1.781-1.225c1.974-0.008,1.93,2.002,2.782,3.117c1.721-0.464,2.541-2.558,4.229-2.226
		c1.301,0.255,0.708,2.52,2.003,3.004c0.783-0.735,2.122-1.133,3.227-1.224c0.949,0.608,1.438,1.677,1.891,2.781
		c2.115,0.187,2.291-1.565,4.228-1.558c1.498,0.58,1.692,2.463,2.894,3.338c0.854-0.555,1.566-1.252,2.782-1.446
		c0.997,0.34,1.187,1.484,2.114,1.892c1.725-1.687,3.769-3.648,5.119-5.341c-1.529,2.125-3.35-0.498-4.229-1.669
		c-1.311,1.065-2.763,3.035-5.007,2.448c-1.357-0.354-1.469-2.498-3.115-2.671c-2.625,2.739-5.188,0.029-6.343-2.003
		C131.209,51.238,128.875,49.925,127.414,47.91z M171.033,55.143c0.611-0.202,2.568-0.929,2.783-1.781
		c0.244-0.975-0.455-4.717-0.334-4.784C172.045,50.002,170.555,52.541,171.033,55.143z M164.691,54.141
		c-0.062,0.451-0.746,0.84-0.445,1.113c1.258,0.262,2.396,0.646,3.672,0.89c0.326-1.291,0.508-2.971,0.557-4.339
		c-1.227-0.36-2.584-0.98-4.117-1.336C163.982,51.778,164.824,53.183,164.691,54.141z M177.932,51.805
		c-0.301,0.354-0.705,0.01-1.334,0.11c1.34,1.902,0.176,2.568-1.447,3.339c-1.203,0.57-1.967,2.057-3.004,2.447
		c-0.354,0.134-0.984,0.043-1.447,0.223c-0.473,0.185-0.67,0.506-0.891,0.557c-1.348,0.312-3.057-0.338-4.785-0.667
		c-1.678-0.32-5.217,0.384-3.338-2.004c-0.543,0.499-1.523,0.205-2.225,0.334c-0.066,1.192,0.166,1.907,0,2.671
		c0.455,0.047,0.449-0.366,1.002-0.223c1.475,1.159,5.002,0.266,6.008,1.892c0.428-0.352,0.84-0.719,1.336-1.001
		c2.365,0.317,3.326-0.883,5.23-1.669c1.975-0.817,3.709-1.232,5.34-2.114C178.129,54.501,178.336,52.847,177.932,51.805z
		 M253.377,52.694c-0.021,0.43-0.004,0.82,0.111,1.112c3.871-1.295,5.549,1.932,7.121,4.229c0.32,0.369,0.645,0.041,1.225,0.111
		C261.344,54.066,257.465,51.078,253.377,52.694z M117.177,58.926c7.292,1.684,15.502,3.805,22.477,5.786
		c1.854,0.742,4.609,1.178,6.788,1.225c-1.876-1.845-0.608-5.453-2.226-7.122c-0.907,0.662-1.632,1.409-2.67,1.669
		c-1.88-0.419-1.825-2.774-3.227-3.672c-1.019,0.586-2.136,1.489-3.338,1.447c-1.839-0.065-1.963-1.841-3.227-2.671
		c-1.583,2.497-4.525,0.711-5.23-1.336c-1.333,0.221-1.68,1.631-3.115,1.558c-1.478-0.074-2.098-1.402-2.782-2.67
		c-0.963,1.026-2.716,1.028-3.895,0C116.462,55.139,116.998,57.192,117.177,58.926z M243.25,58.48
		c0.168,0.679,0.064,1.101,0.111,2.003c2.041-3.503,5.572-0.503,7.121,1.67c0.736-1.42,1.188-2.916,1.893-4.118
		c0.201,0.231,0.639-0.16,1.002-0.111c1.141,0.153,4.818,2.782,4.896,3.673c0.105,1.224-1.246,2.709-2.338,3.338
		c1.533,1.371,4.371,1.994,4.34,4.562c-1.459,0.641-3.477,6.139-4.451,2.003c-1.33-0.821-3.051-1.846-4.229-2.448
		c0.586,2.603-0.951,5.047-2.225,6.788c-0.947-0.136-1.629,0.188-1.893-0.668c-1.883,0.029-2.184-1.524-3.895-1.67
		c-0.09,4.008-0.162,8.999,0.223,13.688c1.25-1.239,4.814-1.631,3.449-4.117c0.594-2.395,1.277-3.894,3.117-5.23
		c1.398-1.016,3.576-1.979,5.785-1.668c2.033,0.284,5.541,2.736,6.342,3.895c0.779,1.124,0.738,2.969,0.113,4.228
		c2.059,0.687,4.141,1.35,5.785,2.448c0.748-2.063,4.59-4.265,6.789-4.34c0.488-0.016,1.012,0.268,1.445,0.223
		c2.887,1.73,5.783,3.617,5.676,7.79c-0.07,2.718-2.955,4.487-5.453,5.675c0.016,0.867-0.055,1.65-0.223,2.336
		c2.072,3.01,3.037,7.125,6.344,8.902c1.518,2.154,3.994,3.35,6.342,4.674c1.486-0.147,2.277-0.987,3.338-1.559
		c0.705-0.926,1.256-2.007,2.115-2.781c1.195-2.775,2.514-5.881,3.338-9.124c1.305-5.139,2.617-10.583,2.67-16.024
		c0.031-3.169-0.172-6.353-0.223-9.235c-2.496,0.927-5.631,0.181-4.34-2.782c-0.967-1.85-2.336-2.414-4.451-2.56
		c-1.543-0.105-3.086,0.695-4.34,0.668c-1.98-0.043-2.586-1.366-2.781-3.672c-1.504,0.649-3.186,1.64-4.451,2.559
		c-0.574,0.419-1.316,0.752-1.781,1.113c-1.1,0.859-1.986,3.136-3.561,1.446c-2.256,1.067-3.561-0.64-5.34-1.557
		c-2.41-1.243-4.672-1.77-5.787-3.228c-1.025-1.343-1.49-2.937-1.557-4.785c-2.26,1.075-5.049-0.372-4.896-2.894
		c-1.049-0.638-0.697-1.723-1.891-1.78c-1.006-0.048-1.693,1.157-2.561,1.225c-1.469,0.114-1.871-1.493-2.004-3.115
		C247.797,54.941,245.434,56.621,243.25,58.48z M147.332,60.261c0.249,2.904,0.866,5.44,3.561,5.897
		c2.41-2.035,3.074-6.967,2.338-11.127C150.929,56.44,149.747,58.967,147.332,60.261z M31.495,56.144
		c0.501,0.02,1.019,0.055,1.001-0.444C32.041,55.726,31.845,56.012,31.495,56.144z M49.299,67.271
		c1.596-0.399,4.169-1.761,4.34-3.561c0.347-3.67-1.411-7.289-6.009-6.899c-3.638,1.091-5.917,4.543-5.898,8.567
		C43.037,67.441,46.875,67.877,49.299,67.271z M55.753,58.814c0.367,1.915,1.174,4.022,0.556,5.897
		c-0.466,1.414-1.912,1.959-2.782,2.894c0.965,1.335,3.07,1.528,3.45,3.449c0.751,0.046,2.243,0.109,2.782,1.336
		c0.251,0.571-0.021,1.404,0.111,2.225c0.13,0.805,0.834,1.586,0.779,2.114c-0.121,1.143-1.751,1.166-2.67,1.446
		c-3.796,2.317-8.512,3.048-13.02,4.674c0.357,0.368,0.405,0.827,0.334,1.446c-0.171,1.5-1.861,4.903-3.226,5.563
		c-1.348,0.652-4.606-0.375-5.898-1.112c-1.245-0.711-2.161-2.115-2.893-3.338c-1.21,0.188-1.946,0.055-3.004,0.111
		c-1.093,3.182-2.597,5.936-7.01,5.229c-1.64-1.068-2.64-2.774-4.006-4.117c-0.586,0.031-0.659-0.117-1.113,0
		c-2.466,8.279,2.38,15.028,8.568,16.914c4.663,1.017,8.909-0.791,13.687-1.446c2.842-1.091,4.946-2.918,7.233-4.562
		c1.032-0.081,1.671-0.554,2.559-0.779c0.802,0.432,1.525,0.988,1.335,2.114c-1.955,2.604-6.499,5.263-5.453,9.903
		c2.237-0.878,3.658-2.573,5.453-3.895c1.372-0.408,2.339-1.222,3.227-2.114c2.265-1.153,3.855-2.482,6.119-3.449
		c2.987-1.275,5.484-2.84,8.235-3.672c-0.852-6.483-3.07-12.208-4.451-18.138c-1.495-6.423-2.564-13.089-4.34-19.808
		C58.661,57.393,56.888,57.784,55.753,58.814z M169.809,62.375c-0.094,0.574-0.145,1.19-0.111,1.893
		c3.207-0.409,6.059-1.709,9.014-2.004c-0.086-1.285-0.148-2.596-0.111-4.005C175.615,59.575,172.906,61.17,169.809,62.375z
		 M252.152,65.046c0.908,0.529,2.051-0.115,3.004-0.223c-1.242-1.114,0.285-2.148,0.557-3.339c-0.834-0.093-1.207-0.646-1.891-0.89
		C253.506,62.31,251.855,63.06,252.152,65.046z M244.92,63.266c1.326,0.715,2.73,1.35,3.449,2.671
		c0.248-0.47,0.934-0.313,1.336-0.112c0.33-3.149-2.555-3.082-3.783-4.673C245.174,61.443,245.217,62.523,244.92,63.266z
		 M160.24,71.055c2.305-2.183,4.266-4.71,7.455-6.009c-1.326-0.645-0.703-2.058-1.225-3.338c-2.445,0.178-5.158,0.356-7.01-0.445
		C159.537,64.817,158.834,68.775,160.24,71.055z M30.049,64.823c0.595,0.406,2.231,0.237,3.004,0.111
		c-0.373-0.926-0.841-1.755-1.669-2.226C30.939,63.415,30.19,63.814,30.049,64.823z M295.883,64.602
		c-2.486-1.192-5.854-1.07-8.568-0.669c-0.113,0.818,0.365,1.046,0.225,1.892c4.285-0.729,9.115-0.051,11.238,3.45
		c-0.01,0.787,0.252,1.305,0.555,1.78c0.35-0.023,0.818,0.075,1.002-0.111C299.295,68.613,298.26,65.739,295.883,64.602z
		 M14.025,64.823c-0.624,1.549-0.42,3.001-0.223,4.562c0.916,1.458,1.465,3.282,3.227,3.895c0.512-1.269,1.738-1.822,2.337-3.004
		c-0.865-0.472-0.735-1.937-1.558-2.449c-0.034,2.013-2.287,2.957-2.67,0.779c-0.251-1.428,1.3-3.562,3.116-3.561
		c1.943,0.001,2.028,1.948,3.115,3.227c0.31-0.099,0.403-0.413,0.779-0.445C21.662,64.576,16.25,62.646,14.025,64.823z
		 M35.946,64.602c0.151,0.96-0.256,2.467-1.224,2.559c-1.771,0.168-3.86,0.756-4.785,0.778c-0.756,0.019-1.587-0.601-2.448-0.556
		c-4.476,2.868-8.687,6.002-10.015,12.018c0.508,0.062,0.47-0.42,1.001-0.334c2.285,0.632,3.713-0.452,5.453-0.667
		c1.065-0.133,2.189,0.151,3.227,0c1.506-0.222,3.034-0.685,4.562-1.003c3.64-0.754,7.365-1.888,10.793-2.225
		c4.11-0.404,8.044-2.014,11.684-3.227c-1.307-1.504-3.518-2.692-6.676-2.448c-0.978,0.075-2.45,0.493-3.449,0.223
		c-0.833-0.226-2.689-0.83-3.449-1.336c-0.745-0.495-2.571-2.072-2.56-2.781c0.011-0.743,0.795-0.761,1.001-1.446
		C38.097,63.571,37.047,64.603,35.946,64.602z M178.488,64.268c-3.771,0.888-6.885,1.759-10.348,2.893
		c-1.309,1.421-3.27,2.268-4.562,3.895c-2.033,2.558-4.373,5.5-5.008,9.235c-1.295,7.64,1.777,14.551,7.9,16.803
		c1.713,0.63,3.307,1.887,4.896,2.226c1.127,0.24,3.99,0.143,5.23-0.333c-4.594-1.356-8.414-3.767-10.35-8.235
		c-0.49-1.133-1.291-2.212-1.668-3.227c-1.205-3.24-0.205-7.261,0-10.46c0.387-0.774,1.166-1.712,1.002-2.671
		c0.617-0.866,1.424-1.542,1.668-2.781c2.146-2.342,4.428-4.55,7.566-5.898c1.232-0.454,3.428-0.226,3.895-1.111
		C178.717,64.409,178.625,64.315,178.488,64.268z M131.531,67.16c0.579-0.386,1.157-0.772,1.669-1.224
		c-0.581-0.005-1.146-0.414-1.78-0.668C131.194,65.825,131.564,66.457,131.531,67.16z M243.584,71.277
		c1.715-0.808,2.328-2.716,3.449-4.117c-1.189-0.59-1.975-1.585-3.561-1.781C243.377,67.39,243.127,69.025,243.584,71.277z
		 M178.377,66.604c-0.146,0.236-0.447,0.064-0.666,0.111c-3.684,0.786-7.074,4.215-9.014,7.345
		c-1.621,2.612-2.596,8.287-1.893,11.905c0.227,1.166,1.006,2.104,1.559,3.228c0.465,0.946,0.822,2.068,1.225,2.671
		c1.967,2.955,5.785,4.183,9.012,5.341c0.023-0.69,0.008-1.344-0.223-1.78c-5.457-1.54-9.559-5.672-10.459-11.684
		c-0.35-2.339,0.354-4.758,0.445-7.011c1.365-2.307,3.24-4.104,4.895-6.12c1.758-0.877,3.193-2.074,5.342-2.559
		C178.555,67.519,178.846,66.899,178.377,66.604z M136.316,66.826c-4.829,2.75-8.948,8.373-8.568,16.357
		c0.271,5.725,1.542,13.452,7.566,13.909c2.98,0.227,6.38,0.012,9.125-0.779c-0.608-0.296-1.07-0.149-1.558,0
		c-1.748-0.755-3.485-1.189-5.118-2.226c-1.675-2.07-3.568-3.924-4.34-6.898c-0.957-3.1-0.757-5.685-0.557-9.348
		c0.257-4.696,2.588-7.878,4.785-10.57C137.125,67.05,136.928,67.056,136.316,66.826z M253.711,67.493
		c0.283,0.014,0.221,0.373,0.223,0.669c1.287,0.357,2.889,2.384,3.672,0.667C257.012,67.606,254.93,66.107,253.711,67.493z
		 M139.208,69.497c0.985-0.059,0.981,0.874,1.892,0.89c0.299-0.884-0.191-1.368-0.111-2.336c-0.258-0.15-0.632-0.185-0.89-0.334
		C140.106,68.613,139.354,68.751,139.208,69.497z M144.216,68.606c-0.054,0.132-0.119,0.252-0.223,0.334
		c0.217,6.418-0.501,13.373,0.668,20.252c0.201,0.188,0.562-0.092,0.891-0.111c0.246,0.348,0.528,0.657,0.667,1.112
		c3.703,0.126,6.934,0.688,10.349,0.445c-0.408-2.569-1.369-5.145-0.891-8.234c-2.413-0.992-5.843,1.192-8.457,0.111
		c-0.88-0.363-0.828-1.191-0.779-2.114c0.144-2.685,0.133-5.523-0.445-8.011c0.997-0.936,2.031-2.943,4.006-1.781
		c-0.177-0.591,0.09-1.188,0-2.003C148.464,69.181,146.202,68.954,144.216,68.606z M247.701,69.942
		c-0.33,0.855-0.781,1.591-1.223,2.336c0.51,0.417,0.994,0.86,1.334,1.447C248.686,72.373,251.279,68.523,247.701,69.942z
		 M176.264,72.057c0.773,0.82,1.324,1.864,2.225,2.559c0.08-1.146,0.168-2.766,0-4.117
		C177.672,70.942,176.592,71.124,176.264,72.057z M135.981,75.951c2.035-0.485,3.822,0.191,5.341,0
		c-0.053-1.246,0.146-2.544-0.222-3.228c-1.257-0.077-2.726-0.122-3.783-0.667C136.946,73.428,136.134,74.359,135.981,75.951z
		 M149.557,80.18c1.72,0.285,4.601-0.552,6.343,0c0.165-3.138,1.899-4.704,2.782-7.122c-3.05,1.396-6.855,0.883-9.57-0.111
		C149.416,75.377,149.138,77.571,149.557,80.18z M171.812,76.507c1.98,0.25,3.4,0.875,5.453,0.779
		c-1.119-1.108-2.078-2.374-3.34-3.339C173.281,74.859,172.057,75.193,171.812,76.507z M56.754,75.172
		c-1.523,0.398-2.925,0.662-4.34,0.89c-2.606,0.421-5.272,1.798-8.123,2.114c-1.024,0.114-2.061,0.024-3.004,0.224
		c-3.238,0.681-6.868,1.371-10.126,2.114c-1.822,0.414-3.517,1.075-5.118,1.112c-0.651,0.015-1.169-0.207-1.78-0.111
		c-0.922,0.144-1.68,0.591-2.56,0.668c-2.046,0.178-4.406-0.032-6.343,1.112c0.453,1.376,1.632,0.691,2.67,0.668
		c3.775-0.086,8.604-1.047,12.241-1.225c1.242-0.061,2.299,0.062,3.449-0.111c6.132-0.917,12.468-3.018,17.692-4.785
		c1.615-0.546,3.113-1.239,4.452-1.891c0.278-0.136,1.081-0.242,1.001-0.779C56.829,75.172,56.792,75.172,56.754,75.172z
		 M135.648,82.516c1.08-0.329,1.647-1.172,2.782-1.446c0.713,0.848,1.625,0.052,2.559-0.111c0.065-0.712,0.148-1.49,0.111-2.559
		c-1.984,0.009-3.521,0.547-5.341,0C135.667,79.24,135.597,81.245,135.648,82.516z M255.713,78.399
		c-2.59-0.407-5.545,2.145-5.562,4.562c-0.02,2.463,2.219,2.894,3.338,4.451c3.117,0.356,7.15-1.704,6.23-5.452
		c-0.027-0.438,0.402-0.414,0.334-0.891C258.748,80.297,257.396,78.663,255.713,78.399z M170.588,82.183
		c0.895-0.254,1.818-0.098,2.561-0.334c1.562-0.5,3.561-0.911,4.338-1.78c-1.789-0.083-4.418-0.612-6.564-0.779
		C170.701,80.144,170.814,81.333,170.588,82.183z M171.256,85.187c-0.26,1.078,0.527,1.968,0.891,2.782
		c2.08-1.666,4.695-2.797,6.453-4.785C176.469,83.012,173.777,84.688,171.256,85.187z M41.622,83.74
		c0.248,0.996-0.149,1.501,0,2.337c-0.473,0.38-1.167,0.539-1.669,0.89c0.34,0.067,0.579,0.236,0.89,0.334
		c0.892-0.822,1.853-2.682,1.447-3.783C42.151,83.678,41.906,83.729,41.622,83.74z M138.764,85.075
		c-0.854,0.239-1.967-0.595-2.671,0.111c0.556,1.595,1.133,3.17,2.002,4.451c1.102-0.791,2.054-1.73,3.227-2.448
		c0.133-0.967,0.195-2.852-0.444-3.672C140.034,83.745,139.609,84.838,138.764,85.075z M271.182,86.41
		c-1.432,3.087,0.037,7.114,3.227,7.79c1.975-0.504,4.154-1.577,4.783-3.339c0.979-2.727-1.402-5.136-3.561-5.341
		c-0.447-0.259-1.057-0.942-1.445-0.891C272.797,84.838,272.213,85.848,271.182,86.41z M36.614,84.853
		c0.26,0.742,0.689,1.313,1.558,1.446c-0.056-0.57-0.318-0.892-0.111-1.446C37.677,84.578,37.208,84.988,36.614,84.853z
		 M26.377,87.301c0.667-0.187,0.721-0.985,1.113-1.446c-0.26,0-0.52,0-0.779,0C26.885,86.622,26.444,86.774,26.377,87.301z
		 M174.148,89.972c0.395,0.405,1.088,1.035,1.559,1.001c0.434-1.83,2.043-2.481,2.781-4.006
		C176.646,87.573,175.795,89.17,174.148,89.972z M139.766,91.641c0.585,0.638,1.318,1.13,2.336,1.336
		c-0.011-0.791,0.586-0.973,0.779-1.559c-0.471-0.382-0.948-0.758-1.335-1.225C141.146,90.871,140.427,91.227,139.766,91.641z
		 M176.932,92.308c0.594,0.107,1.08,0.674,1.668,0.445c-0.162-0.283,0.072-0.962-0.334-1.001
		C178.061,92.176,177.281,92.028,176.932,92.308z M145.107,93.31c0.622-0.119,1.333-0.15,1.669-0.557
		c-0.762-0.15-0.765,0.23-1.335-0.111C145.341,92.877,145.102,92.971,145.107,93.31z M151.116,92.977
		c-0.757,0.875-1.838,1.426-2.671,2.225c1.754-0.287,2.99-1.091,4.006-2.114C152.016,92.812,151.59,93.211,151.116,92.977z
		 M22.371,112.56c3.022-0.885,5.896-3.524,7.789-5.785c-1.246-0.188-3.188,0.09-4.562-0.669
		C24.638,108.38,22.446,109.737,22.371,112.56z"/>
	<path fill-rule="evenodd" clip-rule="evenodd" fill="#001E39" d="M237.131,39.564c0.895,1.619,1.584,4.57,0.557,6.454
		c0.328,0.487,0.562,1.07,1.002,1.446c-0.029,0.417-0.258,0.632-0.445,0.89c0.299,8.289,0.352,17.217-0.225,25.816
		c-0.258,3.864,0.068,9.071,0.225,13.13c0.145,3.764,0.477,7.072,0.779,10.349c-0.105,0.341-0.57,0.321-0.668,0.667
		c-6.412-0.176-12.322,0.142-18.139,0.111c-0.396,0.173-0.066-0.378-0.334-0.333c-0.125,0.1,0.027,0.268-0.334,0.333
		c-7.789-0.391-15.938,0.31-24.48,0.668c-3.717,0.157-7.611-0.36-11.127,0.111c-0.441-0.3-0.729-0.756-1.225-1.001
		c-0.607-11.124,0.441-22.909,0-34.718c-0.164-4.372-0.182-8.697-0.223-12.908c-0.016-1.755,0.117-3.383,0.445-5.007
		c1.723-0.07,4.057,0.047,6.121,0.223c2.02,0.172,4.121-0.211,5.674,0c0.531,0.072,0.957,0.445,1.447,0.445
		c1.074-0.001,2.217-0.357,3.338-0.334c1.916,0.042,3.967,0.693,5.676,0.223c3.152,0.496,6.201,0.064,9.234-0.111
		c5.77-0.333,11.432,0.429,17.805,0.891c1.564,0.113,2.996,0.146,4.562,0.11c0.064-0.195-0.135-0.654,0.111-0.667
		c-1.504-0.797-3.531,0.104-4.896-0.222c-1.023-0.768-1.85-4.863-1.002-6.232c1.67,0.874,0.066,4.401,2.004,4.897
		c-0.637-0.424,0.053-1.474,0.557-2.003c-0.209-0.497-0.844-0.567-1.113-1.001c-0.117-0.563,0.328-0.561,0.445-0.891
		c-0.361-0.196-1.053-0.059-1.113-0.556C232.383,38.353,235.314,39.811,237.131,39.564z M233.459,40.788
		c0.242,0.387,0.738,0.523,1,0.89c0.488-0.144,0.701-0.561,1.002-0.89C234.963,40.518,234.098,40.623,233.459,40.788z
		 M236.352,41.901c-0.314,0.057-0.473,0.269-0.779,0.334c0.166,0.65,0.842,0.791,1.225,1.224c0.168,0.835-0.193,1.144-0.779,1.224
		c0.354,0.019,0.82,0.261,1.113,0c-0.121-1.054-0.043-3.203-0.891-3.895C235.939,41.146,236.404,41.448,236.352,41.901z
		 M233.682,44.794c0.695-0.083,1.406-0.152,2.225-0.112c-0.314-0.537-0.924-0.782-1.447-1.113
		C234.332,44.11,233.781,44.225,233.682,44.794z M216.768,47.019c-2.754,0.009-5.596,0.133-8.457,0.112
		c-8.115-0.061-16.096-0.583-24.48-0.557c-0.396,2.995-0.121,7.129,0,9.905c-0.033-0.295,0.232-0.288,0.445-0.335
		c5.041,0.008,10.066,0.417,14.91,0.668c5.32,0.276,11.01-0.303,15.803-0.223c6.967,0.116,15.043,0.044,21.586-0.556
		c0.168,0.352,0.602,0.437,0.557,1.001c-1.434,1.011-3.779-0.104-5.342,0.556c0.053,0.788,0.207,1.385-0.111,2.004
		c-0.885-0.078-0.787-1.143-1.002-1.893c-1.744-0.373-3.744-0.042-6.23,0.112c0,1.168,0,1.735,0.334,2.447
		c4.678-0.22,8.043-0.375,12.574-0.111c-0.102-1.997,0.07-4.419-0.223-6.788c-1.602,0.117-0.566,1.783-1.336,2.448
		c-2.732-0.12-5.553,0.043-8.68,0.224c-0.664-0.373-0.855-1.691-0.889-2.338c3.217-1.24,7.557-0.299,11.127-1.224
		c-0.188-1.138,0.141-2.833-0.334-4.34C229.947,47.873,223.445,46.998,216.768,47.019z M227.783,54.92
		c2.605-0.212,4.182,0.211,6.898-0.111c0.162-0.362,0.473-1.029,0.334-1.335C232.695,54.341,229.025,52.9,227.783,54.92z
		 M183.607,60.929c2.186-0.852,4.992,0.186,7.789-0.334c-0.27-1.118-0.406-2.115-0.557-3.115c-2.578-0.691-5.191,0.493-7.232-0.557
		C183.664,58.285,183.523,59.891,183.607,60.929z M207.086,58.035c-0.029,0.688,0.271,1.371,0,2.114
		c-1.074,0.229-1.145-1.474-1-2.226c-1.838-0.119-4.852,0.164-6.01-0.11c-0.014,1.399,0.088,1.769,0.111,3.004
		c5.232-0.195,9.943-0.67,15.133-0.779c-0.236-0.727-0.525-1.402-0.445-2.448C212.617,57.716,209.225,57.443,207.086,58.035z
		 M192.398,60.595c2.742,0.307,4.451,0.055,6.898,0.223c-0.111-0.796-0.426-1.554-0.445-3.004c-2.043,0.062-4.455-0.306-6.676-0.224
		C192.178,58.475,192.035,59.783,192.398,60.595z M215.988,57.701c-0.084,0.971,0.254,1.672-0.111,2.337
		c1.918,0.341,6.016,0.254,8.012,0.111c-0.398-0.601-0.535-1.467-0.668-2.336C220.195,57.93,218.664,57.705,215.988,57.701z
		 M231.01,61.04c-8.861,0.747-17.357,0.093-26.037,0.668c-1.582,0.104-3.273,0.386-4.785,0.334c-2.041-0.07-4.135-0.296-5.785-0.334
		c-3.805-0.088-7.525,0.191-10.795,0.11c1.189,11.644-0.9,25.347,0.557,36.276c11.508,0.035,24.035-0.891,36.943-0.891
		c6.627,0,11.396-0.092,16.469-0.111c-0.293-11.719-1.133-22.957-0.223-35.496C235.52,61.303,233.25,60.852,231.01,61.04z"/>
	<path fill-rule="evenodd" clip-rule="evenodd" fill="#001E39" d="M236.129,49.467c-0.305,1.157,0.525,2.154-0.334,3.004
		c-2.551-1.045-6.236,0.306-9.348,0.223c-0.436-0.922,0.049-2.08-0.555-2.782c0.107-0.003,0.086-0.136,0.109-0.222
		c1.357-0.155,3.094-0.215,4.674-0.112C232.783,49.717,234.738,49.066,236.129,49.467z M227.561,50.58
		c-0.049,0.358-0.213,0.603-0.223,1.001c2.855-0.197,4.715-0.268,7.789-0.333c0.043-0.488-0.318-0.572-0.332-1.002
		C232.084,50.7,230.787,50.375,227.561,50.58z"/>
	<path fill-rule="evenodd" clip-rule="evenodd" fill="#001E39" d="M112.614,71.388c-0.683,0.721-1.704,0.31-2.782,0.224
		c2.281,2.06,4.338,4.342,7.122,5.897c0.134,0.596,0.03,0.804-0.223,1.224c-3.095-1.542-4.968-4.304-7.789-6.12
		c-0.022,1.07,0.634,2.238,0.334,2.894c-0.929,0.025-1.638-2.853-1.67-3.673C107.507,69.207,111.459,70.715,112.614,71.388z"/>
</g>
</svg>
