<?xml version="1.0" encoding="utf-8"?>
<!-- Generator: Adobe Illustrator 15.1.0, SVG Export Plug-In . SVG Version: 6.00 Build 0)  -->
<!DOCTYPE svg PUBLIC "-//W3C//DTD SVG 1.1//EN" "http://www.w3.org/Graphics/SVG/1.1/DTD/svg11.dtd">
<svg version="1.1" id="Layer_1" xmlns="http://www.w3.org/2000/svg" xmlns:xlink="http://www.w3.org/1999/xlink" x="0px" y="0px"
	 width="311.81px" height="149px" viewBox="0 0 311.81 149" enable-background="new 0 0 311.81 149" xml:space="preserve">
<g>
	<path fill-rule="evenodd" clip-rule="evenodd" fill="#001E39" d="M283.066,27.491c0.391,1.317,1.384,2.848,0.113,3.627
		c-0.616,0.378-3.341,0.688-3.854,0.566c-0.931-0.221-1.413-2.814-0.793-3.854C279.328,26.496,281.918,27.019,283.066,27.491z
		 M280.12,28.625c-0.112,0.524-0.163,0.886,0,1.36c0.834,0.041,1.587,0.001,2.04-0.34c-0.056-0.358,0.204-0.4,0.113-0.793
		C281.533,28.372,281.17,28.664,280.12,28.625z"/>
	<path fill-rule="evenodd" clip-rule="evenodd" fill="#001E39" d="M261.191,34.065c0.075,0,0.15,0,0.227,0
		c0.438,5.271,0.467,9.665,0.453,13.941c-0.008,2.482,0.466,4.925,0.566,7.594c0.028,0.729-0.245,1.564-0.227,2.267
		c0.132,5.031,0.656,13.183,0.681,19.382c0.009,2.331-0.152,4.231,0.113,7.141c0.075,0.828,0.521,2.936-0.567,2.947
		c-0.94,0.009-0.456-1.643-0.453-2.041c0.012-1.283-0.38-4.105-0.34-5.44c0.321-10.806-0.276-20.64-0.453-31.283
		c-0.031-1.87-0.085-3.807-0.113-5.781c-0.04-2.741-0.84-5.872-0.228-8.388C260.915,34.242,261.028,34.128,261.191,34.065z"/>
	<path fill-rule="evenodd" clip-rule="evenodd" fill="#001E39" d="M81.766,36.559c0.091,0.06,0.185,0.118,0.34,0.113
		c-0.091,1.163-0.111,1.312,0,2.38c-0.357,0.055-0.4-0.204-0.793-0.113C81.048,38.118,81.522,37.23,81.766,36.559z"/>
	<path fill-rule="evenodd" clip-rule="evenodd" fill="#001E39" d="M89.927,36.672c0.658,0.161,0.622,1.545,0.227,1.813
		c-0.265-0.037-0.469-0.136-0.68-0.227C89.462,37.568,89.576,37.001,89.927,36.672z"/>
	<path fill-rule="evenodd" clip-rule="evenodd" fill="#001E39" d="M270.712,39.732c0.146,0.616,0.035,0.824-0.34,1.133
		c-2.236-0.185-4.271,0.14-6.801-0.227c-0.036-0.452-0.006-0.837,0.227-1.021C266.047,39.813,268.884,39.736,270.712,39.732z"/>
	<path fill-rule="evenodd" clip-rule="evenodd" fill="#001E39" d="M264.251,43.359c-0.139-0.481-0.041-0.61,0-1.133
		c4.701,0.099,7.191-0.517,11.675-0.227c0.182,0.399,0.384,0.526,0.227,1.02C271.382,42.865,267.904,43.271,264.251,43.359z"/>
	<path fill-rule="evenodd" clip-rule="evenodd" fill="#001E39" d="M270.146,45.06c0.128,0.543-0.433,0.399-0.566,0.68
		c-1.69-0.301-5.154,1.165-5.441-1.021c1.248-0.244,3.467,0.438,4.987-0.227C269.409,44.738,269.893,44.783,270.146,45.06z"/>
	<path fill-rule="evenodd" clip-rule="evenodd" fill="#001E39" d="M273.659,47.667c-0.021,0.55,0.701,0.356,0.68,0.907
		c-1.308,0.76-2.934,0.287-4.42,0.227c-1.891-0.077-4.254,0.601-5.668-0.793c-0.031-0.183,0.107-0.195,0.113-0.34
		C268.178,47.75,270.084,48.403,273.659,47.667z"/>
	<path fill-rule="evenodd" clip-rule="evenodd" fill="#001E39" d="M42.548,50.5c-1.492,0.16-3.203-0.786-4.307,0.34
		c-2.532-0.717-6.074,0.14-8.614-0.114c-0.657-0.585-1.056-1.679-0.227-2.38c1.835-0.073,4.647,0.369,7.594,0.113
		C38.984,48.287,44.491,46.81,42.548,50.5z"/>
	<path fill-rule="evenodd" clip-rule="evenodd" fill="#001E39" d="M277.06,50.387c-0.495,0.643-1.52,0.524-2.381,0.567
		c-3.088,0.151-7.183,0.444-9.86,0.113c-0.078-0.421-0.055-0.296-0.113-0.793c2.392-0.099,6.077,0.033,9.294-0.227
		C275.114,49.957,276.75,48.87,277.06,50.387z"/>
	<path fill-rule="evenodd" clip-rule="evenodd" fill="#001E39" d="M280.913,52.427c-0.584,1.217-2.391,0.503-3.627,0.68
		c-1.347,0.193-3.531,0.435-4.987,0.454c-2.525,0.033-5.235,0.872-7.367-0.34c0.382-1.063,1.63-0.271,2.38-0.227
		c2.476,0.149,5.048-0.359,8.048-0.567C277.461,52.281,279.49,51.823,280.913,52.427z"/>
	<path fill-rule="evenodd" clip-rule="evenodd" fill="#001E39" d="M207.239,55.374c-1.124-0.104-1.927,0.114-2.494,0.566
		c-3.498,0.184-7.027,0.238-9.748,1.587c-0.795-0.36-1.131-1.582-1.02-2.494c2.094-1.167,5.916-0.922,8.954-1.36
		c1.598-0.23,2.511-0.96,4.194-0.68C207.884,53.489,207.952,54.757,207.239,55.374z"/>
	<path fill-rule="evenodd" clip-rule="evenodd" fill="#001E39" d="M270.259,55.261c0.004,1.351-5.671,2.213-5.44,0.34
		C266.355,55.807,268.587,55.025,270.259,55.261z"/>
	<path fill-rule="evenodd" clip-rule="evenodd" fill="#001E39" d="M52.296,61.041c-4.601-0.267-9.106,0.04-13.375,0.454
		c-0.662-0.32-1.455-0.51-1.813-1.134c-0.066-0.633,0.26-0.874,0.227-1.473c0.37,0.029,0.546-0.135,0.567-0.454
		c2.803,0.679,5.812,0.162,8.273-0.113C48.47,58.623,54.07,57.608,52.296,61.041z"/>
	<path fill-rule="evenodd" clip-rule="evenodd" fill="#001E39" d="M35.294,58.888c0.174,0.582,0.566,0.945,0.566,1.7
		c-1.365,0.803-4.144,1.219-5.44,0.227C29.604,57.536,33.406,58.585,35.294,58.888z"/>
	<path fill-rule="evenodd" clip-rule="evenodd" fill="#001E39" d="M225.034,60.814c0.637,0.336,1.058,1.336,0.566,2.154
		c-3.348,0.249-7.174,0.051-10.881,0.34c-0.656,0.051-1.21,0.508-1.813,0.453c-1.648-0.149-2.963-0.041-4.647,0
		c-1.956,0.048-3.859,0.677-6.007,1.021c-0.547-0.674-1.471-1.279-1.021-2.607c1.02-0.395,2.16-0.56,3.514-0.68
		c2.115-0.188,4.467-0.16,6.688-0.34C215.46,60.829,220.462,60.663,225.034,60.814z"/>
	<path fill-rule="evenodd" clip-rule="evenodd" fill="#001E39" d="M199.305,62.628c-0.825,2.199-6.428,2.437-5.327-0.567
		C194.514,60.597,198.562,61.811,199.305,62.628z"/>
	<path fill-rule="evenodd" clip-rule="evenodd" fill="#001E39" d="M73.151,62.061c0.259,0.536,0.986,1.203,0.566,2.041
		c-3.087,0.717-6.442,0.385-9.521,0.453c-1.684,0.037-3.365-0.069-4.761,0c-3.716,0.186-7.293,1.121-11.788,1.247
		c-0.921,0.026-1.875-0.227-2.833-0.227c-2.609,0-5.514,0.495-7.935,0.907c-2.183,0.371-5.576,0.124-4.307-2.38
		c5.996-0.224,11.963-0.958,17.795-1.133C58.302,62.729,64.89,61.562,73.151,62.061z"/>
	<path fill-rule="evenodd" clip-rule="evenodd" fill="#001E39" d="M280.233,63.082c-0.145,0.687-0.506,1.157-0.794,1.7
		c-4.784-0.549-10.091,0.679-15.302,0.113c-0.261-0.627,0.314-1.125,0.567-1.587c5.353-0.014,9.973-0.262,14.734-0.907
		C279.637,62.695,279.995,62.829,280.233,63.082z"/>
	<path fill-rule="evenodd" clip-rule="evenodd" fill="#001E39" d="M220.727,68.409c-1.186,0.201-2.487-0.159-3.4,0.453
		c-2.536-0.85-5.233-0.148-7.934,0.113c-1.232,0.12-2.67-0.139-4.081,0c-0.7,0.069-1.463,0.431-2.153,0.454
		c-3.012,0.101-6.039-0.368-8.728,0.34c-0.628-0.424-1.07-1.401-0.793-2.38c3.485-0.779,9.783-0.446,13.488-0.68
		c1.828-0.116,3.592-0.423,5.667-0.567c1.378-0.096,2.918-0.134,4.193-0.227C218.949,65.772,222.494,65.701,220.727,68.409z"/>
	<path fill-rule="evenodd" clip-rule="evenodd" fill="#001E39" d="M259.491,67.048c-0.184,0.195-0.475,0.282-0.907,0.227
		C258.306,66.173,259.511,66.179,259.491,67.048z"/>
	<path fill-rule="evenodd" clip-rule="evenodd" fill="#001E39" d="M275.359,67.502c-0.428,0.729-1.068,0.129-1.587,0.113
		c-1.776-0.053-3.613,0.494-5.554,0.453c-1.126-0.023-3.255,0.761-3.514-0.793c0.771-0.739,1.874-0.117,2.946-0.113
		c1.45,0.005,3.109-0.544,4.534-0.453C273.345,66.783,274.98,66.405,275.359,67.502z"/>
	<path fill-rule="evenodd" clip-rule="evenodd" fill="#001E39" d="M49.462,69.088c-2.096,0.6-4.262-0.032-6.12,0.907
		c-1.911-1.029-5.833,0.401-7.935,0.453c-1.311,0.033-3.152-0.833-2.267-2.38c3.491-0.747,8.359-0.534,12.468-1.02
		C46.992,67.599,49.888,66.42,49.462,69.088z"/>
	<path fill-rule="evenodd" clip-rule="evenodd" fill="#001E39" d="M259.038,68.409c0.412,0.181,0.596,0.845,0.453,1.247
		c-0.267,0.036-0.426,0.179-0.794,0.113c-0.098-0.091-0.067-0.31-0.227-0.34C258.465,68.894,258.866,68.767,259.038,68.409z"/>
	<path fill-rule="evenodd" clip-rule="evenodd" fill="#001E39" d="M40.621,71.129c0.213,0.468,0.523,0.837,0.454,1.587
		c-2.011,1.007-4.506,0.299-6.461,1.36c4.412,0.995,10.208-0.236,14.961,0.34c1.646,2.046-1.693,2.227-3.854,2.267
		c-3.208,0.062-7.528,0.198-10.881,0.228c-1.274-0.322-2.708-2.266-0.793-2.948c-1.161-0.572-1.723-2.311-0.228-2.947
		C36.37,71.418,38.449,70.379,40.621,71.129z"/>
	<path fill-rule="evenodd" clip-rule="evenodd" fill="#001E39" d="M207.806,72.489c-0.149,0.342-0.078,0.905-0.227,1.247
		c-3.49,0.484-8.267-0.017-12.015,0.567c-0.67-0.389-0.99-1.125-1.021-2.154c3.729-0.974,8.2-0.528,12.241-0.793
		C207.092,71.767,207.552,72.025,207.806,72.489z"/>
	<path fill-rule="evenodd" clip-rule="evenodd" fill="#001E39" d="M275.359,71.922c-0.688,1.044-1.924,0.182-3.174,0.227
		c-2.552,0.091-5.779,1.661-7.141-0.113c0.963-0.882,2.401-0.17,3.854-0.227c1.738-0.068,3.518-0.542,5.214-0.34
		C274.487,70.971,275.13,71.587,275.359,71.922z"/>
	<path fill-rule="evenodd" clip-rule="evenodd" fill="#001E39" d="M259.491,72.149c-0.233,0.497-0.758,0.483-1.134,0.113
		C258.194,71.098,259.498,71.242,259.491,72.149z"/>
	<path fill-rule="evenodd" clip-rule="evenodd" fill="#001E39" d="M280.12,75.209c-0.697,0.311-1.518-0.182-1.928,0.34
		c-3.014,0.22-5.974-0.184-9.407,0.113c-0.706,0.062-4.057,0.861-3.967-0.227c0.062-0.754,0.636-0.535,1.587-0.567
		c2.849-0.095,9.425,0.384,12.581-0.793C279.513,73.879,280.456,74.619,280.12,75.209z"/>
	<path fill-rule="evenodd" clip-rule="evenodd" fill="#001E39" d="M225.827,76.229c-2.308,0.456-5.029,1.21-7.254,1.36
		c-1.146,0.076-2.268-0.32-3.4-0.113c-0.602,0.109-1.195,0.527-1.813,0.566c-1.004,0.063-2.05-0.284-3.061-0.227
		c-4.78,0.271-9.375,0.514-14.395,1.246c-0.421-0.631-1.092-1.379-0.794-2.38c8.032-1.301,18.952-0.706,27.884-2.267
		c0.543,0.137,1.205,0.154,1.813,0.227C225.132,75.187,225.735,75.452,225.827,76.229z"/>
	<path fill-rule="evenodd" clip-rule="evenodd" fill="#001E39" d="M251.33,74.529c0.024,0.194-0.193,0.293,0,0.34
		c-0.153,0.323-0.636,0.316-0.907,0.227C250.026,74.451,250.896,74.049,251.33,74.529z"/>
	<path fill-rule="evenodd" clip-rule="evenodd" fill="#001E39" d="M259.151,75.209c0.412,0.116,0.624,0.433,0.68,0.907
		c-0.252,0.202-0.461,0.446-1.021,0.34C258.526,75.818,258.882,75.579,259.151,75.209z"/>
	<path fill-rule="evenodd" clip-rule="evenodd" fill="#001E39" d="M250.536,76.229c0.349,0.029,0.51,0.246,0.794,0.34
		c0.002,0.575-0.87,0.812-1.134,0.454C250.136,76.584,250.485,76.557,250.536,76.229z"/>
	<path fill-rule="evenodd" clip-rule="evenodd" fill="#001E39" d="M254.73,76.91c0.283,0.207,0.67,0.312,0.68,0.793
		c-0.322,0.363-0.844,0.421-1.133,0C254.365,77.375,254.523,77.117,254.73,76.91z"/>
	<path fill-rule="evenodd" clip-rule="evenodd" fill="#001E39" d="M259.831,79.856c-0.016,0.438-0.442,0.464-0.907,0.454
		C258.327,79.41,259.73,78.894,259.831,79.856z"/>
	<path fill-rule="evenodd" clip-rule="evenodd" fill="#001E39" d="M251.33,79.63c0.154,0.81-0.603,1.077-1.021,0.681
		C250.243,79.71,250.821,79.293,251.33,79.63z"/>
	<path fill-rule="evenodd" clip-rule="evenodd" fill="#001E39" d="M255.524,79.856c0.011,0.847-1.103,1.017-1.134,0.113
		C254.665,79.725,255.205,79.426,255.524,79.856z"/>
	<path fill-rule="evenodd" clip-rule="evenodd" fill="#001E39" d="M259.831,83.03c-0.303,0-0.604,0-0.907,0
		c-0.009-0.406-0.176-0.655-0.227-1.021C259.38,80.783,260.245,82.279,259.831,83.03z"/>
	<path fill-rule="evenodd" clip-rule="evenodd" fill="#001E39" d="M54.223,84.504c-2.727,1.184-6.896,0.363-10.314,0.68
		c-1.08,0.1-3.877,0.383-3.74-1.359c0.064-0.825,3.4-1.373,4.421-1.475c1.622-0.16,4.211,0.44,5.894,0.34
		C52.292,82.582,54.869,81.984,54.223,84.504z"/>
	<path fill-rule="evenodd" clip-rule="evenodd" fill="#001E39" d="M34.501,85.41c-1.128-3.105,2.431-2.039,4.08-2.153
		C40.608,85.441,36.036,86.732,34.501,85.41z"/>
	<path fill-rule="evenodd" clip-rule="evenodd" fill="#001E39" d="M223.447,87.11c-5.377,0.782-11.93,0.19-17.455,1.813
		c-0.96-0.524-1.528-2.131-0.681-2.947c4.693,0.08,11.637-1.318,16.662-1.02C223.123,85.025,223.458,85.988,223.447,87.11z"/>
	<path fill-rule="evenodd" clip-rule="evenodd" fill="#001E39" d="M202.818,87.904c-1.283,0.467-3.449,0.346-5.214,0.68
		c-0.658,0.125-1.247,0.639-1.813,0.566c-0.916-0.117-1.339-1.215-0.907-2.38C197.326,86.936,202.941,84.281,202.818,87.904z"/>
	<path fill-rule="evenodd" clip-rule="evenodd" fill="#001E39" d="M64.65,89.15c-3.132,0.259-6.504,0.113-10.201,0.794
		c-1.702-1.077-3.871-0.249-5.894-0.228c-2.546,0.028-5.812-0.064-8.274,0.113c-2.105,0.153-5.938,0.184-4.307-2.492
		c0.815-0.104,1.399-0.166,1.813,0.34c5.136-0.782,13.272-0.053,18.929-0.681c0.951-0.105,2.238-0.097,3.286-0.113
		c1.287-0.021,2.755-0.208,3.4-0.113C64.475,86.928,65.526,88.234,64.65,89.15z"/>
	<path fill-rule="evenodd" clip-rule="evenodd" fill="#001E39" d="M66.577,90.171c1.103,3.057-3.104,2.022-5.894,2.153
		c-1.172,0.055-2.599,0.475-4.194,0.566c-2.906,0.168-6.686-0.158-9.407,0.113c-0.749,0.075-1.692,0.779-2.38,0.681
		c-1.431-0.206-1.753-2.482-0.454-2.946c1.236,0.477,2.436-0.053,3.741-0.228c2.604-0.349,5.712,0.07,8.613-0.113
		c1.358-0.085,2.727-0.384,3.968-0.453c1.542-0.086,2.832-0.306,4.08-0.341C65.519,89.58,65.942,89.928,66.577,90.171z"/>
	<path fill-rule="evenodd" clip-rule="evenodd" fill="#001E39" d="M208.825,90.738c0.367,0.648,0.346,1.523,0.113,2.379
		c-4.088,0.587-9.266-0.412-12.694,1.021c-0.919-0.363-1.883-1.725-1.02-2.834C200.176,90.721,204.445,90.816,208.825,90.738z"/>
	<path fill-rule="evenodd" clip-rule="evenodd" fill="#001E39" d="M64.764,96.064c-6.236-0.133-12.771,0.137-18.135,0.794
		c-0.519-0.562-1.405-1.079-1.247-1.927c0.204-1.095,4.759-0.988,6.801-1.134c3-0.214,5.249,0.101,7.141-0.567
		c1.647,1.038,6.025-1.141,6.348,1.361C65.763,95.309,65.244,95.682,64.764,96.064z"/>
	<path fill-rule="evenodd" clip-rule="evenodd" fill="#001E39" d="M219.253,96.064c-0.582,0.504-1.849,0.145-2.493,0.794
		c-3.3-0.364-9.78,0.743-13.941,1.134c-0.504,0.047-1.024-0.19-1.474-0.113c-0.397,0.066-0.793,0.513-1.247,0.453
		c-0.708-0.094-1.075-1.005-1.02-1.474c0.16-1.356,3.526-1.608,4.987-1.7c4.484-0.283,7.836-0.627,12.015-1.247
		c0.709-0.105,1.579,0.067,2.04-0.34C219.212,93.753,219.731,94.959,219.253,96.064z"/>
	<path fill-rule="evenodd" clip-rule="evenodd" fill="#001E39" d="M52.296,96.858c0.498,0.294,0.463,1.124,0.68,1.7
		c-0.74,1.215-3.28,0.717-5.667,0.906c-2.156,0.172-4.086,0.426-5.894,0.453c-1.354,0.021-3.427,0.463-3.514-1.246
		c-0.022-0.434,0.392-0.774,0.453-1.134C42.36,98.078,47.79,97.036,52.296,96.858z"/>
	<path fill-rule="evenodd" clip-rule="evenodd" fill="#001E39" d="M204.292,100.485c0.186,0.421-0.254,1.071-0.453,1.474
		c-2.223,0.461-4.999,0.366-6.801,1.246c-0.869-0.227-1.312-0.879-1.7-1.586c0.168-0.512,0.467-0.894,0.793-1.247
		C198.688,100.658,202.163,99.072,204.292,100.485z"/>
	<path fill-rule="evenodd" clip-rule="evenodd" fill="#001E39" d="M44.248,108.873c-0.835-0.576-1.863-2.527-0.34-3.061
		c0.611-0.215,1.123,0.266,1.7,0.34c2.766,0.354,7.569-0.811,9.975-0.68c2.037,1.637-1.079,2.691-2.947,2.834
		C49.55,108.541,46.659,108.607,44.248,108.873z"/>
	<path fill-rule="evenodd" clip-rule="evenodd" fill="#001E39" d="M41.188,106.266c0.86,2.341-4.973,3.965-4.874,0.906
		C36.376,105.258,39.694,106.367,41.188,106.266z"/>
	<path fill-rule="evenodd" clip-rule="evenodd" fill="#001E39" d="M36.768,110.572c0.208-0.361,1.287-0.445,1.474-0.453
		c2.594,0.893,6.454,0.307,10.201,0.34c3.518,0.033,7.142,0.215,10.541,0c1.032,0.322,1.657,1.934,0.113,2.494
		c-1.404,0.51-3.604,0.012-5.667-0.113c-3.673-0.222-7.612,0.312-11.562,0.34c-0.549,0.004-1.42-0.303-2.267-0.227
		c-0.8,0.072-1.425,0.353-1.813,0.227C36.885,112.889,36.367,111.416,36.768,110.572z"/>
	<path fill-rule="evenodd" clip-rule="evenodd" fill="#001E39" d="M223.9,112.727c-0.966,0.156-1.864-0.091-2.833-0.113
		c-2.644-0.061-5.412,0.604-8.048,0.793c-3.093,0.223-6.87-0.355-9.861,0.566c-0.653-0.311-0.933-1.141-0.793-1.926
		c5.549-1.285,13.542-1.014,19.269-1.475c0.887-0.07,2.157-0.678,2.606,0.341C224.551,111.615,224.164,112.148,223.9,112.727z"/>
	<path fill-rule="evenodd" clip-rule="evenodd" fill="#001E39" d="M83.239,111.026c0.065,0.444-0.098,0.658-0.227,0.907
		c-0.347,0.082-0.334-0.195-0.681-0.113C81.889,111.018,82.761,110.328,83.239,111.026z"/>
	<path fill-rule="evenodd" clip-rule="evenodd" fill="#001E39" d="M89.587,111.707c-0.057,0.621-0.896,0.887-1.36,0.453
		C88.123,111.268,89.287,110.953,89.587,111.707z"/>
	<path fill-rule="evenodd" clip-rule="evenodd" fill="#001E39" d="M199.758,111.594c0.243,0.361,0.25,0.959,0.227,1.586
		c-1.091,0.428-2.719,0.248-3.74,0.68C194.423,112.089,197.74,110.939,199.758,111.594z"/>
	<path fill-rule="evenodd" clip-rule="evenodd" fill="#001E39" d="M92.76,112.953c-0.021,0.688-0.997,0.705-1.133,0.113
		C91.67,112.314,92.636,112.221,92.76,112.953z"/>
	<path fill-rule="evenodd" clip-rule="evenodd" fill="#001E39" d="M64.65,113.633c0.331,0.449,0.243,0.871,0.34,1.361
		c-0.506,0.627-1.942,0.324-2.267,1.133c-1.483-0.611-3.25,0.252-4.987,0.227c-2.073-0.029-4.07-0.723-5.894-0.34
		c-0.863,0.182-1.172,0.168-2.154,0.227c-0.338,0.02-0.758,0.347-0.906,0.34c-2.312-0.101-2.569-3.477-0.227-3.174
		C53.099,114.052,59.445,113.291,64.65,113.633z"/>
	<path fill-rule="evenodd" clip-rule="evenodd" fill="#001E39" d="M82.445,114.54c-0.251,0.089-0.441,0.238-0.793,0.227
		C80.819,113.902,82.627,113.049,82.445,114.54z"/>
	<path fill-rule="evenodd" clip-rule="evenodd" fill="#001E39" d="M86.073,114.54c0.008,0.424-0.183,0.649-0.454,0.794
		c-0.282,0.018-0.351-0.179-0.566-0.227C84.809,114.289,85.736,114.109,86.073,114.54z"/>
	<path fill-rule="evenodd" clip-rule="evenodd" fill="#001E39" d="M217.78,115.561c0.113,0.479,0.201,1.239,0,1.699
		c-1.548,1.029-3.706,0.301-5.668,0.454c-0.671,0.052-1.269,0.444-1.927,0.453c-4.167,0.06-8.872-0.313-13.261,0.454
		c-0.658-0.617-1.154-1.701-0.454-2.494c5.191-0.365,12.587-0.244,17.796-0.68C215.562,115.338,216.719,114.815,217.78,115.561z"/>
	<path fill-rule="evenodd" clip-rule="evenodd" fill="#001E39" d="M91.286,115.561c0.007,0.371,0.323,0.434,0.228,0.906
		c-0.436,0.461-0.991,0.285-1.247-0.227C90.454,115.861,90.613,115.453,91.286,115.561z"/>
	<path fill-rule="evenodd" clip-rule="evenodd" fill="#001E39" d="M42.661,117.033c2.002-0.717,3.772,0.104,5.441-0.113
		c0.326-0.042,0.678-0.414,1.02-0.453c0.475-0.053,0.97,0.262,1.474,0.227c0.255-0.018,0.478-0.308,0.794-0.34
		c1.404-0.143,3.188,1.961,1.473,2.721c-0.343,0.151-0.806-0.035-1.246,0c-1.074,0.084-2.419,0.404-3.854,0.34
		c-1.861-0.084-3.892-0.373-5.214-0.227c-1.327,0.146-2.655,0.559-4.193,0.113c-0.768-0.223-1.381-1.166-1.36-1.7
		C37.065,115.744,41.333,116.396,42.661,117.033z"/>
	<path fill-rule="evenodd" clip-rule="evenodd" fill="#001E39" d="M82.332,117.601c-0.242,0.249-0.55,0.432-1.133,0.34
		c-0.174-0.36-0.04-0.499,0-0.907C81.61,117.1,82.294,116.717,82.332,117.601z"/>
	<path fill-rule="evenodd" clip-rule="evenodd" fill="#001E39" d="M86.3,117.486c-0.121,0.424,0.281,0.324,0.227,0.681
		c-0.257,0.083-0.248,0.433-0.566,0.454c-0.399-0.131-0.72-0.339-0.681-0.907C85.531,117.551,85.826,117.43,86.3,117.486z"/>
	<path fill-rule="evenodd" clip-rule="evenodd" fill="#001E39" d="M95.027,118.734c0.058,0.473-0.063,0.768-0.227,1.02
		c-0.151-0.189-0.643-0.037-0.794-0.227C93.638,118.941,94.427,118.33,95.027,118.734z"/>
	<path fill-rule="evenodd" clip-rule="evenodd" fill="#001E39" d="M78.139,119.188c-0.008,0.332-0.259,0.42-0.453,0.566
		c-0.356,0.055-0.443-0.161-0.681-0.227C76.782,118.534,77.941,118.639,78.139,119.188z"/>
	<path fill-rule="evenodd" clip-rule="evenodd" fill="#001E39" d="M217.439,119.414c0.331,0.887-0.019,1.898-0.566,2.267
		c-7.063,0.425-13.884,0.394-20.402,1.247c-0.271-0.548-1.001-1.581-0.453-2.268c0.15-0.188,2.392-0.404,3.514-0.453
		c4.179-0.182,9.294-0.516,12.694-0.68C213.771,119.453,215.941,118.397,217.439,119.414z"/>
	<path fill-rule="evenodd" clip-rule="evenodd" fill="#001E39" d="M79.499,122.021C77.152,121.695,80.329,119.988,79.499,122.021
		L79.499,122.021z"/>
	<path fill-rule="evenodd" clip-rule="evenodd" fill="#001E39" d="M84.713,122.248c-0.061,0.682-0.749,0.566-1.134,0.227
		C83.343,121.385,84.592,121.629,84.713,122.248z"/>
	<path fill-rule="evenodd" clip-rule="evenodd" fill="#001E39" d="M94.12,121.908c-0.124,0.253-0.188,0.567-0.34,0.793
		c-0.34-0.076-0.604-0.228-0.793-0.453C92.977,121.685,93.812,121.496,94.12,121.908z"/>
	<path fill-rule="evenodd" clip-rule="evenodd" fill="#001E39" d="M89.359,121.908c0.2,0.389,0.098,0.849-0.227,1.02
		C87.788,123.054,88.263,121.284,89.359,121.908z"/>
	<path fill-rule="evenodd" clip-rule="evenodd" fill="#001E39" d="M229.001,123.041c0.416,1.006,0.079,1.874-0.68,2.268
		c-0.822-0.531-1.751,0.153-2.721,0.227c-1.463,0.109-2.723-0.756-3.627,0.453c-3.664,0.105-6.565,0.242-10.314,0.453
		c-1.027,0.058-2.174,0.486-3.287,0.566c-1.138,0.082-2.234-0.027-3.174,0.113c-1.056,0.158-1.953,0.537-2.946-0.227
		c-0.13-0.437-0.366-0.984-0.113-1.473c4.58-0.881,9.575-1.158,14.395-1.475c1.145-0.074,2.385-0.523,3.514-0.566
		c0.256-0.01,0.531,0.258,0.793,0.227C223.234,123.33,226.626,121.98,229.001,123.041z"/>
	<path fill-rule="evenodd" clip-rule="evenodd" fill="#001E39" d="M98.087,123.607c-0.011,0.767-0.529,1.09-1.133,0.68
		C96.878,123.374,97.592,123.066,98.087,123.607z"/>
	<path fill-rule="evenodd" clip-rule="evenodd" fill="#001E39" d="M80.519,124.628C78.49,125.604,80.264,122.242,80.519,124.628
		L80.519,124.628z"/>
	<path fill-rule="evenodd" clip-rule="evenodd" fill="#001E39" d="M76.892,126.102c-0.405,0.285-0.948,0.239-1.133-0.227
		C75.729,124.812,77.148,124.925,76.892,126.102z"/>
	<path fill-rule="evenodd" clip-rule="evenodd" fill="#001E39" d="M94.347,125.762C93.019,127.775,92.51,124.164,94.347,125.762
		L94.347,125.762z"/>
	<path fill-rule="evenodd" clip-rule="evenodd" fill="#001E39" d="M88.68,128.368c-0.085,0.481-0.21,0.923-0.907,0.794
		C87.093,128.431,88.116,127.616,88.68,128.368z"/>
	<path fill-rule="evenodd" clip-rule="evenodd" fill="#001E39" d="M91.854,129.502c-0.336,0.08-0.493,0.338-1.021,0.227
		C90.286,128.864,92.074,128.141,91.854,129.502z"/>
	<path fill-rule="evenodd" clip-rule="evenodd" fill="#001E39" d="M80.519,130.182c-0.164,0.176-0.58,0.1-0.906,0.113
		C78.722,129.187,80.824,128.48,80.519,130.182z"/>
	<path fill-rule="evenodd" clip-rule="evenodd" fill="#001E39" d="M98.428,129.162c0.055,0.432-0.032,0.723-0.228,0.906
		c-0.443,0.066-0.657-0.098-0.906-0.227C97.101,129.082,97.95,128.888,98.428,129.162z"/>
	<path fill-rule="evenodd" clip-rule="evenodd" fill="#001E39" d="M85.166,131.542c-0.272,0.378-0.67,0.57-1.134,0.227
		C83.802,130.566,85.143,130.533,85.166,131.542z"/>
	<path fill-rule="evenodd" clip-rule="evenodd" fill="#001E39" d="M94.687,130.975c0.224,0.237,0.087,0.754,0,1.021
		c-0.346-0.082-0.333,0.196-0.68,0.113C93.48,131.59,94.036,130.596,94.687,130.975z"/>
	<path fill-rule="evenodd" clip-rule="evenodd" fill="#001E39" d="M75.532,132.108c0.066,0.407-0.133,0.548-0.228,0.794
		c-0.301-0.002-0.647,0.043-0.793-0.113c0.019-0.133-0.025-0.202-0.113-0.227C74.462,132.053,75.175,131.658,75.532,132.108z"/>
	<path fill-rule="evenodd" clip-rule="evenodd" fill="#001E39" d="M89.587,132.676c-0.023,0.543-0.66,0.689-1.134,0.453
		C88.226,132.172,89.39,131.965,89.587,132.676z"/>
	<path fill-rule="evenodd" clip-rule="evenodd" fill="#001E39" d="M81.879,133.355c-0.105,0.083-0.172,0.206-0.227,0.34
		c-0.368,0.066-0.527-0.077-0.794-0.113C80.598,132.51,82.021,132.192,81.879,133.355z"/>
	<path fill-rule="evenodd" clip-rule="evenodd" fill="#001E39" d="M269.352,95.498c0.069,0.666,1.177,1.229,2.041,1.474
		c2.312,1.97,4.244,3.923,5.894,7.027c0.504,0.948,1.418,2.122,1.134,3.173c-0.106,0.393-1.484,1.418-2.04,1.814
		c-3.565,2.537-8.032,4.497-11.562,7.254c3.296,2.199,8.376,2.754,12.128,4.533c3.095,1.469,2.59,5.565,0.68,8.275
		c-1.01,1.432-2.7,3.369-3.967,4.533c-2.676,2.459-6.926,3.111-9.521,4.987c-10.131,2.414-19.8-1.71-24.822-7.708
		c-3.898,0.479-8.333,0.014-13.035,0.453c-1.875,0.176-3.463,0.777-5.894,0.794c-4.618,0.031-9.376,0.511-14.734,0.794
		c-1.742,0.092-3.52-0.387-5.214-0.34c-1.637,0.045-3.436,0.435-5.101,0.34c-0.914-0.053-1.683-0.232-2.494-0.113
		c-0.474,0.068-1.108,0.473-1.587,0.453c-0.321-0.014-0.312-0.448-0.906-0.566c-1-0.2-1.325,0.474-1.7-0.227
		c-0.249-0.466,0.167-0.936,0.227-1.475c0.293-2.625,0.211-5.433,0-7.594c-1.59,0.312-4.478-0.599-5.78,0.113
		c-0.91-0.512-1.304-0.891-2.268-1.246c0.166-1.906,0.241-2.744,0.227-4.988c-2.49-1.123-6.44,1.488-7.027-1.586
		c-1.961,0.436-1.512-0.92-1.359-2.381c0.239-2.301-0.341-4.119-0.341-6.574c0-11.993-0.357-23.006-0.68-34.457
		c-0.301-10.682-0.445-22.115-0.227-31.85c0.068-3.055-0.062-5.75,2.267-6.007c5.406-0.598,11.845-0.185,16.096-0.113
		c0.731-3.499-0.28-7.27,1.133-10.087c4.782-1.117,10.833-0.9,17.115-0.907c5.273-0.006,9.865-0.051,15.075,0.34
		c5.911,0.444,11.342,0.111,16.774,0.227c6.816,0.145,13.398-0.57,20.516,0.227c8.783-0.492,18.097,0.311,25.956-0.453
		c2.694,1.27,1.678,5.619,1.927,9.181c0.58,8.273-0.042,16.784-0.113,26.183c-0.014,1.892,0.312,3.853,0.34,5.781
		c0.029,1.895-0.322,3.749-0.227,5.667c0.238,4.768,0.256,9.563-0.113,14.055c-0.122,1.492-0.277,3.279-0.113,4.646
		c0.203,1.682,1.206,3.299,1.021,4.761c-0.38,0.526-0.788,1.025-1.247,1.474c-0.809,0.543-1.512-0.33-2.38-0.453
		c-1.708-0.242-3.787,0.469-5.781,0.566C276.14,95.672,272.501,95.156,269.352,95.498z M235.122,43.699
		c-0.243-0.474,0.832-0.6,0.68-1.36c-0.928,0.417-1.872-0.05-2.607-0.113c-2.077-0.181-3.333,3.925-4.533,4.76
		C232.03,48.088,233.708,44.767,235.122,43.699z M232.741,46.986c2.505,0.628,3.243-0.758,4.194-1.813
		c0.906-1.006,2.74-1.966,1.246-2.947c-0.597,0.025-1.095,0.434-1.7,0.113C235.166,43.819,233.755,45.204,232.741,46.986z
		 M278.192,26.811c-3.354-0.391-6.807-0.344-10.2-0.113c-1.011,0.068-2.136-0.219-3.287-0.227c-8.86-0.064-15.211,0.22-23.916,0.114
		c-1.92-0.024-3.879-0.226-5.78-0.227c-1.474-0.001-2.952,0.382-4.421,0.34c-3.751-0.108-7.51-0.706-11.222-0.68
		c-9.159,0.062-18.285-0.297-27.202,0.113c-0.154,2.778-0.583,4.965-0.567,8.161c0.954-0.206,1.405,0.1,2.494-0.113
		c0.112-0.893,0.006-2.821,0.906-3.287c4.416-0.25,10.635,0.659,15.415-0.227c8.433,1.346,15.932-0.008,22.782,0.34
		c4.187,0.213,7.991-0.801,12.355,0.114c5.621-0.102,12.022,0.624,18.248,0.566c6.702-0.062,13.658,0.619,19.269,0
		c0.803,1.742,0.384,3.843,0.228,5.894c-0.191,2.5-0.25,5.196-0.341,7.141c-0.089,1.925,0.383,3.833,0.454,5.781
		c0.288,7.901,0.163,16.187,0.113,24.369c-0.028,4.639,0.24,9.285-0.113,13.941c-1.066-0.111-1.901,0.078-2.834-0.227
		c-2.36,0.033-4.933,0.686-7.027,0.793c-7.011,0.36-15.116-0.291-21.536,0.794c1.271,0.683,2.835,0.844,4.308,0.794
		c8.306-0.285,16.551-0.307,24.369-0.567c1.955-0.065,3.809-0.306,4.874-0.794c0.136-1.65-0.272-3.375-0.113-5.1
		c0.048-0.518,0.526-0.979,0.566-1.474c0.063-0.786-0.43-1.737-0.453-2.72c-0.019-0.753,0.206-1.584,0.227-2.381
		c0.023-0.904-0.226-1.81-0.227-2.72c-0.001-0.88,0.47-1.736,0.453-2.607c-0.018-0.921-0.525-1.839-0.566-2.834
		c-0.064-1.559,0.501-3.358,0.453-5.214c-0.044-1.72-0.47-3.501-0.453-5.214c0.018-1.918,0.396-3.825,0.227-5.667
		c-0.317-3.45,0.399-7.012,0.34-10.655c-0.032-1.998,0.144-3.878-0.34-5.667c0.162-3.127,0.371-7.261-0.567-10.654
		C282.839,26.268,280.286,26.75,278.192,26.811z M272.412,32.591c0.063,0,0.129-0.092,0-0.113c-5.89,0.235-13.672-0.39-19.835-0.227
		c-0.302-0.039-0.397-0.283-0.681-0.34c-1.749,0.57-3.462-0.302-5.214-0.113c-2.156,0.232-4.108-0.016-6.347,0.113
		c-3.233,0.186-6.461-0.266-9.635-0.227c-1.564,0.02-4.219-0.147-6.12,0c-0.507,0.04-0.881,0.435-1.36,0.454
		c-3.843,0.148-7.567-0.074-10.769-0.34c-0.827-0.069-1.613,0.342-2.493,0.34c-4.89-0.015-9.513-0.129-14.395,0.34
		c0.062,0.595-0.446,1.083-0.113,1.587c11.856-0.624,22.98-0.345,34.229-0.907c0.396,0.172,0.659,0.475,1.36,0.34
		c1.425,1.268,0.224,4.373,0.681,6.574c1.216,0.038,2.057-0.096,3.514,0c0.427-2.191,3.172-2.914,4.987-4.081
		c2.367,2.091,4.076,4.84,6.347,7.027c-0.079-2.67-0.202-5.364-0.34-8.387c0.566-1.232,1.846-0.811,3.061-0.34
		c3.197,1.24,6.133,3.324,7.48,5.667c0.803,2.574,2.558,5.886,1.7,9.634c-0.361,1.579-1.204,3.695-2.267,5.101
		c-0.438,0.579-1.569,1.665-2.153,2.04c-1.664,1.07-4.948,2.624-6.121,1.247c-0.058,5.348,1.033,9.976,0.794,15.642
		c1.046-0.976,1.5-2.208,1.133-4.081c0.302-0.265,0.427-0.707,0.907-0.793c0.476,0.166,0.858,0.426,1.02,0.907
		c0.019,1.854,1.76,3.585,3.174,4.761c0.841-3.051,1.771-6.012,2.947-8.728c-0.667-0.789-0.121-2.472,0.793-2.494
		c1.39-0.033,1.713,2.347,0,2.607c-1.08,2.657-1.896,5.477-2.833,8.501c1.008,0.998-0.057,2.874-1.36,2.267
		c-0.455-1.985-2.134-3.363-3.4-4.874c-1.242,0.685-0.972,2.882-2.38,3.4c0.157,2.74-0.117,5.937,0.34,8.387
		c0.453,0,0.906,0,1.359,0c-0.004-0.685,0.016-1.345,0.681-1.36c0.666,0.314,0.372,1.021,0.453,1.474
		c1.299,0.142,2.484-0.165,3.627,0c-0.091-0.399-0.597-0.386-0.566-0.907c0.29-0.146,0.713-0.564,1.134-0.227
		c0.477,0.463-0.634,0.922-0.113,1.021c1.162,0.454,3.607-0.694,4.533,0.567c-0.71,0.785-2.238,0.875-3.287,0.906
		c-2.636,0.08-5.398-0.387-7.594,0c0.025,1.696,0.073,2.773,0.453,4.193c8.812-0.99,15.65-0.506,24.029-0.68
		c2.27-1.218,6.233-0.166,8.841-1.02c-0.042-4.485-0.198-8.35-0.227-12.582c-0.024-3.592,0.47-7.423,0.34-11.108
		c-0.084-2.393-0.649-4.745-0.453-7.027c0.28-3.247-0.058-6.806-0.227-9.974c-0.25-4.681,0.861-9.085,0.34-13.715
		C279.022,32.876,275.83,32.932,272.412,32.591z M250.083,57.301c5.089-1.451,8.181-6.446,7.367-12.695
		c-1.063-4.518-4.543-8.303-9.86-9.294c-0.024-0.137-0.126-0.07-0.227,0c-0.354,2.126-0.01,5.305,0.34,7.594
		c-0.178,0.276-0.277,0.629-0.566,0.793c-0.145,0.552,0.659,0.531,0.34,0.907c-0.637,1.349-1.087-0.019-1.474-0.566
		c-0.86-1.219-2.908-3.017-3.514-3.967c0.01-0.179,0.289-0.089,0.227-0.34c-1.287,0.122-1.404-2.001-2.607-2.154
		c-1.089-0.138-2.453,1.328-3.286,2.04c1.881-0.59,3.175-0.316,4.42,1.021c0.104,1.825,0.21,4.608,0.34,6.347
		c1.643,0.563,6.021-1.503,6.461,0.793c0.139,0.723-0.563,1.286-0.68,1.927c-0.418,2.303,0.967,5.211,0.453,7.708
		C248.562,57.415,249.117,57.506,250.083,57.301z M217.78,35.878c-3.944-0.047-8.901-0.027-13.148,0.34
		c-2.497,0.216-4.894,0.001-7.367,0.114c-1.164,0.052-2.328,0.406-3.514,0.453c-1.968,0.079-3.816-0.018-5.668,0
		c-4.525,0.044-9.465-0.94-13.601,0.567c-0.737,1.009-0.388,2.128-0.454,3.287c-0.629,11.035-0.213,26.281,0.227,38.991
		c0.393,11.337,0.133,22.704,0.794,34.343c1.995,0.385,3.903-0.254,5.554,0.341c0.745-8.356-0.119-14.965,0.453-24.143
		c0.443-7.104,0.622-15.05,0.341-22.556c-0.159-4.25-0.958-8.228-1.021-13.148c-0.024-1.957-0.251-3.764-0.227-6.234
		c0.018-1.791,0.037-4.923,0.68-5.667c0.705-0.816,4.21-0.703,6.121-0.793c6.581-0.313,12.664-0.396,18.475-0.454
		c9.748-0.096,15.035-0.405,23.236-0.907c0.377-1.225,0.89-2.738,0.566-4.307C226.197,35.807,221.85,35.927,217.78,35.878z
		 M225.487,47.1c0.868-0.063,1.273,0.014,2.267,0c1.24-1.518,2.673-2.844,3.741-4.534C227.674,42.259,226.958,45.057,225.487,47.1z
		 M221.974,47.213c3.914,0.325,4.472-2.707,6.348-4.42C224.509,42.569,223.745,45.396,221.974,47.213z M221.747,43.132
		c-0.917,1.388-2.361,2.248-2.834,4.081c3.629,0.481,4.261-2.579,6.234-4.081C223.79,43.223,223.291,43.066,221.747,43.132z
		 M206.672,47.893c3.84,0.371,5.505-2.331,7.254-4.42C209.931,42.752,208.044,45.741,206.672,47.893z M217.894,43.812
		c-1.062,0.962-2.314,2.266-2.721,3.514c0.689-0.19,1.564,0.085,2.721,0c1.109-1.27,2.265-2.496,3.174-3.967
		c-2.569,0.195-4.236,0.108-6.914,0.113c-0.865,1.478-2.209,2.476-3.061,3.967c1.218-0.146,2.256-0.187,3.287-0.114
		C215.114,46.21,216.618,44.378,217.894,43.812z M203.158,47.893c0.813,0.018,1.73-0.067,2.38,0.113
		c1.454-1.493,3.023-2.871,4.421-4.42C206.021,42.82,204.794,45.735,203.158,47.893z M188.083,51.067
		c-0.477-2.03,1.061-2.685,2.721-2.494c1.604-1.532,3.08-3.192,5.101-4.307c-2.002-0.365-4.511,0.175-7.027,0
		c-1.406,1.09-2.787,2.801-4.08,3.627c0.973-1.407,2.55-2.21,3.514-3.627c-0.979-0.071-1.617,0.196-2.607,0.113
		c-1.222,1.583-3.613,2.652-3.061,5.327c0.79,0.012,1.291-1.785,2.268-1.587c-1.348,1.212-2.382,2.43-2.154,4.987
		c1.648-1.21,3.053-2.825,4.534-4.307c1.483-1.483,2.812-3.256,4.534-4.194c-3.134,3.025-6.126,6.191-9.068,9.408
		c0.335,0.497-0.183,1.845,0.341,2.154C184.563,54.271,186.398,52.745,188.083,51.067z M187.63,51.86
		c-1.748,1.596-5.541,4.578-4.307,6.8c1.469-2.465,4.734-3.593,4.76-7.141C187.622,51.379,187.749,51.751,187.63,51.86z
		 M199.078,48.12c1.036-0.104,1.849-0.226,3.061-0.113c1.445-1.35,2.765-2.826,4.08-4.307c-3.491,0.539-7.55-0.599-10.201,0.567
		c-1.956,0.86-3.147,2.714-4.307,4.307c3.789,0.389,4.563-2.841,6.8-3.627c-1.052,1.063-2.414,1.817-3.06,3.287
		c3.504,0.627,4.25-2.567,6.347-3.287C200.916,45.958,199.314,46.839,199.078,48.12z M236.255,46.986
		c1.183,0.036,1.38,0.087,2.721,0.113c-0.092-0.94,0.195-2.749-0.227-3.514C237.874,44.676,237.096,45.862,236.255,46.986z
		 M183.097,44.719c-0.441,0.566-0.39,1.174-0.341,2.041c1.026-0.485,1.637-1.386,2.268-2.267
		C184.439,44.354,183.875,44.731,183.097,44.719z M240.562,49.593c-2.389,0.014-5.161-0.428-7.368-0.34
		c-11.602,0.46-24.417,0.506-35.363,1.7c-2.231-0.566-5.281-0.037-7.141,0.566c0.124,2.237-0.678,5.095-0.113,8.161
		c0.527,2.865,0.484,5.882,0.68,8.614c0.157,2.185-0.367,4.367-0.227,6.46c0.058,0.854,0.423,1.67,0.453,2.494
		c0.073,1.939-0.093,3.897,0,5.894c0.278,5.968-0.049,11.923,0.228,17.795c0.454,9.675-0.45,19.013-0.567,29.13
		c11.332,0.662,25.208-0.367,36.838-1.246c7.055-0.534,14.521,0.231,20.855-1.928c-0.303-3.082-0.449-5.77-0.794-8.954
		c-0.344-3.177-1.166-6.55-1.134-9.521c0.006-0.493-0.035-0.777,0.341-1.248c-1.856-1.09-3.04-2.854-5.327-3.514
		c-1.179,1.252-3.12,5.155-4.647,2.041c-1.879-5.336-4.191-11.189-6.461-16.549c-0.654-1.545-2.195-3.832-2.153-5.554
		c0.033-1.353,1-2.825,2.153-2.833c1.079-0.008,3.007,1.545,4.081,2.152c1.534,0.87,2.627,1.744,3.74,2.494
		c2.729,1.841,5.693,2.561,8.16,4.307c0.381-1.562-0.098-3.098-0.227-4.646c-0.432-5.18,0.058-10.88-0.34-16.095
		c-0.247-3.249-0.816-6.435-1.02-9.634c-0.207-3.25,0.246-6.58-0.907-9.634C243.134,49.21,241.929,49.585,240.562,49.593z
		 M183.323,61.268c1.863-2.128,4.98-3.264,4.646-7.254c-0.113,0-0.227,0-0.34,0C186.403,56.577,182.975,57.504,183.323,61.268z
		 M183.663,67.615c1.678-1.761,3.093-3.783,4.874-5.441c-0.54-0.556-0.013-2.179-0.907-2.38
		C186.386,62.485,183.063,63.425,183.663,67.615z M187.97,59.341c-0.188-0.731-0.298-1.335-0.113-2.153
		c-1.053,0.434-1.875,2.076-2.833,3.287c-0.869,1.097-2.228,1.733-1.587,3.854C185.107,62.825,186.353,60.897,187.97,59.341z
		 M183.663,70.449c1.023-0.981,4.353-2.934,4.761-4.42c0.268-0.977,0.037-2.535-0.113-3.287
		C186.572,65.072,183.481,66.913,183.663,70.449z M183.776,74.869c0.042,1.4,0.139,2.119,0,3.174
		c1.941-2.704,5.562-4.642,4.987-8.841C186.706,70.695,185.612,73.153,183.776,74.869z M188.65,68.862
		c-0.079-0.771-0.204-1.51-0.227-2.04c-1.455,1.039-2.979,2.991-4.647,4.194c-0.028,0.995-0.156,2.232,0.113,3.06
		C185.459,72.774,186.887,70.348,188.65,68.862z M184.229,82.463c-0.841,0.52-0.68,2.041-0.68,3.4
		c1.924-1.514,3.268-3.609,5.214-5.1c0.025-0.863,0.15-2.157,0-3.174c-1.684,1.301-2.799,3.775-4.534,4.646
		c1.357-1.854,3.006-3.417,4.534-5.1c-0.119-1.368-0.049-3.353-0.113-4.648c-1.864,3.229-5.659,5.47-4.987,9.634
		C183.797,82.291,184.091,82.3,184.229,82.463z M183.437,89.264c0.886-0.6,1.675-1.531,2.72-2.493
		c1.636-1.505,3.442-2.304,2.721-5.554C186.622,83.53,183.23,85.146,183.437,89.264z M239.089,103.432
		c1.266-0.627,3.14-3.43,4.874-2.266c1.834,1.229,4.005,3.713,6.12,4.42c0.285,0.697,0.608,1.356,1.247,1.7
		c1.019-0.796,2.076-1.551,3.061-2.38c-1.317-0.767-3.466-3.174-5.214-4.647c-0.597-0.503-1.414-0.458-2.04-0.794
		c-1.213-0.648-0.004-2.351,0-3.4c0.775-0.697,1.875-1.071,2.38-2.04c-1.14-0.599-2.302-1.175-3.287-1.927
		c-5.39-2.318-9.919-5.496-14.962-8.16C233.929,90.381,236.529,96.887,239.089,103.432z M183.097,96.291
		c2.3-1.402,3.971-3.434,5.894-5.213c-0.023-2.596-0.123-3.959,0-6.234c-1.18,1.413-5.114,3.373-5.667,5.327
		c-0.307,1.082,0.22,2.146-0.113,3.174c1.925-1.513,3.363-3.513,5.214-5.101C186.854,91.141,183.215,92.287,183.097,96.291z
		 M188.764,91.645c-1.721,1.943-3.743,3.586-5.554,5.44c0.076,1.347-0.314,2.465-0.113,3.514c2.14-1.79,3.801-4.058,5.894-5.894
		C188.899,93.709,189.262,92.439,188.764,91.645z M183.097,101.506c0.094,0.793,0.122,1.225,0.113,2.267
		c2.354-1.726,4.036-4.124,5.894-6.348c-0.33-0.833,0.308-1.964-0.227-2.493C187.065,97.238,184.901,99.193,183.097,101.506z
		 M275.133,105.812c0.047-2.012-1.687-3.725-3.174-5.101c-0.598-0.553-1.832-1.479-2.493-1.813c-1.599-0.809-2.86-1.826-4.308-2.381
		c-1.688-0.646-3.419-0.488-5.101-1.133c-2.246,0.056-5.818-0.909-7.934,0.113c-0.341,0-0.681,0-1.021,0
		c-0.574,0.521-1.066,1.125-1.474,1.813c2.261,2.085,4.661,4.028,6.801,6.233c0.689-2.224,2.433-4.072,4.761-3.967
		c1.669,0.964,2.972,4.398,1.587,6.348c-0.363,0.511-1.838,1.371-2.268,1.246c-1.299-0.373-3.023-1.416-3.854-2.492
		c-0.869,2.529-3.229,3.571-4.533,5.666c-0.644-0.213-1.343,0.316-2.268,0c0.559,5.1,0.926,11.145,1.36,16.096
		c0.11,1.258,0.997,2.836-0.453,3.627c-2.22-0.426-5.501,0.709-8.048,0.68c4.195,4.322,12.073,7.068,19.608,5.328
		c2.601-0.602,4.546-1.824,6.801-2.947c3.737-1.862,6.563-5.348,7.708-9.408c-1.845-1.55-4.383-1.702-6.801-2.606
		c-2.522-0.944-5.281-2.384-8.274-2.606c-0.206-0.323-0.662-0.396-0.907-0.681c-0.05-0.746-0.597-1.2-0.34-1.927
		C264.982,112.135,270.697,109.613,275.133,105.812z M186.043,101.619c-0.616,0.752-2.641,2.079-2.946,3.174
		c-0.3,1.07,0.383,2.166,0,3.287c2.174-1.793,4.23-3.705,6.007-5.895c0.052-1.111-0.045-2.623-0.113-3.967
		C187.786,99.103,187.235,100.161,186.043,101.619z M188.877,102.752c-1.773,2.459-4.304,4.16-6.007,6.688c0,0.718,0,1.436,0,2.154
		c2.2-1.202,3.688-4.094,6.233-5.328c0.276-1.045-0.014-2.604,0.113-3.514C189.104,102.752,188.99,102.752,188.877,102.752z
		 M188.99,106.605c-1.121,0.545-2.06,1.635-3.174,2.834c-1.365,1.469-3.396,2.639-2.946,5.441c2.183-1.408,4.185-3.976,6.347-5.781
		c-0.029-0.934,0.241-1.656,0-2.494C189.142,106.605,189.065,106.605,188.99,106.605z M185.816,112.727
		c-1.532,1.639-3.351,2.727-2.72,5.327c0.825-0.644,1.937-1.427,3.06-2.38c1.013-0.859,2.855-2.387,3.174-3.287
		c0.243-0.688,0.143-2.223-0.34-2.947C188.194,110.484,187.058,111.4,185.816,112.727z M185.137,116.807
		c-1.037,0.911-2.606,2.188-2.04,3.854c2.726,0.665,3.49-2.132,5.44-2.946c-0.909,1.169-2.119,2.036-3.061,3.173
		c1.396-0.098,2.553,0.012,3.514-0.113c0.188-3.01,0.124-4.998,0.34-7.594C188.37,113.805,186.562,115.555,185.137,116.807z"/>
	<path fill-rule="evenodd" clip-rule="evenodd" fill="#001E39" d="M279.439,36.332c-0.2,0.637,0.374,0.904,0.113,1.247
		c-5.804,0.292-10.198,0.28-16.095-0.227c-0.124-0.603-0.196-1.332,0.227-1.7c4.761,0.185,10.492,0.834,14.962,0.227
		C278.744,36.196,279.236,36.12,279.439,36.332z"/>
	<path fill-rule="evenodd" clip-rule="evenodd" fill="#001E39" d="M278.873,69.315c-0.497,0.791-1.698,0.633-2.721,0.68
		c-1.026,0.047-2.233-0.066-3.4,0c-2.295,0.13-4.648,0.859-6.573,0.453c-0.456-0.096-0.921-0.156-1.021-0.793
		c0.882-0.802,2.3-0.228,3.627-0.227c1.269,0.001,2.801-0.305,4.194-0.34c1.827-0.045,3.627,0.078,4.533-0.34
		C278.242,68.662,278.522,69.024,278.873,69.315z"/>
	<path fill-rule="evenodd" clip-rule="evenodd" fill="#001E39" d="M101.147,107.513c-1.093,0.192-1.938,0.63-2.947,0.907
		c-0.314,2.725,1.229,6.425-0.34,8.5c2.327,4.172,4.735,8.263,6.914,12.582c-0.447,1.252-1.067,2.332-1.813,3.287
		c-2.524,0.913-5.235,1.641-7.48,2.834c-2.542,0.234-5.113,1.422-8.048,1.699c-3.332,0.316-7.116,0.084-10.428-0.227
		c-1.671-0.156-3.893-0.607-5.554-1.246c-2.527-0.975-4.932-1.785-6.007-3.854c0.832-2.101,1.434-3.772,2.267-5.78
		c-11.285-0.788-23.287-0.459-34.117-1.36c-0.598-0.05-1.337-0.129-1.927-0.113c-1.356,0.036-4.158,1.078-4.08-1.36
		c0.021-0.672,0.794-0.944,0.906-1.7c-0.9-1.587-0.301-3.023-0.453-4.874c-0.122-1.482-0.059-3.215-0.113-4.986
		c-0.074-2.416-0.581-4.834-0.566-7.254c0.018-3.025,0.43-5.895,0.113-8.842c-0.173-1.605-0.65-3.217-0.681-4.873
		c-0.079-4.42-0.555-8.516-1.133-13.148c-0.244-1.953-1.008-3.812-1.247-5.781c-0.271-2.237-0.21-4.593-0.453-6.914
		c-0.265-2.518-0.373-5.09-0.567-7.594c-0.273-3.542-0.04-7.465-0.68-10.995c0.089-0.44,0.317-0.74,0.566-1.02
		c-0.504-0.872-0.633-2.01,0-2.833c0.718-0.557,1.377,0.121,2.04,0.227c4.292,0.686,9.436-0.159,14.396-0.227
		c10.252-0.139,20.728,0.835,30.263,1.247c0.838-1.311,0.395-2.781,0.566-4.307c0.834-7.356,4.853-15.547,8.161-21.422
		c1.358-2.411,3.43-3.789,4.987-5.894c1.852-0.924,3.792-0.279,5.327,0.907c1.479,1.142,3.407,3.238,4.308,4.76
		c1.918,3.243,3.414,7.706,4.646,11.788c0.438,1.448,1.122,2.739,1.36,3.967c0.242,1.244,0.152,2.669,1.134,3.173
		c0.505,4.848,0.402,9.51,0.68,14.395c0.111,1.952-0.07,3.868,0.113,5.78c0.182,1.889,0.365,3.71,0.454,5.667
		c0.188,4.178,0.238,9.331,0.566,13.375c1.296,1.486,1.611,3.515,2.38,5.328c0.351,0.826,0.987,1.543,1.36,2.381
		c1.742,3.91,2.63,8.275,4.308,12.354c1.009,4.646,2.141,8.923,2.72,14.281c0.677,6.26,1.266,12.637,0.567,19.156
		c-0.672,0.982-2.325,1.146-3.061,0.113c0.436-1.155-0.648-1.697-0.794-2.494c-0.063-0.352,0.179-0.811,0.113-1.246
		c-0.088-0.594-0.44-0.959-0.68-1.588c-0.904-2.373-1.405-5.611-2.267-8.16C105.755,112.658,103.809,109.412,101.147,107.513z
		 M85.846,14.796c-2.534,1.168-3.812,3.592-5.214,5.894c1.514,1.283,3.945,3.055,6.574,2.833c1.747-0.147,3.199-1.387,4.534-2.04
		C90.351,18.679,88.729,16.106,85.846,14.796z M86.187,33.158c0.509,0.056,0.849-0.058,1.246-0.113
		c1.586-2.948,4.272-4.795,5.895-7.708C90.063,26.609,88.346,30.405,86.187,33.158z M77.572,27.264
		c0.329-0.539,1.156-0.581,1.359-1.247c-0.53,0.114-0.376-0.455-0.906-0.34C77.842,26.102,77.281,26.743,77.572,27.264z
		 M88.34,32.818c0.233-0.22,0.591-0.316,0.906-0.454c0.744-0.897,1.553-2.099,2.381-3.174c0.716-0.929,2.365-1.961,1.7-3.173
		C91.713,28.504,89.484,30.358,88.34,32.818z M76.438,29.418c1.149-1.004,2.575-1.732,3.4-3.061
		C78.482,27.154,76.983,27.809,76.438,29.418z M75.759,31.345c1.819-1.619,4.063-2.812,5.554-4.76
		C78.956,27.219,77.396,29.615,75.759,31.345z M81.766,26.924c-2.092,2.507-6.177,4.212-7.254,7.48
		c3.036-2.102,5.543-4.733,8.048-7.367C82.413,26.881,82.066,26.925,81.766,26.924z M90.72,31.685
		c1.651-0.731,4.235-2.555,3.174-4.534C92.746,28.573,91.543,29.939,90.72,31.685z M82.899,27.491
		c-1.515,0.908-3.068,3.526-4.421,4.421c0.413-0.035,0.737,0.018,1.021,0.113c1.363-1.735,3.519-2.677,4.76-4.534
		C83.769,27.256,83.272,27.267,82.899,27.491z M84.6,33.045c0.271,0.245,0.809,0.35,1.133,0.227c0.083-0.347-0.195-0.333-0.113-0.68
		c1.558-1.502,2.839-3.282,4.081-5.101C87.138,28.029,85.861,30.829,84.6,33.045z M80.179,32.251
		c0.386,0.143,0.901,0.157,1.247,0.34c1.341-1.946,3.534-3.04,4.761-5.101C83.313,28.207,82.026,30.51,80.179,32.251z
		 M82.332,32.932c0.483,0.008,0.793,0.189,1.36,0.113c1.006-2.13,2.883-3.389,3.967-5.44C85.239,28.736,83.672,30.719,82.332,32.932
		z M93.101,31.118c0.15,0.113,0.342,0.187,0.453,0.34c0.802-0.359,2.045-1.882,0.793-2.607
		C94.051,29.726,93.282,30.129,93.101,31.118z M93.894,33.158c0.614-0.464,2.16-1.694,1.021-2.494
		C94.503,31.475,93.433,32.143,93.894,33.158z M94.46,35.085c0.777-0.624,1.861-1.488,1.247-2.833
		C94.811,32.765,93.979,33.854,94.46,35.085z M73.831,37.125c1.169-0.872,2.192-1.889,2.834-3.287
		C75.371,34.584,74.159,35.413,73.831,37.125z M94.914,36.785c0.747-0.311,1.015-1.101,1.587-1.587
		c-0.191-0.414-0.058-1.152-0.454-1.36C95.501,34.659,94.419,35.607,94.914,36.785z M91.173,34.292
		c-2.812,1.461-6.744,1.94-10.314,0.907c-0.512,0.827,0.5,2.801-0.566,3.4c-1.08-0.794,0.143-2.801-0.34-3.627
		c-1.159-0.251-1.16,1.635-1.247,2.833c2.646,2.793,10.317,2.623,13.715,0.68C92.306,37.239,92.138,35.066,91.173,34.292z
		 M73.491,39.279c1.044-1.076,3.138-2.298,2.721-4.081C75.467,36.72,73.995,37.515,73.491,39.279z M95.027,38.939
		c0.568-0.641,1.155-1.263,1.7-1.927c-0.135-0.61,0.223-1.028-0.34-1.134C95.919,36.809,94.799,37.689,95.027,38.939z
		 M73.378,41.659c1.156-0.733,1.772-2.006,2.834-2.833c-0.073-0.494,0.147-1.281-0.113-1.587
		C75.208,38.729,73.402,39.303,73.378,41.659z M96.728,37.918c-1.979,1.658-3.553,4.007-5.214,6.234
		c-0.445,0.596-1.243,0.874-1.7,1.36c-0.564,0.6-0.856,1.512-1.36,2.154c-1.775,2.261-4.65,3.926-4.874,7.027
		c3.874-4.607,8.207-9.14,11.901-13.941c0.605-0.787,1.558-1.622,1.474-2.834C96.878,37.918,96.803,37.918,96.728,37.918z
		 M95.141,41.999c0.902-0.646,1.533-1.564,2.153-2.494c-0.025-0.088-0.095-0.132-0.227-0.113
		C96.288,40.125,95.683,41.03,95.141,41.999z M76.212,39.505c-1.039,1.246-2.851,2.264-2.834,4.194
		c1.492-0.926,2.402-2.434,3.627-3.627C76.642,39.983,76.51,39.661,76.212,39.505z M97.181,40.639
		c-3.41,3.919-6.46,8.199-9.635,12.354c-1.742,1.431-2.878,3.469-3.854,5.667c1.377-1.165,2.372-2.8,3.514-4.307
		c2.326-3.069,4.88-5.922,7.141-8.955c1.132-1.517,2.564-2.889,3.174-4.647C97.376,40.746,97.363,40.607,97.181,40.639z
		 M90.153,43.019c-1.396,1.557-3.296,4.191-4.647,5.894c-0.991,1.249-2.21,1.707-1.927,3.514c3.081-3.946,7.049-7.61,9.635-11.674
		C92.025,41.326,91.008,42.065,90.153,43.019z M74.625,43.812c1.206-0.683,2.095-1.683,2.833-2.833
		C76.166,41.129,75.259,42.628,74.625,43.812z M75.985,43.699c1.701,0.255,2.16-1.379,3.174-2.153
		C77.607,40.93,76.697,42.739,75.985,43.699z M78.139,43.699c1.333-0.065,1.703-1.092,2.267-1.927
		C79.105,41.479,78.68,42.874,78.139,43.699z M91.286,49.707c-1.717,2.374-3.588,4.363-5.213,6.801
		c-0.841,1.26-2.167,2.492-2.381,4.194c4.846-5.771,9.566-11.667,14.168-17.682c-0.196-0.377,0.058-0.502,0-1.02
		c-0.145-0.006-0.156-0.145-0.34-0.113C95.467,44.517,93.752,47.487,91.286,49.707z M89.133,42.112
		c-2.242,1.875-3.574,4.662-5.554,6.801c0.071,0.345-0.145,0.977,0.113,1.133c2.148-2.612,4.77-5.355,6.461-8.047
		C89.816,42.227,89.522,42.161,89.133,42.112z M80.179,43.359c0.573-0.296,1.262-0.477,1.36-1.247
		C80.579,42.021,80.416,42.727,80.179,43.359z M82.445,43.586c0.351-0.368,0.853-0.583,1.021-1.133
		C82.332,41.583,80.907,43.392,82.445,43.586z M83.466,47.893c1.592-1.32,3.049-3.75,4.534-5.554
		c-0.025-0.088-0.095-0.132-0.228-0.113C86.353,44.13,84.263,45.365,83.466,47.893z M93.101,44.719
		c0.551-0.81,1.603-1.721,1.813-2.493C94.229,42.901,93.1,43.735,93.101,44.719z M83.126,43.926c0.109,0.306,0.184,0.647,0.34,0.906
		c0.406-0.826,1.921-1.674,1.587-2.493C84.312,42.498,83.499,43.079,83.126,43.926z M83.353,46.08
		c1.281-0.574,2.355-2.326,3.287-3.627C85.059,42.748,84.135,44.614,83.353,46.08z M90.153,53.333
		c-1.83,3.271-4.963,5.238-6.348,8.955c5.336-5.102,9.329-11.591,14.055-17.002c-0.188-0.612,0.265-1.166-0.227-1.474
		C95.344,47.189,92.853,50.366,90.153,53.333z M43.115,45.399c-5.167-0.009-10.361,0.297-14.962-0.227
		c-0.671,0.388-1.702,0.007-2.721,0.34c0.408,3.82,0.127,7.924,0.681,12.128c0.566,4.301,0.351,8.824,0.906,13.375
		c0.259,2.113,0.976,4.175,1.247,6.348c0.359,2.871,0.938,5.876,1.134,8.613c0.46,6.418,0.858,12.627,0.566,18.93
		c-0.067,1.465,0.442,2.865,0.453,4.307c0.034,4.549-0.436,9.179,1.021,13.488c7.722,0.35,15.795,0.596,23.803,0.68
		c2.668,0.027,5.293-0.195,7.82-0.113c1.627,0.053,3.638,0.928,4.761,0c0.524,0.077,1.154,0.537,1.474,0.453
		c3.852-7.596,7.437-15.459,9.634-24.709c-0.718-1.996-0.941-4.772-1.246-6.574c-1.71-1.152-1.562-3.485-1.927-6.007
		c0.387-0.218,0.32-0.888,0.793-1.021c2.146,0.562,4.717,0.695,7.141,0.68c-0.262-5.082-0.876-10.1-1.36-14.734
		c-0.826-7.911-0.985-16.071-1.246-24.936C70.066,47.354,55.751,45.422,43.115,45.399z M88.34,50.046
		c-1.834,2.453-4.291,4.042-4.761,6.688c1.995-2.213,3.754-4.823,5.667-7.141c1.129-1.367,2.59-2.482,3.061-4.194
		C91.105,46.516,89.679,48.256,88.34,50.046z M97.521,46.533c-0.795,1.134-2.426,2.307-3.061,3.967
		c-0.865,0.834-1.762,1.638-2.267,2.833c-2.292,2.501-4.355,5.38-6.461,7.935c-0.688,0.834-1.984,1.6-1.7,2.947
		c3.036-3.217,5.784-6.689,8.501-10.201c1.89-2.442,3.945-4.757,5.44-7.481c-0.023-0.127-0.125-0.176-0.227-0.227
		C97.746,46.456,97.549,46.41,97.521,46.533z M92.08,55.147c-2.006,2.395-3.69,4.863-5.667,7.141
		c-0.903,1.041-2.375,2.489-2.154,3.854c3.701-3.537,7.085-7.819,10.201-12.241c1.315-1.866,3.423-3.196,3.4-5.781
		c-0.024-0.088-0.095-0.132-0.227-0.113C95.815,50.502,94.009,52.845,92.08,55.147z M97.634,50.954
		c-1.138,0.94-2.066,2.089-2.72,3.514c-1.737,1.965-3.392,4.013-4.874,6.234c-1.814,2.379-4.396,3.992-5.668,6.914
		c1.458-0.693,2.464-2.197,3.628-3.514c2.363-2.673,4.55-4.973,6.801-7.934c0.978-1.287,3.558-3.517,3.06-5.214
		C97.785,50.954,97.71,50.954,97.634,50.954z M90.267,62.401c-1.895,2.249-4.289,4.089-5.667,6.801
		c1.312-0.62,2.068-2.031,3.06-3.061c3.52-3.653,6.972-7.764,10.314-11.334c-0.215-0.634,0.457-1.452-0.113-1.7
		C95.306,56.219,92.83,59.358,90.267,62.401z M87.433,67.048c-1.042,1.123-2.334,2.391-2.72,3.967
		c4.808-4.373,8.831-9.531,13.487-14.055c-0.221-0.383,0.024-1.233-0.453-1.36C94.458,59.585,90.867,63.347,87.433,67.048z
		 M98.087,57.754c-1.945,1.63-3.593,3.756-5.44,5.894c-1.953,2.261-4.393,4.107-6.233,6.121c-0.692,0.757-1.233,1.763-1.474,2.834
		c4.103-3.648,7.657-8.338,11.448-12.128c0.753-0.753,1.958-1.489,1.927-2.72C98.238,57.754,98.163,57.754,98.087,57.754z
		 M98.2,59.341c-2.363,2.094-4.305,4.611-6.46,6.914c-1.988,1.413-3.079,3.722-4.987,5.214c-0.367,1.144-1.779,1.244-1.7,2.834
		c3.341-3.4,7.053-7.098,10.314-10.768c1.083-1.218,2.78-2.286,3.061-4.081C98.402,59.366,98.333,59.323,98.2,59.341z
		 M85.279,75.209c2.948-2.656,6.255-5.372,9.181-8.501c1.164-1.244,3.923-3.904,4.081-5.554
		C93.87,65.589,89.377,70.202,85.279,75.209z M95.594,66.255c0.925-1.229,2.471-1.836,3.061-3.4
		C97.601,63.879,96.064,65.025,95.594,66.255z M98.768,64.102c-0.146-0.006-0.157-0.146-0.34-0.113
		c-4.229,4.31-9.07,8.612-12.354,13.488C90.32,73.034,94.363,68.387,98.768,64.102z M98.541,65.008
		c-4.371,4.734-9.207,9.003-13.035,14.281c2.857-2.217,5.042-5.486,7.708-8.047c1.98-1.903,4.363-3.591,5.554-6.121
		C98.742,65.033,98.673,64.99,98.541,65.008z M87.772,77.816c-1.012,1.029-2.588,2.203-1.927,3.4
		c3.974-4.414,7.979-8.797,12.128-13.035c0.251-0.165,0.755-0.077,0.907-0.34c-0.005-0.524,0.063-1.121-0.227-1.36
		C94.858,70.123,91.432,74.094,87.772,77.816z M86.073,81.896c1.533-0.431,1.803-2.125,2.946-2.947c0.265,0,0.529,0,0.794,0
		c1.996-2.244,3.803-4.519,6.12-6.574c1.276-1.131,3.507-2.687,2.721-4.08C94.307,72.675,89.919,77.016,86.073,81.896z
		 M91.173,78.496c0.924,0.135,1.379-0.951,2.041-1.586c1.404-1.35,2.51-2.54,3.967-3.968c0.791-0.775,2.729-2.128,1.474-2.947
		C96.641,73.234,92.7,75.148,91.173,78.496z M85.279,77.023c1.53-1.194,3.57-3.456,4.534-5.214
		C88.221,73.466,86.067,74.562,85.279,77.023z M96.954,73.509c-1.236,2.204-4.011,3.467-4.761,5.78
		c1.396-0.631,2.463-2.102,3.627-3.287c1.165-1.185,2.72-2.339,3.287-3.967c-0.024-0.127-0.126-0.176-0.227-0.227
		C98.312,72.449,97.723,73.069,96.954,73.509z M92.76,80.196c1.453-0.894,3.032-2.153,4.421-3.514
		c1.006-0.984,2.296-1.768,2.04-3.173C96.685,75.355,94.671,77.725,92.76,80.196z M98.994,75.436
		c-1.352,1.296-2.562,2.582-3.967,3.74c-0.705,0.582-1.995,1.279-1.813,2.381c1.718-0.745,2.958-3.09,4.76-4.307
		c0.648-0.438,1.6-0.693,1.247-1.701C99.196,75.461,99.126,75.417,98.994,75.436z M99.107,76.91
		c-1.997,1.707-4.569,3.438-5.44,5.893c1.56-1.812,5.232-3.701,5.78-5.893C99.334,76.91,99.221,76.91,99.107,76.91z M99.447,78.949
		c-0.05-0.214,0.154-0.683-0.227-0.566c-1.693,1.82-3.91,3.117-5.214,5.328C96.072,82.375,97.776,80.68,99.447,78.949z
		 M94.347,84.844c1.728-0.957,3.355-2.99,5.214-4.193c0-0.34,0-0.681,0-1.021C97.669,81.143,95.521,82.988,94.347,84.844z
		 M89.813,86.431c1.172-0.38,1.435-0.438,2.72-0.114c-0.339-2.04-1.427-3.332-1.813-5.326c-0.113,0-0.227,0-0.34,0
		C90.228,82.28,89.884,84.818,89.813,86.431z M86.073,83.257c0.828-0.165,1.522-1.415,2.38-1.927
		C87.492,80.928,86.571,82.449,86.073,83.257z M94.801,85.977c0.948-0.575,1.696-1.416,2.493-2.152c0.8-0.74,1.972-1.268,2.38-2.381
		C97.714,82.168,95.968,84.082,94.801,85.977z M86.3,85.07c0.631-0.086,0.955-0.48,1.587-0.566c-0.426,0.406-0.699,0.963-1.36,1.133
		c0.079,0.35,0.079,0.219,0,0.566c0.306,0.224,0.99,0.068,1.474,0.113c0.08-1.416,0.256-2.578,0.453-4.307
		C87.486,82.754,86.177,83.597,86.3,85.07z M95.141,87.11c1.508-1.515,3.103-2.942,4.533-4.534
		c-0.023-0.127-0.125-0.176-0.227-0.227C98.04,83.891,95.958,85.356,95.141,87.11z M103.528,96.631
		c0.068,0.639,0.123,1.426,0.113,2.041c-0.045,2.637,0.188,5.246,0.227,7.48c2.255,2.203,3.633,5.283,5.101,8.274
		c0.515,3.19,1.729,6.656,2.946,9.521c-0.255-15.709-3.705-29.793-9.294-41.371C102.514,87.419,103.046,92.13,103.528,96.631z
		 M95.48,88.244c1.589-1.17,2.901-2.615,4.308-3.967c0.018-0.434-0.006-0.826-0.228-1.021C98.243,84.961,96.207,85.948,95.48,88.244
		z M95.82,89.377c1.401-1.432,3.098-2.569,4.081-4.42C98.287,86.178,96.799,87.521,95.82,89.377z M99.561,86.203
		c-1.105,1.502-2.868,2.346-3.514,4.308c1.46-1.034,2.322-2.665,3.854-3.627C99.528,86.682,100.203,86.137,99.561,86.203z
		 M96.273,91.645c1.545-0.424,2.415-2.494,3.854-3.4c-0.166-0.25,0.014-0.845-0.34-0.906C98.464,88.621,97.193,89.957,96.273,91.645
		z M78.025,87.904c-0.241,0.723-0.257,1.172-0.113,1.926c2.022,0.25,4.049-0.064,6.007-0.113c2.449-0.059,4.83,0.285,7.141-0.113
		c-0.148-0.352,0.031-0.322,0-0.793C86.622,88.348,82.632,88.083,78.025,87.904z M93.327,88.244c-0.113,0-0.227,0-0.34,0
		c-0.875,1.062,0.275,3.941-1.247,4.42c-0.533,0.042-0.178-0.805-0.907-0.566c-1.772,8.961,2.897,15.729,5.781,22.329
		C96.326,105.576,95.576,96.22,93.327,88.244z M98.881,90.058c-0.775,1.001-2.367,1.925-2.153,2.946
		c1.135-1.434,2.783-2.354,3.4-4.307c-0.025-0.088-0.096-0.132-0.227-0.113C99.438,89.004,99.255,89.574,98.881,90.058z
		 M96.841,94.139c1.024-0.945,2.942-1.967,3.287-3.968C98.805,91.266,97.629,92.508,96.841,94.139z M97.181,95.725
		c0.59-1.529,3.156-2.279,2.834-3.967C99.021,92.897,96.973,94.132,97.181,95.725z M86.073,93.117
		c0.674-0.232,0.796-1.016,1.586-1.133c-0.65-0.018-0.638-0.092-1.359-0.113C86.367,92.43,86.005,92.559,86.073,93.117z
		 M80.632,94.024c0.946,0.036,2.174-0.208,2.268,0.681c-0.139,0.882-1.479,0.562-2.268,0.793c-0.018,0.811-0.018,1.605,0.227,2.154
		c1.042-0.074,1.615,0.153,1.814,1.133c-0.324,0.28-0.681,0.529-1.36,0.453c0.549,1.557-0.742,2.963-0.907,4.534
		c0.586,0.116,0.697,0.001,1.36,0c0.285,0.431,0.841,1.22,0.227,1.587c-0.812-0.043-1.575-0.152-2.04,0
		c-0.534,0.863-0.704,2.092-1.134,3.061c1.51,0.074,3.401,0.148,5.327,0.113c0.197-6.178-0.499-11.229-0.453-16.436
		c-1.171,0-2.342,0-3.514,0C80.496,92.574,80.396,93.467,80.632,94.024z M86.3,95.158c0.727-0.596,1.291-1.354,1.7-2.268
		C87.41,91.921,85.821,93.975,86.3,95.158z M97.294,97.198c0.857-1.263,2.697-2.134,2.834-3.74
		C99.103,94.105,97.362,95.59,97.294,97.198z M86.526,96.972c0.343-0.603,0.83-1.059,1.474-1.36c-0.373,1.266-1.814,1.893-1.7,3.287
		c0.892-0.279,1.222-1.121,2.04-1.474c-0.381-0.941,0.229-2.874-0.34-3.627C87.604,94.818,85.951,95.729,86.526,96.972z
		 M98.2,97.425c0.707-0.767,1.096-1.852,2.268-2.153c-0.129-0.427,0.108-0.516-0.227-0.68C99.609,95.51,98.341,96.393,98.2,97.425z
		 M97.521,99.805c0.967-0.738,3.035-1.948,2.721-3.967C99.177,97.002,97.752,97.807,97.521,99.805z M86.526,101.279
		c0.844-0.26,2.645-1.949,1.587-3.4C87.529,99.039,85.832,99.484,86.526,101.279z M97.634,101.166
		c1.024-0.979,2.312-1.693,2.721-3.287C99.174,98.7,98.26,99.789,97.634,101.166z M97.974,102.639
		c1.042-1.035,2.008-2.148,2.607-3.627C99.423,99.861,98.09,101.124,97.974,102.639z M86.526,102.186
		c0.051,0.689-0.211,1.021,0,1.587c0.771-0.438,0.996-1.423,1.813-1.813c-0.331-0.547-0.091-1.354-0.113-1.7
		C87.598,100.84,87.439,101.89,86.526,102.186z M97.86,104.452c1.275-0.868,3.039-2.708,2.607-4.193
		C99.742,101.755,98.055,102.791,97.86,104.452z M98.428,105.02c-0.231-0.033-0.223-0.307-0.454-0.34
		c0.012,0.57-0.201,0.778,0.113,1.133c1.344-0.494,3.313-2.094,2.381-3.74C99.855,103.123,99.147,104.077,98.428,105.02z
		 M88.34,102.299c-0.644,0.961-1.894,1.861-1.7,3.287C87.479,104.852,89.593,103.711,88.34,102.299z M86.866,107.853
		c1.097-0.339,1.899-1.575,2.834-1.7c-0.656,0.894-1.814,1.283-2.268,2.381c0.87,0.119,2.502,0.198,3.627,0.113
		c0.066-0.443-0.098-0.658-0.227-0.907c-0.518,0.052-0.778,0.956-1.359,0.567c0.104-0.652,0.996-0.516,1.133-1.135
		c-0.472-1.152-1.009-2.24-1.7-3.173C88.146,105.217,86.143,105.835,86.866,107.853z M99.447,105.926
		c0.515-0.09,1.049-0.16,1.474-0.34c0.074-0.591-0.135-1.024,0-1.36c-0.113,0-0.227,0-0.34,0
		C100.442,105.031,99.562,105.096,99.447,105.926z M78.252,109.779c-0.25,0.657-0.649,1.165-0.68,2.041
		c0.741,0.2,3.021-0.455,3.286,0.566c-0.61,1.111-2.486,0.941-3.967,0.906c-0.318,0.777-0.734,1.457-0.906,2.381
		c1.217-0.231,1.542,0.311,2.833,0.227c0.171,0.32,0.459,0.523,0.454,1.02c-1.194,0.43-3.088,0.293-4.081,0.227
		c-0.191,0.867-0.713,1.404-0.793,2.381c0.729,0.207,2.905-0.234,2.606,1.359c-0.893,0.531-2.189-0.029-3.4,0.113
		c-0.338,0.734-1.107,1.596-1.133,2.268c1.477-0.295,4.04,1.256,2.153,1.813c-0.879,0.259-1.813-0.474-2.947-0.453
		c-0.211,0.62-0.529,1.134-0.793,1.7c1.321,0.252,1.906,0.144,3.174,0.227c0.29,0.201,0.327,0.654,0.453,1.02
		c1.99-0.023,3.637-0.259,5.667-0.34c1.865-0.074,3.686-0.916,5.554-1.473c2.141-0.639,4.616-0.426,6.688-1.701
		c-2.835-0.904-1.56-5.92-4.533-6.688c-0.684-1.545-1.336-3.123-2.041-4.646c0.335-0.717-0.163-2.246-0.34-3.174
		C82.301,109.287,80.78,110.577,78.252,109.779z M86.413,109.666c-0.277,2.568,1.306,4.785,2.04,6.801
		c1.795,0.85,2.575,2.715,2.947,4.987c0.962,0.851,1.709,1.918,2.493,2.946c-0.852,1.115-2.309,1.024-3.4,1.248
		c-1.982,0.404-4.074,1.227-6.121,1.699c-1.208,0.28-2.381,0.571-3.514,0.681c-0.986,0.095-2.053-0.121-3.06,0
		c-0.616,0.073-1.209,0.442-1.813,0.453c-0.588,0.011-1.242-0.353-1.927-0.34c-1.528,0.026-2.745,0.255-3.968-0.454
		c-0.268,0.488-0.527,0.984-0.68,1.588c0.943,0.453,2.941-0.146,2.947,1.246c-0.78,0.811-2.418,0.326-3.514,0.227
		c-1.285,1.557,1.893,2.369,3.74,2.834c6.307,1.588,12.645,1.361,18.588,0.113c3.787-0.795,8.318-2.789,10.769-4.193
		c-3.245-6.617-7.363-12.359-10.088-19.496C90.101,109.67,87.652,109.592,86.413,109.666z"/>
</g>
</svg>
