<?xml version="1.0" encoding="utf-8"?>
<!-- Generator: Adobe Illustrator 15.1.0, SVG Export Plug-In  -->
<!DOCTYPE svg PUBLIC "-//W3C//DTD SVG 1.1//EN" "http://www.w3.org/Graphics/SVG/1.1/DTD/svg11.dtd" [
	<!ENTITY ns_flows "http://ns.adobe.com/Flows/1.0/">
]>
<svg version="1.1"
	 xmlns="http://www.w3.org/2000/svg" xmlns:xlink="http://www.w3.org/1999/xlink" xmlns:a="http://ns.adobe.com/AdobeSVGViewerExtensions/3.0/"
	 x="0px" y="0px" width="299px" height="299px" viewBox="1.282 0 299 299"
	 overflow="visible" enable-background="new 1.282 0 299 299" xml:space="preserve">
<defs>
</defs>
<rect display="none" fill="#225413" width="300.641" height="300"/>
<path opacity="0.1" fill="#FFFFFF" enable-background="new    " d="M12.641,0c2.426,8.574,6.499,15.501,10,23
	c-5.87,5.13-14.868,7.132-22,11c0-11.333,0-22.667,0-34C4.641,0,8.641,0,12.641,0z"/>
<path opacity="0.1" fill="#FFFFFF" enable-background="new    " d="M14.641,0c11.667,0,23.333,0,35,0c0,4,0,8,0,12
	c-8.61,3.39-16.555,7.445-25,11C21.242,15.399,17.181,8.46,14.641,0z"/>
<path opacity="0.1" fill="#FFFFFF" enable-background="new    " d="M51.641,0c11.667,0,23.333,0,35,0
	c-3.309,8.025-6.408,16.259-11,23c-3.853-2.147-8.205-3.795-12-6c-4.275-1.725-9-3-12-6C51.641,7.333,51.641,3.667,51.641,0z"/>
<path opacity="0.1" fill="#FFFFFF" enable-background="new    " d="M88.641,0c8,0,16,0,24,0c2.424,8.909,7.241,15.425,10,24
	c-7.669,3.331-14.696,7.304-23,10c-6.342-4.324-15.617-5.716-21-11C81.847,15.206,85.838,8.197,88.641,0z"/>
<path opacity="0.1" fill="#FFFFFF" enable-background="new    " d="M114.641,0c11.667,0,23.333,0,35,0c0,4,0,8,0,12
	c-8.646,3.354-16.255,7.745-25,11C121.436,15.206,117.444,8.197,114.641,0z"/>
<path opacity="0.1" fill="#FFFFFF" enable-background="new    " d="M151.641,0c11.668,0,23.334,0,35,0
	c-1.348,4.319-3.285,8.047-5,12c-2.57,3.096-2.428,8.905-6,11c-3.854-2.147-8.205-3.795-12-6c-4.274-1.725-9-3-12-6
	C151.641,7.333,151.641,3.667,151.641,0z"/>
<path opacity="0.1" fill="#FFFFFF" enable-background="new    " d="M188.641,0c8,0,16,0,24,0c2.705,8.629,7.41,15.256,10,24
	c-7.17,3.497-14.488,6.844-22,10c-7.133-3.868-16.129-5.87-22-11C182.041,15.399,186.102,8.46,188.641,0z"/>
<path opacity="0.1" fill="#FFFFFF" enable-background="new    " d="M214.641,0c11.668,0,23.334,0,35,0c0,4,0,8,0,12
	c-8.646,3.354-16.254,7.745-25,11C221.725,14.917,217.408,8.233,214.641,0z"/>
<path opacity="0.1" fill="#FFFFFF" enable-background="new    " d="M251.641,0c11.668,0,23.334,0,35,0
	c-3.086,8.247-5.914,16.753-11,23c-7.297-4.703-17.166-6.833-24-12C251.641,7.333,251.641,3.667,251.641,0z"/>
<path opacity="0.1" fill="#FFFFFF" enable-background="new    " d="M288.641,0c4,0,8,0,12,0c0,11.333,0,22.667,0,34
	c-7.133-3.868-16.13-5.87-22-11C282.143,15.501,286.215,8.574,288.641,0z"/>
<path opacity="0.1" fill="#FFFFFF" enable-background="new    " d="M75.641,25c-3.803,7.863-7.197,16.137-11,24
	c-9.667,0-19.333,0-29,0c-2.412-8.922-7.109-15.558-10-24c8.046-3.954,16.08-7.919,25-11C59.464,17.177,67.337,21.304,75.641,25z"/>
<path opacity="0.1" fill="#FFFFFF" enable-background="new    " d="M175.641,25c-3.449,8.216-7.256,16.077-11,24
	c-9.332,0-18.667,0-28,0c-3.85-7.484-6.918-15.749-11-23c1.572-3.761,7.637-3.03,10-6c4.537-0.463,5.93-4.07,11-4
	c0.733-0.934,1.818-1.515,3-2C159.634,16.34,166.79,21.518,175.641,25z"/>
<path opacity="0.1" fill="#FFFFFF" enable-background="new    " d="M275.641,25c-3.408,8.924-7.896,16.77-11,26
	c3.998,8.002,8.325,15.675,11,25c-8.996,2.336-15.562,7.104-24,10c-9.89-2.444-17.365-7.302-26-11c3.631-7.924,8.873-18.824,11-25
	c-3.281-8.385-6.68-16.653-11-24c6.058-5.609,16.316-7.018,23-12c0.668,0,1.334,0,2,0C259.561,17.081,267.596,21.046,275.641,25z"/>
<path opacity="0.1" fill="#FFFFFF" enable-background="new    " d="M0.641,64c0-9.333,0-18.667,0-28c7.959-3.041,14.855-7.145,23-10
	c3.803,7.863,7.197,16.137,11,24c-4.359,7.641-6.495,17.505-12,24C15.404,70.571,7.996,67.312,0.641,64z"/>
<path opacity="0.1" fill="#FFFFFF" enable-background="new    " d="M76.641,26c8.624,2.376,15.434,6.566,23,10
	c0,9.333,0,18.667,0,28c-5.847,2.819-11.262,6.071-18,8c-4.387-7.946-10.329-14.338-15-22C69.532,41.558,74.229,34.922,76.641,26z"
	/>
<path opacity="0.1" fill="#FFFFFF" enable-background="new    " d="M134.641,49c-4.214,8.453-10.694,14.64-15,23
	c-6.729-1.604-11.125-5.542-18-7c0-9.667,0-19.333,0-29c6.193-3.807,14.337-5.663,20-10c1.615-0.282,1.722,0.945,3,1
	C127.598,34.71,130.979,41.996,134.641,49z"/>
<path opacity="0.1" fill="#FFFFFF" enable-background="new    " d="M199.641,36c0,9.667,0,19.333,0,29
	c-8.207,2.126-14.18,6.487-22,9c-3.785-8.215-7.955-16.043-11-25c4.1-7.234,6.991-15.675,11-23
	C185.292,29.016,192.521,32.453,199.641,36z"/>
<path opacity="0.1" fill="#FFFFFF" enable-background="new    " d="M234.641,50c-2.777,8.555-7.748,14.918-10,24
	c-8.716-2.284-15.492-6.507-23-10c0-9.333,0-18.667,0-28c7.566-3.434,14.377-7.624,23-10C227.053,34.922,231.75,41.558,234.641,50z"
	/>
<path opacity="0.1" fill="#FFFFFF" enable-background="new    " d="M300.641,36c0,9.333,0,18.667,0,28
	c-7.795,3.206-14.803,7.197-23,10c-3.804-7.863-7.195-16.137-11-24c4.359-7.641,6.495-17.505,12-24
	C285.811,29.497,293.13,32.844,300.641,36z"/>
<path opacity="0.1" fill="#FFFFFF" enable-background="new    " d="M35.641,51c9.667,0,19.333,0,29,0c2.809,3.525,5.191,7.475,8,11
	c1.9,4.433,6.226,6.441,7,12c-10.754,2.913-18.461,8.872-29,12c-9.374-2.294-15.582-7.751-25-10
	C27.776,66.468,33.319,60.345,35.641,51z"/>
<path opacity="0.1" fill="#FFFFFF" enable-background="new    " d="M164.641,51c4.01,7.325,6.901,15.766,11,23
	c-6.416,5.583-16.017,7.983-24,12c-11.603-2.397-18.913-9.087-30-12c2.648-9.685,10.543-14.123,14-23
	C145.308,51,154.975,51,164.641,51z"/>
<path opacity="0.1" fill="#FFFFFF" enable-background="new    " d="M0.641,66c3.509,1.825,7.066,3.601,11,5
	c3.238,2.429,8.495,2.839,11,6c-3.493,7.507-7.715,14.284-10,23c1.992,9.675,7.381,15.952,10,25c-8.251,2.082-13.982,6.685-22,9
	C0.641,111.333,0.641,88.667,0.641,66z"/>
<path opacity="0.1" fill="#FFFFFF" enable-background="new    " d="M117.641,74c-5.147,8.187-11.644,15.022-16,24
	c-2.743-0.923-4.18-3.153-5-6c-2.651-1.015-2.709-4.624-5-6c-2.504-4.495-6.169-7.831-8-13c6.322-1.345,10.944-4.39,16-7
	C106.104,68.204,111.895,71.079,117.641,74z"/>
<path opacity="0.1" fill="#FFFFFF" enable-background="new    " d="M222.641,76c-2.695,8.304-6.668,15.331-10,23c-8,0-16,0-24,0
	c-3.039-7.96-7.145-14.855-10-23c6.918-3.416,14.721-5.947,21-10C208.089,68.552,214.715,72.926,222.641,76z"/>
<path opacity="0.1" fill="#FFFFFF" enable-background="new    " d="M300.641,66c0,22.667,0,45.333,0,68
	c-7.766-2.901-15.154-6.179-22-10c3.187-8.481,8.465-14.869,10-25c-2.767-8.233-7.082-14.917-10-23
	C286.152,72.844,293.471,69.497,300.641,66z"/>
<path opacity="0.1" fill="#FFFFFF" enable-background="new    " d="M98.641,100c-6.878,13.122-16.788,23.212-24,36
	c-8.603-7.063-15.568-15.765-23-24c0-8,0-16,0-24c9.54-4.128,19.302-8.032,28-13c1.615-0.282,1.722,0.945,3,1
	C87.534,84.44,93.949,91.358,98.641,100z"/>
<path opacity="0.1" fill="#FFFFFF" enable-background="new    " d="M149.641,88c0,7.667,0,15.333,0,23
	c-2.096,5.903-8.076,7.924-11,13c-3.072,4.595-7.928,7.405-11,12c-9.604-10.729-16.321-24.346-26-35
	c4.827-9.507,12.465-16.201,17-26C130.076,78.231,138.727,84.248,149.641,88z"/>
<path opacity="0.1" fill="#FFFFFF" enable-background="new    " d="M24.641,77c8.222,3.778,16.382,7.618,25,11c0,8,0,16,0,24
	c-8.635,3.698-16.11,8.556-26,11c-2.5-8.167-5.913-15.421-10-22C17.301,92.993,20.757,84.782,24.641,77z"/>
<path opacity="0.1" fill="#FFFFFF" enable-background="new    " d="M176.641,123c-9.139-2.862-16.812-7.188-25-11c0-8,0-16,0-24
	c8.325-3.341,16.493-6.841,24-11c0.852-0.184,0.943,0.39,1,1c4.086,6.582,6.942,14.392,10,22
	C184.102,108.46,180.041,115.399,176.641,123z"/>
<path opacity="0.1" fill="#FFFFFF" enable-background="new    " d="M224.641,77c8.752,3.249,16.18,7.821,25,11
	c0,8.333,0,16.667,0,25c-9.524,2.142-15.475,7.858-25,10c-3.461-7.538-7.053-14.948-10-23C217.497,91.855,221.602,84.96,224.641,77z
	"/>
<path opacity="0.1" fill="#FFFFFF" enable-background="new    " d="M287.641,100c-3.434,7.566-7.623,14.376-10,23
	c-9.89-2.444-17.365-7.302-26-11c0-8,0-16,0-24c8.18-3.487,16.73-6.603,24-11C281.311,82.997,282.818,93.155,287.641,100z"/>
<path opacity="0.1" fill="#FFFFFF" enable-background="new    " d="M212.641,101c2.938,8.396,7.769,14.899,10,24
	c-7.588,2.411-13.695,6.304-21,9c-8.795-1.871-14.582-6.752-23-9c2.426-8.909,7.241-15.425,10-24
	C196.641,101,204.641,101,212.641,101z"/>
<path opacity="0.1" fill="#FFFFFF" enable-background="new    " d="M99.641,102c9.896,10.438,16.606,24.061,26,35
	c-3.911,4.756-8.462,8.871-12,14c-5.411,3.256-7.761,9.572-14,12c-7.683-8.65-16.198-16.469-24-25
	C82.995,125.354,92.681,115.04,99.641,102z"/>
<path opacity="0.1" fill="#FFFFFF" enable-background="new    " d="M72.641,139c-3.385,2.615-4.77,7.23-8,10c-9.667,0-19.333,0-29,0
	c-2.835-8.498-7.165-15.502-10-24c7.893-3.44,16.246-6.421,23-11c1.615-0.282,1.722,0.945,3,1c3.375,4.291,7.49,7.844,11,12
	C65.233,131.741,70.875,133.433,72.641,139z"/>
<path opacity="0.1" fill="#FFFFFF" enable-background="new    " d="M175.641,125c-2.891,8.442-7.588,15.078-10,24c-10,0-20,0-30,0
	c-2.11-3.557-3.88-7.453-7-10c1.481-5.519,7.437-6.563,9-12c4.263-2.737,6.737-7.263,11-10c0.354-1.313,1.761-1.573,2-3
	C159.098,117.544,166.884,121.757,175.641,125z"/>
<path opacity="0.1" fill="#FFFFFF" enable-background="new    " d="M275.641,125c-3.269,9.065-7.57,17.096-11,26
	c3.812,8.188,8.139,15.861,11,25c-8.324,3.342-16.492,6.841-24,11c-10.608-3.725-19.59-9.076-30-13c3.533-8.991,12.603-17.136,15-24
	c-3.48-8.186-6.841-16.493-11-24c7.002-4.999,16.887-7.112,24-12C259.236,116.738,266.467,121.84,275.641,125z"/>
<path opacity="0.1" fill="#FFFFFF" enable-background="new    " d="M0.641,165c0-9.667,0-19.333,0-29c8.46-2.54,15.399-6.601,23-10
	c3.354,8.646,7.745,16.255,11,25c-4.637,7.029-6.318,17.016-12,23C14.623,171.686,8.893,167.082,0.641,165z"/>
<path opacity="0.1" fill="#FFFFFF" enable-background="new    " d="M177.641,126c7.17,3.497,14.489,6.844,22,10
	c0,9.667,0,19.333,0,29c-5.748,1.919-10.469,4.864-16,7c-5.15-1.516-6.129-7.204-9-11c-3.34-3.327-6.011-7.323-8-12
	C171.068,142.095,173.732,133.425,177.641,126z"/>
<path opacity="0.1" fill="#FFFFFF" enable-background="new    " d="M222.641,126c5.625,6.708,8.389,16.278,12,25
	c-6.058,6.275-9.35,15.316-16,21c-6.189-1.811-10.912-5.086-17-7c0-9.667,0-19.333,0-29
	C208.833,132.858,216.512,130.203,222.641,126z"/>
<path opacity="0.1" fill="#FFFFFF" enable-background="new    " d="M300.641,136c0,9.667,0,19.333,0,29
	c-8.674,1.992-14.043,7.289-23,9c-3.908-7.758-7.521-15.811-11-24c2.146-3.853,3.795-8.205,6-12c1.726-4.274,3-9.001,6-12
	C285.27,130.037,292.628,133.346,300.641,136z"/>
<path opacity="0.1" fill="#FFFFFF" enable-background="new    " d="M73.641,140c1.615-0.282,1.722,0.945,3,1
	c6.638,8.362,13.944,16.057,22,23c-1.865,3.468-7.109,3.559-10,6c-4.821,0.514-6.154,4.514-12,4c-2.696-8.305-6.669-15.331-10-23
	C68.222,146.581,71.619,143.978,73.641,140z"/>
<path opacity="0.1" fill="#FFFFFF" enable-background="new    " d="M134.641,150c-2.759,8.574-7.576,15.091-10,24
	c-8.907-1.427-14.738-5.93-22-9c7.628-8.372,15.629-16.371,23-25C130.509,141.466,130.898,147.409,134.641,150z"/>
<path opacity="0.1" fill="#FFFFFF" enable-background="new    " d="M64.641,151c3.354,8.646,7.745,16.255,11,25
	c-9.264,3.068-16.736,7.932-26,11c-7.507-4.159-15.675-7.658-24-11c2.862-9.139,7.188-16.812,11-25
	C45.975,151,55.308,151,64.641,151z"/>
<path opacity="0.1" fill="#FFFFFF" enable-background="new    " d="M164.641,151c4.732,7.936,11.476,13.859,15,23
	c-10.33,4.002-19.259,9.407-30,13c-7.507-4.159-15.675-7.658-24-11c3.177-8.823,7.304-16.695,11-25
	C145.975,151,155.309,151,164.641,151z"/>
<path opacity="0.1" fill="#FFFFFF" enable-background="new    " d="M0.641,167c8.022,2.645,15.024,6.311,22,10
	c-3.266,8.4-8.607,14.727-10,25c2.917,8.083,7.233,14.768,10,23c-7.52,3.146-14.974,6.359-22,10
	C0.641,212.333,0.641,189.667,0.641,167z"/>
<path opacity="0.1" fill="#FFFFFF" enable-background="new    " d="M122.641,176c-3.114,8.553-6.638,16.695-11,24
	c-7.667,0-15.333,0-23,0c-2.778-8.555-7.749-14.918-10-24c8.018-2.314,13.749-6.918,22-9
	C108.755,169.221,114.527,173.779,122.641,176z"/>
<path opacity="0.1" fill="#FFFFFF" enable-background="new    " d="M217.641,174c-1.746,5.253-6.252,7.747-8,13
	c-4.4,2.6-4.752,9.248-10,11c-4.703-8.296-10.49-15.51-16-23c4.819-3.514,10.748-5.92,17-8
	C207.298,168.343,211.503,172.139,217.641,174z"/>
<path opacity="0.1" fill="#FFFFFF" enable-background="new    " d="M300.641,167c0,22.667,0,45.333,0,68
	c-3.8-1.534-6.639-4.027-11-5c-3.238-2.43-8.494-2.839-11-6c3.281-7.719,7.629-14.372,10-23c-1.832-9.835-7.32-16.012-10-25
	C287.021,174.047,292.361,169.055,300.641,167z"/>
<path opacity="0.1" fill="#FFFFFF" enable-background="new    " d="M199.641,200c-5.58,9.086-12.078,17.255-18,26
	c-10.477-3.857-19.522-9.143-30-13c0-8,0-16,0-24c9.172-5.163,20.06-8.607,29-14C188.113,182.193,192.458,192.518,199.641,200z"/>
<path opacity="0.1" fill="#FFFFFF" enable-background="new    " d="M249.641,188c0,8.333,0,16.667,0,25
	c-10.477,3.857-19.522,9.143-30,13c-5.433-8.566-11.859-16.141-17-25c4.438-9.896,11.934-16.734,17-26
	C229.675,179.299,238.907,184.4,249.641,188z"/>
<path opacity="0.1" fill="#FFFFFF" enable-background="new    " d="M23.641,178c10.067,2.268,17.398,7.27,26,11c0,8,0,16,0,24
	c-8.385,3.281-16.653,6.68-24,11c-5.609-6.057-7.018-16.316-12-23C17.041,193.398,21.101,186.46,23.641,178z"/>
<path opacity="0.1" fill="#FFFFFF" enable-background="new    " d="M86.641,200c-2.424,8.909-7.241,15.426-10,24
	c-8.457-3.544-16.244-7.757-25-11c0-8.333,0-16.667,0-25c9.345-2.32,15.468-7.865,25-10C80.295,185.014,83.246,192.729,86.641,200z"
	/>
<path opacity="0.1" fill="#FFFFFF" enable-background="new    " d="M149.641,189c0,8,0,16,0,24c-8.325,3.342-16.493,6.841-24,11
	c-3.161-2.506-3.572-7.762-6-11c-1.24-4.427-3.882-7.451-5-12c1.838-8.828,7.24-14.094,9-23
	C133.906,180.068,141.028,185.279,149.641,189z"/>
<path opacity="0.1" fill="#FFFFFF" enable-background="new    " d="M287.641,200c-3.804,7.863-7.195,16.137-11,24
	c-8.304-3.695-16.177-7.823-25-11c0-8,0-16,0-24c8.603-3.73,15.935-8.732,26-11C280.295,186.014,283.604,193.371,287.641,200z"/>
<path opacity="0.1" fill="#FFFFFF" enable-background="new    " d="M122.641,225c-7.063,3.271-14.802,5.865-21,10
	c-8.197-2.803-15.206-6.795-23-10c2.54-8.46,6.601-15.398,10-23c7.009-0.657,16.654,1.32,22-1c1.313,0.354,1.573,1.761,3,2
	C115.723,211.252,120.326,216.982,122.641,225z"/>
<path opacity="0.1" fill="#FFFFFF" enable-background="new    " d="M199.641,203c1.615-0.281,1.723,0.945,3,1
	c3.725,9.275,11.559,14.441,15,24c-7.054,1.279-11.361,5.307-18,7c-4.328-3.672-11.147-4.852-16-8
	C188.661,218.686,195.016,211.709,199.641,203z"/>
<path opacity="0.1" fill="#FFFFFF" enable-background="new    " d="M75.641,226c-3.739,7.814-8.981,18.716-11,25
	c3.341,8.325,6.84,16.493,11,24c-2.588,3.412-7.89,4.109-12,6c-3.325,2.675-8.424,3.575-12,6c-9.89-2.443-17.365-7.302-26-11
	c3.182-9.15,7.776-16.891,11-26c-3.71-8.29-8.283-15.717-11-25c8.922-2.412,15.558-7.109,24-10
	C59.708,217.268,67.039,222.27,75.641,226z"/>
<path opacity="0.1" fill="#FFFFFF" enable-background="new    " d="M179.641,227c-0.773,5.559-5.1,7.566-7,12
	c-2.809,3.523-5.19,7.477-8,11c-9.332,0-18.667,0-28,0c-3.785-8.215-7.957-16.044-11-25c9.418-2.248,15.626-7.707,25-10
	C161.279,218.027,169.184,223.79,179.641,227z"/>
<path opacity="0.1" fill="#FFFFFF" enable-background="new    " d="M275.641,225c-2.717,9.283-7.289,16.71-11,25
	c-9.332,0-18.666,0-28,0c-4.762-7.904-11.317-14.016-15-23c10.668-2.999,18.332-9.001,29-12
	C260.059,217.248,266.268,222.707,275.641,225z"/>
<path opacity="0.1" fill="#FFFFFF" enable-background="new    " d="M0.641,265c0-9.333,0-18.667,0-28
	c7.669-3.331,14.696-7.305,23-10c3.785,8.215,7.957,16.044,11,25c-3.144,2.523-3.142,8.191-6,11c-1.725,4.275-3,9.001-6,12
	C15.521,271.453,8.292,268.018,0.641,265z"/>
<path opacity="0.1" fill="#FFFFFF" enable-background="new    " d="M99.641,237c0,9.333,0,18.667,0,28
	c-6.734,3.6-14.446,6.221-21,10c-5.583-6.417-7.983-16.018-12-24c2.91-8.424,7.339-15.327,10-24
	C85.356,229.284,92.134,233.507,99.641,237z"/>
<path opacity="0.1" fill="#FFFFFF" enable-background="new    " d="M134.641,250c-3.278,8.723-7.084,16.915-11,25
	c-7.641-3.025-14.736-6.598-22-10c0-9.667,0-19.333,0-29c7.814-2.186,13.94-6.061,21-9c0.667,0,1.333,0,2,0
	C127.018,235.624,131.208,242.434,134.641,250z"/>
<path opacity="0.1" fill="#FFFFFF" enable-background="new    " d="M300.641,237c0,9.333,0,18.667,0,28
	c-8.109,2.891-14.89,7.109-23,10c-3.449-8.217-7.256-16.077-11-24c4.207-7.794,6.428-17.572,12-24
	C285.996,230.312,293.404,233.57,300.641,237z"/>
<path opacity="0.1" fill="#FFFFFF" enable-background="new    " d="M199.641,236c0,9.667,0,19.333,0,29
	c-7.264,3.402-14.358,6.975-22,10c-4.132-7.201-6.478-16.189-11-23c4.18-8.488,10.434-14.9,15-23
	C188.709,230.266,192.573,234.734,199.641,236z"/>
<path opacity="0.1" fill="#FFFFFF" enable-background="new    " d="M234.641,252c-4.099,7.234-6.99,15.676-11,23
	c-7.511-3.156-14.83-6.503-22-10c0-9.333,0-18.667,0-28c5.033-2.967,11.116-4.884,16-8c1.615-0.281,1.723,0.945,3,1
	C224.585,238.057,231.075,243.566,234.641,252z"/>
<path opacity="0.1" fill="#FFFFFF" enable-background="new    " d="M165.641,252c2.252,9.082,7.223,15.445,10,24
	c-8.304,3.695-16.177,7.823-25,11c-8.823-3.177-16.696-7.305-25-11c2.778-8.555,7.749-14.918,10-24
	C145.641,252,155.641,252,165.641,252z"/>
<path opacity="0.1" fill="#FFFFFF" enable-background="new    " d="M265.641,252c2.59,8.744,7.297,15.371,10,24
	c-8.215,3.785-16.043,7.956-25,11c-8.757-3.243-16.543-7.456-25-11c3.66-8.007,7.116-16.217,11-24
	C246.309,252,255.975,252,265.641,252z"/>
<path opacity="0.1" fill="#FFFFFF" enable-background="new    " d="M0.641,267c7.132,3.867,16.13,5.87,22,11
	c-3.821,6.846-7.099,14.234-10,22c-4,0-8,0-12,0C0.641,289,0.641,278,0.641,267z"/>
<path opacity="0.1" fill="#FFFFFF" enable-background="new    " d="M112.641,300c-8,0-16,0-24,0c-3.206-7.794-7.197-14.803-10-23
	c7.12-3.547,14.35-6.982,22-10c7.297,3.702,16.183,5.816,22,11C119.094,285.119,115.657,292.35,112.641,300z"/>
<path opacity="0.1" fill="#FFFFFF" enable-background="new    " d="M212.641,300c-8,0-16,0-24,0c-2.89-8.109-7.109-14.891-10-23
	c7.602-3.398,14.541-7.46,23-10c6.459,4.209,15.678,5.657,21,11C219.211,285.236,215.954,292.646,212.641,300z"/>
<path opacity="0.1" fill="#FFFFFF" enable-background="new    " d="M300.641,267c0,11,0,22,0,33c-4,0-8,0-12,0
	c-2.803-8.197-6.795-15.206-10-23C285.878,273.57,293.287,270.312,300.641,267z"/>
<path opacity="0.1" fill="#FFFFFF" enable-background="new    " d="M49.641,300c-11.667,0-23.333,0-35,0
	c3.069-7.598,6.381-14.952,10-22c5.209,0.79,7.25,4.75,13,5c2.922,3.411,9.217,3.449,12,7C49.641,293.333,49.641,296.667,49.641,300
	z"/>
<path opacity="0.1" fill="#FFFFFF" enable-background="new    " d="M86.641,300c-11.667,0-23.333,0-35,0c0-3.667,0-7.333,0-11
	c8.457-3.544,16.244-7.757,25-11C80.037,285.271,82.987,292.986,86.641,300z"/>
<path opacity="0.1" fill="#FFFFFF" enable-background="new    " d="M149.641,300c-11.667,0-23.333,0-35,0
	c3.868-7.132,5.87-16.13,11-22c3.853,2.146,8.205,3.795,12,6c4.275,1.725,9,2.999,12,6C149.641,293.333,149.641,296.667,149.641,300
	z"/>
<path opacity="0.1" fill="#FFFFFF" enable-background="new    " d="M186.641,300c-11.666,0-23.332,0-35,0c0-3.667,0-7.333,0-11
	c8.646-3.354,16.256-7.745,25-11C180.07,285.236,183.329,292.646,186.641,300z"/>
<path opacity="0.1" fill="#FFFFFF" enable-background="new    " d="M249.641,300c-11.666,0-23.332,0-35,0
	c4.219-6.782,5.887-16.113,11-22c3.575,2.425,8.676,3.325,12,6c4.11,1.891,9.412,2.588,12,6
	C249.641,293.333,249.641,296.667,249.641,300z"/>
<path opacity="0.1" fill="#FFFFFF" enable-background="new    " d="M286.641,300c-11.666,0-23.332,0-35,0c0-3.667,0-7.333,0-11
	c9.092-3.242,16.284-8.382,26-11C279.518,286.457,284.161,292.146,286.641,300z"/>
</svg>
