<?xml version="1.0" encoding="utf-8"?>
<!-- Generator: Adobe Illustrator 15.1.0, SVG Export Plug-In . SVG Version: 6.00 Build 0)  -->
<!DOCTYPE svg PUBLIC "-//W3C//DTD SVG 1.1//EN" "http://www.w3.org/Graphics/SVG/1.1/DTD/svg11.dtd">
<svg version="1.1" id="Layer_1" xmlns="http://www.w3.org/2000/svg" xmlns:xlink="http://www.w3.org/1999/xlink" x="0px" y="0px"
	 width="202.667px" height="325.98px" viewBox="0 0 202.667 325.98" enable-background="new 0 0 202.667 325.98"
	 xml:space="preserve">
<path fill-rule="evenodd" clip-rule="evenodd" fill="#001E39" d="M87.607,46.213c-0.447-3.994,0.025-9.155,2.302-12.216
	c2.428-0.691,5.03,0.306,6.551,1.947C96.812,41.4,93.108,48.105,87.607,46.213z M91.148,43.38c1.489-1.776,3.553-5.211,0.354-6.55
	C90.622,38.488,89.596,41.823,91.148,43.38z"/>
<path fill-rule="evenodd" clip-rule="evenodd" fill="#001E39" d="M113.456,291.598c2.139,3.139,4.063,6.199,6.374,8.675
	c1.749,1.876,3.564,4.66,0.709,7.613c-2.912,3.012-5.815,6.453-9.738,6.551c-4.027-3.645-6.899-8.444-10.977-12.039
	c-2.607,3.16-7.596,6.066-11.154,1.771c-0.891-8.749-2.682-20.196-3.895-29.744c-0.146-1.146-0.845-2.266-0.708-3.187
	c0.239-1.608,3.447-3.7,5.843-2.833c0.897,0.326,1.174,1.227,2.125,1.948c6.802,5.169,17.673,8.951,25.849,13.102
	C120.231,287.539,115.169,289.326,113.456,291.598z M95.398,296.733c3.293-0.349,3.84-3.569,6.551-3.542
	c2.932,0.031,5.5,5.837,7.081,8.146c0.858,1.254,3.343,5.889,4.603,6.019c0.8,0.083,3.515-2.216,3.542-3.01
	c0.032-0.971-2.358-2.77-3.188-3.895c-0.851-1.156-1.979-3.352-2.832-4.249c-1.116-1.177-2.882-2.072-3.542-3.188
	c-2.037-3.443,3.615-4.776,5.312-7.081c-7.318-3.186-14.133-6.878-20.715-10.8C91.935,282.015,93.798,290.261,95.398,296.733z"/>
<path fill-rule="evenodd" clip-rule="evenodd" fill="#001E39" d="M144.439,199.535c1.784,9.405,0.507,17.461-0.885,26.38
	c-1.054,6.751-4.85,11.638-9.738,15.403c-5.747,4.428-11.657,7.533-19.652,9.56c-9.102,2.308-20.51,4.605-29.389,1.771
	c-6.417-2.049-11.303-8.152-15.226-12.925c-4.876-5.932-5.996-14.513-9.383-22.661c-3.819-20.63,5.548-38.371,16.465-50.636
	c4.579-5.145,9.964-8.378,14.164-13.101c9.715-4.743,19.083-9.834,27.442-15.934c0.703,0.154,0.89,0.154,1.593,0
	c5.826-4.059,12.044-8.616,15.403-15.757c3.091-6.571,6.527-13.313,7.436-21.068c0.25-2.136-1.391-4.762,0.354-6.196
	c-1.729-7.123-3.933-14.796-8.145-19.829c-8.187-9.785-18.021-17.568-32.93-16.289c-8.556,0.734-16.603,4.374-23.901,7.791
	c-5.772,2.701-9.358,8.534-16.82,9.383c-4.372,0.154-8.631-0.251-11.331-3.187c-12.393,6.335-28.375,2.336-30.098-12.216
	c-0.917-7.757,6.978-12.489,9.915-17.174c1.275,0.318,2.656-0.557,3.364-1.771c-6.197-1.442-5.739-9.838-2.125-14.164
	c2.47-2.956,5.774-1.729,8.499-3.187c0.352-1.477,1.666-1.993,2.302-3.187c-3.271-6.055-8.443,0.666-10.623,3.542
	c-6.825-0.581,1.289-8.13,3.541-9.561c5.107-3.243,10.189,0.766,12.393,3.718c9.632-2.276,17.852-5.911,28.858-5.134
	c8.885,0.626,16.13,7.564,24.787,10.622c4.991,1.764,9.175,4.068,15.226,4.604c15.296,5.441,30.593,10.15,43.021,18.767
	c2.55,1.768,5.288,6.896,7.436,9.914c8.055,11.317,14.024,28.474,14.519,46.032c0.056,1.978-0.734,3.923-1.062,5.665
	c-1.638,8.699-4.046,15.974-7.612,23.016c-2.206,4.355-5.779,8.198-8.321,12.57c-7.54,12.968-21.013,21.472-32.399,30.275
	c-8.405,3.966-16.191,10.029-24.609,14.694c-3.463,1.919-6.805,2.984-8.853,5.488c-5.128,6.271-4.821,22.216-0.354,29.213
	c2.779,4.352,8.877,6.303,15.58,5.843c4.053-1.769,7.212-3.488,10.269-5.843c7.416-5.713,7.665-17.084,13.456-24.433
	C138.93,197.385,142.434,197.538,144.439,199.535z M92.388,25.322c-11.131-7.898-27.469-8.401-40.013-3.718
	c1.688,1.004,1.689,3.799,1.416,5.842c9.148-0.494,17.933-7.596,27.619-4.426c0.834,1.685,3.379,2.868,2.833,4.957
	c-1.088,4.162-6.397-1.521-8.853-0.885c3.141,4.342,5.255,10.144,2.125,15.934c-2.936,3.5-5.525,7.306-10.8,7.259
	c-2.646-0.023-4.503-1.144-7.258-1.416c-1.591-0.829-2.895-1.945-4.604-2.656c-0.645-0.831-1.111-1.839-1.947-2.479
	c-0.685-0.095-0.864,0.316-1.594,0.177c-4.491-2.192-7.775-1.156-12.393-1.062c-5.21,1.34-8.167,4.934-10.623,9.03
	c-0.561,2.744-2.168,4.441-2.125,7.79c2.184,10.77,17.806,10.922,25.671,5.843c1.51-0.976,7.896-9.507,8.675-5.312
	c0.597,3.21-3.626,5.238-3.541,7.79c9.063,1.822,12.08-8.267,21.069-8.853c0.52-0.608-0.542-0.769-0.354-1.593
	c3.404-2.311,4.2-7.805,10.446-6.728c1.576,0.726,1.901,2.703,3.541,3.364c3.064-4.608,5.189-10.155,9.738-13.279
	c-3.162-3.252-2.6-9.514-5.135-13.101C94.48,27.479,92.442,27.393,92.388,25.322z M44.054,25.499
	c1.225,0.959,2.522,1.846,3.896,2.656c0.686-1.145,0.593-3.042,1.062-4.78C46.65,23.072,45.12,24.019,44.054,25.499z M40.159,28.686
	c-0.076,1.312,1.042,4.547-0.354,6.196c-3.011,2.041-6.642,0.13-7.259-2.833c-1.083,3.31,2.422,4.981,2.833,7.967
	c3.533-1.408,6.225-1.591,10.092-1.417C48.971,33.805,43.116,29.535,40.159,28.686z M68.31,45.328
	c3.184-0.263,6.154-5.3,5.842-8.675c-0.343-3.719-4.395-9.747-7.79-7.259c5.554,6.936-7.607,11.551-8.145,3.364
	C52.667,38.841,61.21,45.915,68.31,45.328z M103.542,30.811c0.679,1.882,1.04,5.325,2.833,5.666
	c1.729,0.329,3.747-1.996,4.604-3.541C108.78,31.833,106.341,30.889,103.542,30.811z M51.49,34.706
	c0.182-0.604,0.068-2.262-0.708-2.479C50.996,33.111,50.629,34.171,51.49,34.706z M122.131,35.591
	c-0.536,0.066-1.092,0.935-1.593,1.062c-1.302,0.33-2.992-0.524-4.25,0.354c-2.679,1.872,1.029,8.254,3.719,9.029
	c1.576,0.455,5.2,0.487,6.02,0c-0.908-3.702,0.587-6.151,1.416-8.321C125.492,37.311,123.971,35.365,122.131,35.591z M50.428,38.778
	c0.337,0.076,0.444,0.381,0.885,0.354c-0.167-1.145,0.272-2.032-0.531-2.301C51.186,37.575,50.165,37.67,50.428,38.778z
	 M98.583,51.702c2.415,0.708,5.781-0.46,8.854-0.531c-0.686-2.207-2.18-3.603-3.365-5.312
	C100.652,45.953,100.533,49.864,98.583,51.702z M146.741,67.813c0.705-2.704-2.683-4.827-2.833-7.613
	c-0.083-1.547,0.748-3.067,0.531-4.603c-0.547-3.874-3.699-6.201-6.02-7.436c-1.413,0.452-0.017,2.777-0.708,4.072
	c-3.374,1.895-4.291,5.635-4.78,10.092c2.812,1.909,5.033,4.409,7.437,6.728C141.829,67.164,145.934,70.902,146.741,67.813z
	 M83.536,56.482c1.12,0.315,2.352-0.688,3.187-1.239c-0.472-0.177-0.584-0.714-0.885-1.062
	C84.233,54.111,84.076,55.489,83.536,56.482z M160.904,68.344c0.98,2.785-2.439,11.325,3.542,9.737
	c4.522-1.2,3.393-7.501,1.946-10.445c-1.865-3.803-4.949-8.337-7.612-11.331C154.915,59.896,159.816,65.254,160.904,68.344z
	 M150.635,80.737c-0.174-1.692,0.196-2.622-0.708-3.718c-5.595,1.478-0.977,10.684,1.771,13.278
	C155.375,88.781,151.045,84.738,150.635,80.737z M169.756,79.321c0.051-0.657,0.938-0.479,0.885-1.239
	C169.928,78.023,169.194,79.205,169.756,79.321z M161.082,81.8c-0.236,0-0.473,0-0.709,0
	C160.092,82.623,161.288,82.415,161.082,81.8z M167.809,95.078c3.469-2.481-0.073-7.461-0.53-10.799
	C159.406,84.575,165.902,91.971,167.809,95.078z M161.082,111.189c-0.316-1.574-2.158-3.17-2.479-5.134
	c-0.522-3.186,0.925-7.252-2.302-8.499c-1.089,0.446-1.495,1.573-2.656,1.947c-0.46-0.222-1.69-0.305-1.947-0.177
	c-0.319,2.861-0.614,4.776-1.416,7.259c8.74-0.983,5.6,14.201,14.341,12.039C161.358,117.302,161.698,114.26,161.082,111.189z
	 M174.182,114.199c1.031-3.951,1.699-7.848,0.354-11.686C171.162,104.374,170.711,112.299,174.182,114.199z M147.272,114.376
	c-3.18,4.729-6.105,9.711-9.737,13.986c-0.585,3.982,6.556,5.817,8.675,3.01C144.305,124.509,155.139,119.174,147.272,114.376z
	 M164.798,125.53c-3.882,0.303-10.655-2.817-11.86,1.594c-1.297,4.741,3.919,6.993,4.603,10.977
	c0.492,2.868-1.073,4.996,1.239,6.197c4.322-6.242,9.627-13.388,11.861-20.538C168.675,124.053,167.113,125.349,164.798,125.53z
	 M135.941,138.808c-0.215-3.157-6.465-4.509-7.437-0.885c-0.357,2.456,0.755,5.787,4.427,5.312
	C133.824,141.743,136.083,140.892,135.941,138.808z M141.96,151.024c4.761,2.496,10.905,1.466,11.861-3.895
	c-2.572-2.019-0.309-5.309-1.062-7.79C144.613,135.136,138.006,143.053,141.96,151.024z M115.226,151.024
	c1.834,2.925,3.603,6.442,7.968,5.842c0.83-3.75,1.102-7.578,0-10.977C119.934,145.73,118.054,149.613,115.226,151.024z
	 M133.285,149.431c-0.968,1.117-2.525,0.747-3.362,1.771c0.502,1.877,1.429,3.97,1.238,6.905
	C138.283,162.137,135.296,152.266,133.285,149.431z M111.332,155.627c-8.313,1.617-1.287,8.847,4.427,5.666
	C113.985,159.702,112.837,157.485,111.332,155.627z M99.646,157.398c-4.37,2.594-8.847,5.08-11.861,9.029
	c3.705,4.509,12.344,0.006,13.278-4.426C100.614,160.443,100.165,158.887,99.646,157.398z M137.888,162.886
	c-1.07,0.494-4.273,1.625-5.665,1.771c-4.789,0.5-11.75-1.784-12.394,2.654c-0.483,3.327,3.123,4.822,4.604,6.729
	c7.133-3.962,13.68-8.51,19.652-13.632C141.427,158.023,140.108,161.863,137.888,162.886z M103.542,173.686
	c0.491,0.513,0.663,1.343,1.594,1.417c1.966-1.125,4.717-2.9,7.259-1.947c0.954,0.357,1.562,1.791,2.656,0.53
	c-1.229-1.712-1.326-3.714-2.833-5.312C107.845,167.818,103.681,169.015,103.542,173.686z M79.995,172.8
	c1.496-0.156,2.205-1.1,3.364-1.593C82.814,168.614,80.444,171.563,79.995,172.8z M89.201,189.444
	c3.179-0.262,4.019-2.962,4.072-6.729c0.056-4.003,4.635-5.391,4.249-8.675c-0.136-1.155-1.344-2.057-2.833-1.594
	c-1.725,5.593-9.372,5.264-13.632,8.321c-0.04,0.138-0.004,0.349-0.177,0.354C81.218,186.307,85.192,189.771,89.201,189.444z
	 M102.479,181.123c-2.079,1.52-2.169,5.03-3.009,7.79c4.135-2.475,8.546-4.672,12.393-7.437
	C109.533,177.034,106.623,181.429,102.479,181.123z M68.31,193.338c4.16,3.467,10.839-2.975,7.967-8.499
	c-1.16-0.729-1.773-2.003-2.833-2.833C71.325,185.375,69.838,189.378,68.31,193.338z M73.621,206.971
	c0.867,2.228,5.636,4.939,8.321,4.248c3.604-0.928,6.064-10.27,4.604-13.81C79.087,196.39,70.714,199.499,73.621,206.971z
	 M65.299,212.636c3.882-1.283,2.524-9.44,0.886-12.039C65.171,203.315,64.512,209.075,65.299,212.636z M75.391,216.708
	c-7.167-6.986-9.611,11.877-1.239,7.437C73.359,220.895,75.65,219.821,75.391,216.708z M129.922,225.207
	c0.95-0.845,1.966-0.557,2.832-1.062c3.608-2.11,5.885-5.645,2.124-8.321c-2.76,3.673-4.499,8.366-8.144,11.154
	C128.434,229.552,128.443,226.52,129.922,225.207z M83.181,225.915c1.569,0.186,4.59-2.35,4.781-3.896
	c0.337-2.745-2.965-4.954-6.197-4.071C79.625,219.598,80.948,225.652,83.181,225.915z M130.453,233.704
	c0.435,1.888,2.869-0.425,4.426,0.178c1.354-1.419,2.537-3.011,3.188-5.135C134.533,227.392,130.064,232.017,130.453,233.704z
	 M118.945,232.466c0.944,1.161,3.18,0.016,4.249-0.355c0.326-0.794,0.465-1.777,0.708-2.655
	C122.024,229.539,120.45,231.422,118.945,232.466z M93.095,241.318c2.531,0.385,6.328-0.122,6.021-2.833
	c-0.176-1.548-2.865-3.066-2.302-5.312c-1.665-1.344-3.881-2.138-5.312-3.717C89.769,233.236,92.421,237.699,93.095,241.318z
	 M75.391,235.475c1.926,4.572,10.932,2.491,9.915-2.833C81.54,231.957,74.465,228.498,75.391,235.475z M105.667,236.36
	c2.159,1.75,7.625,2.129,8.497-1.062C112.053,234.401,107.833,235.585,105.667,236.36z M117.174,244.681
	c4.116-0.015,8.38-2.63,11.33-4.957C123.009,237.958,118.707,239.885,117.174,244.681z M99.116,247.336
	c0.263,0.034,0.162,0.428,0.177,0.708c3.842,1.334,10.027,0.065,12.925-1.77c0.036-1.509-0.347-2.733-1.239-3.719
	C105.302,241.02,102.863,245.426,99.116,247.336z M81.411,244.328c2.807,1.857,6.464,3.799,10.446,3.895
	C89.966,245.444,85.082,239.913,81.411,244.328z"/>
</svg>
