<?xml version="1.0" encoding="utf-8"?>
<!-- Generator: Adobe Illustrator 15.1.0, SVG Export Plug-In . SVG Version: 6.00 Build 0)  -->
<!DOCTYPE svg PUBLIC "-//W3C//DTD SVG 1.1//EN" "http://www.w3.org/Graphics/SVG/1.1/DTD/svg11.dtd">
<svg version="1.1" id="Layer_1" xmlns="http://www.w3.org/2000/svg" xmlns:xlink="http://www.w3.org/1999/xlink" x="0px" y="0px"
	 width="316.667px" height="137.461px" viewBox="-1.261 0 316.667 137.461" enable-background="new -1.261 0 316.667 137.461"
	 xml:space="preserve">
<g>
	<path fill="#001E39" d="M161.527,25.315c-1.215,0.209-0.979-1.034-1.441-1.574c-0.484,0.04-0.473,0.578-1.182,0.394
		c-0.111-0.106-0.078-0.359-0.262-0.394C159.23,21.259,162.14,23.125,161.527,25.315z"/>
	<path fill="#001E39" d="M13.048,30.431c-2.184-1.011-6.979,1.5-7.345-1.05C5.255,26.275,13.989,27.446,13.048,30.431z"/>
	<path fill="#001E39" d="M24.329,31.479c-0.62,0.859-3.005-0.647-4.723-0.787c-2.1-0.171-3.491-0.387-2.229-2.754
		C20.168,28.194,23.504,28.842,24.329,31.479z"/>
	<path fill="#001E39" d="M34.427,34.234c-1.428,0.513-2.805-0.951-4.459-1.05c-1.816,1.098-3.438-1.583-1.836-2.754
		C31.113,30.735,34.094,31.716,34.427,34.234z"/>
	<path fill="#001E39" d="M119.685,33.054c-0.971,1.421-6.753,2.149-5.902-0.656C114.218,30.966,119.467,30.995,119.685,33.054z"/>
	<path fill="#001E39" d="M46.102,40.923c-1.635,0.083-2.916-1.183-4.329-1.836c-1.483-0.687-3.005-1.25-4.329-2.099
		c-0.34-4.06,4.745-0.754,6.952,0.918C45.314,38.602,46.3,40.186,46.102,40.923z"/>
	<path fill="#001E39" d="M108.274,35.939c0.361,1.347-0.979,1.341-2.1,1.836c-1.918,0.849-4.722,3.854-5.247,0
		C102.678,36.299,105.759,34.794,108.274,35.939z"/>
	<path fill="#001E39" d="M96.6,41.842c1.86,1.21-0.428,2.034-1.443,2.885c-1.126,0.944-1.574,2.641-3.41,2.23
		c-3.005-0.672,1.153-4.483,2.755-4.984C94.834,41.87,95.805,42.013,96.6,41.842z"/>
	<path fill="#001E39" d="M54.103,48.793c-0.969-0.071-1.792-0.998-2.887-1.836c-1.56-1.194-3.565-2.374-1.312-4.197
		C51.888,43.969,54.935,46.065,54.103,48.793z"/>
	<path fill="#001E39" d="M87.812,49.712c1.651,0.186,0.638,1.452,0,2.361c-0.367,0.521-0.638,1.521-0.918,1.705
		c-0.818,0.532-2.477,0.15-2.624-0.918C84.07,51.408,86.269,49.539,87.812,49.712z"/>
	<path fill="#001E39" d="M63.94,60.074c-1.539-0.168-2.981-2.803-4.196-4.329c-0.858-1.077-2.479-3.061,0-3.804
		C61.581,54.178,64.275,56.479,63.94,60.074z"/>
	<path fill="#001E39" d="M79.287,64.271c-3.343-0.442-0.58-5.125,1.18-5.64c2.562-0.75,1.369,1.499,0.788,2.754
		C80.619,62.759,80.846,63.904,79.287,64.271z"/>
	<path fill="#001E39" d="M66.694,63.091c1.358,0.252,3.642,2.994,3.936,4.59c0.18,0.974,0.026,2.377-0.787,2.493
		c-0.968,0.135-1.562-1.933-1.836-2.361C66.965,66.184,64.845,64.853,66.694,63.091z"/>
	<path fill="#001E39" d="M78.5,66.895c-0.535,2.003-1.241,3.594-1.574,5.509c-5.33,1.246-1.698-5.36,0-6.561
		C77.789,65.857,77.986,66.533,78.5,66.895z"/>
	<path fill="#001E39" d="M73.123,73.846c0.98,0.993,0.982,3.368-0.132,3.938C71.005,77.619,70.564,73.718,73.123,73.846z"/>
	<path fill="#001E39" d="M104.601,98.898c1.271,0.012,5.533-2.562,5.115,0.523c-0.229,1.699-5.718,2.695-7.869,3.018
		c-4.53,0.678-9.065,2.713-13.248,3.278c-6.293,0.853-13.056,1.218-19.938,1.183c-3.459-0.021-7.047-0.879-10.493-1.183
		c-5.004-0.438-10.118-0.868-14.43-1.704c-1.295-0.253-2.533-0.974-3.804-1.312c-2.973-0.795-5.11-1.573-7.739-2.624
		c-1.596-0.64-4.143-1.243-4.065-3.279c0.938-0.423,1.794,0.282,2.492,0.524c2.592-2.527,3.423-6.385,5.771-9.051
		c2.102-2.387,4.861-3.731,7.606-5.51c17.217-5.306,41.511-5.629,53.777,5.115c0.928,0.812,2.158,1.473,2.887,2.229
		c0.343,0.357,0.618,1.261,1.181,1.97C103.224,93.814,105.572,95.932,104.601,98.898z M101.322,95.096
		c-5.312-7.809-16.187-12.52-28.463-13.38c-2.862-0.2-6.049-0.261-8.919,0c-10.644,0.972-19.159,2.556-24.921,8.001
		c-1.474,1.393-2.016,3.691-3.018,5.51c-0.576,1.047-2.018,1.619-2.229,3.148c4.423,2.307,9.396,3.316,14.821,3.936
		c6.467,0.733,12.312,1.932,18.625,1.967c12.234,0.068,24.674-1.219,35.152-4.854C102.467,97.537,101.594,96.615,101.322,95.096z"/>
	<path fill="#001E39" d="M283.154,97.843c1.246,0.018,1.385-1.073,2.615-1.076c3.223,1.514-0.953,4.596-2.922,5.074
		c-1.465,0.355-3.295,0.001-4.92,0.46c-0.602,0.172-1.166,0.635-1.691,0.772c-1.326,0.341-2.793,0.104-4.15,0.308
		c-3.049,0.453-6.039,1.16-9.689,1.384c-16.18,0.992-33.883,1.187-49.668-0.923c-2.709-1.502-8.439-0.773-7.842-5.071
		c0.994-0.501,1.59,0.359,2.309,0.612c2.117-2.726,3.24-6.179,5.689-8.767c0.99-1.046,2.146-1.437,3.074-2.308
		c0.812-0.761,1.119-1.573,1.846-2.306c5.928-5.99,15.539-5.38,25.525-5.844c9.611-0.446,21.121,1.749,28.449,5.229
		c3.717,1.764,6.426,4.478,8.457,6.918C280.669,94.688,282.605,95.572,283.154,97.843z M272.698,89.386
		c-8.762-4.71-23.145-6.358-33.676-5.845c-3.531,0.173-7.395,0.354-10.305,1.234c-1.396,0.419-2.928,0.524-3.998,0.922
		c-3.146,1.164-4.463,3.064-6.459,5.072c-0.859,0.866-2.229,1.5-2.922,2.309c-1.879,2.185-3.607,4.892-4.613,7.534
		c15.113,2.688,32.166,2.589,47.824,1.538c4.076-0.271,8.021-0.733,11.533-1.385c3.871-0.718,7.107-1.027,10.303-1.998
		C278.392,95.391,276.345,91.347,272.698,89.386z"/>
	<path fill="#001E39" d="M153.264,87.227c-0.107,0.453,0.244,0.553,0,0.785c0.172,0.485,0.798,0.514,1.312,0.656
		c0.658-0.557-0.177-1.818,1.181-1.705c0.251,1.307,0.152,2.221,0.395,3.41c-0.173,0.132-0.486,0.124-0.523,0.395
		c-0.407-0.293-0.696-0.703-0.786-1.312c-0.6-0.116-0.744,0.22-1.181,0.263c0.046,0.527-0.003,0.961-0.395,1.051
		c-1.525-0.049-0.399-2.748-1.574-3.146c-0.971,0.547,0.027,1.891-0.264,3.279c-0.37,0.136-0.546,0.136-0.918,0
		c-0.237-0.898-0.166-2.108-0.523-2.887c-0.698-0.309-1.259,0.43-1.836-0.133c0.366,1.856-0.74,3.608-2.624,3.279
		c-3.131-0.548-0.146-6.592,2.493-3.41c0.188-0.251,0.304-0.568,0.394-0.918C150.186,86.335,152.071,86.505,153.264,87.227z
		 M145.394,89.848C150.074,90.346,144.371,85.434,145.394,89.848L145.394,89.848z"/>
	<path fill="#001E39" d="M165.2,87.227c0.059,0.914-0.279,1.354-0.525,2.229c0.303,0.485,1.221,0.354,1.312,1.051
		c-0.721,0.979-2.52,0.108-3.018-0.396c-0.494,0.029-0.342,0.709-0.787,0.787c-1.037-0.602-0.896-2.534-0.523-3.541
		C162.525,86.782,164.435,86.061,165.2,87.227z M162.575,88.93c0.658,0.242,1.988-0.365,1.443-1.311
		C163.179,87.693,162.48,87.915,162.575,88.93z"/>
	<path fill="#001E39" d="M47.778,92.975c1.905-0.126,5.995,0.025,6.474-2.052c0.821-3.555-6.021-3.442-7.737-1.737
		c0.023,3.659-0.282,6.747,0.631,9.477c-0.446,0.341-0.424,1.154-1.263,1.104c-1.068-4.712-0.273-7.783-1.105-11.844
		c2.997-1.453,10.136-2.293,10.738,1.736c0.267,1.788-1.381,3.349-3,4.104C51.477,93.441,47.961,95.476,47.778,92.975z"/>
	<path fill="#001E39" d="M57.885,87.923c-0.227,2.081-0.409,5.292,1.579,5.525c2.471,0.292,2.447-3.033,3.948-4.263
		c0.433,3.789-0.313,7.482-0.475,11.054c-2.113-0.585,0.078-5.427-0.948-6.948C58.796,97.783,53.834,90.493,57.885,87.923z"/>
	<path fill="#001E39" d="M70.834,88.395c0.46,1.94,0.727,3.185,0.948,5.212c1.439,0.122,2.414-0.219,3.79-0.16
		c0.919-1.08-0.053-4.05,1.422-4.578c0.908,2.244-0.696,5.758-0.631,8.526c0.022,0.914,0.585,1.815,0,2.527
		c-1.467-1.128-0.626-3.461-0.63-5.368c-1.062-0.553-2.833,0.399-3.948,0.79c-0.104,1.843,0.751,4.043,0.316,5.211
		c-1.497-0.336-1.108-2.312-1.263-3.634c-0.274-2.325-0.85-4.469-0.475-7.106c-0.589-0.527-1.961-0.252-2.528,0.159
		c0.125,3.253-0.218,6.31,0,8.844c-0.265,0-0.527,0-0.79,0c-0.747-1.912,0.012-6.196-0.788-8.526c-0.526-0.372-0.976,0.505-1.581,0
		c0.045-0.257-0.149-0.275-0.157-0.477C65.194,88.229,69.279,88.066,70.834,88.395z"/>
	<path fill="#001E39" d="M93.099,98.976c-2.845-0.786-4.511-2.752-6.317-4.579c-1.452,1.475,1.156,4.626-0.631,5.368
		c-0.025-0.185-0.287-0.133-0.475-0.157c0.315-3.664-1.579-7.603,0.79-9.475c0.888,3.373,3.142,5.384,5.843,6.947
		c0.382-2.583-0.768-5.832-2.211-7.579c0.093-0.327,0.333-0.511,0.475-0.79C92.897,90.625,94.297,95.332,93.099,98.976z"/>
	<path fill="#001E39" d="M82.046,89.817c0.18,0.345,0.408,0.644,0.316,1.264c2.646,1.087,1.745,7.524-0.63,7.897
		C76.667,99.765,77.632,89.693,82.046,89.817z M81.887,97.712c1.811-1.82,1.088-4.434,0.157-6.792
		C79.279,91.257,78.061,97.87,81.887,97.712z"/>
	<path fill="#001E39" d="M24.46,92.078c-2.037,1.277-4.855,1.381-5.901,3.542c-0.764,1.573-0.357,3.04,0.393,3.935
		c2.32,2.764,8.51,1.454,11.28,3.543c-3.271-1.183-10.382-0.16-12.329-3.147C15.221,95.834,20.844,91.656,24.46,92.078z"/>
	<path fill="#001E39" d="M248.556,93.075c-0.449-0.114-0.758-0.37-1.078-0.614c-1.391,0.574-1.479,3.802,0.154,4.151
		c0.773-0.098,0.658-1.085,1.232-1.383c1.389,0.302,1.365,2.017,1.689,3.383c-0.189-0.172-0.316-0.135-0.309,0.153
		c-0.99,0.068-0.953-0.892-1.537-1.23c-0.812-0.098-0.895,0.54-1.691,0.464c-1.689-0.923-2.617-3.865-1.23-5.69
		C246.615,91.219,249.298,90.693,248.556,93.075z"/>
	<path fill="#001E39" d="M132.408,92.341c0.132,0,0.264,0,0.395,0c0.311,1.88-0.354,4.021,0.395,5.509
		c0.812,0.28,2.015,0.174,2.229,1.051c-0.775,1.144-2.449-0.033-3.278-0.133C131.596,96.932,131.879,93.941,132.408,92.341z"/>
	<path fill="#001E39" d="M236.712,91.385c1.055,1.303,0.506,4.212,1.076,5.996C235.73,96.765,236.333,92.881,236.712,91.385z"/>
	<path fill="#001E39" d="M272.544,95.383c-1.568-0.136-0.859-2.614-1.23-3.539C273.083,89.986,273.327,94.699,272.544,95.383z"/>
	<path fill="#001E39" d="M230.872,98.919c-0.75-0.634-0.518-2.251-1.23-2.922c-0.455-0.22-1.041,0.548-1.693,0.615
		c-0.055,0.61,0.143,1.474-0.152,1.847c-2.562-0.978,0.105-4.957,0.309-6.615c0.123-0.131,0.42-0.089,0.463-0.307
		c0.152,0,0.307,0,0.459,0C230.241,92.588,231.87,97.392,230.872,98.919z M228.103,94.768c0.447,0.461,0.758,0.145,1.385,0.31
		c-0.033-0.891-0.16-1.687-0.922-1.846C228.47,93.799,228.198,94.195,228.103,94.768z"/>
	<path fill="#001E39" d="M243.327,91.692c-0.213,2.743,0.828,4.145,0.309,6.307c-1.973-0.079-2.35-1.754-3.539-2.614
		c-0.783,0.549,0.355,2.034-0.154,3.076c-0.979,0.076-0.994-1.102-1.076-1.691c-0.197-1.383-0.209-2.869-0.154-5.074
		c1.658,0.854,2.01,3.014,3.537,3.998C242.806,94.924,241.534,91.253,243.327,91.692z"/>
	<path fill="#001E39" d="M264.394,98.766c-0.643-0.231-1.152-0.592-1.385-1.23c0.445-0.891,1.182-0.147,1.844,0
		c0.121-1.84-2.521-1.984-2.613-3.844c-0.133-2.751,3.836-2.825,3.23,0.464c-0.938-0.04-0.725-1.225-1.537-1.387
		c-0.318,0.044-0.146,0.572-0.463,0.614c0.594,1.919,2.908,2.115,2.613,4.922C265.572,99.424,264.308,97.867,264.394,98.766z"/>
	<path fill="#001E39" d="M234.56,91.692c0.66,1.459-0.703,2.814-0.307,3.998c0.387,0.79,2.305,0.053,1.844,1.69
		c-1.078,0.057-2.732,0.447-3.385-0.461c0.545-1.362,0.5-2.368,0.924-3.845c-0.723-0.945-2.068,0.41-2.92-0.155
		C230.511,91.025,233.07,91.89,234.56,91.692z"/>
	<path fill="#001E39" d="M268.698,97.996c0.07,0.136,0.135,0.272,0.309,0.309c-0.768,0.194-3.156,0.062-2.307-1.385
		c0.738,0.105,1.529,0.548,2.307,0.153c-0.221-1.78-1.928-2.072-2.766-3.229c-0.156-1.078,0.678-1.168,0.768-2.001
		c1.311-0.39,2.791,0.369,2.152,1.848c-0.736,0.12-0.748-0.483-1.076-0.771c-0.137,0.121-0.348,0.168-0.613,0.155
		C268.462,94.09,271.978,97.359,268.698,97.996z"/>
	<path fill="#001E39" d="M140.147,99.686c-0.342-0.961-0.068-1.748-0.131-3.017c-0.659-0.349-1.561,0.063-2.1,0.263
		c-0.228,0.606,0.011,2.368-0.655,2.101c-1.214-2.166,0.521-6.511,2.229-6.165c1.394,0.279,0.867,1.804,1.574,3.017
		C140.307,96.891,141.778,99.449,140.147,99.686z M138.311,95.357c0.264,0.393,1.076,0.233,1.705,0.263
		c-0.164-0.755-0.226-1.612-1.05-1.706C138.844,94.491,138.357,94.704,138.311,95.357z"/>
	<path fill="#001E39" d="M258.089,91.999c0.611,0.991,2.039,0.284,3.385,0.308c-0.725,1.171-3.096,0.7-2.922,2.768
		c0.416,0.807,2.355-0.146,2.613,0.462c-0.355,0.721-1.344,0.811-1.846,1.384c1.023,0.379,1.699,0.325,2.768,0.463
		c0.213,0.486,0.031,0.513,0,1.078c-1.238,0.223-3.031,0.271-4.15,0C257.019,96.771,257.027,93.766,258.089,91.999z"/>
	<path fill="#001E39" d="M225.95,98.612c-1.535-0.262-0.895-2.695-1.537-3.845c-0.965,0.52-0.385,2.588-1.998,2.462
		c-0.408-0.876-0.441-2.125-1.232-2.613c0.041,1.066,0.756,3.584-0.768,3.538c0.15,0.443,0.514,1.221,0.154,1.692
		c-1.521-0.071-0.768-2.412-1.844-2.922c-2.002-0.206-2.287,2.12-3.23,2.46c-0.445-2.094,1.045-4.896,2.461-6.151
		c1.184,0.562,1.363,2.123,1.846,3.385c1.244-0.978-0.145-3.006,0.922-3.998c1.521-0.033,1.312,1.657,2.152,2.306
		c0.785-0.65,0.596-2.275,1.539-2.766C225.894,93.582,225.89,96.369,225.95,98.612z M217.185,96.15c0.41,0,0.82,0,1.23,0
		c0.039-0.758-0.137-1.298-0.768-1.383C217.456,95.191,217.197,95.549,217.185,96.15z"/>
	<path fill="#001E39" d="M177.529,95.096c-0.789,0.09-0.48-0.916-1.311-0.787c-0.484-0.092-0.326,0.459-0.523,0.655
		c1.029,1.42,3.486,2.755,2.359,5.115c-1.361,0.979-4.564,0.317-3.279-1.442c0.709-0.053,0.561,0.752,1.184,0.787
		c0.506,0.07,0.639-0.234,1.18-0.132c0.643-2.155-3.152-2.332-2.625-4.722C174.841,93.093,178.042,92.341,177.529,95.096z"/>
	<path fill="#001E39" d="M254.859,92.307c0.709,1.113,1.283,4.585,0.463,6.306c-1.436-0.666-2.264-1.939-3.383-2.922
		c-0.508,0.896,0.777,1.88,0.154,2.922c-1.957-0.556-1.256-3.768-1.998-5.537c0.314-0.044,0.301-0.414,0.613-0.462
		c1.783,0.573,2.088,2.627,3.537,3.537C255.003,95.452,253.663,92.938,254.859,92.307z"/>
	<path fill="#001E39" d="M151.821,94.045c-0.354,0.544-0.654,0.209-1.312,0.133c-1.228,0.573-2.201,2.791-1.049,3.937
		c0.774-0.23,0.92-1.093,1.836-1.183c0.322,1.033,1.08,1.631,1.182,2.887c-1.306,0.699-0.966-1.164-1.574-1.573
		c-0.788,0.218-0.964,1.046-1.968,1.049C146.546,97.464,149.477,91.404,151.821,94.045z"/>
	<path fill="#001E39" d="M160.74,93.391c0.822,2.371,1.629,4.364,1.574,7.344c-1.504-0.359-0.516-2.438-1.312-3.541
		c-0.752,0.211-1.312,0.38-1.969,0.921c0.184,0.59,0.584,0.866,0.133,1.44C156.767,98.32,158.417,92.841,160.74,93.391z
		 M159.167,96.669c0.635,0.022,1.119-0.104,1.572-0.263C160.95,93.568,158.734,94.771,159.167,96.669z"/>
	<path fill="#001E39" d="M142.64,93.783c1.146,1.085,1.557,2.902,3.016,3.672c0.585-1.092-0.662-3.203,0.656-3.541
		c0.271,1.852,1.182,4.266,0.263,5.771c-1.379-0.545-2.112-1.734-3.147-2.623c-0.735,0.515,0.792,2.373-0.785,2.359
		C142.804,98.025,141.136,95.117,142.64,93.783z"/>
	<path fill="#001E39" d="M166.904,95.227c-0.625,0.103-0.582-0.467-1.18-0.394c-1.426,0.347-2.002,3.627-0.656,4.459
		c1.062-0.336,1.184-1.615,2.23-1.968c0.297,0.839,1.361,2.015,0.654,3.018c-0.688-0.1-0.85-0.724-1.18-1.181
		c-0.674,0.638-1.203,1.42-2.756,1.181c-0.117-0.23-0.293-0.406-0.523-0.523c0.168-0.933-0.293-1.61-0.264-2.492
		C163.316,94.863,166.441,92.135,166.904,95.227z"/>
	<path fill="#001E39" d="M156.544,94.045c0.861,1.865,0.686,7.337-2.1,6.297c-1.031-0.386-2.811-4.709-0.918-5.902
		c0.536,1.606,0.022,4.262,1.573,4.854C157.327,98.887,155.027,94.628,156.544,94.045z"/>
	<path fill="#001E39" d="M172.939,94.57c-0.512,0.933-2.252,0.635-2.492,1.836c0.416,0.562,2.096-0.282,2.887,0.394
		c-0.445,0.866-2.094,0.531-2.492,1.443c0,0.657,0.418,0.894,0.787,1.181c0.604,0.274,1.01-0.391,1.441,0.131
		c-2.385,3.448-4.799-2.428-3.146-4.984C171.138,94.652,171.798,94.23,172.939,94.57z"/>
	<path fill="#001E39" d="M272.698,98.459C269.327,98.55,273.632,94.662,272.698,98.459L272.698,98.459z"/>
	<path fill="#001E39" d="M197.204,104.275c-1.748,0.719-4.123,2.561-6.689,3.147c-0.754,0.175-1.688-0.004-2.49,0.132
		c-2.125,0.354-4.285,1.187-6.035,1.312c-0.943,0.067-2.736,0.062-2.885-1.312c0.344-0.451,1.148,0.021,1.967-0.132
		c0.383,0.138,0.324,0.511,0.395,0.655c0.631,0.05,0.113-0.229,0.523-0.395C187.003,107.961,192.919,106.014,197.204,104.275z"/>
	<path fill="#001E39" d="M105.651,104.539c0.151-0.021,0.232,0.029,0.263,0.131c-2.307,1.411-5.268,1.786-8.134,2.623
		c-5.838,1.708-13.362,3.9-20.854,3.673c-3.589-0.108-7.169,0.255-10.23-0.918c0.907,0.138,2.4,0.039,3.147,0.394
		c3.375-0.646,6.555,0.115,9.706,0c9.113-0.328,17.154-3.914,25.972-5.51C105.482,104.721,105.643,104.707,105.651,104.539z"/>
	<path fill="#001E39" d="M233.025,111.221c-0.967,0.592-2.232,0.03-3.691,0c-4.373-0.088-10.375-0.115-13.377-2.46
		c0-0.153,0-0.307,0-0.463c0.123-0.08,0.25-0.162,0.463-0.153c0.965,0.469,2.211,0.658,2.922,1.386
		C223.72,110.875,229.388,109.93,233.025,111.221z"/>
	<path fill="#001E39" d="M111.159,107.162c-0.654,0.831-2.067,0.904-2.754,1.705c-3.911,1.591-8.282,3.322-12.592,4.723
		c-1.251,0.405-2.412,0.665-3.805,0.918c-1.064,0.192-2.45,0.5-3.017,0c4.947-1.244,10.016-1.964,14.034-4.328
		C106.228,109.833,108.303,106.98,111.159,107.162z"/>
	<path fill="#001E39" d="M176.874,110.18c-0.91,0.516-2.369,0.948-3.41,0.262C171.855,106.846,178.448,106.252,176.874,110.18z
		 M174.513,109.786c0.658,0.047,1.189-0.036,1.574-0.265C176.265,107.695,173.759,108.113,174.513,109.786z"/>
	<path fill="#001E39" d="M170.185,112.671c-0.85-2.147,1.793-2.719,2.754-1.967C173.757,112.645,171.931,113.809,170.185,112.671z
		 M171.232,111.49c-0.039,0.521,0.254,0.71,0.789,0.656c0-0.221,0-0.438,0-0.656C171.607,111.557,171.507,111.204,171.232,111.49z"
		/>
	<path fill="#001E39" d="M164.808,125.001c-0.52,1.254-0.643,3.405-1.969,3.672c-1.301,0.263-2.248-1.021-2.494-2.491
		c-1.658-0.361-3.643,0.653-4.458-0.394c-1.241-1.593,1.337-4.397,3.804-3.937c-0.879-6.615,4.92-10.92,10.889-8.264
		c0.898,1.036,1.773,2.208,1.967,3.674C173.169,122.018,168.691,124.32,164.808,125.001z M166.118,123.82
		c4.146-0.932,7.33-6.078,3.541-9.312c-0.799-0.164-1.654-0.269-1.969-0.918c-4.1-0.229-7.998,3.686-6.559,8.133
		c-0.711,0.461-0.188,0.993-1.049,1.312c-1.156,0.426-3.369-0.567-3.146,1.705c1.264,0.716,2.631,0.23,4.195,0.395
		c0.455,0.9,0.516,2.195,1.574,2.491c0.789-0.603,0.85-1.731,0.654-3.019C163.802,123.371,164.98,124.076,166.118,123.82z"/>
	<path fill="#001E39" d="M173.726,116.475c-2.346-3.101,2.818-4.326,2.492-1.181C176.115,116.288,175.064,116.9,173.726,116.475z
		 M174.12,115.163c0.312,0.123,0.348,0.526,0.916,0.394c0.309-0.604-0.133-1.146-0.654-1.312
		C174.359,114.617,174.142,114.792,174.12,115.163z"/>
	<path fill="#001E39" d="M165.726,119.229c-0.873-0.683-1.312-1.812-1.182-2.623c0.375-2.297,4.58-2.321,4.723-0.263
		C169.376,117.938,167.148,118.773,165.726,119.229z M167.429,117.264c-0.6-0.057-0.672-0.641-1.18-0.789
		C165.318,117.418,166.95,118.311,167.429,117.264z"/>
	<path fill="#001E39" d="M165.331,120.146c0.061,0.76-0.746,0.653-0.787,1.312c0.807,1.466,1.25-0.813,2.359-0.657
		c0.596,1.523-1.219,2.299-3.018,2.23C162.745,121.989,164.031,119.85,165.331,120.146z"/>
	<path fill="#001E39" d="M163.626,24.397c0.895,1.659,1.953,4.139-0.918,4.328c-1.062,1.445-1.67,2.685-4.197,2.492
		c-0.664,1.078-1.346,2.658-1.703,4.197c-0.271,1.16-0.859,2.812-0.789,3.673c0.079,0.962,1.404,2.864,2.101,3.804
		c2.807,3.798,7.521,7.479,12.982,7.87c0.439,0.566,1.52,0.494,1.838,1.181c-0.049,1.134-0.896,1.465-1.443,2.099
		c-7.555,0.269-12.189-4.576-16.657-8.263c-0.084,3.537-0.884,7.226-0.655,10.362c0.124,1.708,0.758,3.342-0.918,4.328
		c-2.32-0.319-3.754,0.335-5.771,0.263c2.171,5.492,4.098,11.833,6.165,16.658c6.738,0.174,15.062,0.537,20.462,2.756
		c3.902,1.604,7.535,4.805,10.361,7.606c0.998,0.99,1.859,2.235,2.621,3.673c1.559,2.936,3.225,5.344,4.197,8.656
		c0.76,0.104,1.121-0.189,1.838-0.131c0.4,0.343,0.633,0.854,0.918,1.312c-0.475,1.3-2.08,1.062-3.148,1.443
		c-0.465,0.164-0.844,0.625-1.311,0.786c-1.01,0.35-2.291,0.158-3.543,0.263c-2.461,0.202-4.49,1.128-7.082,1.442
		c-2.646,0.322-5.406,0.031-8.266,0.131c-2.984,0.105-6.023,0.679-9.049,0.919c-2.402,0.19-5.184-0.228-7.871-0.394
		c-5.156-0.318-10.575-0.127-15.216-0.787c-0.733-0.104-1.357-0.51-2.099-0.656c-0.94-0.186-1.997,0.023-2.887-0.131
		c-2.641-0.459-5.771-1.508-8.656-2.229c-2.489-0.623-5.466-0.733-6.297-3.017c0.177-0.088,0.244-0.281,0.263-0.524
		c0.848-0.362,1.182-0.137,2.1-0.263c5.909-10.225,14.123-18.78,28.199-20.069c-2.104-6.289-4.326-12.461-7.083-18.1
		c-0.647,0.182-0.798,0.864-1.572,0.918c-0.743-0.657-2.023-0.796-3.019-0.262c-0.954-1.323-2.809-0.152-3.805-1.312
		c-1.504,1.566-4.203,1.129-6.033,2.361c-3.159,0.566-6.443,1.328-10.101,1.443c-1.138,0.036-2.502-0.277-3.672,0
		c-2.267,0.537-4.854,4.384-7.739,2.885c-0.885-4.206,3.865-4.935,5.115-7.87c5.187,0.628,10.938,0.426,15.346-1.574
		c-1.275-0.604-2-1.76-3.541-2.099c-0.147-3.383,4.452-2.018,5.509-4.197c-1.471-0.51-2.779,0.365-4.328,0
		c-3.406-0.802-6.516-3.716-5.114-7.607c0.619-0.686,1.841-0.562,2.491,0c-0.031,0.699,0.531,1.627-0.262,2.099
		c-0.778,0.078-0.289-1.11-0.919-1.18c-1.757,1.877,2.333,3.342,3.673,2.229c-0.916-1.981,0.09-4.874,1.706-5.377
		c2.148-0.669,4.717,2.528,6.688,0.524c-4.619-0.707-10.844-5.216-8.396-11.149c0.28-0.68,0.769-0.718,1.181-1.443
		c2.658-1.016,5.187,2.567,1.969,3.279c-0.646-0.533,0.208-1.295,0-1.705c-0.978-0.72-1.994,0.569-1.969,1.312
		c0.084,2.407,5.582,3.423,7.608,2.361c-2.812-2.634-2.181-8.007,1.312-9.575c1.713-0.68,3.262,1.927,1.181,2.361
		c-0.546-0.065-0.369-0.855-0.654-1.181c-1.937,1.42-0.092,3.815,1.441,4.066c2.3,0.376,4.507-1.137,5.901-2.623
		c0.906-0.966,1.161-2.104,1.705-3.148c1.816-3.488,3.705-6.675,5.642-8.919c2.586-1.483,5.793-2.439,9.182-2.099
		c1.857,1.259,5.189,2.62,6.166,4.984C165.736,19.823,164.911,22.795,163.626,24.397z M157.068,13.51c0.072,0,0.146-0.106,0-0.131
		c-4.037,0.554-7.109,2.072-8.657,5.116c-0.173-0.168-0.483-0.168-0.656,0c-2.896,5.759-5.299,12.383-11.147,15.215
		c-1.297,0.627-2.823,1.016-4.197,1.311c-2.507,0.539-4.989,0-7.083-1.443c0.976,4.464,5.63,6.473,9.838,6.165
		c3.323-2.841,5.399-6.93,9.707-8.788c0.771,0.743-0.205,1.379-1.051,1.312c-1.999,2.052-3.573,3.92-5.771,5.903
		c-0.554,0.506-1.09,1.29-1.705,1.967c-0.536,0.592-1.606,1.151-1.441,1.705c2.953-0.728,6.741-0.595,9.575-1.967
		c1.412-0.684,2.605-2.157,4.065-3.148c3.853-2.616,6.038-6.098,6.819-11.412c-0.798-0.334-1.293-0.561-1.441-1.312
		c-0.834-4.167,5.493-2.384,7.739-3.672c0.061-0.766-0.686-0.82-0.133-1.443c1.338-0.188,1.691,1.708,1.969,3.016
		C165.837,17.027,160.095,14.232,157.068,13.51z M162.183,21.118c-0.883,1.004-2.748,0.935-4.197,1.049
		c-0.248,0.233,0,0.961-0.523,0.918c-0.674-0.025-0.555-0.846-1.049-1.049c-0.938,0.132-1.75,1.355-0.918,2.099
		c0.486,0.002,1.268-0.637,1.573,0c-0.895,2.907-1.462,6.146-3.017,8.394c0.535,0.821,0.869,1.841,1.836,2.23
		c0.591-1.552,1.011-3.275,1.705-4.722c3.094,0.668,3.635-2.062,5.902-2.624C162.736,25.445,162.993,22.786,162.183,21.118z
		 M134.377,33.185c2.38-0.374,3.957-1.552,5.247-3.017c-2.375,0.527-6.186,0.42-6.951-2.361
		C131.701,30.173,133.369,31.945,134.377,33.185z M152.084,35.809c0.286,0.282,0.655,0.48,1.182,0.524
		c-0.015-0.359,0.462-1.936-0.132-2.361C152.877,34.678,152.13,34.893,152.084,35.809z M144.737,56.795
		c0.527,0.303,1.616,0.045,2.361,0.131c1.565-4.239,5.307-8.021,6.297-12.724c0.097-0.465,0.226-1.285-0.133-1.705
		c-1.132,4.159-3.459,7.122-4.854,11.018c-1.112,0.592-1.271,2.836-2.622,2.754c3.798-6.018,7.414-12.692,8.919-20.593
		c-0.162-0.275-0.382-0.493-0.655-0.656C152.416,43.687,147.935,50.188,144.737,56.795z M150.641,36.595
		c-2.227,1.153-3.929,3.576-6.69,4.59c-0.752,0.277-1.551,0.516-2.359,0.656c-3.658,0.637-7.631,1.539-11.019,0.918
		c-1.92-0.352-3.714-1.767-4.984-0.787c-1.383,2.457,1.826,3.84,3.018,1.967c2.323,0.674,4.51,0.953,6.56,0.787
		c4.311-0.348,8.45-0.428,11.937-2.623c1.883-1.186,4.177-2.772,5.114-4.59C151.757,36.968,151.148,36.333,150.641,36.595z
		 M150.115,42.104c-1.763,5.452-5.318,9.808-7.214,14.691c1.844-0.38,2.424-2.527,3.147-3.935c1.92-3.735,4.305-7.281,5.509-11.411
		c0.072,0,0.148-0.106,0-0.131c-0.008-0.08-0.02-0.155-0.132-0.132C151.043,41.543,150.546,41.791,150.115,42.104z M155.231,42.76
		c2.913,3.929,7.497,7.924,12.723,9.444c0.768,0.223,2.518,0.835,3.148-0.131c-7.529-1.214-12-5.49-15.608-10.624
		C155.386,41.866,155.409,42.414,155.231,42.76z M140.673,56.664c0.365,0.299,0.646-0.132,1.049,0.131
		c2.909-4.174,5.235-8.931,7.478-13.773c-0.027-0.102-0.109-0.152-0.263-0.131C146.601,47.828,143.564,52.715,140.673,56.664z
		 M147.361,43.81c-3.071,3.966-5.735,8.342-8.396,12.723c1.547,0.433,2.128-1.474,2.754-2.361c2.227-3.154,4.372-6.707,6.033-10.231
		C147.588,43.934,147.573,43.772,147.361,43.81z M137,56.27c0.695,0.494,1.549-0.131,1.836-0.525
		c1.859-2.549,4.28-6.655,5.771-9.575c0.434-0.221,1.141-0.971,0.655-1.312C142.863,49.277,139.421,52.529,137,56.27z
		 M142.64,45.777c-1.771,4.044-4.958,6.672-7.478,9.968c0.252,0.185,0.527,0.347,0.918,0.394c2.062-2.154,3.798-4.659,5.509-7.083
		c0.868-1.23,2.302-2.198,2.229-3.673C143.339,45.426,143.094,45.707,142.64,45.777z M128.867,45.777
		c-0.507,0.951-2.335,1.081-3.673,0.787c-1.115,0.596-2.032,0.756-3.278,0.788c1.043,1.68,4.32,2.36,6.559,1.311
		c2.276,1.074,5.027-0.029,6.033-1.967C132.466,46.467,130.779,46.319,128.867,45.777z M133.326,55.09
		c1.593,0.773,2.862-1.261,3.805-2.362c1.104-1.287,2.139-2.8,3.147-3.804c0.24-1.158,1.157-1.64,1.312-2.885
		c-0.132,0-0.263,0-0.395,0C139.479,49.961,136.061,52.183,133.326,55.09z M139.229,46.433c-1.761,3.485-4.9,5.592-8,7.739
		c0.163,0.361,0.669,0.379,0.917,0.656c3.479-2.029,6.131-4.888,8.133-8.395C139.97,46.123,139.635,46.454,139.229,46.433z
		 M137.787,46.563c-2.376,2.478-4.66,5.046-8.396,6.165c0.669,1.503,1.492,0.729,2.491,0.132c2.438-1.458,5.766-3.961,6.428-6.296
		C138.136,46.563,137.962,46.563,137.787,46.563z M135.95,47.351c0.385-0.009,0.487-0.3,0.656-0.525
		C136.191,46.426,136.069,47.061,135.95,47.351z M147.886,56.926c0.918-0.229,1.363-1.279,1.837-1.968
		c0.509-0.74,1.126-1.625,1.312-2.624c0.767-0.677,1.037-1.848,1.573-2.754c0.028-0.552,0.139-1.198,0.524-1.705
		c-0.373,0.022,0.158-0.858-0.395-0.656C151.51,50.758,149.088,53.797,147.886,56.926z M128.604,52.073
		c2.311,0.119,4.84-1.803,6.166-3.542C132.998,49.845,129.698,50.945,128.604,52.073z M149.461,56.664
		c0.516,0.272,1.284,0.289,2.099,0.263c0.348-0.835,1.483-1.576,0.919-2.886c-0.729,0.756-0.887,2.088-1.969,2.492
		c0.675-1.907,2.807-3.695,2.1-5.771C151.626,52.795,150.318,54.505,149.461,56.664z M127.425,53.122
		c-0.927,0.213-2.539-0.612-2.886,0.656c0.636,0.646,2.581-0.134,2.755,0.656c0.213,0.653-0.492,0.781-0.131,1.181
		c0.521-0.111,1.11-0.014,1.706,0.131c-0.077,0.513,0.111,0.762,0.262,1.05c0.817-0.1,1.407-0.43,2.229-0.525
		c0.184,0.487,0.212,1.872,1.312,1.836c0.322-0.246,0.577-0.56,1.181-0.524c0.593,0.282,0.656,1.092,1.181,1.443
		c0.696-0.003,0.845-0.556,1.705-0.394c0.338,0.318,0.462,0.851,1.051,0.918c0.971-0.715,2.217-0.244,3.017,0.262
		c0.62-0.342,1.038-0.886,1.705-1.181c0.553,0.236,0.741,0.833,1.051,1.312c1.476,0.632,2.409-1.487,4.064-0.393
		c0.49-0.121,0.689-0.535,1.182-0.656c0.456,0.067,0.262,0.788,0.918,0.656c0.694-0.092,0.88-0.695,1.573-0.787
		c0.56,0.141,0.764,0.636,1.442,0.656c0.136-0.302,0.451-0.423,0.395-0.918C144.941,57.794,132.752,59.092,127.425,53.122z
		 M129.13,57.844c-0.162-0.188-0.452-0.248-0.788-0.262c-4.281,1.548-10.613,2.684-16.525,1.836
		c-1.01,1.929-4.083,2.464-4.065,4.984c1.968-0.049,3.379-1.776,4.854-2.754c5.673-0.21,13.588-0.021,18.231-2.886
		c-0.006-0.519-0.289-0.761-0.395-1.181C129.666,57.618,129.504,57.545,129.13,57.844z M152.871,79.093
		c-0.771-1.303-0.695-2.93-1.182-4.327c-0.351-1.009-1.062-1.994-1.441-3.019c-1.407-3.795-2.431-7.834-4.197-11.148
		c-0.521-0.085-0.527,0.347-1.05,0.262c1.403,4.206,3.108,8.217,4.591,12.723c1.761,5.354,3.307,9.486,7.871,11.411
		C158.165,81.316,154.154,81.262,152.871,79.093z M158.116,86.568c0.867-0.053,2.385-0.521,2.492,0.264
		c0.094,0.679-2.119,0.208-1.967,1.441c0.521,0.373,1.578-0.381,1.836,0.395c-0.105,0.637-1.117,0.369-1.182,1.049
		c0.299,0.356,1.143,0.169,1.049,0.919c-2.707,1.509-3.439-1.448-2.754-4.065c-3.072-1.08-5.376-2.932-7.083-5.379
		c-13.765,0.388-21.836,8.543-26.89,18.494c3.976,0.869,8.795,2.008,12.33,2.494c2.305,0.314,4.779,1.014,7.083,1.18
		c11.473,0.82,22.021,0.102,32.792-0.654c0.736-0.055,1.727,0.26,2.49,0.131c0.822-0.141,1.482-0.583,2.361-0.654
		c2.846-0.236,5.742-0.795,8.264-1.574c-4.166-10.103-11.092-18.797-23.871-19.412c-2.354-0.928-5.322-1.235-8.658-1.182
		C158.011,81.355,159.312,84.29,158.116,86.568z"/>
	<path fill="#001E39" d="M19.672,91.16c-3.312,0.412-7.994,0.875-11.542,1.572c-2,1.426-5.26,2.08-6.296,4.065
		c-0.412,0.792,0.744,2.604,1.573,3.279c1.849,1.505,6.081,1.774,8.265,2.624c1.223-0.068,2.403,0.545,2.36,1.312
		c-3.18-1.688-15.09-1.205-12.723-8.003c0.378-0.06,0.409-0.464,0.918-0.393c0.751-1.261,2.446-1.576,3.541-2.493
		C10.208,92.123,15.945,90.294,19.672,91.16z"/>
	<path fill="#001E39" d="M287.902,104.407c2.35-1.534,8.9-1.771,9.053-5.64c0.133-3.509-3.916-3.801-6.299-5.379
		c-0.035-0.213,0.125-0.227,0.133-0.395c3.576,0.456,9.301,4.119,5.902,8.001C294.98,102.954,290.654,104.413,287.902,104.407z"/>
	<path fill="#001E39" d="M308.904,94.125c1.094,0.917,2.789,1.232,3.541,2.493c0.508-0.071,0.539,0.333,0.918,0.393
		c2.367,6.798-9.543,6.315-12.723,8.003c-0.043-0.768,1.137-1.381,2.359-1.312c2.184-0.85,6.416-1.119,8.266-2.624
		c0.828-0.675,1.984-2.487,1.572-3.279c-1.035-1.985-4.295-2.64-6.295-4.065c-3.549-0.697-8.23-1.16-11.543-1.572
		C298.726,91.294,304.464,93.123,308.904,94.125z"/>
</g>
</svg>
